<svg width="16" height="16" viewBox="0 0 16 16" fill="none" xmlns="http://www.w3.org/2000/svg">
<path fill-rule="evenodd" clip-rule="evenodd" d="M1 1.5C1 1.22386 1.22386 1 1.5 1H14.5C14.7761 1 15 1.22386 15 1.5C15 1.77614 14.7761 2 14.5 2H1.5C1.22386 2 1 1.77614 1 1.5ZM6 3H4C3.44772 3 3 3.44772 3 4V14C3 14.5523 3.44772 15 4 15H6C6.55228 15 7 14.5523 7 14V4C7 3.44772 6.55228 3 6 3ZM4 14V4H6V14H4ZM10 3H12C12.5523 3 13 3.44772 13 4V10C13 10.5523 12.5523 11 12 11H10C9.44771 11 9 10.5523 9 10V4C9 3.44772 9.44771 3 10 3ZM10 4V10H12V4H10Z" fill="black"/>
</svg>
