<svg width="16" height="16" viewBox="0 0 16 16" fill="none" xmlns="http://www.w3.org/2000/svg">
<path fill-rule="evenodd" clip-rule="evenodd" d="M6 2H4V13H6V2ZM4 1C3.44772 1 3 1.44772 3 2V7H1.5C1.22386 7 1 7.22386 1 7.5C1 7.77614 1.22386 8 1.5 8H3V13C3 13.5523 3.44772 14 4 14H6C6.55228 14 7 13.5523 7 13V8H9V11C9 11.5523 9.44772 12 10 12H12C12.5523 12 13 11.5523 13 11V8H14.5C14.7761 8 15 7.77614 15 7.5C15 7.22386 14.7761 7 14.5 7H13V4C13 3.44772 12.5523 3 12 3H10C9.44772 3 9 3.44772 9 4V7H7V2C7 1.44772 6.55228 1 6 1H4ZM10 4H12V11H10V4Z" fill="black"/>
</svg>
