<svg width="16" height="16" viewBox="0 0 16 16" fill="none" xmlns="http://www.w3.org/2000/svg">
<path fill-rule="evenodd" clip-rule="evenodd" d="M14 1.5C14 1.22386 14.2239 1 14.5 1C14.7761 1 15 1.22386 15 1.5V14.5C15 14.7761 14.7761 15 14.5 15C14.2239 15 14 14.7761 14 14.5V1.5ZM12 9H2C1.44772 9 1 9.44771 1 10V12C1 12.5523 1.44772 13 2 13H12C12.5523 13 13 12.5523 13 12V10C13 9.44771 12.5523 9 12 9ZM2 12V10H12V12H2ZM6 3H12C12.5523 3 13 3.44772 13 4V6C13 6.55228 12.5523 7 12 7H6C5.44772 7 5 6.55228 5 6V4C5 3.44772 5.44772 3 6 3ZM6 4V6H12V4H6Z" fill="black"/>
</svg>
