<svg width="16" height="16" viewBox="0 0 16 16" fill="none" xmlns="http://www.w3.org/2000/svg">
<path fill-rule="evenodd" clip-rule="evenodd" d="M1 1.5C1 1.22386 1.22386 1 1.5 1C1.77614 1 2 1.22386 2 1.5V14.5C2 14.7761 1.77614 15 1.5 15C1.22386 15 1 14.7761 1 14.5V1.5ZM14 9H4C3.44772 9 3 9.44771 3 10V12C3 12.5523 3.44772 13 4 13H14C14.5523 13 15 12.5523 15 12V10C15 9.44771 14.5523 9 14 9ZM4 12V10H14V12H4ZM4 3H10C10.5523 3 11 3.44772 11 4V6C11 6.55228 10.5523 7 10 7H4C3.44772 7 3 6.55228 3 6V4C3 3.44772 3.44772 3 4 3ZM4 4V6H10V4H4Z" fill="black"/>
</svg>
