<svg width="16" height="16" viewBox="0 0 16 16" fill="none" xmlns="http://www.w3.org/2000/svg">
<path fill-rule="evenodd" clip-rule="evenodd" d="M6 1H4C3.44772 1 3 1.44772 3 2V12C3 12.5523 3.44772 13 4 13H6C6.55228 13 7 12.5523 7 12V2C7 1.44772 6.55228 1 6 1ZM4 12V2H6V12H4ZM1 14.5C1 14.2239 1.22386 14 1.5 14H14.5C14.7761 14 15 14.2239 15 14.5C15 14.7761 14.7761 15 14.5 15H1.5C1.22386 15 1 14.7761 1 14.5ZM10 5H12C12.5523 5 13 5.44772 13 6V12C13 12.5523 12.5523 13 12 13H10C9.44771 13 9 12.5523 9 12V6C9 5.44772 9.44771 5 10 5ZM10 6V12H12V6H10Z" fill="black"/>
</svg>
