<svg width="16" height="16" viewBox="0 0 16 16" fill="none" xmlns="http://www.w3.org/2000/svg">
<path fill-rule="evenodd" clip-rule="evenodd" d="M3.97287 13.984C3.97287 14.269 4.20887 14.5 4.5 14.5C4.79113 14.5 5.02713 14.269 5.02713 13.984V3.47555L6.60013 4.97324C6.80599 5.17476 7.13975 5.17476 7.34561 4.97324C7.55147 4.77172 7.55147 4.44499 7.34561 4.24347L4.5 1.5L1.65439 4.24347C1.44854 4.44499 1.44854 4.77172 1.65439 4.97324C1.86025 5.17476 2.19401 5.17476 2.39987 4.97324L3.97287 3.47555V13.984ZM12.0271 2.01602C12.0271 1.73103 11.7911 1.5 11.5 1.5C11.2089 1.5 10.9729 1.73103 10.9729 2.01602L10.9729 12.5244L9.39987 11.0268C9.19401 10.8252 8.86025 10.8252 8.65439 11.0268C8.44854 11.2283 8.44854 11.555 8.65439 11.7565L11.5 14.5L14.3456 11.7565C14.5515 11.555 14.5515 11.2283 14.3456 11.0268C14.1397 10.8252 13.806 10.8252 13.6001 11.0268L12.0271 12.5244L12.0271 2.01602Z" fill="black"/>
</svg>
