<svg width="16" height="16" viewBox="0 0 16 16" fill="none" xmlns="http://www.w3.org/2000/svg">
<path fill-rule="evenodd" clip-rule="evenodd" d="M3.5 2.91421L2.47487 3.93934C2.27961 4.1346 1.96303 4.1346 1.76777 3.93934C1.5725 3.74408 1.5725 3.4275 1.76777 3.23223L4 1L6.15685 3.15685C6.35212 3.35212 6.35212 3.6687 6.15685 3.86396C5.96159 4.05922 5.64501 4.05922 5.44975 3.86396L4.5 2.91421V9.04148C5.75625 9.25224 6.74776 10.2437 6.95852 11.5H13.0858L11.9853 10.3995C11.79 10.2042 11.79 9.88765 11.9853 9.69239C12.1805 9.49713 12.4971 9.49713 12.6924 9.69239L15 12L12.7678 14.2322C12.5725 14.4275 12.2559 14.4275 12.0607 14.2322C11.8654 14.037 11.8654 13.7204 12.0607 13.5251L13.0858 12.5H6.95852C6.72048 13.9189 5.4865 15 4 15C2.34315 15 1 13.6569 1 12C1 10.5135 2.08114 9.27952 3.5 9.04148V2.91421ZM4 10C5.10457 10 6 10.8954 6 12C6 13.1046 5.10457 14 4 14C2.89543 14 2 13.1046 2 12C2 10.8954 2.89543 10 4 10Z" fill="black"/>
</svg>
