<svg width="16" height="16" viewBox="0 0 16 16" fill="none" xmlns="http://www.w3.org/2000/svg">
<path fill-rule="evenodd" clip-rule="evenodd" d="M3.93934 13.5251L2.91421 12.5H9.04148C9.27952 13.9189 10.5135 15 12 15C13.6569 15 15 13.6569 15 12C15 10.5135 13.9189 9.27952 12.5 9.04148V2.91421L13.5251 3.93934C13.7204 4.1346 14.037 4.1346 14.2322 3.93934C14.4275 3.74408 14.4275 3.4275 14.2322 3.23223L12 1L9.84315 3.15685C9.64788 3.35212 9.64788 3.6687 9.84315 3.86396C10.0384 4.05922 10.355 4.05922 10.5503 3.86396L11.5 2.91421V9.04148C10.2437 9.25224 9.25224 10.2437 9.04148 11.5H2.91421L4.01472 10.3995C4.20998 10.2042 4.20998 9.88765 4.01472 9.69239C3.81946 9.49713 3.50287 9.49713 3.30761 9.69239L1 12L3.23223 14.2322C3.4275 14.4275 3.74408 14.4275 3.93934 14.2322C4.1346 14.037 4.1346 13.7204 3.93934 13.5251ZM14 12C14 13.1046 13.1046 14 12 14C10.8954 14 10 13.1046 10 12C10 10.8954 10.8954 10 12 10C13.1046 10 14 10.8954 14 12Z" fill="black"/>
</svg>
