<svg width="16" height="16" viewBox="0 0 16 16" fill="none" xmlns="http://www.w3.org/2000/svg">
<path fill-rule="evenodd" clip-rule="evenodd" d="M14.5 15C14.7761 15 15 14.7761 15 14.5C15 14.2239 14.7761 14 14.5 14L7.45975 14L9.80825 11.862C10.0298 11.6604 10.0298 11.3118 9.80825 11.1102C9.61428 10.9336 9.3178 10.9336 9.12382 11.1102L8 12.1333L8 2L14.5 2C14.7761 2 15 1.77614 15 1.5C15 1.22386 14.7761 1 14.5 1L0.500001 0.999999C0.223859 0.999999 1.20435e-06 1.22386 1.18021e-06 1.5C1.15607e-06 1.77614 0.223859 2 0.500001 2L7 2L7 12.2066L5.87618 11.1835C5.6822 11.0069 5.38572 11.0069 5.19175 11.1835C4.97024 11.3851 4.97024 11.7336 5.19175 11.9353L7.45975 14L0.5 14C0.223858 14 6.78525e-08 14.2239 4.37114e-08 14.5C1.95703e-08 14.7761 0.223858 15 0.5 15L14.5 15ZM14 6.5C14 6.77614 13.7761 7 13.5 7L10 7L10 6L13.5 6C13.7761 6 14 6.22386 14 6.5ZM1 6.5C1 6.77614 1.22386 7 1.5 7L5 7L5 6L1.5 6C1.22386 6 1 6.22386 1 6.5Z" fill="black"/>
</svg>
