<svg width="16" height="16" viewBox="0 0 16 16" fill="none" xmlns="http://www.w3.org/2000/svg">
<path fill-rule="evenodd" clip-rule="evenodd" d="M0.5 1C0.223858 1 0 1.22386 0 1.5C0 1.77614 0.223858 2 0.5 2H7.54025L5.19175 4.13799C4.97024 4.33965 4.97023 4.68815 5.19175 4.88981C5.38572 5.0664 5.6822 5.0664 5.87618 4.88981L7 3.86672V14H0.5C0.223858 14 0 14.2239 0 14.5C0 14.7761 0.223858 15 0.5 15H14.5C14.7761 15 15 14.7761 15 14.5C15 14.2239 14.7761 14 14.5 14H8V3.79344L9.12382 4.81653C9.3178 4.99311 9.61428 4.99311 9.80825 4.81653C10.0298 4.61487 10.0298 4.26636 9.80825 4.06471L7.54025 2H14.5C14.7761 2 15 1.77614 15 1.5C15 1.22386 14.7761 1 14.5 1H0.5ZM1 9.5C1 9.22386 1.22386 9 1.5 9H5V10H1.5C1.22386 10 1 9.77614 1 9.5ZM14 9.5C14 9.22386 13.7761 9 13.5 9H10V10H13.5C13.7761 10 14 9.77614 14 9.5Z" fill="black"/>
</svg>
