<svg width="16" height="16" viewBox="0 0 16 16" fill="none" xmlns="http://www.w3.org/2000/svg">
<path fill-rule="evenodd" clip-rule="evenodd" d="M7 0H9C9.55228 0 10 0.447715 10 1V7H11V4.16667C11 3.52233 11.4477 3 12 3H14C14.5523 3 15 3.52233 15 4.16667V10.8333C15 11.4777 14.5523 12 14 12H12C11.4477 12 11 11.4777 11 10.8333V8H10V14C10 14.5523 9.55228 15 9 15H7C6.44772 15 6 14.5523 6 14V8H5V11.8333C5 12.4777 4.55228 13 4 13H2C1.44772 13 1 12.4777 1 11.8333V3.16667C1 2.52233 1.44772 2 2 2H4C4.55228 2 5 2.52233 5 3.16667V7H6V1C6 0.447715 6.44772 0 7 0ZM7 1V14H9V1H7ZM2 12V3H4V12H2ZM12 4V11H14V4H12Z" fill="black"/>
</svg>
