<svg width="16" height="16" viewBox="0 0 16 16" fill="none" xmlns="http://www.w3.org/2000/svg">
<path fill-rule="evenodd" clip-rule="evenodd" d="M2.85355 2.15284C2.65829 1.94905 2.34171 1.94905 2.14645 2.15284C1.95118 2.35663 1.95118 2.68704 2.14645 2.89083L7.64645 8.84716C7.84171 9.05095 8.15829 9.05095 8.35355 8.84716L13.8536 2.89083C14.0488 2.68704 14.0488 2.35663 13.8536 2.15284C13.6583 1.94905 13.3417 1.94905 13.1464 2.15284L8 7.74018L2.85355 2.15284ZM2.85355 7.15284C2.65829 6.94905 2.34171 6.94905 2.14645 7.15284C1.95118 7.35663 1.95118 7.68704 2.14645 7.89083L7.64645 13.8472C7.84171 14.0509 8.15829 14.0509 8.35355 13.8472L13.8536 7.89083C14.0488 7.68704 14.0488 7.35663 13.8536 7.15284C13.6583 6.94905 13.3417 6.94905 13.1464 7.15284L8 12.7402L2.85355 7.15284Z" fill="black"/>
</svg>
