<svg width="16" height="16" viewBox="0 0 16 16" fill="none" xmlns="http://www.w3.org/2000/svg">
<path fill-rule="evenodd" clip-rule="evenodd" d="M14.4974 7C14.7738 7 14.998 6.77635 14.9987 6.5L14.9987 6.49872C14.9987 6.22329 14.7754 6 14.5 6H2.5L5.10377 2.86539C5.28873 2.64297 5.2601 2.31248 5.03969 2.1254C4.81889 1.938 4.48897 1.96352 4.2994 2.18265L1.24343 5.71835C1.08641 5.90003 1 6.13214 1 6.37227V6.5C1 6.77614 1.22386 7 1.5 7H14.4974ZM1.50256 9C1.22621 9 1.00199 9.22365 1.00128 9.5L1.00128 9.50128C1.00128 9.77671 1.22457 10 1.5 10H13.5L10.8962 13.1346C10.7113 13.357 10.7399 13.6875 10.9603 13.8746C11.1811 14.062 11.511 14.0365 11.7006 13.8173L14.7566 10.2816C14.9136 10.1 15 9.86786 15 9.62773V9.5C15 9.22386 14.7761 9 14.5 9H1.50256Z" fill="black"/>
</svg>
