<svg width="16" height="16" viewBox="0 0 16 16" fill="none" xmlns="http://www.w3.org/2000/svg">
<path d="M3.64645 10.3536C3.84171 10.5488 4.15829 10.5488 4.35355 10.3536C4.54882 10.1583 4.54882 9.84171 4.35355 9.64645L2.70711 8H13.2929L11.6464 9.64645C11.4512 9.84171 11.4512 10.1583 11.6464 10.3536C11.8417 10.5488 12.1583 10.5488 12.3536 10.3536L14.8536 7.85355C15.0488 7.65829 15.0488 7.34171 14.8536 7.14645L12.3536 4.64645C12.1583 4.45118 11.8417 4.45118 11.6464 4.64645C11.4512 4.84171 11.4512 5.15829 11.6464 5.35355L13.2929 7H2.70711L4.35355 5.35355C4.54882 5.15829 4.54882 4.84171 4.35355 4.64645C4.15829 4.45118 3.84171 4.45118 3.64645 4.64645L1.14645 7.14645C1.05268 7.24021 1 7.36739 1 7.5C1 7.63261 1.05268 7.75979 1.14645 7.85355L3.64645 10.3536Z" fill="black"/>
</svg>
