<svg width="16" height="16" viewBox="0 0 16 16" fill="none" xmlns="http://www.w3.org/2000/svg">
<path fill-rule="evenodd" clip-rule="evenodd" d="M13.8472 2.85355C14.0509 2.65829 14.0509 2.34171 13.8472 2.14645C13.6434 1.95118 13.313 1.95118 13.1092 2.14645L7.15284 7.64645C6.94905 7.84171 6.94905 8.15829 7.15284 8.35355L13.1092 13.8536C13.313 14.0488 13.6434 14.0488 13.8472 13.8536C14.0509 13.6583 14.0509 13.3417 13.8472 13.1464L8.25982 8L13.8472 2.85355ZM8.84716 2.85355C9.05095 2.65829 9.05095 2.34171 8.84716 2.14645C8.64337 1.95118 8.31296 1.95118 8.10917 2.14645L2.15284 7.64645C1.94905 7.84171 1.94905 8.15829 2.15284 8.35355L8.10917 13.8536C8.31296 14.0488 8.64337 14.0488 8.84716 13.8536C9.05095 13.6583 9.05095 13.3417 8.84716 13.1464L3.25982 8L8.84716 2.85355Z" fill="black"/>
</svg>
