<svg width="16" height="16" viewBox="0 0 16 16" fill="none" xmlns="http://www.w3.org/2000/svg">
<path fill-rule="evenodd" clip-rule="evenodd" d="M1.99998 2.70672V4.15617C1.99998 4.43226 1.77613 4.65606 1.49999 4.65606C1.22385 4.65606 1 4.43226 1 4.15617V1H4.0502C4.32634 1 4.5502 1.22381 4.5502 1.49989C4.5502 1.77597 4.32634 1.99978 4.0502 1.99978H2.70709L7.99987 7.29132L13.2927 1.99978H11.9497C11.6736 1.99978 11.4497 1.77597 11.4497 1.49989C11.4497 1.22381 11.6736 1 11.9497 1H14.9999V4.15617C14.9999 4.43226 14.776 4.65606 14.4999 4.65606C14.2238 4.65606 13.9999 4.43226 13.9999 4.15617V2.70657L8.70697 7.99827L13.9967 13.2867V11.7372C13.9967 11.4611 14.2205 11.2373 14.4966 11.2373C14.7728 11.2373 14.9966 11.4611 14.9966 11.7372V14.9999H11.8398C11.5637 14.9999 11.3398 14.7761 11.3398 14.5001C11.3398 14.224 11.5637 14.0002 11.8398 14.0002H13.2961L7.99987 8.70523L2.70369 14.0002H4.1568C4.43294 14.0002 4.6568 14.224 4.6568 14.5001C4.6568 14.7761 4.43294 14.9999 4.1568 14.9999H1V11.7372C1 11.4611 1.22385 11.2373 1.49999 11.2373C1.77613 11.2373 1.99998 11.4611 1.99998 11.7372V13.2898L7.29278 7.99827L1.99998 2.70672Z" fill="black"/>
</svg>
