<svg width="16" height="16" viewBox="0 0 16 16" fill="none" xmlns="http://www.w3.org/2000/svg">
<path fill-rule="evenodd" clip-rule="evenodd" d="M7.54003 1H14V14L7.45948 14L9.80799 11.862C10.0295 11.6604 10.0295 11.3118 9.80799 11.1102C9.61401 10.9336 9.31753 10.9336 9.12356 11.1102L7.99951 12.1335L7.99951 9H6.99951L6.99951 12.2064L5.87591 11.1835C5.68194 11.0069 5.38545 11.0069 5.19148 11.1835C4.96997 11.3851 4.96997 11.7336 5.19148 11.9353L7.45948 14L1 14V1H7.54003ZM7.54003 1L5.19153 3.13799C4.97001 3.33965 4.97001 3.68815 5.19152 3.88981C5.3855 4.0664 5.68198 4.0664 5.87595 3.88981L7 2.86652V6H8V2.79364L9.1236 3.81653C9.31757 3.99311 9.61406 3.99311 9.80803 3.81653C10.0295 3.61487 10.0295 3.26636 9.80803 3.06471L7.54003 1ZM0 1C0 0.447715 0.447715 0 1 0H14C14.5523 0 15 0.447715 15 1V14C15 14.5523 14.5523 15 14 15H1C0.447715 15 0 14.5523 0 14V1Z" fill="black"/>
</svg>
