<svg width="16" height="16" viewBox="0 0 16 16" fill="none" xmlns="http://www.w3.org/2000/svg">
<path fill-rule="evenodd" clip-rule="evenodd" d="M14 1L14 14L0.999999 14L1 7.45948L3.13799 9.80799C3.33965 10.0295 3.68815 10.0295 3.88981 9.80799C4.0664 9.61401 4.0664 9.31753 3.88981 9.12356L2.86652 7.99951L6 7.99951L6 6.99951L2.79364 6.99951L3.81653 5.87591C3.99311 5.68194 3.99311 5.38545 3.81653 5.19148C3.61487 4.96997 3.26637 4.96997 3.06471 5.19148L1 7.45948L1 0.999999L14 1ZM14 -4.37114e-08C14.5523 -1.95703e-08 15 0.447715 15 1L15 14C15 14.5523 14.5523 15 14 15L0.999999 15C0.447714 15 -6.36101e-07 14.5523 -6.1196e-07 14L-4.37114e-08 0.999999C-1.95703e-08 0.447715 0.447716 -6.36101e-07 1 -6.11959e-07L14 -4.37114e-08ZM12.1335 7L11.1102 5.87595C10.9336 5.68198 10.9336 5.3855 11.1102 5.19153C11.3118 4.97001 11.6604 4.97001 11.862 5.19153L14 7.54003L11.9353 9.80803C11.7336 10.0295 11.3851 10.0295 11.1835 9.80803C11.0069 9.61406 11.0069 9.31757 11.1835 9.1236L12.2064 8L9 8L9 7L12.1335 7Z" fill="black"/>
</svg>
