<svg width="16" height="16" viewBox="0 0 16 16" fill="none" xmlns="http://www.w3.org/2000/svg">
<path fill-rule="evenodd" clip-rule="evenodd" d="M2.15284 13.1464C1.94905 13.3417 1.94905 13.6583 2.15284 13.8536C2.35663 14.0488 2.68704 14.0488 2.89083 13.8536L8.84716 8.35355C9.05095 8.15829 9.05095 7.84171 8.84716 7.64645L2.89083 2.14645C2.68704 1.95118 2.35663 1.95118 2.15284 2.14645C1.94905 2.34171 1.94905 2.65829 2.15284 2.85355L7.74018 8L2.15284 13.1464ZM7.15284 13.1464C6.94905 13.3417 6.94905 13.6583 7.15284 13.8536C7.35663 14.0488 7.68704 14.0488 7.89083 13.8536L13.8472 8.35355C14.0509 8.15829 14.0509 7.84171 13.8472 7.64645L7.89083 2.14645C7.68704 1.95118 7.35663 1.95118 7.15284 2.14645C6.94905 2.34171 6.94905 2.65829 7.15284 2.85355L12.7402 8L7.15284 13.1464Z" fill="black"/>
</svg>
