<svg width="16" height="16" viewBox="0 0 16 16" fill="none" xmlns="http://www.w3.org/2000/svg">
<g clip-path="url(#clip0)">
<path d="M13.8379 3L11.8989 1.38419L12.5391 0.615967L16 3.50008L12.5391 6.38419L11.8989 5.61597L13.838 4H3.37C2.06109 4 1 5.19108 1 6.5C1 7.80891 2.06109 9 3.37 9H12.62C14.4867 9 16 10.1333 16 12C16 13.8667 14.4867 15 12.62 15H1V14H12.62C13.9344 14 15 13.3144 15 12C15 10.6856 13.9344 10 12.62 10H3.37C1.5088 10 0 8.3612 0 6.5C0 4.6388 1.5088 3 3.37 3H13.8379Z" fill="black"/>
</g>
<defs>
<clipPath id="clip0">
<rect width="16" height="16" fill="white"/>
</clipPath>
</defs>
</svg>
