<svg width="16" height="16" viewBox="0 0 16 16" fill="none" xmlns="http://www.w3.org/2000/svg">
<path fill-rule="evenodd" clip-rule="evenodd" d="M5.87606 3.88981L7 2.86661V14H0.5C0.223858 14 0 14.2239 0 14.5C0 14.7761 0.223858 15 0.5 15H14.5C14.7761 15 15 14.7761 15 14.5C15 14.2239 14.7761 14 14.5 14H8V2.79354L9.12371 3.81653C9.31768 3.99311 9.61416 3.99311 9.80814 3.81653C10.0296 3.61487 10.0296 3.26636 9.80814 3.06471L7.54013 1L5.19163 3.13799C4.97012 3.33965 4.97012 3.68815 5.19163 3.88981C5.3856 4.0664 5.68209 4.0664 5.87606 3.88981ZM1.5 9C1.22386 9 1 9.22386 1 9.5C1 9.77614 1.22386 10 1.5 10H5V9H1.5ZM13.5 9C13.7761 9 14 9.22386 14 9.5C14 9.77614 13.7761 10 13.5 10H10V9H13.5Z" fill="black"/>
</svg>
