<svg width="16" height="16" viewBox="0 0 16 16" fill="none" xmlns="http://www.w3.org/2000/svg">
<path fill-rule="evenodd" clip-rule="evenodd" d="M9.12394 12.1102L8 13.1334L8 2L14.5 2C14.7761 2 15 1.77614 15 1.5C15 1.22386 14.7761 1 14.5 1L0.500001 0.999999C0.223859 0.999999 1.20435e-06 1.22386 1.18021e-06 1.5C1.15607e-06 1.77614 0.223859 2 0.500001 2L7 2L7 13.2065L5.87629 12.1835C5.68232 12.0069 5.38584 12.0069 5.19187 12.1835C4.97035 12.3851 4.97035 12.7336 5.19187 12.9353L7.45987 15L9.80837 12.862C10.0299 12.6604 10.0299 12.3118 9.80837 12.1102C9.6144 11.9336 9.31791 11.9336 9.12394 12.1102ZM13.5 7C13.7761 7 14 6.77614 14 6.5C14 6.22386 13.7761 6 13.5 6L10 6L10 7L13.5 7ZM1.5 7C1.22386 7 1 6.77614 1 6.5C1 6.22386 1.22386 6 1.5 6L5 6L5 7L1.5 7Z" fill="black"/>
</svg>
