<svg width="16" height="16" viewBox="0 0 16 16" fill="none" xmlns="http://www.w3.org/2000/svg">
<path fill-rule="evenodd" clip-rule="evenodd" d="M13.5 14C13.7761 14 14 13.7761 14 13.5C14 13.2239 13.7761 13 13.5 13L7.5003 13L11.4533 9.54116C11.6611 9.35931 11.6821 9.04343 11.5003 8.83562C11.3185 8.6278 11.0026 8.60674 10.7948 8.78858L8.00046 11.2336L8.00046 1.5C8.00046 1.22386 7.7766 0.999999 7.50046 0.999999C7.22431 0.999999 7.00046 1.22386 7.00046 1.5L7.00046 11.2339L4.20585 8.78858C3.99803 8.60674 3.68215 8.6278 3.50031 8.83562C3.31846 9.04343 3.33952 9.35931 3.54734 9.54116L7.5003 13L1.5 13C1.22386 13 1 13.2239 1 13.5C1 13.7761 1.22386 14 1.5 14L13.5 14Z" fill="black"/>
</svg>
