<svg width="16" height="16" viewBox="0 0 16 16" fill="none" xmlns="http://www.w3.org/2000/svg">
<path fill-rule="evenodd" clip-rule="evenodd" d="M15 7.5C15 7.22386 14.7761 7 14.5 7L0.500001 7C0.223858 7 -3.15765e-07 7.22386 -3.27835e-07 7.5C-3.39906e-07 7.77614 0.223858 8 0.500001 8L14.5 8C14.7761 8 15 7.77614 15 7.5ZM7.5 -3.27835e-07C7.20887 -3.40561e-07 6.97287 0.23103 6.97287 0.516021L6.97287 4.02445L5.39987 2.52676C5.19401 2.32524 4.86025 2.32524 4.65439 2.52676C4.44854 2.72828 4.44854 3.05501 4.65439 3.25653L7.5 6L10.3456 3.25653C10.5515 3.05501 10.5515 2.72828 10.3456 2.52676C10.1397 2.32524 9.80599 2.32524 9.60013 2.52676L8.02713 4.02445L8.02713 0.516021C8.02713 0.23103 7.79113 -3.1511e-07 7.5 -3.27835e-07ZM7.5 15C7.20887 15 6.97287 14.769 6.97287 14.484L6.97287 10.9756L5.39987 12.4732C5.19401 12.6748 4.86025 12.6748 4.65439 12.4732C4.44854 12.2717 4.44854 11.945 4.65439 11.7435L7.5 9L10.3456 11.7435C10.5515 11.945 10.5515 12.2717 10.3456 12.4732C10.1397 12.6748 9.80599 12.6748 9.60013 12.4732L8.02713 10.9756L8.02713 14.484C8.02713 14.769 7.79113 15 7.5 15Z" fill="black"/>
</svg>
