<svg width="16" height="16" viewBox="0 0 16 16" fill="none" xmlns="http://www.w3.org/2000/svg">
<path fill-rule="evenodd" clip-rule="evenodd" d="M14 1.5C14 1.22386 13.7761 1 13.5 1C13.2239 1 13 1.22386 13 1.5L13 7.4997L9.54116 3.54673C9.35931 3.33891 9.04343 3.31785 8.83562 3.4997C8.6278 3.68154 8.60674 3.99742 8.78858 4.20524L11.2336 6.99954L1.5 6.99954C1.22386 6.99954 1 7.2234 1 7.49954C1 7.77569 1.22386 7.99954 1.5 7.99954L11.2339 7.99954L8.78858 10.7942C8.60674 11.002 8.6278 11.3179 8.83562 11.4997C9.04343 11.6815 9.35932 11.6605 9.54116 11.4527L13 7.4997L13 13.5C13 13.7761 13.2239 14 13.5 14C13.7761 14 14 13.7761 14 13.5L14 1.5Z" fill="black"/>
</svg>
