<svg width="16" height="16" viewBox="0 0 16 16" fill="none" xmlns="http://www.w3.org/2000/svg">
<path fill-rule="evenodd" clip-rule="evenodd" d="M1.5 1C1.22386 1 1 1.22386 1 1.5C1 1.77614 1.22386 2 1.5 2H7.4997L3.54673 5.45884C3.33891 5.64069 3.31785 5.95657 3.4997 6.16438C3.68154 6.3722 3.99742 6.39326 4.20524 6.21142L6.99954 3.7664V13.5C6.99954 13.7761 7.2234 14 7.49954 14C7.77569 14 7.99954 13.7761 7.99954 13.5V3.76614L10.7942 6.21142C11.002 6.39326 11.3179 6.3722 11.4997 6.16438C11.6815 5.95657 11.6605 5.64068 11.4527 5.45884L7.4997 2H13.5C13.7761 2 14 1.77614 14 1.5C14 1.22386 13.7761 1 13.5 1H1.5Z" fill="black"/>
</svg>
