<svg width="16" height="16" viewBox="0 0 16 16" fill="none" xmlns="http://www.w3.org/2000/svg">
<path fill-rule="evenodd" clip-rule="evenodd" d="M7.5 0C7.22386 0 7 0.223858 7 0.5V14.5C7 14.7761 7.22386 15 7.5 15C7.77614 15 8 14.7761 8 14.5V0.5C8 0.223858 7.77614 0 7.5 0ZM0 7.5C0 7.79113 0.231031 8.02713 0.516022 8.02713H4.02445L2.52676 9.60013C2.32524 9.80599 2.32524 10.1397 2.52676 10.3456C2.72828 10.5515 3.05501 10.5515 3.25653 10.3456L6 7.5L3.25653 4.65439C3.05501 4.44854 2.72828 4.44854 2.52676 4.65439C2.32524 4.86025 2.32524 5.19401 2.52676 5.39987L4.02445 6.97287H0.516022C0.231031 6.97287 0 7.20887 0 7.5ZM15 7.5C15 7.79113 14.769 8.02713 14.484 8.02713H10.9756L12.4732 9.60013C12.6748 9.80599 12.6748 10.1397 12.4732 10.3456C12.2717 10.5515 11.945 10.5515 11.7435 10.3456L9 7.5L11.7435 4.65439C11.945 4.44854 12.2717 4.44854 12.4732 4.65439C12.6748 4.86025 12.6748 5.19401 12.4732 5.39987L10.9756 6.97287H14.484C14.769 6.97287 15 7.20887 15 7.5Z" fill="black"/>
</svg>
