<svg width="16" height="16" viewBox="0 0 16 16" fill="none" xmlns="http://www.w3.org/2000/svg">
<path fill-rule="evenodd" clip-rule="evenodd" d="M6.00013 1.50034C6.00013 1.22401 5.77633 1 5.50027 1C5.22421 1 5.00041 1.22401 5.00041 1.50034V13.6584L1.20653 9.06045C1.02687 8.85064 0.711314 8.82634 0.501711 9.00618C0.292109 9.18601 0.267835 9.50188 0.447495 9.71169L4.59313 14.7204C4.74507 14.8979 4.96688 15 5.20036 15C5.64206 15 6.00013 14.6416 6.00013 14.1995V1.50034ZM10.0001 14.4997C10.0001 14.776 10.2239 15 10.5 15C10.776 15 10.9998 14.776 10.9998 14.4997V2.34157L14.7937 6.93955C14.9734 7.14936 15.2889 7.17366 15.4985 6.99382C15.7081 6.81399 15.7324 6.49812 15.5527 6.28831L11.4071 1.27956C11.2552 1.10212 11.0334 1 10.7999 1C10.3582 1 10.0001 1.35842 10.0001 1.80055V14.4997Z" fill="black"/>
</svg>
