<svg width="16" height="16" viewBox="0 0 16 16" fill="none" xmlns="http://www.w3.org/2000/svg">
<path d="M1.5 13C1.22386 13 1 12.7761 1 12.5C1 12.2239 1.22386 12 1.5 12L5.5 12C5.77614 12 6 12.2239 6 12.5C6 12.7761 5.77614 13 5.5 13L1.5 13Z" fill="black"/>
<path d="M1 9.5C1 9.77614 1.22386 10 1.5 10L8.5 10C8.77614 10 9 9.77614 9 9.5C9 9.22386 8.77614 9 8.5 9L1.5 9C1.22386 9 1 9.22386 1 9.5Z" fill="black"/>
<path d="M1.5 7C1.22386 7 0.999999 6.77614 0.999999 6.5C0.999999 6.22386 1.22386 6 1.5 6L11.5 6C11.7761 6 12 6.22386 12 6.5C12 6.77614 11.7761 7 11.5 7L1.5 7Z" fill="black"/>
<path d="M1.5 4C1.22386 4 0.999999 3.77614 0.999999 3.5C0.999999 3.22386 1.22386 3 1.5 3L14.5 3C14.7761 3 15 3.22386 15 3.5C15 3.77614 14.7761 4 14.5 4L1.5 4Z" fill="black"/>
</svg>
