<svg width="16" height="16" viewBox="0 0 16 16" fill="none" xmlns="http://www.w3.org/2000/svg">
<path fill-rule="evenodd" clip-rule="evenodd" d="M15 2C15 1.44772 14.5523 1 14 1H2C1.44772 1 1 1.44772 1 2V14C1 14.5523 1.44772 15 2 15H14C14.5523 15 15 14.5523 15 14V2ZM2 2H14V14H2V2ZM12 8H4C3.44772 8 3 8.44772 3 9V11C3 11.5523 3.44772 12 4 12H12C12.5523 12 13 11.5523 13 11V9C13 8.44772 12.5523 8 12 8ZM4 11V9H12V11H4ZM4 3H9C9.55228 3 10 3.44772 10 4V6C10 6.55228 9.55228 7 9 7H4C3.44772 7 3 6.55228 3 6V4C3 3.44772 3.44772 3 4 3ZM4 4V6H9V4H4Z" fill="black"/>
</svg>
