<svg width="16" height="16" viewBox="0 0 16 16" fill="none" xmlns="http://www.w3.org/2000/svg">
<path fill-rule="evenodd" clip-rule="evenodd" d="M9.04148 3.5H2.91421L3.93934 2.47487C4.1346 2.27961 4.1346 1.96303 3.93934 1.76777C3.74408 1.5725 3.4275 1.5725 3.23223 1.76777L1 4L3.30761 6.30761C3.50287 6.50287 3.81946 6.50287 4.01472 6.30761C4.20998 6.11235 4.20998 5.79577 4.01472 5.6005L2.91421 4.5H9.04148C9.25224 5.75625 10.2437 6.74776 11.5 6.95852V13.0858L10.5503 12.136C10.355 11.9408 10.0384 11.9408 9.84315 12.136C9.64788 12.3313 9.64788 12.6479 9.84315 12.8431L12 15L14.2322 12.7678C14.4275 12.5725 14.4275 12.2559 14.2322 12.0607C14.037 11.8654 13.7204 11.8654 13.5251 12.0607L12.5 13.0858V6.95852C13.9189 6.72048 15 5.4865 15 4C15 2.34315 13.6569 1 12 1C10.5135 1 9.27952 2.08114 9.04148 3.5ZM10 4C10 2.89543 10.8954 2 12 2C13.1046 2 14 2.89543 14 4C14 5.10457 13.1046 6 12 6C10.8954 6 10 5.10457 10 4Z" fill="black"/>
</svg>
