<svg width="16" height="16" viewBox="0 0 16 16" fill="none" xmlns="http://www.w3.org/2000/svg">
<path fill-rule="evenodd" clip-rule="evenodd" d="M12.0607 2.47487L13.0858 3.5H6.95852C6.72048 2.08114 5.4865 1 4 1C2.34315 1 1 2.34315 1 4C1 5.4865 2.08114 6.72048 3.5 6.95852V13.0858L2.47487 12.0607C2.27961 11.8654 1.96303 11.8654 1.76777 12.0607C1.5725 12.2559 1.5725 12.5725 1.76777 12.7678L4 15L6.15685 12.8431C6.35212 12.6479 6.35212 12.3313 6.15685 12.136C5.96159 11.9408 5.64501 11.9408 5.44975 12.136L4.5 13.0858V6.95852C5.75625 6.74776 6.74776 5.75625 6.95852 4.5H13.0858L11.9853 5.6005C11.79 5.79577 11.79 6.11235 11.9853 6.30761C12.1805 6.50287 12.4971 6.50287 12.6924 6.30761L15 4L12.7678 1.76777C12.5725 1.5725 12.2559 1.5725 12.0607 1.76777C11.8654 1.96303 11.8654 2.27961 12.0607 2.47487ZM2 4C2 2.89543 2.89543 2 4 2C5.10457 2 6 2.89543 6 4C6 5.10457 5.10457 6 4 6C2.89543 6 2 5.10457 2 4Z" fill="black"/>
</svg>
