<svg width="16" height="16" viewBox="0 0 16 16" fill="none" xmlns="http://www.w3.org/2000/svg">
<path fill-rule="evenodd" clip-rule="evenodd" d="M13.1464 13.8472C13.3417 14.0509 13.6583 14.0509 13.8536 13.8472C14.0488 13.6434 14.0488 13.313 13.8536 13.1092L8.35355 7.15284C8.15829 6.94905 7.84171 6.94905 7.64645 7.15284L2.14645 13.1092C1.95118 13.313 1.95118 13.6434 2.14645 13.8472C2.34171 14.0509 2.65829 14.0509 2.85355 13.8472L8 8.25982L13.1464 13.8472ZM13.1464 8.84716C13.3417 9.05095 13.6583 9.05095 13.8536 8.84716C14.0488 8.64337 14.0488 8.31296 13.8536 8.10917L8.35355 2.15284C8.15829 1.94905 7.84171 1.94905 7.64645 2.15284L2.14645 8.10917C1.95118 8.31296 1.95118 8.64337 2.14645 8.84716C2.34171 9.05095 2.65829 9.05095 2.85355 8.84716L8 3.25982L13.1464 8.84716Z" fill="black"/>
</svg>
