<svg width="16" height="16" viewBox="0 0 16 16" fill="none" xmlns="http://www.w3.org/2000/svg">
<path d="M10.3536 12.3536C10.5488 12.1583 10.5488 11.8417 10.3536 11.6464C10.1583 11.4512 9.84171 11.4512 9.64645 11.6464L8 13.2929L8 2.70711L9.64645 4.35355C9.84171 4.54882 10.1583 4.54882 10.3536 4.35355C10.5488 4.15829 10.5488 3.84171 10.3536 3.64645L7.85355 1.14645C7.65829 0.951184 7.34171 0.951184 7.14645 1.14645L4.64645 3.64645C4.45118 3.84171 4.45118 4.15829 4.64645 4.35355C4.84171 4.54882 5.15829 4.54882 5.35355 4.35355L7 2.70711L7 13.2929L5.35355 11.6464C5.15829 11.4512 4.84171 11.4512 4.64645 11.6464C4.45118 11.8417 4.45118 12.1583 4.64645 12.3536L7.14645 14.8536C7.24021 14.9473 7.36739 15 7.5 15C7.63261 15 7.75979 14.9473 7.85355 14.8536L10.3536 12.3536Z" fill="black"/>
</svg>
