<svg width="16" height="16" viewBox="0 0 16 16" fill="none" xmlns="http://www.w3.org/2000/svg">
<path fill-rule="evenodd" clip-rule="evenodd" d="M6.35359 6.35359L1.85359 6.35359L1.85359 5.35359L4.64648 5.35359L1 1.70711L1.70711 1L5.35359 4.64648L5.35359 1.85359L6.35359 1.85359L6.35359 6.35359ZM5.35359 5.35359H5.35352L5.35359 5.35352V5.35359ZM9.64641 9.64641H14.1464V10.6464H11.3535L15 14.2929L14.2929 15L10.6464 11.3535V14.1464H9.64641V9.64641ZM10.6464 10.6464H10.6465L10.6464 10.6465V10.6464ZM6.35369 14.1464V9.64641H1.85369L1.85369 10.6464H4.64659L1.0001 14.2929L1.70721 15L5.35369 11.3535V14.1464H6.35369ZM5.35369 10.6465V10.6464H5.35362L5.35369 10.6465ZM9.64641 6.35359V1.85359H10.6464V4.64648L14.2929 1L15 1.70711L11.3535 5.35359H14.1464V6.35359H9.64641ZM10.6464 5.35359V5.35352L10.6465 5.35359H10.6464Z" fill="black"/>
</svg>
