<svg width="16" height="16" viewBox="0 0 16 16" fill="none" xmlns="http://www.w3.org/2000/svg">
<path fill-rule="evenodd" clip-rule="evenodd" d="M8.02706 0.000715979C12.4329 0.0153047 16 3.59115 16 8.00008C16 12.4084 12.4339 15.9839 8.02887 15.9994C8.00994 16.0005 7.99108 16.0005 7.97237 15.9994C3.5668 15.9845 0 12.4088 0 8.00008C0 3.59073 3.56778 0.0146294 7.97419 0.000711942C7.9917 -0.000232141 8.00935 -0.000243825 8.02706 0.000715979ZM5.95757 1.30323C4.44044 1.76527 3.14181 2.72865 2.25469 4.00037H3.85488C4.34581 2.98362 5.0474 2.08356 5.95757 1.30323ZM3.45226 5.0003H1.67363C1.30933 5.76711 1.08036 6.61067 1.01758 7.50011H3.01103C3.05082 6.60906 3.19814 5.77543 3.45226 5.0003ZM4.0121 7.50011C4.05647 6.5966 4.22291 5.76386 4.51252 5.0003H7.5V7.50011H4.0121ZM3.01103 8.50004H1.01758C1.08036 9.38948 1.30933 10.233 1.67363 10.9999H3.45223C3.19812 10.2247 3.0508 9.39109 3.01103 8.50004ZM4.51248 10.9999C4.22289 10.2363 4.05646 9.40355 4.0121 8.50004H7.5V10.9999H4.51248ZM3.85484 11.9998H2.25469C3.14178 13.2715 4.44034 14.2348 5.9574 14.6969C5.04728 13.9165 4.34574 13.0165 3.85484 11.9998ZM7.5 14.6109V11.9998H4.98465C5.56459 13.0111 6.40195 13.8798 7.5 14.6109ZM7.5 4.00037V1.38933C6.40198 2.12039 5.56464 2.98914 4.9847 4.00037H7.5ZM10.0426 14.6969C11.5597 14.2348 12.8582 13.2715 13.7453 11.9998H12.1452C11.6543 13.0165 10.9527 13.9165 10.0426 14.6969ZM12.5478 10.9999H14.3264C14.6907 10.233 14.9196 9.38948 14.9824 8.50004H12.989C12.9492 9.39109 12.8019 10.2247 12.5478 10.9999ZM11.9879 8.50004C11.9435 9.40355 11.7771 10.2363 11.4875 10.9999H8.5V8.50004H11.9879ZM12.989 7.50011H14.9824C14.9196 6.61067 14.6907 5.76711 14.3264 5.0003H12.5477C12.8019 5.77543 12.9492 6.60906 12.989 7.50011ZM11.4875 5.0003C11.7771 5.76386 11.9435 6.5966 11.9879 7.50011H8.5V5.0003H11.4875ZM12.1451 4.00037H13.7453C12.8582 2.72865 11.5596 1.76527 10.0424 1.30323C10.9526 2.08356 11.6542 2.98362 12.1451 4.00037ZM8.5 1.38933C9.59802 2.12039 10.4354 2.98914 11.0153 4.00037H8.5V1.38933ZM8.5 11.9998H11.0154C10.4354 13.0111 9.59805 13.8798 8.5 14.6109V11.9998Z" fill="black"/>
</svg>
