<svg width="16" height="16" viewBox="0 0 16 16" fill="none" xmlns="http://www.w3.org/2000/svg">
<path fill-rule="evenodd" clip-rule="evenodd" d="M16 14.2898C16 14.2898 15.7334 14.1565 15.2386 14.0053C14.4309 15.2083 13.0579 16 11.5 16C10.0722 16 8.7998 15.3351 7.97541 14.298C3.18907 15.8844 0 14.2898 0 14.2898L2.133 1.48683C4.04222 2.08958 6.09078 2.08958 8 1.48683C9.9094 0.885249 11.9576 0.885249 13.867 1.48683L15.0812 8.77467C15.6577 9.53106 16 10.4756 16 11.5C16 11.9959 15.9198 12.473 15.7716 12.9192L16 14.2898ZM13.8857 7.68377L12.986 2.28583C12.2385 2.11066 11.4738 2.01943 10.706 2.01383C9.90956 1.99883 9.11753 2.13525 8.372 2.41583C7.39022 2.7926 6.34548 2.97826 5.294 2.96283C4.5037 2.95916 3.71564 2.87844 2.941 2.72183L1.123 13.6368C1.99132 13.8837 2.8903 14.0059 3.793 13.9998C5.02773 13.9909 6.25445 13.7964 7.43054 13.4233C7.15444 12.8401 7 12.1881 7 11.5C7 9.01472 9.01472 7 11.5 7C12.3763 7 13.1941 7.25049 13.8857 7.68377ZM11.5 15C13.433 15 15 13.433 15 11.5C15 9.567 13.433 8 11.5 8C9.567 8 8 9.567 8 11.5C8 13.433 9.567 15 11.5 15ZM11 12V14H12V12H14V11H12V9H11V11H9V12H11Z" fill="black"/>
</svg>
