<svg width="16" height="16" viewBox="0 0 16 16" fill="none" xmlns="http://www.w3.org/2000/svg">
<path fill-rule="evenodd" clip-rule="evenodd" d="M16 5.16021V11H13.1355H9.5V10H12.5992L10 5.15339V1H6V3.5H5V0H10H11.0194H16V5.16021ZM15 5.95434V10H13.801L12.6375 7.83046L15 5.95434ZM15 4.45742V1H11.0194V4.81323L12.0745 6.78064L15 4.45742ZM7.68198 6.31802C5.92462 4.56066 3.07538 4.56066 1.31802 6.31802C-0.43934 8.07538 -0.43934 10.9246 1.31802 12.682C2.95595 14.3199 5.54239 14.4312 7.30924 13.0159L10.1569 15.864L10.864 15.1569L8.01656 12.3085C9.43119 10.5416 9.31966 7.9557 7.68198 6.31802ZM2.02513 11.9749C0.658291 10.608 0.658291 8.39196 2.02513 7.02513C3.39196 5.65829 5.60804 5.65829 6.97487 7.02513C8.34171 8.39196 8.34171 10.608 6.97487 11.9749C5.60804 13.3417 3.39196 13.3417 2.02513 11.9749Z" fill="black"/>
</svg>
