<svg width="7" height="9" viewBox="0 0 7 9" fill="none" xmlns="http://www.w3.org/2000/svg">
<path d="M6.49691 8.19137L6.08659 5.08883H6.22517C6.33665 5.08883 6.42646 4.97107 6.42646 4.82487V2.87563C6.42646 2.72944 6.33665 2.61168 6.22517 2.61168H4.32065V0.763959C4.32065 0.617766 4.23084 0.5 4.11936 0.5H2.88065C2.76916 0.5 2.67936 0.617766 2.67936 0.763959V2.61168H0.774839C0.663355 2.61168 0.573548 2.72944 0.573548 2.87563V4.82487C0.573548 4.97107 0.663355 5.08883 0.774839 5.08883H0.91342L0.503097 8.19137C0.500774 8.2066 0.5 8.22183 0.5 8.23604C0.5 8.38223 0.589807 8.5 0.701291 8.5H6.29872C6.31033 8.5 6.32194 8.49898 6.33278 8.49594C6.44272 8.47157 6.51626 8.33452 6.49691 8.19137ZM1.11548 3.32234H3.22129V1.21066H3.77871V3.32234H5.88452V4.37817H1.11548V3.32234ZM4.73871 7.78934V6.20558C4.73871 6.16091 4.71084 6.12437 4.67678 6.12437H4.30517C4.2711 6.12437 4.24323 6.16091 4.24323 6.20558V7.78934H2.75678V6.20558C2.75678 6.16091 2.72891 6.12437 2.69484 6.12437H2.32323C2.28916 6.12437 2.26129 6.16091 2.26129 6.20558V7.78934H1.10619L1.45536 5.14975H5.54388L5.89304 7.78934H4.73871Z" fill="black"/>
</svg>
