<?xml version="1.0" encoding="UTF-8"?>
<svg width="14px" height="14px" viewBox="0 0 14 14" version="1.1" xmlns="http://www.w3.org/2000/svg" xmlns:xlink="http://www.w3.org/1999/xlink">
    <g stroke="none" stroke-width="1" fill="none" fill-rule="evenodd">
        <g transform="translate(-989.000000, -494.000000)" fill-rule="nonzero">
            <g transform="translate(990.000000, 495.000000)">
                <path d="M6.74547792,6 L10.8456065,10.1001285 C11.0514645,10.3059866 11.0514645,10.6397484 10.8456065,10.8456065 C10.6397484,11.0514645 10.3059866,11.0514645 10.1001285,10.8456065 L6,6.74547792 L1.89987145,10.8456065 C1.69401341,11.0514645 1.36025157,11.0514645 1.15439353,10.8456065 C0.948535489,10.6397484 0.948535489,10.3059866 1.15439353,10.1001285 L5.25452208,6 L1.15439353,1.89987145 C0.948535489,1.69401341 0.948535489,1.36025157 1.15439353,1.15439353 C1.36025157,0.948535489 1.69401341,0.948535489 1.89987145,1.15439353 L6,5.25452208 L10.1001285,1.15439353 C10.3059866,0.948535489 10.6397484,0.948535489 10.8456065,1.15439353 C11.0514645,1.36025157 11.0514645,1.69401341 10.8456065,1.89987145 L6.74547792,6 Z" fill="#000000"></path>
                <rect x="0" y="0" width="12" height="12"></rect>
            </g>
        </g>
    </g>
</svg>