<svg xmlns="http://www.w3.org/2000/svg" xmlns:xlink="http://www.w3.org/1999/xlink" width="16px" height="16px" viewBox="0 0 16 16" version="1.1">
    <g stroke="none" stroke-width="1" fill="none" fill-rule="evenodd">
        <g transform="translate(-167.000000, -110.000000)" fill="#000000" fill-rule="nonzero">
            <g transform="translate(167.000000, 110.000000)">
                <path d="M14.376,10.573 L16.023,11.5 L8.023,16 L0.023,11.5 L1.671,10.573 L2.691,11.147 L2.063,11.5 L8.023,14.853 L13.983,11.5 L13.356,11.147 L14.376,10.573 Z M13.377,8.159 L13.983,8.5 L8.023,11.853 L2.063,8.5 L2.67,8.159 L1.65,7.585 L0.023,8.5 L8.023,13 L16.023,8.5 L14.397,7.585 L13.377,8.159 Z M8.023,1.023 L0.023,5.523 L8.023,10.023 L16.023,5.523 L8.023,1.023 Z M2.063,5.523 L8.023,2.171 L13.983,5.523 L8.023,8.876 L2.063,5.523 Z"/>
            </g>
        </g>
    </g>
</svg>