<svg width="16" height="16" viewBox="0 0 16 16" fill="none" xmlns="http://www.w3.org/2000/svg">
<g clip-path="url(#clip0_8283_7442)">
<path fill-rule="evenodd" clip-rule="evenodd" d="M15.2995 12.3181L14.9957 8.66515C14.9736 8.40608 14.9318 8.16155 14.8702 7.93157L13.7547 3.76844C13.5929 3.16473 13.2496 2.71752 12.7247 2.42681C12.2826 2.18199 11.8243 2.1076 11.3498 2.20363C11.2608 2.22163 11.1712 2.24563 11.0811 2.27561L11.0418 2.129C11.0064 1.99677 10.9617 1.87178 10.9076 1.75403C10.7289 1.36488 10.4483 1.05477 10.066 0.823698C9.56791 0.522706 9.04544 0.445479 8.49855 0.592016C8.3715 0.62606 8.25857 0.668643 8.15978 0.719765C7.89456 0.414927 7.57578 0.203008 7.20346 0.0840093C6.83113 -0.0349902 6.45715 -0.0441638 6.08151 0.056488C5.70587 0.15714 5.38658 0.352075 5.12364 0.641295C4.86069 0.930514 4.69059 1.27343 4.61332 1.67004C4.5022 1.67516 4.38311 1.69475 4.25606 1.72879C3.70917 1.87533 3.29531 2.20344 3.01447 2.71314C2.73364 3.22284 2.66948 3.76229 2.822 4.33149L3.78961 7.94267C3.48542 7.83021 3.1374 7.81928 2.74555 7.90987C2.71412 7.91714 2.68241 7.92506 2.65041 7.93363C2.06486 8.09053 1.6227 8.44009 1.32394 8.98232C1.02518 9.52455 0.957449 10.1004 1.12075 10.7099C1.25324 11.2043 1.51273 11.6093 1.89922 11.9248L6.26427 15.4878C6.53554 15.7048 6.84289 15.852 7.18632 15.9294C7.52975 16.0069 7.86719 16.0012 8.19863 15.9124L13.8995 14.3848C14.3469 14.2649 14.7032 14.0092 14.9684 13.6178C15.2335 13.2263 15.3439 12.7931 15.2995 12.3181ZM5.06467 2.65028L4.65939 2.66897C4.63179 2.67025 4.58462 2.67603 4.51487 2.69472C4.239 2.76864 4.04394 2.91692 3.89032 3.19572C3.73588 3.47603 3.70131 3.74945 3.78792 4.07267L5.2558 9.55086L3.44285 8.88062C3.35551 8.84833 3.19498 8.82299 2.90923 8.89956C2.59279 8.98435 2.37036 9.15533 2.19979 9.46491C2.02831 9.77612 1.9888 10.0857 2.08668 10.451C2.16637 10.7485 2.31212 10.971 2.53157 11.1501L6.89218 14.7095C7.04257 14.829 7.21012 14.9097 7.4063 14.9539C7.59597 14.9967 7.769 14.9922 7.93981 14.9464L13.6407 13.4189C13.8506 13.3626 14.007 13.2539 14.1404 13.057C14.2743 12.8593 14.3269 12.6575 14.3039 12.4111L14.3029 12.401L13.9993 8.74997C13.9818 8.5447 13.9492 8.35821 13.9043 8.19039L12.7887 4.02726C12.6939 3.67347 12.5168 3.45482 12.2402 3.3016C11.97 3.15197 11.7204 3.12436 11.4275 3.21462L12.2782 6.38916L11.2238 6.67168L10.0759 2.38781C9.9893 2.06458 9.82265 1.84508 9.54875 1.67955C9.27631 1.51491 9.03324 1.48402 8.75737 1.55794C8.68762 1.57663 8.64389 1.59521 8.61935 1.60791L8.43447 1.70357L9.73394 6.55325L8.76801 6.81207L7.27706 1.24776C7.16227 1.14876 7.0377 1.08087 6.89902 1.03654C6.70829 0.975581 6.52981 0.971644 6.34033 1.02241C6.15085 1.07318 5.99825 1.16583 5.86356 1.31399C5.83045 1.3504 5.80009 1.38834 5.77248 1.42813L7.44853 7.68326L6.48261 7.94208L5.06467 2.65028Z" fill="black"/>
</g>
<defs>
<clipPath id="clip0_8283_7442">
<rect width="16" height="16" fill="white"/>
</clipPath>
</defs>
</svg>
