<svg width="108" height="108" viewBox="0 0 108 108" fill="none" xmlns="http://www.w3.org/2000/svg">
  <g id="thumbnail/map/desktop-1" clip-path="url(#clip0_701_648)">
    <rect id="Background 2" width="108" height="108" fill="#181818"/>
    <path id="Shape Copy" d="M88.3918 0C88.0797 1.13674 87.2331 2.0906 86.0775 2.60743C80.5799 4.97186 75.3325 7.88014 75.3325 11.1047C75.3325 13.2801 77.2992 14.2753 77.2992 16.4623C77.2992 19.5364 73.2046 20.3464 72.2594 22.9037C72.1296 23.2555 72.0638 23.6242 72.0644 23.9953C72.0644 26.1861 74.6839 30.7453 68.5802 30.3441C67.1094 30.2554 64.367 32.8011 64.6467 34.1203C65.308 37.0941 66.8297 42.6446 61.5949 45.225C57.3308 47.3233 57.5088 53.163 52.6597 53.163C49.7181 53.163 48.6245 50.3859 45.6871 50.3859C43.5368 50.5239 41.8951 52.1903 41.9782 54.1504C41.9782 56.9816 39.363 61.6911 35.2175 61.6911C33.1136 61.892 31.0728 60.9634 29.987 59.3113C28.6772 57.1783 27.4819 55.1456 24.7522 55.1456C21.8648 55.2624 19.6249 57.4818 19.7421 60.1097C19.7421 62.0383 20.611 63.1299 20.611 65.0661C20.611 68.0439 18 69.4286 18 72.4101C18.2006 74.098 19.8457 75.3313 21.7046 75.1873C24.7014 75.1873 25.477 73.7139 28.4568 73.9916C30.5889 74.1883 31.2968 76.7224 31.2968 77.9644C31.2968 82.9749 21.9589 84.5871 25.405 90.855C26.7995 93.3776 35.6541 92.1934 35.6541 96.4131C35.6321 97.8837 35.3265 99.3394 34.7513 100.714C33.8682 102.554 33.3625 104.525 33.2593 106.53C33.2593 106.789 33.3017 107.329 33.3695 108H53.605C54.5163 105.092 57.1358 102.099 57.1358 100.44V100.216C52.8971 98.8084 55.3174 97.9367 55.3174 96.4671C55.3174 92.0006 62.8792 92.5946 62.8792 88.1357C62.8792 86.7934 61.3194 86.2959 61.3194 84.9613C61.3194 81.6827 65.6131 81.0386 65.6131 77.7677V73.8951C65.6131 72.4101 67.7494 71.388 69.3856 71.388C71.2336 71.388 72.607 72.5181 74.4635 72.5181C78.5539 72.5181 78.8718 66.8096 82.9663 66.8096C86.0182 66.8096 85.9673 70.0881 88.2011 71.8779C90.4674 73.2312 93.2206 73.7356 95.8858 73.2857H101.227C102.104 73.2857 105.321 71.8779 108 71.2029V0H88.3918Z" fill="#363636"/>
    <rect id="Rectangle Copy 10" x="4" y="4" width="6" height="12" fill="#6A6A6A"/>
    <rect id="Rectangle Copy 13" x="4" y="26" width="6" height="12" fill="#6A6A6A"/>
    <rect id="Rectangle Copy 15" x="4" y="40" width="6" height="12" fill="#6A6A6A"/>
    <rect id="Rectangle Copy 4" x="98" y="4" width="6" height="6" fill="#6A6A6A"/>
    <rect id="Rectangle Copy 5" x="98" y="12" width="6" height="6" fill="#6A6A6A"/>
    <rect id="Rectangle Copy 6" x="98" y="20" width="6" height="6" fill="#6A6A6A"/>
    <rect id="Rectangle Copy 7" x="98" y="28" width="6" height="6" fill="#6A6A6A"/>
    <rect id="Rectangle Copy 11" x="4" y="18" width="6" height="6" fill="#6A6A6A"/>
    <rect id="Rectangle Copy 14" x="4" y="54" width="6" height="6" rx="3" fill="#6A6A6A"/>
    <rect id="Rectangle Copy 12" x="12" y="4" width="12" height="6" fill="#6A6A6A"/>
    <rect id="Rectangle Copy 2" x="4" y="94" width="10" height="10" fill="#6A6A6A"/>
    <rect id="Rectangle Copy 3" x="98" y="98" width="6" height="6" fill="#6A6A6A"/>
  </g>
  <defs>
    <clipPath id="clip0_701_648">
      <rect width="108" height="108" fill="white"/>
    </clipPath>
  </defs>
</svg>
