<svg width="16" height="16" viewBox="0 0 16 16" fill="none" xmlns="http://www.w3.org/2000/svg">
<path fill-rule="evenodd" clip-rule="evenodd" d="M15 8C15 11.866 11.866 15 8 15C4.13401 15 1 11.866 1 8C1 4.13401 4.13401 1 8 1C11.866 1 15 4.13401 15 8ZM16 8C16 12.4183 12.4183 16 8 16C3.58172 16 0 12.4183 0 8C0 3.58172 3.58172 0 8 0C12.4183 0 16 3.58172 16 8ZM8.32406 10.228H7.34006C7.12745 9.08952 7.96141 8.09868 8.7151 7.20321C9.28014 6.53188 9.80006 5.91415 9.80006 5.328C9.80006 4.5 9.20006 3.9 7.97606 3.9C7.16006 3.9 6.40406 4.26 5.70806 4.992L5.06006 4.392C5.85206 3.552 6.78806 3 8.09606 3C9.78806 3 10.8681 3.864 10.8681 5.244C10.8681 6.1082 10.2157 6.87232 9.56837 7.63052C8.85844 8.46206 8.15458 9.28648 8.32406 10.228ZM8.62406 12.4C8.62406 12.88 8.27606 13.192 7.85606 13.192C7.42406 13.192 7.07606 12.88 7.07606 12.4C7.07606 11.92 7.42406 11.596 7.85606 11.596C8.27606 11.596 8.62406 11.92 8.62406 12.4Z" fill="black"/>
</svg>
