<svg width="16" height="16" viewBox="0 0 16 16" fill="none" xmlns="http://www.w3.org/2000/svg">
<path fill-rule="evenodd" clip-rule="evenodd" d="M8.00024 2.125L14.3336 14H1.66691L8.00024 2.125ZM7.11789 1.65441C7.49436 0.948529 8.50612 0.94853 8.8826 1.65441L15.2159 13.5294C15.5712 14.1955 15.0885 15 14.3336 15H1.66691C0.911988 15 0.429299 14.1955 0.784556 13.5294L7.11789 1.65441ZM8 4.875C7.46459 4.875 7.04623 5.33729 7.0995 5.87004L7.45025 9.37748C7.47849 9.65992 7.71616 9.875 8 9.875C8.28384 9.875 8.52151 9.65992 8.54975 9.37748L8.9005 5.87004C8.95377 5.33728 8.53541 4.875 8 4.875ZM9 11.875C9 12.4273 8.55228 12.875 8 12.875C7.44772 12.875 7 12.4273 7 11.875C7 11.3227 7.44772 10.875 8 10.875C8.55228 10.875 9 11.3227 9 11.875Z" fill="black"/>
</svg>
