<?xml version="1.0" encoding="UTF-8"?>
<svg width="16px" height="16px" viewBox="0 0 16 16" version="1.1" xmlns="http://www.w3.org/2000/svg" xmlns:xlink="http://www.w3.org/1999/xlink">
    <g>
        <g transform="translate(-317.000000, -808.000000)" fill-rule="nonzero">
            <path d="M328,810 L328,823 L327,823 L327,810 L323,810 L323,823 L322,823 L322,810 L318,810 L318,822 C318,822.552285 318.447715,823 319,823 L331,823 C331.552285,823 332,822.552285 332,822 L332,810 L328,810 Z M319,808 L331,808 C332.104569,808 333,808.895431 333,810 L333,822 C333,823.104569 332.104569,824 331,824 L319,824 C317.895431,824 317,823.104569 317,822 L317,810 C317,808.895431 317.895431,808 319,808 Z"></path>
        </g>
    </g>
</svg>