<?xml version="1.0" encoding="UTF-8"?>
<svg width="24px" height="24px" viewBox="0 0 24 24" version="1.1" xmlns="http://www.w3.org/2000/svg" xmlns:xlink="http://www.w3.org/1999/xlink">
    <g stroke="none" stroke-width="1" fill="none" fill-rule="evenodd">
        <g transform="translate(-1204.000000, -815.000000)" fill-rule="nonzero">
            <g transform="translate(1180.000000, 49.000000)">
                <g transform="translate(16.000000, 728.000000)">
                    <g transform="translate(8.000000, 38.000000)">
                        <g transform="translate(4.000000, 4.000000)">
                            <rect fill="#000000" opacity="0" x="0" y="0" width="16" height="16"></rect>
                            <path d="M8,16 C3.582,16 0,12.418 0,8 C0,3.582 3.582,0 8,0 C12.418,0 16,3.582 16,8 C16,12.418 12.418,16 8,16 Z M8,14 C9.295,14 10.487,13.58 11.468,12.882 L3.118,4.532 C2.42,5.513 2,6.705 2,8 C2,11.313 4.687,14 8,14 Z M8,2 C6.705,2 5.513,2.42 4.532,3.118 L12.882,11.468 C13.58,10.487 14,9.296 14,8 C14,4.687 11.313,2 8,2 Z" fill="#FFFFFF"></path>
                        </g>
                    </g>
                </g>
            </g>
        </g>
    </g>
</svg>