<?xml version="1.0" encoding="UTF-8"?>
<svg width="16px" height="16px" viewBox="0 0 16 16" version="1.1" xmlns="http://www.w3.org/2000/svg" xmlns:xlink="http://www.w3.org/1999/xlink">
    <g id="Style" stroke="none" stroke-width="1" fill="none" fill-rule="evenodd">
        <g id="*UI-icons" transform="translate(-100.000000, -515.000000)" fill="#FFF" fill-rule="nonzero">
            <path d="M102,516 C101.447715,516 101,516.447715 101,517 L101,529 C101,529.552285 101.447715,530 102,530 L114,530 C114.552285,530 115,529.552285 115,529 L115,517 C115,516.447715 114.552285,516 114,516 L102,516 Z M102,515 L114,515 C115.104569,515 116,515.895431 116,517 L116,529 C116,530.104569 115.104569,531 114,531 L102,531 C100.895431,531 100,530.104569 100,529 L100,517 C100,515.895431 100.895431,515 102,515 Z M105.5,526 L107.5,526 C109.156854,526 110.5,524.656854 110.5,523 C110.5,521.343146 109.156854,520 107.5,520 L105.5,520 L105.5,526 Z M107.5,527 L104.5,527 L104.5,519 L107.5,519 C109.709139,519 111.5,520.790861 111.5,523 C111.5,525.209139 109.709139,527 107.5,527 Z" id="widget-demo"></path>
        </g>
    </g>
</svg>