<svg width="108" height="108" viewBox="0 0 108 108" fill="none" xmlns="http://www.w3.org/2000/svg">
  <g id="thumbnail/map/desktop-2" clip-path="url(#clip0_701_491)">
    <rect id="Background" width="108" height="108" fill="#181818"/>
    <rect id="Rectangle Copy 6" x="98" y="84" width="6" height="12" fill="#6A6A6A"/>
    <rect id="Rectangle Copy 5" x="4" y="4" width="6" height="6" fill="#6A6A6A"/>
    <rect id="Rectangle Copy 11" x="12" y="4" width="6" height="6" fill="#6A6A6A"/>
    <rect id="Rectangle Copy 12" x="20" y="4" width="6" height="6" fill="#6A6A6A"/>
    <rect id="Rectangle Copy 13" x="28" y="4" width="6" height="6" fill="#6A6A6A"/>
    <rect id="Rectangle Copy 14" x="36" y="4" width="12" height="6" fill="#6A6A6A"/>
    <rect id="Rectangle Copy 7" x="98" y="98" width="6" height="6" fill="#6A6A6A"/>
    <path id="Shape" d="M88.174 0C87.8584 1.13674 87.0023 2.0906 85.8339 2.60743C80.2753 4.97186 74.9695 7.88014 74.9695 11.1047C74.9695 13.2801 76.9581 14.2753 76.9581 16.4623C76.9581 19.5364 72.818 20.3464 71.8623 22.9037C71.7311 23.2555 71.6645 23.6242 71.6651 23.9953C71.6651 26.1861 74.3138 30.7453 68.1422 30.3441C66.6551 30.2554 63.8822 32.8011 64.165 34.1203C64.8336 37.0941 66.3722 42.6446 61.0793 45.225C56.7678 47.3233 56.9478 53.163 52.0448 53.163C49.0705 53.163 47.9648 50.3859 44.9947 50.3859C42.8205 50.5239 41.1606 52.1903 41.2447 54.1504C41.2447 56.9816 38.6003 61.6911 34.4088 61.6911C32.2815 61.892 30.2181 60.9634 29.1202 59.3113C27.7959 57.1783 26.5873 55.1456 23.8273 55.1456C20.9078 55.2624 18.6429 57.4818 18.7615 60.1097C18.7615 62.0383 19.64 63.1299 19.64 65.0661C19.64 68.0439 17 69.4286 17 72.4101C17.2028 74.098 18.8662 75.3313 20.7458 75.1873C23.7758 75.1873 24.5601 73.7139 27.573 73.9916C29.7288 74.1883 30.4445 76.7224 30.4445 77.9644C30.4445 82.9749 21.0029 84.5871 24.4873 90.855C25.8973 93.3776 34.8503 92.1934 34.8503 96.4131C34.828 97.8837 34.519 99.3394 33.9374 100.714C33.0445 102.554 32.5332 104.525 32.4288 106.53C32.4288 106.789 32.4717 107.329 32.5402 108H53.0006C53.922 105.092 56.5706 102.099 56.5706 100.44V100.216C52.2848 98.8084 54.732 97.9367 54.732 96.4671C54.732 92.0006 62.3779 92.5946 62.3779 88.1357C62.3779 86.7934 60.8007 86.2959 60.8007 84.9613C60.8007 81.6827 65.1422 81.0386 65.1422 77.7677V73.8951C65.1422 72.4101 67.3022 71.388 68.9565 71.388C70.8251 71.388 72.2137 72.5181 74.0909 72.5181C78.2267 72.5181 78.5481 66.8096 82.6882 66.8096C85.7739 66.8096 85.7225 70.0881 87.9811 71.8779C90.2726 73.2312 93.0564 73.7356 95.7512 73.2857H101.151C102.038 73.2857 105.291 71.8779 108 71.2029V0H88.174Z" fill="#363636"/>
    <rect id="Rectangle Copy 8" x="4" y="94" width="10" height="10" fill="#6A6A6A"/>
    <rect id="Rectangle Copy 9" x="99" y="4" width="6" height="6" fill="#6A6A6A"/>
    <rect id="Rectangle Copy 15" x="98" y="70" width="6" height="12" fill="#6A6A6A"/>
    <rect id="Rectangle Copy 17" x="98" y="56" width="6" height="12" fill="#6A6A6A"/>
    <rect id="Rectangle Copy 16" x="98" y="48" width="6" height="6" rx="3" fill="#6A6A6A"/>
  </g>
  <defs>
    <clipPath id="clip0_701_491">
      <rect width="108" height="108" fill="white"/>
    </clipPath>
  </defs>
</svg>
