<?xml version="1.0" encoding="UTF-8"?>
<svg width="16px" height="16px" viewBox="0 0 16 16" version="1.1" xmlns="http://www.w3.org/2000/svg" xmlns:xlink="http://www.w3.org/1999/xlink">
    <g stroke="none" stroke-width="1" fill="none" fill-rule="evenodd">
        <g transform="translate(-389.000000, -790.000000)" fill="#000000" fill-rule="nonzero">
            <path d="M404,792 L390,792 L390,804 C390,804.552285 390.447715,805 391,805 L403,805 C403.552285,805 404,804.552285 404,804 L404,792 Z M391,790 L403,790 C404.104569,790 405,790.895431 405,792 L405,804 C405,805.104569 404.104569,806 403,806 L391,806 C389.895431,806 389,805.104569 389,804 L389,792 C389,790.895431 389.895431,790 391,790 Z M392,793 L396,793 C396.552285,793 397,793.447715 397,794 L397,798 C397,798.552285 396.552285,799 396,799 L392,799 C391.447715,799 391,798.552285 391,798 L391,794 C391,793.447715 391.447715,793 392,793 Z M392,794 L392,798 L396,798 L396,794 L392,794 Z M399,799 L402,799 C402.552285,799 403,799.447715 403,800 L403,803 C403,803.552285 402.552285,804 402,804 L399,804 C398.447715,804 398,803.552285 398,803 L398,800 C398,799.447715 398.447715,799 399,799 Z M399,800 L399,803 L402,803 L402,800 L399,800 Z"></path>
        </g>
    </g>
</svg>