<svg width="20" height="20" viewBox="0 0 20 20" fill="none" xmlns="http://www.w3.org/2000/svg">
<path fill-rule="evenodd" clip-rule="evenodd" d="M0 2C0 0.895431 0.895431 0 2 0V1C1.44772 1 1 1.44772 1 2H0Z" fill="black"/>
<path fill-rule="evenodd" clip-rule="evenodd" d="M18 0V1C18.5523 1 19 1.44772 19 2H20C20 0.89543 19.1046 0 18 0Z" fill="black"/>
<path fill-rule="evenodd" clip-rule="evenodd" d="M2 20V19C1.44772 19 1 18.5523 1 18H0C0 19.1046 0.89543 20 2 20Z" fill="black"/>
<path fill-rule="evenodd" clip-rule="evenodd" d="M18 20V19C18.5523 19 19 18.5523 19 18H20C20 19.1046 19.1046 20 18 20Z" fill="black"/>
<path d="M3 0H5V1H3V0Z" fill="black"/>
<path d="M0 3H1V5H0V3Z" fill="black"/>
<path d="M0 7H1V9H0V7Z" fill="black"/>
<path d="M0 11H1V13H0V11Z" fill="black"/>
<path d="M0 15H1V17H0V15Z" fill="black"/>
<path d="M19 3H20V5H19V3Z" fill="black"/>
<path d="M19 7H20V9H19V7Z" fill="black"/>
<path d="M19 11H20V13H19V11Z" fill="black"/>
<path d="M19 15H20V17H19V15Z" fill="black"/>
<path d="M7 0H9V1H7V0Z" fill="black"/>
<path d="M11 0H13V1H11V0Z" fill="black"/>
<path d="M15 0H17V1H15V0Z" fill="black"/>
<path d="M3 19H5V20H3V19Z" fill="black"/>
<path d="M7 19H9V20H7V19Z" fill="black"/>
<path d="M11 19H13V20H11V19Z" fill="black"/>
<path d="M15 19H17V20H15V19Z" fill="black"/>
</svg>
