<svg width="20" height="20" viewBox="0 0 20 20" fill="none" xmlns="http://www.w3.org/2000/svg">
<path fill-rule="evenodd" clip-rule="evenodd" d="M10.2255 0.0541939C10.0847 -0.0180646 9.91531 -0.0180646 9.77451 0.0541939L0.250808 4.94182C-0.0949808 5.11928 -0.0798931 5.59747 0.276457 5.75475L9.80016 9.95803C9.92694 10.014 10.0731 10.014 10.1998 9.95803L19.7235 5.75475C20.0799 5.59747 20.095 5.11928 19.7492 4.94182L10.2255 0.0541939ZM10 9.04467L1.54156 5.31154L10 0.970621L18.4584 5.31154L10 9.04467Z" fill="black"/>
<path d="M0.676142 10.0408C0.437433 9.93867 0.154448 10.0349 0.0440785 10.2558C-0.0662915 10.4766 0.037748 10.7384 0.276457 10.8406L10 15L19.7235 10.8406C19.9623 10.7384 20.0663 10.4766 19.9559 10.2558C19.8456 10.0349 19.5626 9.93867 19.3239 10.0408L10 14.0293L0.676142 10.0408Z" fill="black"/>
<path fill-rule="evenodd" clip-rule="evenodd" d="M0.676142 15.0408C0.437433 14.9387 0.154448 15.0349 0.0440785 15.2558C-0.0662915 15.4766 0.037748 15.7384 0.276457 15.8406L10 20L19.7235 15.8406C19.9623 15.7384 20.0663 15.4766 19.9559 15.2558C19.8456 15.0349 19.5626 14.9387 19.3239 15.0408L10 19.0293L0.676142 15.0408ZM10 19.0293L10.1998 19.1147H9.80016L10 19.0293Z" fill="black"/>
</svg>
