<svg width="20" height="20" viewBox="0 0 20 20" fill="none" xmlns="http://www.w3.org/2000/svg">
<path d="M2 3H16V0L20 4H2V3Z" fill="black"/>
<path d="M5.28098 6L3.44791 8.98305L1.59302 6H0.272778L2.76051 9.76271L0 14H1.33116L3.40427 10.6328L5.52103 14H6.88492L4.08076 9.78531L6.54667 6H5.28098Z" fill="black"/>
<path d="M9.9506 14H11.0417V10.5424L13.9332 6H12.6784L10.5289 9.61582L8.39031 6H7.05915L9.9506 10.5424V14Z" fill="black"/>
<path d="M19.9345 6.98305L15.5701 13.0056H20V14H14.2608V13.0169L18.6143 6.98305H14.348V6H19.9345V6.98305Z" fill="black"/>
<path d="M18 17V16H0L4 20V17H18Z" fill="black"/>
</svg>
