<svg width="20" height="20" viewBox="0 0 20 20" fill="none" xmlns="http://www.w3.org/2000/svg">
<path fill-rule="evenodd" clip-rule="evenodd" d="M7.5 14C11.0899 14 14 11.0899 14 7.5C14 3.91015 11.0899 1 7.5 1C3.91015 1 1 3.91015 1 7.5C1 11.0899 3.91015 14 7.5 14ZM7.5 15C9.38395 15 11.1057 14.3054 12.423 13.1583L18.5467 19.5329C18.738 19.732 19.0545 19.7384 19.2537 19.5471C19.4528 19.3558 19.4592 19.0392 19.2679 18.8401L13.1321 12.4529C14.2948 11.1318 15 9.39825 15 7.5C15 3.35786 11.6421 0 7.5 0C3.35786 0 0 3.35786 0 7.5C0 11.6421 3.35786 15 7.5 15ZM19.5 2C19.7761 2 20 1.77614 20 1.5C20 1.22386 19.7761 1 19.5 1H15.5C15.2239 1 15 1.22386 15 1.5C15 1.77614 15.2239 2 15.5 2H19.5ZM19.5 5C19.7761 5 20 4.77614 20 4.5C20 4.22386 19.7761 4 19.5 4H16.5C16.2239 4 16 4.22386 16 4.5C16 4.77614 16.2239 5 16.5 5L19.5 5ZM20 7.5C20 7.77614 19.7761 8 19.5 8H17.5C17.2239 8 17 7.77614 17 7.5C17 7.22386 17.2239 7 17.5 7L19.5 7C19.7761 7 20 7.22386 20 7.5Z" fill="black"/>
</svg>
