<svg width="20" height="20" viewBox="0 0 20 20" fill="none" xmlns="http://www.w3.org/2000/svg">
<path d="M8.5 4C8.22386 4 8 4.22386 8 4.5C8 4.77614 8.22386 5 8.5 5H16.5C16.7761 5 17 4.77614 17 4.5C17 4.22386 16.7761 4 16.5 4H8.5Z" fill="black"/>
<path d="M8.5 7C8.22386 7 8 7.22386 8 7.5C8 7.77614 8.22386 8 8.5 8H13.5C13.7761 8 14 7.77614 14 7.5C14 7.22386 13.7761 7 13.5 7H8.5Z" fill="black"/>
<path d="M8 10.5C8 10.2239 8.22386 10 8.5 10H16.5C16.7761 10 17 10.2239 17 10.5C17 10.7761 16.7761 11 16.5 11H8.5C8.22386 11 8 10.7761 8 10.5Z" fill="black"/>
<path d="M3.5 10C3.22386 10 3 10.2239 3 10.5C3 10.7761 3.22386 11 3.5 11H5.5C5.77614 11 6 10.7761 6 10.5C6 10.2239 5.77614 10 5.5 10H3.5Z" fill="black"/>
<path d="M4 7.5C4 7.22386 4.22386 7 4.5 7H5.5C5.77614 7 6 7.22386 6 7.5C6 7.77614 5.77614 8 5.5 8H4.5C4.22386 8 4 7.77614 4 7.5Z" fill="black"/>
<path d="M3.5 4C3.22386 4 3 4.22386 3 4.5C3 4.77614 3.22386 5 3.5 5H5.5C5.77614 5 6 4.77614 6 4.5C6 4.22386 5.77614 4 5.5 4H3.5Z" fill="black"/>
<path d="M4 15.5L6 14V17L4 15.5Z" fill="black"/>
<path d="M16 15.5L14 14V17L16 15.5Z" fill="black"/>
<path fill-rule="evenodd" clip-rule="evenodd" d="M20 2C20 0.89543 19.1046 0 18 0H2C0.89543 0 0 0.89543 0 2V18C0 19.1046 0.89543 20 2 20H18C19.1046 20 20 19.1046 20 18V2ZM2 1H18C18.5523 1 19 1.44772 19 2V18C19 18.5523 18.5523 19 18 19H2C1.44772 19 1 18.5523 1 18V2C1 1.44772 1.44772 1 2 1Z" fill="black"/>
</svg>
