<svg width="20" height="20" viewBox="0 0 20 20" fill="none" xmlns="http://www.w3.org/2000/svg">
<path fill-rule="evenodd" clip-rule="evenodd" d="M8 2.5C8 1.11938 9.11926 0 10.5 0H17.5C18.8807 0 20 1.11938 20 2.5V11.5C20 12.8806 18.8807 14 17.5 14H16V14.5C16 15.8806 14.8807 17 13.5 17H12V18C12 19.1045 11.1046 20 10 20H2C0.895447 20 0 19.1045 0 18V8C0 6.89551 0.895447 6 2 6H4V5.5C4 4.11938 5.11926 3 6.5 3H8V2.5ZM5 6H10C11.1046 6 12 6.89551 12 8V16H13.5C14.3284 16 15 15.3284 15 14.5V5.5C15 4.67163 14.3284 4 13.5 4H6.5C5.67157 4 5 4.67163 5 5.5V6ZM17.5 13H16V5.5C16 4.11938 14.8807 3 13.5 3H9V2.5C9 1.67163 9.67157 1 10.5 1H17.5C18.3284 1 19 1.67163 19 2.5V11.5C19 12.3284 18.3284 13 17.5 13ZM2 7H10C10.5523 7 11 7.44775 11 8V18C11 18.5522 10.5523 19 10 19H2C1.44769 19 1 18.5522 1 18V8C1 7.44775 1.44769 7 2 7Z" fill="black"/>
</svg>
