<svg width="20" height="20" viewBox="0 0 20 20" fill="none" xmlns="http://www.w3.org/2000/svg">
<path d="M10.2265 13.6936L7.21153 10.5496C6.91769 10.2431 6.9317 9.73171 7.24283 9.40726C7.55396 9.08282 8.04439 9.0682 8.33823 9.37463L10.9985 12.1488L15.6931 7.25323C16.0042 6.92878 16.4946 6.91417 16.7885 7.22059C17.0823 7.52701 17.0683 8.03843 16.7572 8.36288L11.6453 13.6936C11.2535 14.1021 10.6183 14.1021 10.2265 13.6936Z" fill="black"/>
<path fill-rule="evenodd" clip-rule="evenodd" d="M20 2C20 0.89543 19.0519 0 17.8824 0H4.11765C2.9481 0 2 0.89543 2 2V4H1C0.447715 4 0 4.44772 0 5C0 5.55228 0.447715 6 1 6H2V9H1C0.447715 9 0 9.44771 0 10C0 10.5523 0.447715 11 1 11H2V14H1C0.447715 14 0 14.4477 0 15C0 15.5523 0.447715 16 1 16H2V18C2 19.1046 2.9481 20 4.11765 20H17.8824C19.0519 20 20 19.1046 20 18V2ZM3 16V18C3 18.5523 3.47756 19 4.06667 19H17.9333C18.5224 19 19 18.5523 19 18V2C19 1.44772 18.5224 1 17.9333 1H4.06667C3.47756 1 3 1.44772 3 2V4H4C4.55228 4 5 4.44772 5 5C5 5.55228 4.55228 6 4 6H3V9H4C4.55228 9 5 9.44771 5 10C5 10.5523 4.55228 11 4 11H3V14H4C4.55228 14 5 14.4477 5 15C5 15.5523 4.55228 16 4 16H3Z" fill="black"/>
</svg>
