<svg width="20" height="20" viewBox="0 0 20 20" fill="none" xmlns="http://www.w3.org/2000/svg">
<path d="M11.4832 8.64918C11.5531 8.37412 11.3984 8.0914 11.1378 8.0177C10.8772 7.944 10.6094 8.10723 10.5396 8.38228L8.51677 16.3508C8.44694 16.6259 8.60158 16.9086 8.86217 16.9823C9.12275 17.056 9.3906 16.8928 9.46042 16.6177L11.4832 8.64918Z" fill="black"/>
<path d="M7.36033 8.13895C7.54656 8.32423 7.54656 8.62461 7.36033 8.80988L3.65124 12.5L7.36033 16.1901C7.54656 16.3754 7.54656 16.6758 7.36033 16.861C7.17411 17.0463 6.87218 17.0463 6.68595 16.861L2.63967 12.8355C2.45344 12.6502 2.45344 12.3498 2.63967 12.1645L6.68595 8.13895C6.87218 7.95368 7.17411 7.95368 7.36033 8.13895Z" fill="black"/>
<path d="M12.6397 8.13895C12.4534 8.32423 12.4534 8.62461 12.6397 8.80988L16.3488 12.5L12.6397 16.1901C12.4534 16.3754 12.4534 16.6758 12.6397 16.861C12.8259 17.0463 13.1278 17.0463 13.314 16.861L17.3603 12.8355C17.5466 12.6502 17.5466 12.3498 17.3603 12.1645L13.314 8.13895C13.1278 7.95368 12.8259 7.95368 12.6397 8.13895Z" fill="black"/>
<path fill-rule="evenodd" clip-rule="evenodd" d="M20 2C20 0.89543 19.1046 0 18 0H2C0.89543 0 0 0.89543 0 2V18C0 19.1046 0.89543 20 2 20H18C19.1046 20 20 19.1046 20 18V2ZM2 1H18C18.5523 1 19 1.44772 19 2V18C19 18.5523 18.5523 19 18 19H2C1.44772 19 1 18.5523 1 18V2C1 1.44772 1.44772 1 2 1Z" fill="black"/>
<path d="M1 5H19V6H1V5Z" fill="black"/>
<path d="M3 4C3.55228 4 4 3.55228 4 3C4 2.44772 3.55228 2 3 2C2.44772 2 2 2.44772 2 3C2 3.55228 2.44772 4 3 4Z" fill="black"/>
<path d="M6 4C6.55228 4 7 3.55228 7 3C7 2.44772 6.55228 2 6 2C5.44772 2 5 2.44772 5 3C5 3.55228 5.44772 4 6 4Z" fill="black"/>
<path d="M10 3C10 3.55228 9.55228 4 9 4C8.44772 4 8 3.55228 8 3C8 2.44772 8.44772 2 9 2C9.55228 2 10 2.44772 10 3Z" fill="black"/>
</svg>
