<svg width="20" height="20" viewBox="0 0 20 20" fill="none" xmlns="http://www.w3.org/2000/svg">
<path d="M18 0H0V16H7V15H1V1H17V7.5H18V0Z" fill="black"/>
<path fill-rule="evenodd" clip-rule="evenodd" d="M13 18.5C14.3676 18.5 15.6185 18.001 16.5807 17.1748L19.269 19.863L19.9761 19.156L17.2776 16.4575C18.0421 15.5129 18.5 14.3098 18.5 13C18.5 9.9624 16.0375 7.5 13 7.5C9.96246 7.5 7.5 9.9624 7.5 13C7.5 16.0376 9.96246 18.5 13 18.5ZM13 17.5C15.4853 17.5 17.5 15.4854 17.5 13C17.5 10.5146 15.4853 8.5 13 8.5C10.5147 8.5 8.5 10.5146 8.5 13C8.5 15.4854 10.5147 17.5 13 17.5Z" fill="black"/>
<path d="M3 3H15V4H3V3Z" fill="black"/>
<path d="M9 6H3V7H9V6Z" fill="black"/>
<path d="M3 9H6V10H3V9Z" fill="black"/>
<path d="M6 12H3V13H6V12Z" fill="black"/>
</svg>
