<svg width="20" height="20" viewBox="0 0 20 20" fill="none" xmlns="http://www.w3.org/2000/svg">
<path d="M2.5 3C2.77614 3 3 2.77614 3 2.5C3 2.22386 2.77614 2 2.5 2C2.22386 2 2 2.22386 2 2.5C2 2.77614 2.22386 3 2.5 3Z" fill="black"/>
<path d="M4.5 3C4.77614 3 5 2.77614 5 2.5C5 2.22386 4.77614 2 4.5 2C4.22386 2 4 2.22386 4 2.5C4 2.77614 4.22386 3 4.5 3Z" fill="black"/>
<path d="M7 2.5C7 2.77614 6.77614 3 6.5 3C6.22386 3 6 2.77614 6 2.5C6 2.22386 6.22386 2 6.5 2C6.77614 2 7 2.22386 7 2.5Z" fill="black"/>
<path d="M3 10.5C3 10.2239 3.22386 10 3.5 10H16.5C16.7761 10 17 10.2239 17 10.5C17 10.7761 16.7761 11 16.5 11H3.5C3.22386 11 3 10.7761 3 10.5Z" fill="black"/>
<path d="M3 14.5C3 14.2239 3.22386 14 3.5 14H10.5C10.7761 14 11 14.2239 11 14.5C11 14.7761 10.7761 15 10.5 15H3.5C3.22386 15 3 14.7761 3 14.5Z" fill="black"/>
<path fill-rule="evenodd" clip-rule="evenodd" d="M18 0C19.1046 0 20 0.89543 20 2V18C20 19.1046 19.1046 20 18 20H2C0.89543 20 0 19.1046 0 18V2C0 0.89543 0.89543 0 2 0H18ZM18 1H2C1.48716 1 1.06449 1.38604 1.00673 1.88338L1 2V4H19V2C19 1.48716 18.614 1.06449 18.1166 1.00673L18 1ZM19 5H1V18C1 18.5128 1.38604 18.9355 1.88338 18.9933L2 19H18C18.5128 19 18.9355 18.614 18.9933 18.1166L19 18V5Z" fill="black"/>
</svg>
