<svg width="20" height="20" viewBox="0 0 20 20" fill="none" xmlns="http://www.w3.org/2000/svg">
<path fill-rule="evenodd" clip-rule="evenodd" d="M18.5 0.995117C18.5 0.445529 18.0699 0 17.5393 0H2.46074C2.24009 0 2.02617 0.0786713 1.85492 0.222793C1.44313 0.569359 1.38054 1.19609 1.71512 1.62263L6.49869 7.72098C6.62129 7.87727 6.69522 8.0684 6.71072 8.26913L7.54599 19.084C7.55313 19.1763 7.57269 19.2672 7.6041 19.354C7.7904 19.8686 8.34417 20.1293 8.84097 19.9364L10.9534 19.1158C11.2842 18.9873 11.5202 18.6811 11.568 18.3185L12.8925 8.25694C12.918 8.06386 12.9976 7.88276 13.1214 7.73611L18.2623 1.65041C18.4155 1.469 18.5 1.23616 18.5 0.995117ZM2.5 1H17.499L12.3575 7.09079L12.2411 7.24287C12.0599 7.50488 11.943 7.80792 11.9011 8.12642L10.5765 18.188L8.541 18.98L7.70775 8.19213L7.68756 8.02326C7.63318 7.68825 7.49542 7.3714 7.28551 7.10379L2.50194 1.00545L2.5 1Z" fill="black"/>
</svg>
