<svg width="20" height="20" viewBox="0 0 20 20" fill="none" xmlns="http://www.w3.org/2000/svg">
<path fill-rule="evenodd" clip-rule="evenodd" d="M19 0V20H3.5C2.11929 20 1 18.8811 1 17.5009V2.49913C1 1.1189 2.11929 0 3.5 0H19ZM2 14.5017V2.49913L2.00687 2.35472C2.07955 1.59433 2.7203 0.999653 3.5 0.999653H8.5V7.99722L11.5 5.99792L14.5 7.99722V0.999653H18V14.0021H3.5L3.33562 14.0074C2.83624 14.0398 2.37683 14.2188 2 14.5017ZM2 16.5012V17.5009C2 18.329 2.67157 19.0003 3.5 19.0003L18 18.9994V15.0017H3.5C2.7203 15.0017 2.07955 15.5964 2.00687 16.3568L2 16.5012Z" fill="black"/>
</svg>
