<svg width="20" height="20" viewBox="0 0 20 20" fill="none" xmlns="http://www.w3.org/2000/svg">
<path fill-rule="evenodd" clip-rule="evenodd" d="M20 2C20 0.89543 19.1046 0 18 0H2C0.89543 0 0 0.89543 0 2V18C0 19.1046 0.89543 20 2 20H18C19.1046 20 20 19.1046 20 18V2ZM2 1H18C18.5523 1 19 1.44772 19 2V18C19 18.5523 18.5523 19 18 19H2C1.44772 19 1 18.5523 1 18V2C1 1.44772 1.44772 1 2 1Z" fill="black"/>
<path fill-rule="evenodd" clip-rule="evenodd" d="M9 4C9 3.44772 8.55228 3 8 3H4C3.44772 3 3 3.44772 3 4V8C3 8.55228 3.44772 9 4 9H8C8.55228 9 9 8.55228 9 8V4ZM4 8V4H8V8H4Z" fill="black"/>
<path fill-rule="evenodd" clip-rule="evenodd" d="M17 4C17 3.44772 16.5523 3 16 3H12C11.4477 3 11 3.44772 11 4V8C11 8.55228 11.4477 9 12 9H16C16.5523 9 17 8.55228 17 8V4ZM12 8V4H16V8H12Z" fill="black"/>
<path fill-rule="evenodd" clip-rule="evenodd" d="M9 12C9 11.4477 8.55228 11 8 11H4C3.44772 11 3 11.4477 3 12V16C3 16.5523 3.44772 17 4 17H8C8.55228 17 9 16.5523 9 16V12ZM4 16V12H8V16H4Z" fill="black"/>
<path fill-rule="evenodd" clip-rule="evenodd" d="M17 14C17 12.3431 15.6569 11 14 11C12.3431 11 11 12.3431 11 14C11 15.6569 12.3431 17 14 17C15.6569 17 17 15.6569 17 14ZM12 14C12 12.8954 12.8954 12 14 12C15.1046 12 16 12.8954 16 14C16 15.1046 15.1046 16 14 16C12.8954 16 12 15.1046 12 14Z" fill="black"/>
</svg>
