<svg width="20" height="20" viewBox="0 0 20 20" fill="none" xmlns="http://www.w3.org/2000/svg">
<path fill-rule="evenodd" clip-rule="evenodd" d="M14.5 15.5C14.5 13.0147 12.4853 11 10 11C7.51472 11 5.5 13.0147 5.5 15.5C5.5 17.9853 7.51472 20 10 20C12.4853 20 14.5 17.9853 14.5 15.5ZM6.4 15.5C6.4 13.5118 8.01178 11.9 10 11.9C11.9882 11.9 13.6 13.5118 13.6 15.5C13.6 17.4882 11.9882 19.1 10 19.1C8.01178 19.1 6.4 17.4882 6.4 15.5Z" fill="black"/>
<path d="M12.4749 2.23067C12.6701 2.40666 12.6701 2.69201 12.4749 2.868C12.2796 3.044 11.963 3.044 11.7678 2.868L10.5 1.72533V9.5C10.5 9.77614 10.2761 10 10 10C9.72386 10 9.5 9.77614 9.5 9.5V1.72533L8.23223 2.868C8.03697 3.044 7.72039 3.044 7.52513 2.868C7.32986 2.69201 7.32986 2.40666 7.52513 2.23067L10 0L12.4749 2.23067Z" fill="black"/>
<path d="M16 4.5C16 4.77614 16.2239 5 16.5 5H18.3191L13.4289 10.5274C13.2459 10.7342 13.2652 11.0502 13.472 11.2332C13.6788 11.4162 13.9948 11.3969 14.1778 11.19L19 5.73955V7.5C19 7.77614 19.2239 8 19.5 8C19.7761 8 20 7.77614 20 7.5V4H16.5C16.2239 4 16 4.22386 16 4.5Z" fill="black"/>
<path d="M4 4.5C4 4.77614 3.77614 5 3.5 5H1.68232L6.61689 10.4804C6.80166 10.6856 6.7851 11.0018 6.57988 11.1865C6.37467 11.3713 6.05852 11.3547 5.87374 11.1495L1 5.73668V7.5C1 7.77614 0.776142 8 0.5 8C0.223858 8 0 7.77614 0 7.5V4H3.5C3.77614 4 4 4.22386 4 4.5Z" fill="black"/>
</svg>
