<svg width="20" height="20" viewBox="0 0 20 20" fill="none" xmlns="http://www.w3.org/2000/svg">
<path d="M6 5C5.44772 5 5 5.44772 5 6V7.5C5 7.77614 5.22386 8 5.5 8C5.77614 8 6 7.77614 6 7.5V6H9.5V14H8.5C8.22386 14 8 14.2239 8 14.5C8 14.7761 8.22386 15 8.5 15H11.5C11.7761 15 12 14.7761 12 14.5C12 14.2239 11.7761 14 11.5 14H10.5V6H14V7.5C14 7.77614 14.2239 8 14.5 8C14.7761 8 15 7.77614 15 7.5V6C15 5.44772 14.5523 5 14 5H6Z" fill="black"/>
<path fill-rule="evenodd" clip-rule="evenodd" d="M18 0C19.1046 0 20 0.89543 20 2V18C20 19.1046 19.1046 20 18 20H2C0.89543 20 0 19.1046 0 18V2C0 0.89543 0.89543 0 2 0H18ZM18 1H2C1.44772 1 1 1.44772 1 2V18C1 18.5523 1.44772 19 2 19H18C18.5523 19 19 18.5523 19 18V2C19 1.44772 18.5523 1 18 1Z" fill="black"/>
</svg>
