<svg width="20" height="20" viewBox="0 0 20 20" fill="none" xmlns="http://www.w3.org/2000/svg">
<path fill-rule="evenodd" clip-rule="evenodd" d="M3 5L1.5 2L0 5H3ZM19.3182 3C19.6947 3 20 3.22386 20 3.5C20 3.77614 19.6947 4 19.3182 4H5.68182C5.30526 4 5 3.77614 5 3.5C5 3.22386 5.30526 3 5.68182 3H19.3182ZM20 9.5C20 9.22386 19.6947 9 19.3182 9H5.68182C5.30526 9 5 9.22386 5 9.5C5 9.77614 5.30526 10 5.68182 10H19.3182C19.6947 10 20 9.77614 20 9.5ZM20 15.5C20 15.2239 19.6947 15 19.3182 15H5.68182C5.30526 15 5 15.2239 5 15.5C5 15.7761 5.30526 16 5.68182 16H19.3182C19.6947 16 20 15.7761 20 15.5ZM3 15.5C3 14.6716 2.32843 14 1.5 14C0.671573 14 0 14.6716 0 15.5C0 16.3284 0.671573 17 1.5 17C2.32843 17 3 16.3284 3 15.5ZM3 8V11H0V8H3Z" fill="black"/>
</svg>
