<svg width="20" height="20" viewBox="0 0 20 20" fill="none" xmlns="http://www.w3.org/2000/svg">
<path fill-rule="evenodd" clip-rule="evenodd" d="M0 2C0 0.895431 0.895431 0 2 0H18C19.1046 0 20 0.895431 20 2V18C20 19.1046 19.1046 20 18 20H2C0.895431 20 0 19.1046 0 18V2ZM2 1H18C18.5523 1 19 1.44772 19 2V7H1V2C1 1.44772 1.44772 1 2 1ZM13 8H7V11H13V8ZM13 12H7V15H13V12ZM14 15V12H19V15H14ZM13 16H7V19H13V16ZM14 19H18C18.5523 19 19 18.5523 19 18V16H14V19ZM14 11V8H19V11H14ZM1 8H6V11H1V8ZM1 12H6V15H1V12ZM1 16H6V19H2C1.44772 19 1 18.5523 1 18V16Z" fill="black"/>
</svg>
