<svg width="20" height="20" viewBox="0 0 20 20" fill="none" xmlns="http://www.w3.org/2000/svg">
<path fill-rule="evenodd" clip-rule="evenodd" d="M6 0C7.10457 0 8 0.89543 8 2V6C8 7.10457 7.10457 8 6 8H2C0.89543 8 0 7.10457 0 6V2C0 0.89543 0.89543 0 2 0H6ZM6 1H2C1.44772 1 1 1.44772 1 2V6C1 6.55228 1.44772 7 2 7H6C6.55228 7 7 6.55228 7 6V2C7 1.44772 6.55228 1 6 1Z" fill="black"/>
<path d="M10.5 2C10.2239 2 10 2.22386 10 2.5C10 2.77614 10.2239 3 10.5 3H19.5C19.7761 3 20 2.77614 20 2.5C20 2.22386 19.7761 2 19.5 2H10.5Z" fill="black"/>
<path d="M10 5.5C10 5.22386 10.2239 5 10.5 5H19.5C19.7761 5 20 5.22386 20 5.5C20 5.77614 19.7761 6 19.5 6H10.5C10.2239 6 10 5.77614 10 5.5Z" fill="black"/>
<path fill-rule="evenodd" clip-rule="evenodd" d="M6 12C7.10457 12 8 12.8954 8 14V18C8 19.1046 7.10457 20 6 20H2C0.89543 20 0 19.1046 0 18V14C0 12.8954 0.89543 12 2 12H6ZM6 13H2C1.44772 13 1 13.4477 1 14V18C1 18.5523 1.44772 19 2 19H6C6.55228 19 7 18.5523 7 18V14C7 13.4477 6.55228 13 6 13Z" fill="black"/>
<path d="M10 14.5C10 14.2239 10.2239 14 10.5 14H19.5C19.7761 14 20 14.2239 20 14.5C20 14.7761 19.7761 15 19.5 15H10.5C10.2239 15 10 14.7761 10 14.5Z" fill="black"/>
<path d="M10.5 17C10.2239 17 10 17.2239 10 17.5C10 17.7761 10.2239 18 10.5 18H19.5C19.7761 18 20 17.7761 20 17.5C20 17.2239 19.7761 17 19.5 17H10.5Z" fill="black"/>
</svg>
