<svg width="20" height="20" viewBox="0 0 20 20" fill="none" xmlns="http://www.w3.org/2000/svg">
<path d="M5.5 6C5.22386 6 5 6.22386 5 6.5C5 6.77614 5.22386 7 5.5 7H14.5C14.7761 7 15 6.77614 15 6.5C15 6.22386 14.7761 6 14.5 6H5.5Z" fill="black"/>
<path d="M5.5 9.5C5.22386 9.5 5 9.72386 5 10C5 10.2761 5.22386 10.5 5.5 10.5H14.5C14.7761 10.5 15 10.2761 15 10C15 9.72386 14.7761 9.5 14.5 9.5H5.5Z" fill="black"/>
<path d="M5 13.5C5 13.2239 5.22386 13 5.5 13H14.5C14.7761 13 15 13.2239 15 13.5C15 13.7761 14.7761 14 14.5 14H5.5C5.22386 14 5 13.7761 5 13.5Z" fill="black"/>
<path fill-rule="evenodd" clip-rule="evenodd" d="M10 0C15.5228 0 20 4.47715 20 10C20 15.5228 15.5228 20 10 20C4.47715 20 0 15.5228 0 10C0 4.47715 4.47715 0 10 0ZM10 1C5.02944 1 1 5.02944 1 10C1 14.9706 5.02944 19 10 19C14.9706 19 19 14.9706 19 10C19 5.02944 14.9706 1 10 1Z" fill="black"/>
</svg>
