<svg width="20" height="20" viewBox="0 0 20 20" fill="none" xmlns="http://www.w3.org/2000/svg">
<path d="M4 4H6V5H4V4Z" fill="black"/>
<path d="M8 4H10V5H8V4Z" fill="black"/>
<path d="M14 4H12V5H14V4Z" fill="black"/>
<path d="M15 4H16V6H15V4Z" fill="black"/>
<path d="M16 8H15V10H16V8Z" fill="black"/>
<path d="M4 14H5V16H4V14Z" fill="black"/>
<path d="M5 6H4V8H5V6Z" fill="black"/>
<path d="M4 10H5V12H4V10Z" fill="black"/>
<path d="M16 12H15V14H16V12Z" fill="black"/>
<path d="M16 15V16H14V15H16Z" fill="black"/>
<path d="M12 15H10V16H12V15Z" fill="black"/>
<path d="M6 15H8V16H6V15Z" fill="black"/>
<path fill-rule="evenodd" clip-rule="evenodd" d="M18 0C19.1046 0 20 0.89543 20 2V18C20 19.1046 19.1046 20 18 20H2C0.89543 20 0 19.1046 0 18V2C0 0.89543 0.89543 0 2 0H18ZM18 1H2C1.44772 1 1 1.44772 1 2V18C1 18.5523 1.44772 19 2 19H18C18.5523 19 19 18.5523 19 18V2C19 1.44772 18.5523 1 18 1Z" fill="black"/>
</svg>
