<svg width="20" height="20" viewBox="0 0 20 20" fill="none" xmlns="http://www.w3.org/2000/svg">
<path fill-rule="evenodd" clip-rule="evenodd" d="M20 2.00016C20 0.895501 19.1046 0 18 0H2C0.89543 0 0 0.895501 0 2.00016V11.0009C0 12.1055 0.89543 13.001 2 13.001H3.38019C3.40699 14.4886 4.11528 16.3968 5.5 18.0014C7.06156 19.8109 9 20 10.5227 20C12.0454 20 13.7184 19.7993 15 18.5014C16.4972 16.9853 16.5 15.3587 16.4999 13.9306L16.5 12.0009V13.001H18C19.1046 13.001 20 12.1055 20 11.0009V2.00016ZM3.48157 12.0009H2C1.44772 12.0009 1 11.5532 1 11.0009V2.00016C1 1.44783 1.44772 1.00008 2 1.00008H18C18.5523 1.00008 19 1.44783 19 2.00016V11.0009C19 11.5532 18.5523 12.0009 18 12.0009H16.5C16.5 11.3898 16.1684 10.6013 15.5 10.5008L10.9998 9.68273L11 7.00052C11 5.96491 10.1483 5.00037 9 5.00037C7.85173 5.00037 7 5.96491 7 7.00052V11.3107C6.12087 10.0089 4.68227 10.3 4 11.0008C3.75404 11.2535 3.58129 11.5953 3.48157 12.0009ZM10 7.00052C10 6.65532 9.72391 6.00044 9 6.00044C8.27609 6.00044 8 6.65532 8 7.00052V12.501C8 12.8462 7.8121 13.001 7.5 13.001C7.18789 13.001 7 12.501 7 12.501C6.41345 11.2506 4.98077 11.0393 4.5 12.0009C4 13.001 4.54473 15.4512 6.45383 17.5587C7.76081 19.0015 9.20746 19.0015 10.5227 19.0015C11.838 19.0015 12.9273 18.9988 14.0719 18.0014C15.2547 16.9707 15.5 15.6421 15.5 14.0011V12.0009C15.5 11.7423 15.2575 11.5243 15 11.5009L10.5 11.0008C10.2425 10.9774 10 10.7594 10 10.5008V7.00052Z" fill="black"/>
</svg>
