<svg width="16" height="16" viewBox="0 0 16 16" fill="none" xmlns="http://www.w3.org/2000/svg">
<path fill-rule="evenodd" clip-rule="evenodd" d="M1 8C1 4.15 4.15 1 8 1C11.85 1 15 4.15 15 8C15 11.85 11.85 15 8 15C4.15 15 1 11.85 1 8ZM8.875 12.375C8.875 12.8582 8.48325 13.25 8 13.25C7.51675 13.25 7.125 12.8582 7.125 12.375C7.125 11.8918 7.51675 11.5 8 11.5C8.48325 11.5 8.875 11.8918 8.875 12.375ZM8.81186 9.71862C8.94411 9.1478 9.22675 8.8029 9.65978 8.42C10.0928 8.0371 10.3611 7.71125 10.3611 7.71125C10.7508 7.23875 11.0625 6.60875 11.0625 5.9C11.0625 4.1675 9.65978 2.75 7.94535 2.75C6.58849 2.75 5.42496 3.67766 4.99944 4.90687C4.93828 5.05878 4.93828 5.20604 4.93828 5.20604C4.92054 5.59747 5.20579 5.9 5.60748 5.9L5.7076 5.89413C6.10786 5.84765 6.38599 5.61897 6.53579 5.24432C6.61439 5.07959 6.64361 5.03614 6.65795 5.01496C6.93927 4.5992 7.41216 4.325 7.94535 4.325C8.80256 4.325 9.50392 5.03375 9.50392 5.9C9.50392 6.3725 9.34807 6.76625 9.03635 7.0025L8.10121 8.02625C7.59597 8.47299 7.29546 9.07488 7.19967 9.74811C7.19672 9.76888 7.19539 9.79297 7.19481 9.81186L7.19577 9.92888C7.22349 10.3174 7.54365 10.625 7.94535 10.625L8.03715 10.62C8.42993 10.577 8.75137 10.2621 8.77952 9.8801L8.81186 9.71862Z" fill="black"/>
</svg>
