<svg width="16" height="16" viewBox="0 0 16 16" fill="none" xmlns="http://www.w3.org/2000/svg">
<path d="M11 12V14H12V12H14V11H12V9H11V11H9V12H11Z" fill="black"/>
<path fill-rule="evenodd" clip-rule="evenodd" d="M1 1V15H8.67133C9.4442 15.6254 10.4284 16 11.5 16C12.5716 16 13.5558 15.6254 14.3287 15H15V14.3287C15.6254 13.5558 16 12.5716 16 11.5C16 10.4284 15.6254 9.4442 15 8.67133V1H1ZM14 7.75777V2H11.366C11.2381 2.11238 11.1592 2.27026 11.146 2.44C11.146 2.58175 11.2045 2.68487 11.2628 2.7878C11.321 2.89036 11.379 2.99275 11.379 3.133C11.379 3.3576 11.2249 3.48921 11.0706 3.62092C10.9515 3.72261 10.8324 3.82436 10.784 3.969C10.7688 4.01478 10.7614 4.06277 10.762 4.111C10.762 4.17211 10.7764 4.24753 10.7916 4.32773C10.8471 4.61896 10.9145 4.9732 10.35 4.934C10.176 4.921 9.854 5.252 9.886 5.421L9.8971 5.47548C9.97862 5.87318 10.1161 6.54398 9.526 6.861C9.30525 6.98125 9.18523 7.19434 9.07186 7.39561C8.92692 7.65296 8.79284 7.891 8.473 7.891C8.29887 7.891 8.17958 7.80087 8.06037 7.71081C7.94133 7.62087 7.82238 7.531 7.649 7.531C7.52707 7.53973 7.41332 7.59553 7.33177 7.68659C7.25022 7.77765 7.20728 7.89685 7.212 8.019C7.212 8.386 6.904 8.996 6.414 8.996C6.29251 9.00868 6.16992 8.98643 6.06064 8.93188C5.95135 8.87732 5.85989 8.79272 5.797 8.688L5.78832 8.67244C5.63763 8.40216 5.49593 8.148 5.179 8.148C5.01567 8.15553 4.86196 8.22737 4.75142 8.34785C4.64088 8.46832 4.58249 8.62763 4.589 8.791C4.589 8.916 4.6145 9.01425 4.64 9.1125C4.6655 9.21075 4.691 9.309 4.691 9.434C4.691 9.627 4.614 9.7685 4.537 9.91C4.46 10.0515 4.383 10.193 4.383 10.386C4.39462 10.4911 4.44678 10.5875 4.52839 10.6547C4.61 10.722 4.71462 10.7547 4.82 10.746C4.98726 10.746 5.09604 10.7038 5.20127 10.663C5.31876 10.6174 5.43185 10.5735 5.617 10.592C5.869 10.617 5.951 10.945 5.951 11.105C5.951 11.3798 5.755 11.5758 5.55908 11.7718C5.29086 12.0401 5.0228 12.3082 5.258 12.778C5.32701 12.9156 5.55167 12.968 5.78876 13.0234C6.1151 13.0995 6.465 13.1812 6.465 13.498C6.46302 13.6692 6.4326 13.8388 6.375 14H7.75777C7.27914 13.285 7 12.4251 7 11.5C7 9.01472 9.01472 7 11.5 7C12.4251 7 13.285 7.27914 14 7.75777ZM2 14V2H10.278C10.2727 2.03148 10.2497 2.09673 10.2243 2.1686C10.1876 2.27254 10.146 2.39034 10.146 2.44C10.1461 2.63448 10.1842 2.82708 10.258 3.007C10.0671 3.18383 9.92229 3.40454 9.836 3.65C9.78822 3.79252 9.76325 3.94169 9.762 4.092C9.55555 4.19677 9.37305 4.34318 9.226 4.522C9.09455 4.6684 8.99758 4.84239 8.9422 5.03119C8.88683 5.21999 8.87446 5.41879 8.906 5.613C8.93699 5.74942 8.95904 5.88771 8.972 6.027C8.70557 6.19567 8.4831 6.42533 8.323 6.697C8.11492 6.58836 7.88374 6.53142 7.649 6.531C7.33121 6.53501 7.02358 6.64354 6.77361 6.83983C6.52365 7.03611 6.34526 7.30923 6.266 7.617C6.12839 7.46654 5.96046 7.34694 5.77327 7.2661C5.58608 7.18526 5.38388 7.14501 5.18 7.148C4.75138 7.15563 4.34326 7.33283 4.04505 7.64079C3.74684 7.94875 3.58285 8.36236 3.589 8.791C3.589 8.90612 3.61221 8.97708 3.6349 9.04642C3.66226 9.13006 3.68886 9.21136 3.673 9.365C3.6614 9.47744 3.61265 9.58555 3.55834 9.706C3.47692 9.88657 3.383 10.0949 3.383 10.387C3.38839 10.6788 3.48672 10.9612 3.6637 11.1932C3.84067 11.4252 4.08705 11.5947 4.367 11.677C4.23383 11.9133 4.16362 12.1799 4.16309 12.4511C4.16257 12.7224 4.23175 12.9892 4.364 13.226C4.43323 13.3645 4.58449 13.5503 4.71056 13.7051C4.84489 13.8701 4.95062 14 4.898 14H2ZM11.5 15C13.433 15 15 13.433 15 11.5C15 9.567 13.433 8 11.5 8C9.567 8 8 9.567 8 11.5C8 13.433 9.567 15 11.5 15Z" fill="black"/>
</svg>
