<!-- Generated by IcoMoon.io -->
<svg version="1.1" xmlns="http://www.w3.org/2000/svg" width="33" height="32" viewBox="0 0 33 32">
<path d="M31.988 19.399v-17.945h-5.526c-0.82 0.511-1.427 1.078-1.427 1.686 0 0.618 0.506 0.899 0.506 1.513 0 0.87-1.055 1.1-1.297 1.824-0.033 0.1-0.049 0.206-0.048 0.311 0 0.618 0.672 1.905-0.9 1.793-0.377-0.026-1.082 0.695-1.009 1.065 0.169 0.844 0.56 2.417-0.787 3.142-1.097 0.596-1.052 2.246-2.298 2.246-0.758 0-1.040-0.784-1.796-0.784-0.553 0.040-0.975 0.511-0.954 1.065 0 0.801-0.673 2.131-1.741 2.131-0.542 0.056-1.067-0.206-1.347-0.673-0.336-0.601-0.643-1.175-1.345-1.175-0.742 0.032-1.319 0.658-1.29 1.401 0 0.545 0.224 0.857 0.224 1.402 0 0.844-0.673 1.236-0.673 2.080 0.053 0.477 0.476 0.824 0.954 0.784 0.772 0 0.972-0.413 1.74-0.336 0.55 0.055 0.729 0.771 0.729 1.12 0 1.42-2.401 1.875-1.513 3.648 0.358 0.716 2.636 0.38 2.636 1.572-0.006 0.415-0.085 0.826-0.233 1.215-0.227 0.52-0.357 1.078-0.384 1.645 0.004 0.139 0.013 0.279 0.028 0.417h5.21c0.083-0.291 0.221-0.586 0.365-0.865 1.446 1.434 3.436 2.32 5.633 2.32 4.418 0 8-3.582 8-8 0-1.713-0.538-3.3-1.455-4.601zM28.397 0h5.046v32h-32v-32h26.954zM25.443 29.091c2.812 0 5.091-2.279 5.091-5.091s-2.279-5.091-5.091-5.091c-2.812 0-5.091 2.279-5.091 5.091s2.279 5.091 5.091 5.091zM25.443 30.545c-3.615 0-6.545-2.93-6.545-6.545s2.93-6.545 6.545-6.545c3.615 0 6.545 2.93 6.545 6.545s-2.93 6.545-6.545 6.545zM24.716 23.273v-2.909h1.455v2.909h2.909v1.455h-2.909v2.909h-1.455v-2.909h-2.909v-1.455h2.909z"></path>
</svg>
