<?xml version="1.0" encoding="UTF-8"?>
<svg width="15px" height="15px" viewBox="0 0 15 15" version="1.1" xmlns="http://www.w3.org/2000/svg" xmlns:xlink="http://www.w3.org/1999/xlink">
    <g stroke="none" stroke-width="1" fill="none" fill-rule="evenodd">
        <g transform="translate(-957.000000, -148.000000)" fill="#000000" fill-rule="nonzero">
            <g transform="translate(957.000000, 148.000000)">
                <path d="M4,5.5 C4,6.32842712 3.32842712,7 2.5,7 C1.67157288,7 1,6.32842712 1,5.5 C1,4.67157288 1.67157288,4 2.5,4 C3.32797033,4.00110176 3.99889824,4.67202967 4,5.5 Z M15,2 L15,1 L6,1 L6,2 L15,2 Z M15,6 L15,5 L6,5 L6,6 L15,6 Z M15,10 L15,9 L6,9 L6,10 L15,10 Z M15,14 L15,13 L6,13 L6,14 L15,14 Z M1,3 L4,3 L4,0 L1,0 L1,3 Z M1,11 L4,11 L4,8 L1,8 L1,11 Z M3.822,15 C3.90889003,15.0000524 3.98936262,14.9542629 4.03370438,14.8795389 C4.07804614,14.8048148 4.07967898,14.7122413 4.038,14.636 L2.646,12.086 C2.61481317,12.0287011 2.55463642,11.9932019 2.48940141,11.9936164 C2.42416641,11.9940383 2.3644497,12.030306 2.334,12.088 L0.958,14.638 C0.917225468,14.714253 0.919480116,14.8063147 0.963938494,14.8804802 C1.00839687,14.9546458 1.08852988,15 1.175,15 L3.822,15 Z"></path>
            </g>
        </g>
    </g>
</svg>