<svg xmlns="http://www.w3.org/2000/svg" xmlns:xlink="http://www.w3.org/1999/xlink" width="15px" height="16px" viewBox="0 0 15 16" version="1.1">
    <g stroke="none" stroke-width="1" fill="none" fill-rule="evenodd">
        <g transform="translate(-678.000000, -354.000000)" fill="#000000" fill-rule="nonzero">
            <g transform="translate(678.000000, 354.000000)">
                <path d="M4,8 L5,8 L5,11 L4,11 L4,8 Z M2,9 L3,9 L3,11 L2,11 L2,9 Z M8,8 L9,8 L9,11 L8,11 L8,8 Z M12,8 L13,8 L13,11 L12,11 L12,8 Z"/>
                <path d="M15,12 L15,6 L13,6 L13,5 L14,5 L14,2 L11,2 L11,3 L4,1.05 L4,0 L1,0 L1,3 L2,3 L2,6 L0,6 L0,12 L2,12 L2,13 L1,13 L1,16 L4,16 L4,15 L11,15 L11,16 L14,16 L14,13 L13,13 L13,12 L15,12 Z M12,3 L13,3 L13,4 L12,4 L12,3 Z M4,2.08 L11,4 L11,5 L12,5 L12,6 L3,6 L3,3 L4,3 L4,2.08 Z M2,1 L3,1 L3,2 L2,2 L2,1 Z M3,15 L2,15 L2,14 L3,14 L3,15 Z M11,14 L4,14 L4,13 L3,13 L3,12 L12,12 L12,13 L11,13 L11,14 Z M13,15 L12,15 L12,14 L13,14 L13,15 Z M1,11 L1,7 L14,7 L14,11 L1,11 Z"/>
                <path d="M6,9 L7,9 L7,11 L6,11 L6,9 Z M10,9 L11,9 L11,11 L10,11 L10,9 Z"/>
            </g>
        </g>
    </g>
</svg>