<svg width="237" height="286" viewBox="0 0 237 286" fill="none" xmlns="http://www.w3.org/2000/svg">
<path d="M120 147H9V271H120V147Z" stroke="#40D0CD"/>
<path fill-rule="evenodd" clip-rule="evenodd" d="M87.8771 251C88.1532 251 88.3771 251.224 88.3771 251.5C88.3771 251.776 88.1532 252 87.8771 252H51.5C51.2239 252 51 251.776 51 251.5C51 251.224 51.2239 251 51.5 251H87.8771ZM107.5 245C107.776 245 108 245.224 108 245.5C108 245.776 107.776 246 107.5 246H51.5C51.2239 246 51 245.776 51 245.5C51 245.224 51.2239 245 51.5 245H107.5ZM79.5 238C79.7761 238 80 238.224 80 238.5C80 238.776 79.7761 239 79.5 239H51.5C51.2239 239 51 238.776 51 238.5C51 238.224 51.2239 238 51.5 238H79.5Z" fill="#A387F5"/>
<path fill-rule="evenodd" clip-rule="evenodd" d="M87.8771 215C88.1532 215 88.3771 215.224 88.3771 215.5C88.3771 215.776 88.1532 216 87.8771 216H51.5C51.2239 216 51 215.776 51 215.5C51 215.224 51.2239 215 51.5 215H87.8771ZM107.5 209C107.776 209 108 209.224 108 209.5C108 209.776 107.776 210 107.5 210H51.5C51.2239 210 51 209.776 51 209.5C51 209.224 51.2239 209 51.5 209H107.5ZM79.5 202C79.7761 202 80 202.224 80 202.5C80 202.776 79.7761 203 79.5 203H51.5C51.2239 203 51 202.776 51 202.5C51 202.224 51.2239 202 51.5 202H79.5Z" fill="#40D0CD"/>
<path fill-rule="evenodd" clip-rule="evenodd" d="M87.8771 179C88.1532 179 88.3771 179.224 88.3771 179.5C88.3771 179.776 88.1532 180 87.8771 180H51.5C51.2239 180 51 179.776 51 179.5C51 179.224 51.2239 179 51.5 179H87.8771ZM107.5 173C107.776 173 108 173.224 108 173.5C108 173.776 107.776 174 107.5 174H51.5C51.2239 174 51 173.776 51 173.5C51 173.224 51.2239 173 51.5 173H107.5ZM79.5 166C79.7761 166 80 166.224 80 166.5C80 166.776 79.7761 167 79.5 167H51.5C51.2239 167 51 166.776 51 166.5C51 166.224 51.2239 166 51.5 166H79.5Z" fill="#A387F5"/>
<path d="M41 235H21V255H41V235Z" fill="#A387F5"/>
<path d="M41 199H21V219H41V199Z" fill="#40D0CD"/>
<path d="M41 163H21V183H41V163Z" fill="#A387F5"/>
<path fill-rule="evenodd" clip-rule="evenodd" d="M114.966 60.2784C115.317 65.5638 119.667 72.9741 127.648 72.9741C134.622 72.9741 137.449 66.0999 138.265 64.0665C141.159 64.663 143.023 58.3375 141.779 56.3955C140.536 54.4534 137.264 54.2928 137.264 56.7423C136.102 57.2226 134.023 52.3085 131.028 42L120.031 47.144C115.652 51.9932 113.963 56.3714 114.966 60.2784Z" fill="#FFDBC7"/>
<path d="M125.571 67.9837C127.351 69.3047 129.131 68.6771 130.911 66.1007" stroke="#E55F4E" stroke-width="0.6" stroke-linecap="round"/>
<path d="M125.154 60.6005C125.106 61.5943 124.916 62.3852 124.583 62.9734C123.626 64.6614 125.154 65.2267 126.26 64.5929" stroke="#E58E4E" stroke-width="0.6" stroke-linecap="round"/>
<path d="M132.233 60.5256C132.963 60.5256 133.555 59.9141 133.555 59.1597C133.555 58.4054 132.963 57.7939 132.233 57.7939C131.503 57.7939 130.911 58.4054 130.911 59.1597C130.911 59.9141 131.503 60.5256 132.233 60.5256Z" fill="black"/>
<path d="M129.069 57.8995C130.882 56.3566 132.561 56.3566 134.107 57.8995" stroke="#E58E4E" stroke-width="0.6" stroke-linecap="round"/>
<path d="M122.033 60.5256C122.763 60.5256 123.355 59.9141 123.355 59.1597C123.355 58.4054 122.763 57.7939 122.033 57.7939C121.303 57.7939 120.711 58.4054 120.711 59.1597C120.711 59.9141 121.303 60.5256 122.033 60.5256Z" fill="black"/>
<path d="M119 57.8995C120.708 56.2976 122.275 56.2976 123.699 57.8995" stroke="#E58E4E" stroke-width="0.6" stroke-linecap="round"/>
<path fill-rule="evenodd" clip-rule="evenodd" d="M129 54.6441C129.876 53.6268 131.027 52.9301 132.692 52.7345C134.008 52.7345 134.393 53.8665 133.555 54.1916C132.533 53.839 129.707 54.4225 129 54.6441Z" fill="#6F3C16"/>
<path fill-rule="evenodd" clip-rule="evenodd" d="M118.676 54.1723C121.003 53.7481 122.65 53.8046 123.619 54.3416C122.584 52.6336 120.28 52.5743 119.347 52.8727C118.725 53.0716 118.501 53.5048 118.676 54.1723Z" fill="#6F3C16"/>
<path fill-rule="evenodd" clip-rule="evenodd" d="M129.656 44.7565C128.609 44.5246 123.61 44.5246 120.675 50.8678C117.74 57.211 114.795 58.1131 114.795 58.1131C114.96 61.3917 115.264 61.9077 115.427 62.9168C114.019 64.581 110 64.62 110 57.7439C110 50.8678 117.305 31.3406 130.138 37.473C132.245 34.1813 141.828 36.4568 143.308 43.7951C144.787 51.1334 148.519 55.626 152.166 56.8695C155.813 58.1131 154.248 66.2077 145.411 67.0574C143.308 72.2978 135.08 73.1669 133.572 70.8937C136.199 68.6157 137.558 65.7058 138.149 63.8197C140.866 63.3467 143.371 57.0122 140.76 56.1092C138.979 55.1407 138.088 56.6248 137.696 57.3689C137.303 58.1131 129.656 55.314 129.656 44.7565Z" fill="#06095C"/>
<path fill-rule="evenodd" clip-rule="evenodd" d="M111.541 265.244C110.207 264.183 109.082 263.251 106.21 264.887C103.339 266.522 95.2572 280.886 94.1987 283.936C93.1403 286.987 96.5754 286.087 98.2475 284.842C99.9196 283.597 111.965 272.916 113.21 271.531C114.455 270.146 114.455 267.618 111.541 265.244Z" fill="#06095C"/>
<path fill-rule="evenodd" clip-rule="evenodd" d="M100.723 136C79.7122 140.884 64.6138 148.557 55.4283 159.019C53.3979 162.449 57.3553 181.189 94.6024 215C98.6831 214.325 98.6831 210.969 94.6024 204.93C86.8872 186.276 79.4378 172.681 72.2543 164.144C79.7644 166.179 107.664 159.082 115.147 155.555C120.135 153.204 122.753 147.704 123 139.054L100.723 136Z" fill="url(#paint0_linear_3238_12865)"/>
<path fill-rule="evenodd" clip-rule="evenodd" d="M119.102 142C103.483 167.259 94.2902 185.758 91.523 197.496C88.5251 210.404 99.3558 257.681 100.198 259.811C101.041 261.941 101.891 263.618 104.15 262.78C106.41 261.941 107.43 259.436 107.43 257.601C107.43 255.832 108.902 201.275 107.43 198.324C110.109 197.496 140.7 157.8 141.939 153.01C142.765 149.817 135.153 146.147 119.102 142Z" fill="url(#paint1_linear_3238_12865)"/>
<path fill-rule="evenodd" clip-rule="evenodd" d="M199.433 82.3037C205.098 76.7362 208.234 73.5815 208.84 72.8394C209.75 71.7263 211.143 71.4092 210.653 73.8599C210.162 76.3106 206.764 79.0247 204.768 81.387C207.914 81.387 208.84 85.2898 208.84 88.6395C208.84 91.257 203.984 93.9546 200.185 95.4349C197.653 96.4218 196.124 95.1213 195.597 91.5333L199.433 82.3037Z" fill="#FFDBC7"/>
<path fill-rule="evenodd" clip-rule="evenodd" d="M194 91.4956C195.224 86.1218 196.294 83.1757 197.212 82.6573C198.59 81.8798 205.049 81.1013 206.101 81.4906C207.152 81.8798 204.962 84.8818 202.516 85.4556C200.886 85.8381 199.86 85.9435 199.437 85.7717C200.465 86.4874 200.276 88.1798 198.87 90.8489C197.212 92.9012 196.761 93.2709 195.413 93.6259C194.471 93.3626 194 92.6525 194 91.4956Z" fill="#FDC5A6"/>
<path fill-rule="evenodd" clip-rule="evenodd" d="M70.2539 42.7588C68.3849 41.8784 65.0424 32.5218 63.7557 29.2371C62.3177 26.2361 61.0423 29.2311 61.6036 32.5218C62.1649 35.8125 63.1275 40.7299 63.7557 41.5677C64.0358 41.9413 62.2898 42.1757 60.534 44.8295C59.9546 45.7053 59.1721 47.7247 58.1866 50.8878C59.6797 53.2813 61.536 54.4781 63.7557 54.4781C65.9753 54.4781 68.1414 54.077 70.2539 53.2748C70.0832 46.9646 70.0832 43.4593 70.2539 42.7588Z" fill="#FFDBC7"/>
<path fill-rule="evenodd" clip-rule="evenodd" d="M61.464 44.3935C62.698 48.2065 63.6318 48.7319 64.7264 48.2065C65.9394 47.3004 64.6449 40.3704 62.8166 39.6748C60.9883 38.9792 59.6036 40.1462 59.6036 41.9351C58.1866 43.8096 56.4905 46.2733 57.1446 49.4923C57.7986 52.7113 59.9894 53.1775 60.7197 52.9466C61.464 52.7113 62.0102 52.4406 62.5467 50.1402C62.8166 48.9828 62.145 46.3453 61.464 44.3935Z" fill="#FDC5A6"/>
<path fill-rule="evenodd" clip-rule="evenodd" d="M67.5834 54.4781C66.0221 48.5677 66.6807 44.4129 69.559 42.0137C68.1594 37.4162 69.8273 34.4256 70.6713 33.6311C71.5153 32.8366 72.6563 32.8786 72.2651 34.7312C71.8739 36.5838 72.341 40.2882 72.9749 41.5C73.6087 42.7118 73.6087 46.1561 72.7167 48.3244C71.8247 50.4928 69.559 52.2511 69.559 52.997C69.559 53.4942 68.9005 53.9879 67.5834 54.4781Z" fill="#FDC5A6"/>
<path fill-rule="evenodd" clip-rule="evenodd" d="M119.236 80.9589C119.424 80.6456 119.297 79.553 118.857 77.6812C118.465 76.4403 119.164 75.6679 120.956 75.364C123.643 74.9081 136.227 75.1421 138.788 75.7235C140.495 76.1111 140.901 76.8827 140.006 78.0381C139.361 79.5672 139.155 80.4352 139.386 80.6421C139.733 80.9524 153.561 79.9418 161.389 89.6946C169.217 99.4473 171.458 103.969 175.786 110.813C179.531 109.131 188.887 96.5957 190.343 93.5615C191.8 90.5273 192.578 90.3963 193.608 90.9196C194.637 91.4428 200.02 94.746 200.674 95.6627C201.327 96.5794 200.953 97.0612 199.96 98.1919C198.967 99.3226 185.071 119.515 184.101 121.452C183.132 123.389 178.332 128.518 174.451 127.625C170.57 126.732 163.981 119.254 162.166 116.47C160.352 113.685 151.89 102.431 150.03 101.929C150.472 105.924 147.824 142.336 144.633 152.45C144.086 155.128 141.899 153.802 140.006 152.45C138.113 151.098 114.708 139.785 103.135 137.929C94.9792 136.847 94.0505 135.017 94.3945 133.73C94.7384 132.443 96.7668 132.042 99.2982 129.911C101.83 127.78 109.72 112.937 108.188 101.929C97.5114 101.389 66.178 81.3952 62.1911 57.2988C61.661 54.8913 61.9179 54.5882 63.2544 54.0372C64.1455 53.6698 66.7989 52.6994 71.2148 51.1259C71.9205 51.0559 72.3593 51.5921 72.5314 52.7345C72.7895 54.4481 82.8963 83.603 112.683 80.6421C113.932 80.4979 115.758 80.3198 117.535 80.6421C118.587 80.833 119.056 81.2351 119.236 80.9589Z" fill="url(#paint2_linear_3238_12865)"/>
<path d="M222.5 206.5H143.5V245.5H222.5V206.5Z" stroke="#FFC520"/>
<path fill-rule="evenodd" clip-rule="evenodd" d="M183 218C187.418 218 191 221.582 191 226C191 230.418 187.418 234 183 234C178.582 234 175 230.418 175 226C175 221.582 178.582 218 183 218ZM181 222V230L186 226L181 222Z" fill="#FFC520"/>
<path fill-rule="evenodd" clip-rule="evenodd" d="M226 130.5H190C189.586 130.5 189.211 130.668 188.939 130.939C188.668 131.211 188.5 131.586 188.5 132V164C188.5 164.414 188.668 164.789 188.939 165.061C189.211 165.332 189.586 165.5 190 165.5H204.264L208.416 170.475L211.732 165.5H226C226.414 165.5 226.789 165.332 227.061 165.061C227.332 164.789 227.5 164.414 227.5 164V132C227.5 131.586 227.332 131.211 227.061 130.939C226.789 130.668 226.414 130.5 226 130.5Z" stroke="#A387F5"/>
<path fill-rule="evenodd" clip-rule="evenodd" d="M209.581 140C209.744 140 209.88 140.214 209.907 140.402L210.234 142.492C210.723 142.734 211.213 142.975 211.621 143.296L213.661 142.492C213.906 142.412 214.069 142.492 214.151 142.573L215.783 145.387C215.865 145.548 215.865 145.709 215.702 145.869L213.988 147.236C214.069 147.477 214.069 147.719 214.069 148.04C214.069 148.362 213.988 148.603 213.988 148.844L215.865 150.131C216.028 150.211 216.028 150.452 215.946 150.613L214.314 153.427C214.233 153.588 213.988 153.668 213.824 153.588L211.784 152.784C211.376 153.106 210.886 153.347 210.397 153.588L210.07 155.678C210.07 155.839 209.825 156 209.662 156H206.398C206.153 156 205.99 155.839 205.99 155.678L205.663 153.588C205.174 153.347 204.684 153.106 204.276 152.784L202.236 153.588C201.991 153.668 201.827 153.588 201.746 153.508L200.114 150.693C200.032 150.533 200.032 150.372 200.195 150.211L201.909 148.844C201.827 148.603 201.827 148.362 201.827 148.04C201.827 147.719 201.909 147.477 201.909 147.236L200.195 145.95C200.032 145.789 199.95 145.548 200.032 145.467L201.664 142.653C201.827 142.492 201.991 142.412 202.236 142.492L204.194 143.296C204.684 142.975 205.092 142.653 205.582 142.492L205.908 140.322C205.908 140.161 206.153 140 206.316 140H209.581ZM208 145C206.343 145 205 146.343 205 148C205 149.657 206.343 151 208 151C209.657 151 211 149.657 211 148C211 146.343 209.657 145 208 145Z" fill="#A387F5"/>
<path d="M154.5 173C150.333 173 147 176.167 147 180.125C147 182.975 148.833 185.192 151.167 188.042C152 189.15 153 190.258 153.833 191.683C154 191.842 154.167 192 154.5 192C154.833 192 155 191.842 155.167 191.683C156 190.417 157 189.308 157.833 188.2C160.167 185.192 162 182.975 162 180.125C162 176.167 158.667 173 154.5 173ZM154.5 183C153.167 183 152 182 152 180.5C152 179 153 178 154.5 178C155.833 178 157 179 157 180.5C157 181.833 156 183 154.5 183Z" fill="#40D0CD"/>
<path d="M61 79H21V119H61V79Z" fill="white" stroke="#A387F5"/>
<path d="M23 77H19V81H23V77Z" fill="white" stroke="#A387F5"/>
<path d="M43 77H39V81H43V77Z" fill="white" stroke="#A387F5"/>
<path d="M63 77H59V81H63V77Z" fill="white" stroke="#A387F5"/>
<path d="M23 97H19V101H23V97Z" fill="white" stroke="#A387F5"/>
<path d="M63 97H59V101H63V97Z" fill="white" stroke="#A387F5"/>
<path d="M23 117H19V121H23V117Z" fill="white" stroke="#A387F5"/>
<path d="M43 117H39V121H43V117Z" fill="white" stroke="#A387F5"/>
<path d="M63 117H59V121H63V117Z" fill="white" stroke="#A387F5"/>
<path d="M234 16H164V86H234V16Z" stroke="#A387F5"/>
<path d="M166 14H162V18H166V14Z" fill="white" stroke="#A387F5"/>
<path d="M201 14H197V18H201V14Z" fill="white" stroke="#A387F5"/>
<path d="M236 14H232V18H236V14Z" fill="white" stroke="#A387F5"/>
<path d="M166 49H162V53H166V49Z" fill="white" stroke="#A387F5"/>
<path d="M236 49H232V53H236V49Z" fill="white" stroke="#A387F5"/>
<path d="M166 84H162V88H166V84Z" fill="white" stroke="#A387F5"/>
<path d="M201 84H197V88H201V84Z" fill="white" stroke="#A387F5"/>
<path d="M236 84H232V88H236V84Z" fill="white" stroke="#A387F5"/>
<path d="M196 31H172V71H196V31Z" stroke="#40D0CD"/>
<path d="M174 29H170V33H174V29Z" fill="white" stroke="#40D0CD"/>
<path d="M186 29H182V33H186V29Z" fill="white" stroke="#40D0CD"/>
<path d="M198 29H194V33H198V29Z" fill="white" stroke="#40D0CD"/>
<path d="M174 49H170V53H174V49Z" fill="white" stroke="#40D0CD"/>
<path d="M198 49H194V53H198V49Z" fill="white" stroke="#40D0CD"/>
<path d="M174 69H170V73H174V69Z" fill="white" stroke="#40D0CD"/>
<path d="M186 69H182V73H186V69Z" fill="white" stroke="#40D0CD"/>
<path d="M198 69H194V73H198V69Z" fill="white" stroke="#40D0CD"/>
<path fill-rule="evenodd" clip-rule="evenodd" d="M210.5 58C210.776 58 211 58.2239 211 58.5C211 58.7761 210.776 59 210.5 59H203.5C203.224 59 203 58.7761 203 58.5C203 58.2239 203.224 58 203.5 58H210.5ZM226.5 53C226.776 53 227 53.2239 227 53.5C227 53.7761 226.776 54 226.5 54H203.5C203.224 54 203 53.7761 203 53.5C203 53.2239 203.224 53 203.5 53H226.5ZM226.5 49C226.776 49 227 49.2239 227 49.5C227 49.7761 226.776 50 226.5 50H203.5C203.224 50 203 49.7761 203 49.5C203 49.2239 203.224 49 203.5 49H226.5ZM218.5 42C218.776 42 219 42.2239 219 42.5C219 42.7761 218.776 43 218.5 43H203.5C203.224 43 203 42.7761 203 42.5C203 42.2239 203.224 42 203.5 42H218.5Z" fill="#A387F5"/>
<path d="M79.5 0.5H0.5V39.5H79.5V0.5Z" stroke="#40D0CD"/>
<path fill-rule="evenodd" clip-rule="evenodd" d="M50.5 27C50.7761 27 51 27.2239 51 27.5C51 27.7761 50.7761 28 50.5 28H38.5C38.2239 28 38 27.7761 38 27.5C38 27.2239 38.2239 27 38.5 27H50.5ZM71.5 22C71.7761 22 72 22.2239 72 22.5C72 22.7761 71.7761 23 71.5 23H38.5C38.2239 23 38 22.7761 38 22.5C38 22.2239 38.2239 22 38.5 22H71.5ZM71.5 18C71.7761 18 72 18.2239 72 18.5C72 18.7761 71.7761 19 71.5 19H38.5C38.2239 19 38 18.7761 38 18.5C38 18.2239 38.2239 18 38.5 18H71.5ZM57.5 11C57.7761 11 58 11.2239 58 11.5C58 11.7761 57.7761 12 57.5 12H38.5C38.2239 12 38 11.7761 38 11.5C38 11.2239 38.2239 11 38.5 11H57.5Z" fill="#40D0CD"/>
<path d="M31.5 8.5H8.5V31.5H31.5V8.5Z" stroke="#40D0CD"/>
<path d="M10.4069 31.4738L16 22.9234L20.8967 28L26.3766 18.9198L31.61 25.0481" stroke="#40D0CD"/>
<path d="M17 18.5C18.3807 18.5 19.5 17.3807 19.5 16C19.5 14.6193 18.3807 13.5 17 13.5C15.6193 13.5 14.5 14.6193 14.5 16C14.5 17.3807 15.6193 18.5 17 18.5Z" stroke="#40D0CD"/>
<path d="M63 33.5C65.4853 33.5 67.5 31.4853 67.5 29C67.5 26.5147 65.4853 24.5 63 24.5C60.5147 24.5 58.5 26.5147 58.5 29C58.5 31.4853 60.5147 33.5 63 33.5Z" stroke="#F55623" stroke-opacity="0.8"/>
<path d="M210 77.5C212.485 77.5 214.5 75.4853 214.5 73C214.5 70.5147 212.485 68.5 210 68.5C207.515 68.5 205.5 70.5147 205.5 73C205.5 75.4853 207.515 77.5 210 77.5Z" stroke="#F55623" stroke-opacity="0.8"/>
<defs>
<linearGradient id="paint0_linear_3238_12865" x1="97.7394" y1="136.497" x2="72.3403" y2="208.582" gradientUnits="userSpaceOnUse">
<stop stop-color="#82CCFF"/>
<stop offset="1" stop-color="#11529E"/>
</linearGradient>
<linearGradient id="paint1_linear_3238_12865" x1="119.696" y1="142" x2="102.415" y2="229.371" gradientUnits="userSpaceOnUse">
<stop stop-color="#9BF1FB"/>
<stop offset="1" stop-color="#459CE2"/>
</linearGradient>
<linearGradient id="paint2_linear_3238_12865" x1="131.467" y1="52.0485" x2="131.467" y2="154" gradientUnits="userSpaceOnUse">
<stop stop-color="#FFEFA6"/>
<stop offset="1" stop-color="#F6C740"/>
</linearGradient>
</defs>
</svg>
