<svg width="32" height="33" viewBox="0 0 32 33" fill="none" xmlns="http://www.w3.org/2000/svg">
<path d="M4.34838 17.4983C3.7317 15.411 4.44325 13.4661 6.00867 13.3238C7.38434 13.1815 8.57026 11.1417 9.56644 9.76606C11.5588 6.96728 14.6896 7.44165 14.4999 6.06598C14.0729 4.02619 11.7011 5.54417 10.1831 5.59161C9.13951 5.63905 8.14333 5.78136 7.09972 5.92367C4.30094 8.29551 2.4509 11.8533 2.30859 15.8854C3.11502 16.7393 4.15863 18.6368 5.39199 19.7752C5.5343 19.6804 5.72405 19.6329 5.9138 19.5855C5.34455 18.8265 4.49069 17.9252 4.34838 17.4983Z" fill="black"/>
<path d="M13.7409 25.0406C14.4525 23.1431 14.8794 22.3367 13.8833 20.3918C11.7486 19.7751 11.0845 19.5853 8.94982 19.1584C7.81134 18.9212 7.7639 18.9687 6.53054 19.3482C6.34079 19.3956 6.15104 19.443 5.9613 19.5379C5.72411 19.6328 5.62924 19.6328 5.43949 19.7276C4.91769 19.9648 4.58563 20.2969 4.49075 21.0084C4.34844 22.3367 5.5818 23.3803 6.67285 23.6649C8.00108 24.0444 8.14339 23.6175 8.85495 24.5662C9.32932 25.2303 9.42419 26.4637 9.70881 27.2701C9.85112 27.7445 10.0409 28.1714 10.2781 28.6458C11.2268 29.0727 12.2704 29.4522 13.314 29.642C13.5038 28.0765 13.4089 25.9893 13.7409 25.0406Z" fill="black"/>
<path d="M29.585 15.6957C29.4427 11.9482 27.735 8.58017 25.126 6.20833C24.8888 6.25576 24.5567 6.3032 24.1298 6.20833C21.2836 5.68652 20.6195 7.34681 19.813 8.53274C19.1964 9.43404 16.9668 9.67122 16.2553 10.7148C15.686 11.5213 16.2553 13.0867 15.7809 13.9405C15.5437 14.3675 15.6386 15.5534 15.9232 15.9329C16.7771 17.1662 18.2002 16.5021 19.2438 16.9291C20.5246 17.4509 20.7143 18.9689 21.758 20.1073C22.849 21.1984 20.3823 22.9061 22.3746 26.9382C22.6118 27.3652 22.849 27.6972 23.0862 27.887C24.4619 27.0331 25.6478 25.9421 26.644 24.7087C26.9286 22.6689 26.2645 22.0048 27.1183 20.1548C27.6876 19.0163 28.5889 17.0239 29.585 15.6957Z" fill="black"/>
<path d="M11.5585 13.2289C13.8829 12.2327 16.3971 11.4737 19.7651 11.1891C18.9112 9.10189 17.9625 7.63135 16.824 6.30312C14.3098 6.49287 12.0329 7.15698 10.088 8.01085C10.42 9.52883 10.9418 11.3789 11.5585 13.2289ZM22.3741 18.9688C19.1484 18.9213 16.3496 19.6803 14.4522 20.6291C15.2586 22.3842 16.8714 24.7086 17.4881 25.6574C18.5317 25.2779 19.6702 24.9933 20.5241 24.8509C21.3779 24.7086 22.5639 24.5663 23.3229 24.6138C23.1805 22.574 22.9434 21.1983 22.3741 18.9688ZM13.8829 19.4906C16.4445 18.3047 19.2433 17.7828 22.0895 17.8777C21.3305 15.1738 20.8561 13.9405 20.192 12.3276C17.0612 12.4699 14.3573 13.2289 11.8906 14.4148C11.938 14.3674 12.8393 17.261 13.8829 19.4906ZM23.7498 6.5403C22.1844 6.25568 19.86 6.06593 18.1997 6.16081C19.3382 7.77366 20.192 9.14933 20.9984 11.1417C23.1331 11.1891 26.0742 11.8532 27.2601 12.3276C26.5486 10.4301 25.1729 8.01085 23.7498 6.5403ZM28.6358 19.206C28.5409 17.4508 28.2563 15.0789 27.5922 13.4187C25.837 12.7071 23.4652 12.2802 21.3779 12.2802C22.0421 13.7981 22.7536 16.3123 23.1331 17.9252C24.6985 18.0675 27.0229 18.4944 28.6358 19.206ZM27.2127 6.82492C24.9831 4.07358 19.9074 1.74918 14.215 2.08123C15.4958 2.9351 16.5394 4.16846 17.4407 5.21207C18.8638 5.06976 21.8049 5.30694 22.9434 5.639C22.7536 5.40182 22.5164 5.21207 22.469 5.06976C22.3267 4.7377 22.7062 4.64283 22.9908 4.83257C23.3703 5.06976 23.8447 5.35438 24.1767 5.73388C24.8408 5.87619 26.4537 6.39799 27.2127 6.82492ZM29.9166 20.0598C29.8691 20.297 29.4422 20.4867 29.2999 20.4393C29.3473 20.8188 29.2525 22.7637 29.1102 23.5227C29.3948 22.9535 29.9166 21.5778 30.0589 21.0086L30.2961 20.1547C30.5333 19.4431 31.1974 16.929 30.5807 13.6084C29.8691 9.95576 28.5409 8.62753 28.0665 8.05828C26.8806 7.39417 25.078 6.82492 25.078 6.82492C26.6909 9.00702 27.2601 10.0506 28.2089 12.6597C28.7781 12.9443 29.7743 13.5135 29.9166 13.6558C30.0115 13.7981 30.0115 13.9879 29.6794 13.9879C29.3948 13.9879 28.9204 13.7507 28.4935 13.6084C28.9204 15.0315 29.2525 17.688 29.205 19.4431C29.2525 19.4906 29.964 19.8226 29.9166 20.0598ZM27.8294 25.4202C28.0665 25.183 28.3986 24.7086 28.5409 24.424C28.6832 23.2381 28.6832 20.8662 28.6358 20.1547C27.2127 19.5854 25.078 19.1111 23.4652 19.0162C23.987 20.9137 24.2242 23.7125 24.2716 24.6138C25.078 24.7086 26.9755 25.0881 27.8294 25.4202ZM24.2242 28.6459C25.4575 27.8869 26.596 26.9856 27.4499 25.942C26.7383 25.7522 25.1255 25.5625 24.319 25.6099C24.319 25.5625 24.319 27.5074 24.2242 28.6459ZM20.9036 30.2113C21.5202 30.0216 23.0857 29.31 23.4177 29.0728C23.5126 27.8395 23.4652 26.3689 23.4177 25.5151C21.7574 25.5151 19.4805 25.9894 18.1522 26.5587C18.9112 27.8395 19.9548 29.2151 20.9036 30.2113ZM13.5034 29.1677C13.9778 29.6421 15.7804 30.828 15.7804 30.828C16.9663 30.8754 18.5317 30.7331 19.6228 30.5434C19.0061 29.8793 17.5356 27.7446 17.0612 27.033C15.8753 27.5074 14.4522 28.4087 13.5034 29.1677ZM8.56998 24.092C9.70846 25.5625 11.5111 27.46 12.7919 28.5036C13.9778 27.5548 15.3535 26.6535 16.4445 26.1317C15.4958 24.6138 14.0252 22.4317 13.456 21.1034C11.2739 22.0522 10.088 22.8112 8.56998 24.092ZM5.48658 18.1623C6.19813 20.2496 6.90969 21.8624 7.85842 23.1907C8.94947 22.2419 11.179 20.7714 12.8867 19.9175C12.3175 18.7316 11.5111 16.4546 10.9418 14.7943C8.75973 15.8854 7.09943 16.929 5.48658 18.1623ZM3.73142 11.8532C3.92116 13.0392 4.49041 15.6482 5.01221 16.9764C6.24557 16.0277 9.04435 14.32 10.6572 13.6084C10.088 11.5686 9.70846 10.2878 9.42384 8.24803C7.14687 9.29164 4.77503 10.8571 3.73142 11.8532ZM3.44679 7.58391C3.35192 8.20059 3.44679 9.33908 3.5891 10.6673C4.82246 9.57626 7.24174 8.10572 9.23409 7.25186C8.99691 5.73387 8.75972 3.31459 8.75972 2.65048C6.95712 3.64665 4.91734 5.68644 3.44679 7.77366V7.58391ZM9.47128 1.41712C12.1277 0.32607 14.7368 -0.29061 17.7253 0.136322C18.0574 0.183759 18.0099 0.46838 17.6779 0.46838H17.2509C14.8316 0.515817 11.3213 1.27481 9.47128 2.31842C9.42384 3.55178 9.66103 5.49669 9.89821 7.01467C11.5585 6.30312 14.1201 5.59156 16.065 5.40182C14.974 4.21589 13.456 3.12485 13.2662 2.98254C13.0765 2.84022 12.9816 2.65048 12.9816 2.36586C13.029 1.84405 13.456 1.74918 13.6932 1.84405C14.4996 1.70174 15.306 1.51199 16.6817 1.55943C22.5639 1.22737 27.8768 4.50052 29.9166 8.24803C35.0398 16.3597 29.9166 27.6023 23.1805 30.5908C20.2869 31.8716 17.8202 32.4408 13.2662 31.7767C8.71229 31.16 4.96477 28.9305 2.07112 24.2343C-1.48664 18.447 0.505706 11.7109 1.02751 10.3353C3.20961 5.25951 6.71994 2.60304 9.47128 1.41712ZM2.59293 11.4263C2.54549 10.5724 2.45062 9.33908 2.45062 9.33908C1.7865 10.7147 1.40701 11.5686 1.2647 13.2289C1.73907 12.4225 2.59293 11.4263 2.59293 11.4263ZM11.9854 29.1677C11.0367 28.4561 8.61741 26.1792 7.62124 24.8035C7.24174 25.0407 6.86225 25.6099 6.34044 25.7048C6.1507 25.7522 5.67633 25.7997 5.53402 25.7522C5.39171 25.7048 5.58145 25.4202 5.72376 25.2304C5.96095 24.8984 6.34044 24.4714 6.90969 24.0445C5.72376 22.3368 5.15452 21.056 4.34809 18.9688C3.87373 19.2534 3.54167 19.538 3.16217 19.8226C3.01986 19.9175 2.64037 20.0124 2.45062 19.8226C2.11856 19.538 2.11856 19.0162 2.59293 18.6841C2.78268 18.5418 3.73141 17.8777 3.9686 17.7354C3.35192 15.9802 2.87755 13.7981 2.73524 12.6597C2.35575 12.9917 1.7865 13.3712 1.64419 13.4661C1.40701 13.5135 1.2647 13.4661 1.21726 13.4661C0.980075 15.8379 1.2647 18.447 1.97625 20.7714C3.16217 24.8035 6.57763 28.6933 11.1316 30.1164C11.2739 29.9741 11.7957 29.3574 11.9854 29.1677ZM14.4047 30.7806C13.9303 30.5434 13.4085 30.1164 12.8393 29.7844C12.6021 29.9741 12.4598 30.2587 12.2701 30.4959C12.8867 30.6857 13.6932 30.6857 14.4047 30.7806Z" fill="black"/>
</svg>
