<svg width="32" height="32" viewBox="0 0 32 32" fill="none" xmlns="http://www.w3.org/2000/svg">
<path d="M15.9992 0C7.162 0 0 7.1636 0 15.9992C0 22.7768 4.21681 28.5711 10.1697 30.9029C10.0287 29.6377 9.90381 27.6903 10.2241 26.3098C10.5156 25.0606 12.1011 18.3566 12.1011 18.3566C12.1011 18.3566 11.6222 17.3973 11.6222 15.98C11.6222 13.7571 12.9115 12.0963 14.5178 12.0963C15.8839 12.0963 16.5421 13.1213 16.5421 14.3496C16.5421 15.7237 15.6677 17.7753 15.2177 19.6779C14.8413 21.2698 16.0168 22.5686 17.5863 22.5686C20.429 22.5686 22.6167 19.5706 22.6167 15.2417C22.6167 11.4108 19.8637 8.73309 15.9335 8.73309C11.3804 8.73309 8.70747 12.1475 8.70747 15.6757C8.70747 17.0498 9.23757 18.5248 9.899 19.3272C9.95521 19.3876 9.9949 19.4615 10.0143 19.5417C10.0336 19.6219 10.032 19.7058 10.0095 19.7852C9.88779 20.2897 9.61714 21.3771 9.56589 21.5997C9.49542 21.8928 9.33367 21.9553 9.02938 21.8143C7.03228 20.8838 5.78309 17.9627 5.78309 15.6148C5.78309 10.5684 9.44898 5.93364 16.3547 5.93364C21.9056 5.93364 26.2185 9.88779 26.2185 15.1744C26.2185 20.6901 22.7416 25.1247 17.9162 25.1247C16.2939 25.1247 14.7708 24.2839 14.2487 23.2893L13.251 27.0913C12.8906 28.4815 11.9153 30.2239 11.2635 31.2873C12.7979 31.761 14.3949 32.0013 16.0008 32C24.8364 32 32 24.8364 32 16.0008C32 7.16521 24.8348 0 15.9992 0Z" fill="black"/>
</svg>
