<svg width="32" height="32" viewBox="0 0 32 32" fill="none" xmlns="http://www.w3.org/2000/svg">
<path d="M10.785 27.7671C21.358 27.7671 27.1392 19.0059 27.1392 11.4129C27.1392 11.1626 27.1392 10.9123 27.1273 10.6739C28.2478 9.86334 29.2252 8.85015 30 7.69391C28.9749 8.14687 27.8663 8.45679 26.6982 8.59983C27.8902 7.88463 28.7961 6.76415 29.2252 5.4172C28.1166 6.0728 26.8889 6.54959 25.5777 6.81183C24.5287 5.69136 23.0387 5 21.3819 5C18.2112 5 15.6364 7.57471 15.6364 10.7454C15.6364 11.1984 15.6841 11.6394 15.7914 12.0566C11.0115 11.8182 6.77991 9.52958 3.94295 6.04896C3.45424 6.89527 3.16816 7.88463 3.16816 8.93359C3.16816 10.9242 4.18135 12.6884 5.73095 13.7135C4.78927 13.6896 3.90719 13.4274 3.1324 12.9983C3.1324 13.0221 3.1324 13.046 3.1324 13.0698C3.1324 15.8591 5.11111 18.1716 7.74542 18.708C7.26862 18.8391 6.75607 18.9106 6.23159 18.9106C5.86207 18.9106 5.50447 18.8748 5.14687 18.8033C5.87399 21.0919 7.99574 22.7488 10.5109 22.7965C8.54406 24.3342 6.06471 25.252 3.3708 25.252C2.90592 25.252 2.45296 25.2282 2 25.1686C4.51511 26.8135 7.54278 27.7671 10.785 27.7671Z" fill="black"/>
</svg>
