<svg width="16" height="16" viewBox="0 0 16 16" fill="none" xmlns="http://www.w3.org/2000/svg">
<path fill-rule="evenodd" clip-rule="evenodd" d="M2.5 3C2.22386 3 2 3.22386 2 3.5C2 3.77614 2.22386 4 2.5 4H5.5C5.77614 4 6 3.77614 6 3.5C6 3.22386 5.77614 3 5.5 3H2.5ZM2.5 6C2.22386 6 2 6.22386 2 6.5C2 6.77614 2.22386 7 2.5 7H13.5C13.7761 7 14 6.77614 14 6.5C14 6.22386 13.7761 6 13.5 6H2.5ZM2 12.5C2 12.2239 2.22386 12 2.5 12H13.5C13.7761 12 14 12.2239 14 12.5C14 12.7761 13.7761 13 13.5 13H2.5C2.22386 13 2 12.7761 2 12.5ZM2.5 9C2.22386 9 2 9.22386 2 9.5C2 9.77614 2.22386 10 2.5 10H5.5C5.77614 10 6 9.77614 6 9.5C6 9.22386 5.77614 9 5.5 9H2.5Z" fill="black"/>
</svg>
