<svg width="16" height="16" viewBox="0 0 16 16" fill="none" xmlns="http://www.w3.org/2000/svg">
<path fill-rule="evenodd" clip-rule="evenodd" d="M9.43766 0.993652C9.65107 0.993601 9.83503 1.13985 9.87778 1.3435C10.0294 2.06572 10.1349 2.68317 10.1943 3.19583C10.5676 3.35615 10.9187 3.5581 11.2417 3.79458L12.9699 3.11945C13.1773 3.03835 13.4144 3.11816 13.5262 3.30671L14.9456 5.70142C15.0524 5.88141 15.0143 6.1097 14.8546 6.24759C14.2877 6.73709 13.791 7.13512 13.3646 7.44168C13.3858 7.62202 13.3959 7.80669 13.3959 7.99365C13.3959 8.20706 13.3828 8.4175 13.3574 8.62425L14.8216 9.74382C14.9975 9.87825 15.045 10.1182 14.9333 10.3067L13.5138 12.7014C13.4072 12.8815 13.1852 12.9635 12.9827 12.8977C12.264 12.6643 11.6618 12.4443 11.176 12.2379C10.8512 12.4707 10.4971 12.6675 10.1211 12.824L9.85763 14.618C9.82601 14.8336 9.6365 14.9937 9.41297 14.9937H6.57406C6.36065 14.9937 6.17669 14.8475 6.13394 14.6438C5.98233 13.9216 5.87682 13.3041 5.81742 12.7915C5.4441 12.6312 5.093 12.4292 4.77006 12.1927L3.04186 12.8679C2.83442 12.949 2.59732 12.8691 2.48555 12.6806L1.0661 10.2859C0.959346 10.1059 0.9974 9.8776 1.1571 9.73971C1.72389 9.25032 2.22045 8.85236 2.6468 8.54582C2.62587 8.36529 2.61584 8.18061 2.61584 7.99365C2.61584 7.78024 2.62891 7.5698 2.65432 7.36306L1.19009 6.24348C1.01426 6.10905 0.966677 5.86914 1.07844 5.68059L2.4979 3.28589C2.60456 3.10584 2.82657 3.0238 3.02901 3.08956C3.74772 3.32303 4.34996 3.54297 4.83574 3.74937C5.16015 3.5168 5.51482 3.3196 5.89152 3.16297L6.15409 1.36928C6.1857 1.15375 6.37522 0.993652 6.59875 0.993652H9.43766ZM9.07312 1.99365H6.98459L6.70493 3.86039L6.2379 4.04988C6.00256 4.14536 5.77751 4.25936 5.56577 4.39008L5.35859 4.52631L4.93993 4.8192L4.46347 4.62164C4.13455 4.48525 3.74456 4.3408 3.29429 4.18878L3.07267 4.11508L2.0284 5.83365L3.58991 6.99929L3.52964 7.47781C3.50822 7.64792 3.49741 7.82005 3.49741 7.99365C3.49741 8.09612 3.50117 8.19636 3.50869 8.29398L3.52279 8.43839L3.58121 8.93022L3.16226 9.22417C2.87358 9.42671 2.54703 9.67546 2.18347 9.97003L2.00586 10.1151L3.04922 11.8345L4.89392 11.1317L5.29999 11.4219C5.50419 11.5678 5.72011 11.6964 5.94522 11.806L6.1733 11.9093L6.64746 12.108L6.70557 12.5974C6.7458 12.9362 6.80915 13.3291 6.8957 13.7754L6.9395 13.9937H9.02713L9.30883 12.1266L9.77548 11.9371C10.0105 11.8417 10.2351 11.7279 10.4469 11.5972L10.6542 11.4609L11.0728 11.1682L11.5492 11.3657C11.8781 11.5021 12.2681 11.6465 12.7183 11.7985L12.9391 11.8714L13.9833 10.1528L12.4227 8.98801L12.483 8.5095C12.5044 8.33938 12.5152 8.16725 12.5152 7.99365C12.5152 7.891 12.5114 7.79094 12.5039 7.69384L12.4897 7.55046L12.4304 7.0578L12.8501 6.76332C13.1388 6.56076 13.4654 6.31197 13.8291 6.01735L14.0059 5.87137L12.9625 4.15194L11.1187 4.85556L10.7126 4.5654C10.5084 4.41949 10.2925 4.29089 10.0674 4.18127L9.83932 4.07803L9.36516 3.87931L9.30705 3.38987C9.27487 3.11886 9.22789 2.81318 9.16607 2.47327L9.07312 1.99365ZM8.00586 4.99365C9.66271 4.99365 11.0059 6.3368 11.0059 7.99365C11.0059 9.65051 9.66271 10.9937 8.00586 10.9937C6.34901 10.9937 5.00586 9.65051 5.00586 7.99365C5.00586 6.3368 6.34901 4.99365 8.00586 4.99365ZM8.0058 5.99365C6.90123 5.99365 6.0058 6.88908 6.0058 7.99365C6.0058 9.09822 6.90123 9.99365 8.0058 9.99365C9.11037 9.99365 10.0058 9.09822 10.0058 7.99365C10.0058 6.88908 9.11037 5.99365 8.0058 5.99365Z" fill="black"/>
</svg>
