<svg width="16" height="16" viewBox="0 0 16 16" fill="none" xmlns="http://www.w3.org/2000/svg">
<path fill-rule="evenodd" clip-rule="evenodd" d="M9 2V3H14C15.1046 3 16 3.89543 16 5V14C16 15.1046 15.1046 16 14 16H9V12H8V16H3C1.89543 16 1 15.1046 1 14V5C1 3.89543 1.89543 3 3 3V2C3 1.44772 3.44772 1 4 1H8C8.55228 1 9 1.44772 9 2ZM10 12V15H14C14.5523 15 15 14.5523 15 14V5C15 4.44772 14.5523 4 14 4H8V2H4V4H3C2.44772 4 2 4.44772 2 5V14C2 14.5523 2.44772 15 3 15H7V12C7 11.4477 7.44772 11 8 11H9C9.55228 11 10 11.4477 10 12ZM7 9H10V6H7V9ZM9 7H8V8H9V7ZM11 6V9H14V6H11ZM12 8H13V7H12V8ZM3 9H6V6H3V9ZM5 7H4V8H5V7Z" fill="black"/>
</svg>
