<svg width="16" height="16" viewBox="0 0 16 16" fill="none" xmlns="http://www.w3.org/2000/svg">
<path fill-rule="evenodd" clip-rule="evenodd" d="M8 0C10.2091 0 12 1.79086 12 4V7C13.1046 7 14 7.89543 14 9V14C14 15.1046 13.1046 16 12 16H4C2.89543 16 2 15.1046 2 14V9C2 7.89543 2.89543 7 4 7V4C4 1.79086 5.79086 0 8 0ZM5 7H6V4C6 2.89543 6.89543 2 8 2C9.10457 2 10 2.89543 10 4V7H11V4C11 2.34315 9.65685 1 8 1C6.34315 1 5 2.34315 5 4V7ZM9 7V4C9 3.44772 8.55228 3 8 3C7.44772 3 7 3.44772 7 4V7H9ZM12 8H10H6H4C3.44772 8 3 8.44772 3 9V14C3 14.5523 3.44772 15 4 15H12C12.5523 15 13 14.5523 13 14V9C13 8.44772 12.5523 8 12 8ZM7 9H8V10H9V11H8V12H9V13H8V14H7V9Z" fill="black"/>
</svg>
