<svg width="16" height="16" viewBox="0 0 16 16" fill="none" xmlns="http://www.w3.org/2000/svg">
<path fill-rule="evenodd" clip-rule="evenodd" d="M15 3.5C15 4.32843 14.3284 5 13.5 5C12.6716 5 12 4.32843 12 3.5C12 2.67157 12.6716 2 13.5 2C14.3284 2 15 2.67157 15 3.5ZM16 3.5C16 4.88071 14.8807 6 13.5 6C12.7014 6 11.9903 5.62556 11.5326 5.04266L5.91505 7.85143C5.97046 8.05827 6 8.27568 6 8.5C6 8.72428 5.97047 8.94167 5.91507 9.14848L11.5326 11.9573C11.9903 11.3744 12.7014 11 13.5 11C14.8807 11 16 12.1193 16 13.5C16 14.8807 14.8807 16 13.5 16C12.1193 16 11 14.8807 11 13.5C11 13.2757 11.0295 13.0583 11.0849 12.8515L5.4674 10.0427C5.00971 10.6256 4.29858 11 3.5 11C2.11929 11 1 9.88071 1 8.5C1 7.11929 2.11929 6 3.5 6C4.29855 6 5.00965 6.3744 5.46734 6.95725L11.0849 4.14846C11.0295 3.94165 11 3.72428 11 3.5C11 2.11929 12.1193 1 13.5 1C14.8807 1 16 2.11929 16 3.5ZM3.5 10C4.32843 10 5 9.32843 5 8.5C5 7.67157 4.32843 7 3.5 7C2.67157 7 2 7.67157 2 8.5C2 9.32843 2.67157 10 3.5 10ZM13.5 15C14.3284 15 15 14.3284 15 13.5C15 12.6716 14.3284 12 13.5 12C12.6716 12 12 12.6716 12 13.5C12 14.3284 12.6716 15 13.5 15Z" fill="black"/>
</svg>
