<svg width="16" height="16" viewBox="0 0 16 16" fill="none" xmlns="http://www.w3.org/2000/svg">
<path fill-rule="evenodd" clip-rule="evenodd" d="M8 2C11.3137 2 14 4.57436 14 7.75C14 10.9256 11.3137 13.5 8 13.5C7.22058 13.5 6.47587 13.3576 5.79266 13.0984C5.39802 12.9487 4.1338 13.2492 2 14L2.19833 13.4794C2.78398 11.8943 2.96679 10.9113 2.74677 10.5303C2.2709 9.70629 2 8.75846 2 7.75C2 4.57436 4.68629 2 8 2ZM8 3C5.22928 3 3 5.13639 3 7.75C3 8.55897 3.21235 9.33689 3.61273 10.0302C3.89547 10.5198 3.90726 11.1827 3.68133 12.1192L3.601 12.424L3.75595 12.3803C4.84785 12.0744 5.56582 11.9889 6.05296 12.1318L6.14735 12.1634C6.73083 12.3848 7.35616 12.5 8 12.5C10.7707 12.5 13 10.3636 13 7.75C13 5.13639 10.7707 3 8 3ZM6 5H5V10H6V8H8V10H9V5H8V7H6V5ZM10 7H11V10H10V7ZM11 5H10V6H11V5Z" fill="black"/>
</svg>
