<svg width="16" height="16" viewBox="0 0 16 16" fill="none" xmlns="http://www.w3.org/2000/svg">
<path fill-rule="evenodd" clip-rule="evenodd" d="M1 1H6V6H1L1 1ZM0 1C0 0.447715 0.447715 0 1 0H6C6.55228 0 7 0.447715 7 1V7H1C0.447715 7 0 6.55228 0 6V1ZM1 10H6V15H1L1 10ZM0 10C0 9.44771 0.447715 9 1 9H7V15C7 15.5523 6.55228 16 6 16H1C0.447715 16 0 15.5523 0 15V10ZM15 10H10V15H15V10ZM9 9V15C9 15.5523 9.44771 16 10 16H15C15.5523 16 16 15.5523 16 15V10C16 9.44772 15.5523 9 15 9H9ZM10 1H15V6H10V1ZM9 1C9 0.447715 9.44772 0 10 0H15C15.5523 0 16 0.447715 16 1V6C16 6.55228 15.5523 7 15 7H9V1Z" fill="black"/>
</svg>
