<?xml version="1.0" encoding="UTF-8"?>
<svg width="237px" height="286px" viewBox="0 0 237 286" version="1.1" xmlns="http://www.w3.org/2000/svg" xmlns:xlink="http://www.w3.org/1999/xlink">
    <title>illustration</title>
    <defs>
        <linearGradient x1="62.8520539%" y1="0.628959019%" x2="34.3627341%" y2="94.5634893%" id="linearGradient-1">
            <stop stop-color="#82CCFF" offset="0%"></stop>
            <stop stop-color="#11529E" offset="100%"></stop>
        </linearGradient>
        <linearGradient x1="56.265793%" y1="0%" x2="50.0540877%" y2="74.5139172%" id="linearGradient-2">
            <stop stop-color="#9BF1FB" offset="0%"></stop>
            <stop stop-color="#459CE2" offset="100%"></stop>
        </linearGradient>
        <linearGradient x1="50%" y1="0.902660473%" x2="50%" y2="100%" id="linearGradient-3">
            <stop stop-color="#FFEFA6" offset="0%"></stop>
            <stop stop-color="#F6C740" offset="100%"></stop>
        </linearGradient>
    </defs>
    <g id="Opening-Tour" stroke="none" stroke-width="1" fill="none" fill-rule="evenodd">
        <g id="0-Opening" transform="translate(-446.000000, -386.000000)">
            <g id="illustration" transform="translate(446.000000, 386.000000)">
                <g id="widget" transform="translate(9.000000, 147.000000)">
                    <rect id="Rectangle" stroke="#40D0CD" x="0" y="0" width="111" height="124"></rect>
                    <path d="M78.8770492,104 C79.1531916,104 79.3770492,104.223858 79.3770492,104.5 C79.3770492,104.776142 79.1531916,105 78.8770492,105 L42.5,105 C42.2238576,105 42,104.776142 42,104.5 C42,104.223858 42.2238576,104 42.5,104 L78.8770492,104 Z M98.5,98 C98.7761424,98 99,98.2238576 99,98.5 C99,98.7761424 98.7761424,99 98.5,99 L42.5,99 C42.2238576,99 42,98.7761424 42,98.5 C42,98.2238576 42.2238576,98 42.5,98 L98.5,98 Z M70.5,91 C70.7761424,91 71,91.2238576 71,91.5 C71,91.7761424 70.7761424,92 70.5,92 L42.5,92 C42.2238576,92 42,91.7761424 42,91.5 C42,91.2238576 42.2238576,91 42.5,91 L70.5,91 Z" id="Combined-Shape" fill="#A387F5"></path>
                    <path d="M78.8770492,68 C79.1531916,68 79.3770492,68.2238576 79.3770492,68.5 C79.3770492,68.7761424 79.1531916,69 78.8770492,69 L42.5,69 C42.2238576,69 42,68.7761424 42,68.5 C42,68.2238576 42.2238576,68 42.5,68 L78.8770492,68 Z M98.5,62 C98.7761424,62 99,62.2238576 99,62.5 C99,62.7761424 98.7761424,63 98.5,63 L42.5,63 C42.2238576,63 42,62.7761424 42,62.5 C42,62.2238576 42.2238576,62 42.5,62 L98.5,62 Z M70.5,55 C70.7761424,55 71,55.2238576 71,55.5 C71,55.7761424 70.7761424,56 70.5,56 L42.5,56 C42.2238576,56 42,55.7761424 42,55.5 C42,55.2238576 42.2238576,55 42.5,55 L70.5,55 Z" id="Combined-Shape" fill="#40D0CD"></path>
                    <path d="M78.8770492,32 C79.1531916,32 79.3770492,32.2238576 79.3770492,32.5 C79.3770492,32.7761424 79.1531916,33 78.8770492,33 L42.5,33 C42.2238576,33 42,32.7761424 42,32.5 C42,32.2238576 42.2238576,32 42.5,32 L78.8770492,32 Z M98.5,26 C98.7761424,26 99,26.2238576 99,26.5 C99,26.7761424 98.7761424,27 98.5,27 L42.5,27 C42.2238576,27 42,26.7761424 42,26.5 C42,26.2238576 42.2238576,26 42.5,26 L98.5,26 Z M70.5,19 C70.7761424,19 71,19.2238576 71,19.5 C71,19.7761424 70.7761424,20 70.5,20 L42.5,20 C42.2238576,20 42,19.7761424 42,19.5 C42,19.2238576 42.2238576,19 42.5,19 L70.5,19 Z" id="Combined-Shape" fill="#A387F5"></path>
                    <rect id="Rectangle" fill="#A387F5" x="12" y="88" width="20" height="20"></rect>
                    <rect id="Rectangle" fill="#40D0CD" x="12" y="52" width="20" height="20"></rect>
                    <rect id="Rectangle" fill="#A387F5" x="12" y="16" width="20" height="20"></rect>
                </g>
                <g id="person" transform="translate(55.000000, 28.000000)">
                    <path d="M59.9656524,32.2783781 C60.3173982,37.5638087 64.6671244,44.9740579 72.6479445,44.9740579 C79.6222242,44.9740579 82.4486944,38.0999008 83.2647064,36.0664586 C86.1594911,36.6629563 88.0225921,30.3374954 86.7794548,28.3954681 C85.5363175,26.4534408 82.2638167,26.2928457 82.2638167,28.7423272 C81.1021005,29.2226385 79.023466,24.3085295 76.0279132,14 L65.0305898,19.1439644 C60.6516561,23.9932233 58.9633436,28.3713612 59.9656524,32.2783781 Z" id="face" fill="#FFDBC7"></path>
                    <g id="features" transform="translate(63.000000, 24.000000)">
                        <path d="M7.57073305,15.9836675 C9.35074162,17.3047404 11.1307502,16.6770837 12.9107588,14.1006977" id="mouse" stroke="#E55F4E" stroke-width="0.6" stroke-linecap="round"></path>
                        <path d="M7.1541938,8.60048598 C7.1062926,9.59426093 6.915736,10.3852333 6.58252398,10.9734032 C5.62624806,12.6613756 7.1541938,13.2266533 8.25989681,12.5929062" id="nose" stroke="#E58E4E" stroke-width="0.6" stroke-linecap="round"></path>
                        <g id="eyes" transform="translate(1.000000, 4.698047)">
                            <ellipse id="Oval" fill="#000000" cx="13.232981" cy="2.46168773" rx="1.32222222" ry="1.36585366"></ellipse>
                            <path d="M10.0685317,1.2014706 C11.8818664,-0.341449876 13.5613506,-0.341449876 15.1069843,1.2014706" id="Path-29" stroke="#E58E4E" stroke-width="0.6" stroke-linecap="round"></path>
                            <ellipse id="Oval" fill="#000000" cx="3.03298099" cy="2.46168773" rx="1.32222222" ry="1.36585366"></ellipse>
                            <path d="M4.29483609e-14,1.2014706 C1.70818124,-0.4004902 3.27450254,-0.4004902 4.69896391,1.2014706" id="Path-28" stroke="#E58E4E" stroke-width="0.6" stroke-linecap="round"></path>
                        </g>
                        <g id="brow" transform="translate(0.080346, 0.000000)" fill="#6F3C16">
                            <path d="M10.9196537,2.64413765 C11.7959137,1.6268147 12.946279,0.930081005 14.6119185,0.734487519 C15.9272314,0.734487519 16.3127716,1.86646573 15.4748569,2.19159529 C14.4529947,1.83894926 11.6262472,2.4224859 10.9196537,2.64413765 Z" id="Path-30"></path>
                            <path d="M0.595991735,2.17225397 C2.92239627,1.74811985 4.56982281,1.80455714 5.53827134,2.34156585 C4.50392874,0.63361401 2.199827,0.574288246 1.26661894,0.872663236 C0.644480236,1.0715799 0.420937834,1.50477681 0.595991735,2.17225397 Z" id="Path-31"></path>
                        </g>
                    </g>
                    <path d="M74.6563231,16.7565261 C73.6091554,16.5246428 68.6098214,16.5246428 65.6750627,22.8677994 C62.7403039,29.210956 59.7945374,30.1130644 59.7945374,30.1130644 C59.9595247,33.3916559 60.2635843,33.9077045 60.4265285,34.9167958 C59.0191211,36.5809872 55,36.6200421 55,29.7439208 C55,22.8677994 62.3052262,3.34064722 75.1383212,9.47299021 C77.2451466,6.18134096 86.8278589,8.45675959 88.3075411,15.795069 C89.7872232,23.1333784 93.5192514,27.6260094 97.1663132,28.8695369 C100.813375,30.1130644 99.2478748,38.2077203 90.4106762,39.0573866 C88.3075411,44.2977911 80.080332,45.166893 78.572172,42.8937197 C81.198937,40.6157422 82.5581957,37.7057852 83.1486291,35.8196666 C85.8660421,35.3466623 88.3711262,29.0122247 85.7598777,28.1091909 C83.9794938,27.1407118 83.0884503,28.6248237 82.6958689,29.3689441 C82.3032874,30.1130644 74.6563231,27.3140157 74.6563231,16.7565261 Z" id="hair" fill="#06095C"></path>
                    <path d="M56.5410818,237.244082 C55.2065778,236.182594 54.0820279,235.251411 51.2104434,236.886812 C48.3388589,238.522214 40.2571976,252.886 39.1987267,255.936332 C38.1402557,258.986663 41.5754026,258.087177 43.2474851,256.842142 C44.9195677,255.597106 56.9647543,244.915909 58.2100646,243.530881 C59.4553749,242.145853 59.4553749,239.618183 56.5410818,237.244082 Z" id="shoes" fill="#06095C"></path>
                    <path d="M45.723374,108 C24.7121604,112.88445 9.61380733,120.557441 0.428314801,131.018973 C-1.60211787,134.448977 2.35528802,153.189348 39.6024037,187 C43.6830506,186.325379 43.6830506,182.968855 39.6024037,176.930427 C31.8872036,158.27643 24.4378431,144.681064 17.2543221,136.144329 C24.7644402,138.179244 52.6642686,131.081605 60.1465311,127.555197 C65.1347061,125.204259 67.752529,119.703931 68,111.054214 L45.723374,108 Z" id="pants-back" fill="url(#linearGradient-1)"></path>
                    <path d="M64.1019941,114 C48.4832164,139.258894 39.2902329,157.757562 36.5230436,169.496004 C33.5251253,182.403762 44.3558062,229.681459 45.1983268,231.811291 C46.0408474,233.941123 46.8906207,235.618223 49.1504375,234.779673 C51.4102542,233.941123 52.4298613,231.436325 52.4298613,229.600678 C52.4298613,227.831947 53.9021569,173.274962 52.4298613,170.324062 C55.1085207,169.496004 85.7003591,129.799978 86.93936,125.010417 C87.7653606,121.817376 80.1529053,118.147237 64.1019941,114 Z" id="pants-front" fill="url(#linearGradient-2)"></path>
                    <g id="hand-left" transform="translate(139.000000, 44.000000)">
                        <path d="M5.43338745,10.3036898 C11.0980996,4.73624679 14.2337153,1.58149503 14.8402345,0.83943448 C15.7500134,-0.273656346 17.1434612,-0.590766796 16.6524899,1.85993347 C16.1615186,4.31063374 12.7644525,7.02474562 10.7679217,9.38702593 C13.9139181,9.38702593 14.8402345,13.2898316 14.8402345,16.6394903 C14.8402345,19.2570326 9.98393615,21.9545708 6.18538358,23.4349352 C3.6530152,24.4218448 2.12351918,23.1212868 1.59689554,19.5332612 L5.43338745,10.3036898 Z" id="fingers" fill="#FFDBC7"></path>
                        <path d="M-3.16026275e-14,19.4955578 C1.22350624,14.1217617 2.29433809,11.1756821 3.21249555,10.657319 C4.58973175,9.87977435 11.0492689,9.10134109 12.1006206,9.49055772 C13.1519723,9.87977435 10.9615341,12.8818372 8.51617918,13.4555911 C6.88594259,13.8380936 5.85962014,13.9434757 5.43721181,13.7717373 C6.46517115,14.4874201 6.27604812,16.1798199 4.86984271,18.8489369 C3.21249555,20.9011753 2.7605346,21.2709394 1.41264591,21.625882 C0.470881969,21.3626155 -3.16026275e-14,20.6525075 -3.16026275e-14,19.4955578 Z" id="thumb" fill="#FDC5A6"></path>
                    </g>
                    <g id="hand-right" transform="translate(2.000000, 0.000000)">
                        <path d="M13.253892,14.7588152 C11.3849053,13.8783522 8.04239722,4.52181228 6.75567687,1.23711114 C5.31775206,-1.76391501 4.04229792,1.2311412 4.60363215,4.52181228 C5.16496637,7.81248336 6.12753597,12.7298597 6.75567687,13.5677096 C7.03578601,13.941335 5.28981947,14.1756895 3.53402805,16.8295268 C2.95462754,17.7052771 2.17215449,19.7247056 1.18660889,22.8878124 C2.67967886,25.2813375 4.53603486,26.4781 6.75567687,26.4781 C8.97531889,26.4781 11.1413906,26.0769861 13.253892,25.2747583 C13.0832644,18.9646266 13.0832644,15.4593122 13.253892,14.7588152 Z" id="forefinger" fill="#FFDBC7"></path>
                        <path d="M4.46395107,16.3935489 C5.69803891,20.2065388 6.6318083,20.7318894 7.72641848,20.2065388 C8.93935228,19.3003826 7.64487927,12.3704282 5.81660897,11.6748275 C3.98833868,10.9792268 2.6035825,12.1462467 2.6035825,13.9351202 C1.18660889,15.8095608 -0.50945061,18.273256 0.144582822,21.4922878 C0.798616254,24.7113197 2.98937886,25.1774804 3.71972361,24.9465944 C4.46395107,24.7113197 5.01024476,24.4405649 5.5466996,22.1402053 C5.81660897,20.9828132 5.1449918,18.3452548 4.46395107,16.3935489 Z" id="fingers" fill="#FDC5A6"></path>
                        <path d="M10.5834158,26.4781 C9.02212824,20.5676864 9.68065553,16.4128763 12.5589977,14.0136697 C11.1594125,9.41624468 12.8273411,6.425575 13.6712978,5.63111098 C14.5152544,4.83664695 15.6562661,4.87862731 15.26507,6.73122656 C14.8738739,8.58382581 15.3410388,12.2881602 15.9748828,13.5 C16.6087268,14.7118398 16.6087268,18.1561302 15.7167334,20.3244448 C14.82474,22.4927594 12.5589977,24.2510847 12.5589977,24.996955 C12.5589977,25.4942019 11.9004704,25.9879169 10.5834158,26.4781 Z" id="thumb" fill="#FDC5A6"></path>
                    </g>
                    <path d="M64.2360677,52.9588796 C64.4235932,52.6455837 64.2972104,51.5530277 63.8569192,49.6812117 C63.4645562,48.4402878 64.1640888,47.667876 65.955517,47.3639762 C68.6426593,46.9081266 81.2267918,47.1421152 83.7875639,47.7235196 C85.4947453,48.1111225 85.900893,48.8826642 85.0060072,50.0381446 C84.3612587,51.5672308 84.1546055,52.4352139 84.3860476,52.642094 C84.7332108,52.9524141 98.5606381,51.9418199 106.389043,61.694581 C114.217448,71.4473421 116.458144,75.9693549 120.78607,82.8129237 C124.531018,81.1311451 133.886498,68.5956884 135.34332,65.5614865 C136.800141,62.5272846 137.5784,62.3962844 138.607723,62.9195649 C139.637045,63.4428454 145.019994,66.7460267 145.673676,67.6627298 C146.327358,68.5794328 145.952995,69.0612329 144.959988,70.191895 C143.966981,71.3225572 130.0708,91.5153906 129.101224,93.4521937 C128.131648,95.3889968 123.331922,100.517985 119.451115,99.6252039 C115.570308,98.7324226 108.980691,91.2543851 107.166201,88.4696283 C105.351712,85.6848715 96.8902769,74.4308123 95.0299245,73.9285225 C95.4718729,77.9236242 92.8236843,114.336228 89.6326764,124.449798 C89.0863952,127.12798 86.8988313,125.80165 85.0060072,124.449798 C83.1131831,123.097946 59.7081577,111.784846 48.1354623,109.928632 C39.9791412,108.847393 39.0505051,107.017245 39.3944372,105.729954 C39.7383693,104.442663 41.766751,104.04189 44.2981896,101.911101 C46.8296282,99.7803121 54.7198644,84.9374802 53.187858,73.9285225 C42.5113864,73.3889302 11.1779248,53.3951862 7.1910799,29.2987823 C6.66092507,26.891321 6.91788427,26.5882149 8.25441773,26.0371582 C9.14544004,25.6697871 11.798895,24.6993617 16.2147827,23.1258819 C16.9204409,23.0558789 17.3593073,23.5920808 17.5313817,24.7344875 C17.7894934,26.4480976 27.8963041,55.6029763 57.682971,52.642094 C58.9318278,52.4978822 60.7576093,52.3198187 62.5344799,52.642094 C63.5870214,52.8329959 64.0561781,53.2351169 64.2360677,52.9588796 Z" id="shirt" fill="url(#linearGradient-3)"></path>
                </g>
                <g id="widget" transform="translate(143.000000, 206.000000)">
                    <rect id="Rectangle" stroke="#FFC520" x="0.5" y="0.5" width="79" height="39"></rect>
                    <path d="M40,12 C44.418278,12 48,15.581722 48,20 C48,24.418278 44.418278,28 40,28 C35.581722,28 32,24.418278 32,20 C32,15.581722 35.581722,12 40,12 Z M38,16 L38,24 L43,20 L38,16 Z" id="Combined-Shape" fill="#FFC520"></path>
                </g>
                <g id="settings" transform="translate(188.000000, 130.000000)">
                    <path d="M38,0.5 L2,0.5 C1.58578644,0.5 1.21078644,0.667893219 0.939339828,0.939339828 C0.667893219,1.21078644 0.5,1.58578644 0.5,2 L0.5,34 C0.5,34.4142136 0.667893219,34.7892136 0.939339828,35.0606602 C1.21078644,35.3321068 1.58578644,35.5 2,35.5 L16.2635473,35.5 L20.4160251,40.4745745 L23.7324081,35.5 L38,35.5 C38.4142136,35.5 38.7892136,35.3321068 39.0606602,35.0606602 C39.3321068,34.7892136 39.5,34.4142136 39.5,34 L39.5,2 C39.5,1.58578644 39.3321068,1.21078644 39.0606602,0.939339828 C38.7892136,0.667893219 38.4142136,0.5 38,0.5 Z" id="Rectangle" stroke="#A387F5"></path>
                    <path d="M21.5806424,10 C21.7438667,10 21.8798736,10.2143898 21.9070911,10.4020101 L21.9070911,10.4020101 L22.2335398,12.4924623 C22.7232129,12.7336683 23.212886,12.9748744 23.620947,13.2964824 L23.620947,13.2964824 L25.6612515,12.4924623 C25.9060881,12.4120603 26.0693125,12.4924623 26.1509246,12.5728643 L26.1509246,12.5728643 L27.7831683,15.3869347 C27.8647805,15.5477387 27.8647805,15.7085427 27.7015561,15.8693467 L27.7015561,15.8693467 L25.9877003,17.2361809 C26.0693125,17.4773869 26.0693125,17.718593 26.0693125,18.040201 C26.0693125,18.361809 25.9877003,18.6030151 25.9877003,18.8442211 L25.9877003,18.8442211 L27.8647805,20.1306533 C28.0280049,20.2110553 28.0280049,20.4522613 27.9463927,20.6130653 L27.9463927,20.6130653 L26.314149,23.4271357 C26.2325368,23.5879397 25.9877003,23.6683417 25.8244759,23.5879397 L25.8244759,23.5879397 L23.7841713,22.7839196 C23.3761104,23.1055276 22.8864373,23.3467337 22.3967642,23.5879397 L22.3967642,23.5879397 L22.0703155,25.678392 C22.0703155,25.839196 21.8254789,26 21.6622545,26 L21.6622545,26 L18.3977672,26 C18.1529306,26 17.9897063,25.839196 17.9897063,25.678392 L17.9897063,25.678392 L17.6632575,23.5879397 C17.1735844,23.3467337 16.6839113,23.1055276 16.2758504,22.7839196 L16.2758504,22.7839196 L14.2355458,23.5879397 C13.9907093,23.6683417 13.8274849,23.5879397 13.7458727,23.5075377 L13.7458727,23.5075377 L12.113629,20.6934673 C12.0320169,20.5326633 12.0320169,20.3718593 12.1952412,20.2110553 L12.1952412,20.2110553 L13.9090971,18.8442211 C13.8274849,18.6030151 13.8274849,18.361809 13.8274849,18.040201 C13.8274849,17.718593 13.9090971,17.4773869 13.9090971,17.2361809 L13.9090971,17.2361809 L12.1952412,15.9497487 C12.0320169,15.7889447 11.9504047,15.5477387 12.0320169,15.4673367 L12.0320169,15.4673367 L13.6642605,12.6532663 C13.8274849,12.4924623 13.9907093,12.4120603 14.2355458,12.4924623 L14.2355458,12.4924623 L16.1942382,13.2964824 C16.6839113,12.9748744 17.0919722,12.6532663 17.5816454,12.4924623 L17.5816454,12.4924623 L17.9080941,10.321608 C17.9080941,10.160804 18.1529306,10 18.316155,10 L18.316155,10 Z M20,15 C18.3431458,15 17,16.3431458 17,18 C17,19.6568542 18.3431458,21 20,21 C21.6568542,21 23,19.6568542 23,18 C23,16.3431458 21.6568542,15 20,15 Z" fill="#A387F5"></path>
                </g>
                <path d="M154.5,173 C150.333333,173 147,176.166667 147,180.125 C147,182.975 148.833333,185.191667 151.166667,188.041667 C152,189.15 153,190.258333 153.833333,191.683333 C154,191.841667 154.166667,192 154.5,192 L154.5,192 C154.833333,192 155,191.841667 155.166667,191.683333 C156,190.416667 157,189.308333 157.833333,188.2 C160.166667,185.191667 162,182.975 162,180.125 C162,176.166667 158.666667,173 154.5,173 Z M154.5,183 C153.166667,183 152,182 152,180.5 C152,179 153,178 154.5,178 C155.833333,178 157,179 157,180.5 C157,181.833333 156,183 154.5,183 Z" id="Shape" fill="#40D0CD" fill-rule="nonzero"></path>
                <g id="widget" transform="translate(19.000000, 77.000000)" fill="#FFFFFF" stroke="#A387F5">
                    <rect id="Rectangle" x="2" y="2" width="40" height="40"></rect>
                    <g id="point">
                        <rect id="Rectangle" x="0" y="0" width="4" height="4"></rect>
                        <rect id="Rectangle" x="20" y="0" width="4" height="4"></rect>
                        <rect id="Rectangle" x="40" y="0" width="4" height="4"></rect>
                        <rect id="Rectangle" x="0" y="20" width="4" height="4"></rect>
                        <rect id="Rectangle" x="40" y="20" width="4" height="4"></rect>
                        <rect id="Rectangle" x="0" y="40" width="4" height="4"></rect>
                        <rect id="Rectangle" x="20" y="40" width="4" height="4"></rect>
                        <rect id="Rectangle" x="40" y="40" width="4" height="4"></rect>
                    </g>
                </g>
                <g id="widget" transform="translate(162.000000, 14.000000)">
                    <g id="Widget" stroke="#A387F5">
                        <rect id="Rectangle" x="2" y="2" width="70" height="70"></rect>
                        <g id="point" fill="#FFFFFF">
                            <rect id="Rectangle" x="0" y="0" width="4" height="4"></rect>
                            <rect id="Rectangle" x="35" y="0" width="4" height="4"></rect>
                            <rect id="Rectangle" x="70" y="0" width="4" height="4"></rect>
                            <rect id="Rectangle" x="0" y="35" width="4" height="4"></rect>
                            <rect id="Rectangle" x="70" y="35" width="4" height="4"></rect>
                            <rect id="Rectangle" x="0" y="70" width="4" height="4"></rect>
                            <rect id="Rectangle" x="35" y="70" width="4" height="4"></rect>
                            <rect id="Rectangle" x="70" y="70" width="4" height="4"></rect>
                        </g>
                    </g>
                    <g id="Widget" transform="translate(8.000000, 15.000000)" stroke="#40D0CD">
                        <rect id="Rectangle" x="2" y="2" width="24" height="40"></rect>
                        <g id="point" fill="#FFFFFF">
                            <rect id="Rectangle" x="0" y="0" width="4" height="4"></rect>
                            <rect id="Rectangle" x="12" y="0" width="4" height="4"></rect>
                            <rect id="Rectangle" x="24" y="0" width="4" height="4"></rect>
                            <rect id="Rectangle" x="0" y="20" width="4" height="4"></rect>
                            <rect id="Rectangle" x="24" y="20" width="4" height="4"></rect>
                            <rect id="Rectangle" x="0" y="40" width="4" height="4"></rect>
                            <rect id="Rectangle" x="12" y="40" width="4" height="4"></rect>
                            <rect id="Rectangle" x="24" y="40" width="4" height="4"></rect>
                        </g>
                    </g>
                    <path d="M48.5,44 C48.7761424,44 49,44.2238576 49,44.5 C49,44.7761424 48.7761424,45 48.5,45 L41.5,45 C41.2238576,45 41,44.7761424 41,44.5 C41,44.2238576 41.2238576,44 41.5,44 L48.5,44 Z M64.5,39 C64.7761424,39 65,39.2238576 65,39.5 C65,39.7761424 64.7761424,40 64.5,40 L41.5,40 C41.2238576,40 41,39.7761424 41,39.5 C41,39.2238576 41.2238576,39 41.5,39 L64.5,39 Z M64.5,35 C64.7761424,35 65,35.2238576 65,35.5 C65,35.7761424 64.7761424,36 64.5,36 L41.5,36 C41.2238576,36 41,35.7761424 41,35.5 C41,35.2238576 41.2238576,35 41.5,35 L64.5,35 Z M56.5,28 C56.7761424,28 57,28.2238576 57,28.5 C57,28.7761424 56.7761424,29 56.5,29 L41.5,29 C41.2238576,29 41,28.7761424 41,28.5 C41,28.2238576 41.2238576,28 41.5,28 L56.5,28 Z" id="Combined-Shape" fill="#A387F5"></path>
                </g>
                <g id="widget">
                    <rect id="Rectangle" stroke="#40D0CD" x="0.5" y="0.5" width="79" height="39"></rect>
                    <path d="M50.5,27 C50.7761424,27 51,27.2238576 51,27.5 C51,27.7761424 50.7761424,28 50.5,28 L38.5,28 C38.2238576,28 38,27.7761424 38,27.5 C38,27.2238576 38.2238576,27 38.5,27 L50.5,27 Z M71.5,22 C71.7761424,22 72,22.2238576 72,22.5 C72,22.7761424 71.7761424,23 71.5,23 L38.5,23 C38.2238576,23 38,22.7761424 38,22.5 C38,22.2238576 38.2238576,22 38.5,22 L71.5,22 Z M71.5,18 C71.7761424,18 72,18.2238576 72,18.5 C72,18.7761424 71.7761424,19 71.5,19 L38.5,19 C38.2238576,19 38,18.7761424 38,18.5 C38,18.2238576 38.2238576,18 38.5,18 L71.5,18 Z M57.5,11 C57.7761424,11 58,11.2238576 58,11.5 C58,11.7761424 57.7761424,12 57.5,12 L38.5,12 C38.2238576,12 38,11.7761424 38,11.5 C38,11.2238576 38.2238576,11 38.5,11 L57.5,11 Z" id="Combined-Shape" fill="#40D0CD"></path>
                    <g id="image" transform="translate(8.000000, 8.000000)" stroke="#40D0CD">
                        <rect id="Rectangle" x="0.5" y="0.5" width="23" height="23"></rect>
                        <polyline id="Path-32" points="2.40685464 23.4737828 8 14.92337 12.8966643 20 18.3765766 10.9198024 23.6099582 17.0480857"></polyline>
                        <circle id="Oval" cx="9" cy="8" r="2.5"></circle>
                    </g>
                </g>
                <circle id="circle" stroke-opacity="0.8" stroke="#F55623" cx="63" cy="29" r="4.5"></circle>
                <circle id="circle" stroke-opacity="0.8" stroke="#F55623" cx="210" cy="73" r="4.5"></circle>
            </g>
        </g>
    </g>
</svg>