<svg width="16" height="16" viewBox="0 0 16 16" fill="none" xmlns="http://www.w3.org/2000/svg">
<path d="M13.5 4.97006V14H15V15H2C1.73478 15 1.48043 14.8946 1.29289 14.7071C1.10536 14.5196 1 14.2652 1 14V1H2V12.5L4.645 7.5C4.71815 7.36865 4.81997 7.25548 4.94289 7.16891C5.06582 7.08234 5.20668 7.02461 5.355 7C5.50519 6.97581 5.65891 6.98621 5.80448 7.0304C5.95004 7.07459 6.0836 7.1514 6.195 7.255L8.10002 9.52367C8.30545 9.76831 8.68446 9.7602 8.87924 9.50699L12.6037 4.66521C12.8948 4.28679 13.5 4.49264 13.5 4.97006Z" fill="black"/>
</svg>
