<svg width="16" height="16" viewBox="0 0 16 16" fill="none" xmlns="http://www.w3.org/2000/svg">
<path fill-rule="evenodd" clip-rule="evenodd" d="M2.7998 0C1.69524 0 0.799805 0.895431 0.799805 2V4H15.1998V2C15.1998 0.895431 14.3044 0 13.1998 0H2.7998ZM15.1998 5.6H0.799805V10.4H15.1998V5.6ZM0.799805 12H15.1998V14C15.1998 15.1046 14.3044 16 13.1998 16H2.79981C1.69524 16 0.799805 15.1046 0.799805 14V12ZM4.7998 2C4.7998 2.66274 4.26255 3.2 3.5998 3.2C2.93706 3.2 2.3998 2.66274 2.3998 2C2.3998 1.33726 2.93706 0.8 3.5998 0.8C4.26255 0.8 4.7998 1.33726 4.7998 2ZM4.7998 8C4.7998 8.66274 4.26255 9.2 3.5998 9.2C2.93706 9.2 2.3998 8.66274 2.3998 8C2.3998 7.33726 2.93706 6.8 3.5998 6.8C4.26255 6.8 4.7998 7.33726 4.7998 8ZM3.5998 15.2C4.26255 15.2 4.7998 14.6627 4.7998 14C4.7998 13.3373 4.26255 12.8 3.5998 12.8C2.93706 12.8 2.3998 13.3373 2.3998 14C2.3998 14.6627 2.93706 15.2 3.5998 15.2Z" fill="black"/>
</svg>
