<svg width="16" height="16" viewBox="0 0 16 16" fill="none" xmlns="http://www.w3.org/2000/svg">
<path fill-rule="evenodd" clip-rule="evenodd" d="M7.99961 0C11.5342 0 14.3996 1.07452 14.3996 2.4H14.4V4.8C14.4 6.12548 11.5346 7.2 8 7.2C4.46538 7.2 1.6 6.12548 1.6 4.8V2.42679C1.59974 2.41787 1.59961 2.40894 1.59961 2.4C1.59961 1.07452 4.46499 0 7.99961 0ZM1.60078 6.77371C1.60052 6.78263 1.60039 6.79156 1.60039 6.8005C1.60039 6.80945 1.60052 6.81838 1.60078 6.8273V9.20051C1.60078 10.526 4.46616 11.6005 8.00078 11.6005C11.5354 11.6005 14.4008 10.526 14.4008 9.20051V6.80054C14.4008 8.12602 11.5354 9.20054 8.00078 9.20054C4.46616 9.20054 1.60078 8.12602 1.60078 6.80054V6.77371ZM1.60078 11.1733C1.60052 11.1822 1.60039 11.1911 1.60039 11.2C1.60039 11.209 1.60052 11.2179 1.60078 11.2268V13.6C1.60078 14.9255 4.46616 16 8.00078 16C11.5354 16 14.4008 14.9255 14.4008 13.6V11.2C14.4008 12.5255 11.5354 13.6 8.00078 13.6C4.46616 13.6 1.60078 12.5255 1.60078 11.2V11.1733Z" fill="black"/>
</svg>
