<svg width="16" height="16" viewBox="0 0 16 16" fill="none" xmlns="http://www.w3.org/2000/svg">
<path fill-rule="evenodd" clip-rule="evenodd" d="M14.3996 14.4C14.3996 15.2837 13.6833 16 12.7996 16H3.19961C2.31595 16 1.59961 15.2837 1.59961 14.4V1.6C1.59961 0.716344 2.31595 0 3.19961 0H7.79961C8.35189 0 8.79961 0.447715 8.79961 1V4.6C8.79961 5.15229 9.24732 5.6 9.79961 5.6H13.3996C13.9519 5.6 14.3996 6.04772 14.3996 6.6V14.4ZM10.3996 0V3C10.3996 3.55228 10.8473 4 11.3996 4H14.3996L10.3996 0ZM6.39961 8H11.9996V9.6H6.39961V8ZM6.39961 11.2H11.9996V12.8H6.39961V11.2ZM5.59961 12C5.59961 12.4418 5.24144 12.8 4.79961 12.8C4.35778 12.8 3.99961 12.4418 3.99961 12C3.99961 11.5582 4.35778 11.2 4.79961 11.2C5.24144 11.2 5.59961 11.5582 5.59961 12ZM4.79961 9.6C5.24144 9.6 5.59961 9.24183 5.59961 8.8C5.59961 8.35817 5.24144 8 4.79961 8C4.35778 8 3.99961 8.35817 3.99961 8.8C3.99961 9.24183 4.35778 9.6 4.79961 9.6Z" fill="black"/>
</svg>
