<svg width="20" height="20" viewBox="0 0 20 20" fill="none" xmlns="http://www.w3.org/2000/svg">
<path fill-rule="evenodd" clip-rule="evenodd" d="M17.1323 10.469L15.1344 8.67087L15.4652 8.40057C15.677 8.22748 15.8568 8.01844 15.9961 7.78298L16.0015 7.77362C16.5302 6.85747 16.3594 5.73361 15.6221 4.9964C14.8849 4.25926 13.761 4.08832 12.8448 4.61713L12.8356 4.62263C12.6001 4.76193 12.3911 4.94163 12.218 5.15344L11.9477 5.48422L10.1496 3.48633L7.33395 6.30197L8.72375 7.43773L8.72456 7.4384C8.83298 7.52762 8.92489 7.63516 8.99614 7.75614C9.26009 8.21606 9.19062 8.77633 8.79417 9.17277C8.3977 9.56925 7.83739 9.63872 7.37747 9.37476C7.2562 9.30333 7.14847 9.2111 7.05912 9.10233L7.05369 9.09587L5.92343 7.7125L2.98242 10.6532L8.32993 16.0008C8.54466 16.2155 8.79959 16.3859 9.08016 16.5021C9.36073 16.6183 9.66144 16.6781 9.96513 16.6781C10.2688 16.6781 10.5695 16.6183 10.8501 16.5021C11.1307 16.3859 11.3856 16.2155 11.6003 16.0008L17.1323 10.469ZM10.4674 15.5782C10.6266 15.5122 10.7713 15.4156 10.8932 15.2937L15.6799 10.5072L13.9779 8.97543L13.9938 8.31147L14.8324 7.62621C14.9533 7.52744 15.0559 7.40814 15.1354 7.27378C15.4309 6.76174 15.3423 6.13078 14.915 5.70353C14.4878 5.27629 13.8567 5.18775 13.3448 5.48325C13.2105 5.56275 13.0912 5.66529 12.9924 5.78617L12.3071 6.6248L11.6431 6.64063L10.1114 4.93873L8.82285 6.22728L9.35855 6.66505C9.4391 6.73123 9.51469 6.80292 9.58482 6.87952C9.68951 6.99389 9.78202 7.11921 9.86066 7.25351C10.3569 8.1132 10.2125 9.16864 9.50128 9.87988C8.79004 10.5911 7.73457 10.7355 6.87486 10.2393C6.74055 10.1606 6.61522 10.0681 6.50085 9.96343C6.42425 9.89331 6.35257 9.81772 6.28639 9.73717L6.28366 9.73392L5.84862 9.20146L4.39667 10.6533L9.03704 15.2937C9.15891 15.4156 9.30361 15.5122 9.46285 15.5782C9.62209 15.6442 9.79276 15.6781 9.96513 15.6781C10.1375 15.6781 10.3082 15.6442 10.4674 15.5782Z" fill="black"/>
<path fill-rule="evenodd" clip-rule="evenodd" d="M0 2C0 0.895431 0.895431 0 2 0H18C19.1046 0 20 0.895431 20 2V18C20 19.1046 19.1046 20 18 20H2C0.895431 20 0 19.1046 0 18V2ZM2 1H18C18.5523 1 19 1.44772 19 2V18C19 18.5523 18.5523 19 18 19H2C1.44772 19 1 18.5523 1 18V2C1 1.44772 1.44772 1 2 1Z" fill="black"/>
</svg>
