<svg width="32" height="32" viewBox="0 0 32 32" fill="none" xmlns="http://www.w3.org/2000/svg">
<path fill-rule="evenodd" clip-rule="evenodd" d="M32 16C32 24.8366 24.8366 32 16 32C7.16344 32 0 24.8366 0 16C0 7.16344 7.16344 0 16 0C24.8366 0 32 7.16344 32 16ZM17.4493 10L19.125 10.6017L14.5507 23L12.875 22.3983L17.4493 10ZM11.4545 10.9455L12.7273 12.2691L8.54545 16.6182L12.7273 20.9673L11.4545 22.2909L6 16.6182L11.4545 10.9455ZM19.2727 12.2691L20.5455 10.9455L26 16.6182L20.5455 22.2909L19.2727 20.9673L23.4545 16.6182L19.2727 12.2691Z" fill="black"/>
</svg>
