<svg width="16" height="16" viewBox="0 0 16 16" fill="none" xmlns="http://www.w3.org/2000/svg">
<path fill-rule="evenodd" clip-rule="evenodd" d="M14.2222 4C15.2041 4 16 4.79594 16 5.77778V10.2222C16 11.2041 15.2041 12 14.2222 12H1.77778C0.795938 12 0 11.2041 0 10.2222V5.77778C0 4.79594 0.795938 4 1.77778 4H14.2222ZM2.66667 5.77778H1.77778V10.2222H2.66667V7.25956L4.44444 10.2222H5.33333V5.77778H4.44444V8.74044L2.66667 5.77778ZM8.88889 5.77778H6.22222V10.2222H8.88889V9.33333H7.11111V8.44444H8.88889V7.55556H7.11111V6.66667H8.88889V5.77778ZM10.2222 5.77778H9.33333L10.6667 10.2222H11.5556L12 8L12.4444 10.2222H13.3333L14.6667 5.77778H13.7778L12.9778 8.44444L12.4444 5.77778H11.5556L11.0222 8.44444L10.2222 5.77778Z" fill="black"/>
</svg>
