<svg width="16" height="16" viewBox="0 0 16 16" fill="none" xmlns="http://www.w3.org/2000/svg">
<path d="M6.81939 9.09156C7.67755 9.91703 8.7159 10.5543 9.86151 10.9587L11.4113 9.78932C11.4573 9.75931 11.5118 9.74325 11.5676 9.74325C11.6234 9.74325 11.6778 9.75931 11.7238 9.78932L14.6015 11.5473C14.7107 11.6096 14.8032 11.6951 14.8716 11.7971C14.94 11.8991 14.9825 12.0148 14.9956 12.135C15.0088 12.2553 14.9923 12.3767 14.9474 12.4899C14.9025 12.603 14.8305 12.7047 14.7371 12.7869L13.3887 14.0499C13.1956 14.2308 12.9583 14.3636 12.6979 14.4364C12.4375 14.5092 12.1622 14.5197 11.8964 14.467C9.24577 13.9479 6.8026 12.7322 4.84613 10.9587C2.93309 9.16767 1.60927 6.8887 1.03527 4.39829C0.978562 4.15023 0.990397 3.89249 1.06962 3.65004C1.14885 3.4076 1.29278 3.18867 1.48747 3.01447L2.8852 1.73591C2.97169 1.65163 3.07718 1.58699 3.19375 1.54684C3.31032 1.50669 3.43496 1.49207 3.55833 1.50407C3.68171 1.51607 3.80062 1.55438 3.90617 1.61613C4.01172 1.67788 4.10117 1.76147 4.16782 1.86064L6.08353 4.55421C6.11657 4.59651 6.13441 4.64775 6.13441 4.70039C6.13441 4.75303 6.11657 4.80427 6.08353 4.84657L4.82147 6.28495C5.25952 7.34949 5.942 8.30822 6.81939 9.09156Z" fill="black"/>
</svg>
