<svg width="32" height="32" viewBox="0 0 32 32" fill="none" xmlns="http://www.w3.org/2000/svg">
<path fill-rule="evenodd" clip-rule="evenodd" d="M32 16C32 24.8366 24.8366 32 16 32C7.16344 32 0 24.8366 0 16C0 7.16344 7.16344 0 16 0C24.8366 0 32 7.16344 32 16ZM8 8H13.7143V13.7143H8V8ZM9.14286 9.14286V12.5714H12.5714V9.14286H9.14286ZM24 8H18.2857V13.7143H24V8ZM19.4286 12.7619V8.95238H22.8571V12.7619H19.4286ZM20.5714 10.2857H21.7143V11.4286H20.5714V10.2857ZM8 18.2857H13.7143V24H8V18.2857ZM9.14286 19.4286V22.8571H12.5714V19.4286H9.14286ZM11.4286 20.5714H10.2857V21.7143H11.4286V20.5714ZM11.4286 10.2857H10.2857V11.4286H11.4286V10.2857ZM16 8H14.8571V9.14286H16V10.2857H14.8571V13.7143H16V16H14.8571V14.8571H8V16H9.14286V17.1429H10.2857V16H11.4286V17.1429H16V16H17.1429V17.1429V18.2857H14.8571V20.5714H17.1429V21.7143H14.8571V22.8571H16V24H18.2857V22.8571H19.4286V21.7143H20.5714V22.8571V24H22.8571H24V20.5714H22.8571V22.8571H21.7143V21.7143V20.5714L20.5714 20.5714L20.5714 19.4286H24V18.2857L21.7143 18.2857V17.1429H20.5714V16H22.8571V17.1429H24V16V14.8571H19.4286V16H17.1429V12.5714H16V11.4286H17.1429V9.14286H16V8ZM20.5714 19.4286V18.2857L18.2857 18.2857L18.2857 19.4286H17.1429V20.5714L19.4286 20.5714V19.4286H20.5714Z" fill="black"/>
</svg>
