<svg width="32" height="32" viewBox="0 0 32 32" fill="none" xmlns="http://www.w3.org/2000/svg">
<path fill-rule="evenodd" clip-rule="evenodd" d="M4 10C1.79086 10 0 11.7909 0 14V18.8C0 21.0091 1.79086 22.8 4 22.8H28C30.2091 22.8 32 21.0091 32 18.8V14C32 11.7909 30.2091 10 28 10H4ZM11.1137 15.1648C10.8513 15.3248 10.6657 15.5168 10.5569 15.7408H10.5377V12.3424H9.63527V19.6H10.5377V17.1904C10.5377 16.736 10.6529 16.3728 10.8833 16.1008C11.1137 15.8288 11.4081 15.6928 11.7665 15.6928C11.9777 15.6928 12.1489 15.7312 12.2801 15.808C12.4113 15.8848 12.5153 15.9872 12.5921 16.1152C12.6689 16.2432 12.7217 16.3904 12.7505 16.5568C12.7793 16.7232 12.7937 16.8992 12.7937 17.0848V19.6H13.6961V16.7776C13.6961 16.5216 13.6625 16.2816 13.5953 16.0576C13.5281 15.8336 13.4241 15.6384 13.2833 15.472C13.1425 15.3056 12.9665 15.1728 12.7553 15.0736C12.5441 14.9744 12.2913 14.9248 11.9969 14.9248C11.6705 14.9248 11.3761 15.0048 11.1137 15.1648ZM7.03365 13.6048C7.26405 13.7232 7.44645 13.8752 7.58085 14.0608L8.25285 13.408C8.04165 13.1712 7.76325 12.9824 7.41765 12.8416C7.07205 12.7008 6.70085 12.6304 6.30405 12.6304C6.02245 12.6304 5.74245 12.6672 5.46405 12.7408C5.18565 12.8144 4.93605 12.9312 4.71525 13.0912C4.49445 13.2512 4.31525 13.4528 4.17765 13.696C4.04005 13.9392 3.97125 14.2304 3.97125 14.5696C3.97125 14.8832 4.02245 15.1456 4.12485 15.3568C4.22725 15.568 4.36165 15.7456 4.52805 15.8896C4.69445 16.0336 4.88325 16.152 5.09445 16.2448C5.30565 16.3376 5.52005 16.416 5.73765 16.48L5.95152 16.5498L6.35685 16.6864C6.55205 16.7536 6.72325 16.8352 6.87045 16.9312C7.01765 17.0272 7.13445 17.144 7.22085 17.2816C7.30725 17.4192 7.35045 17.5904 7.35045 17.7952C7.35045 18 7.30885 18.1744 7.22565 18.3184C7.14245 18.4624 7.03525 18.5824 6.90405 18.6784C6.77285 18.7744 6.62725 18.8448 6.46725 18.8896C6.30725 18.9344 6.14725 18.9568 5.98725 18.9568C5.67365 18.9568 5.38245 18.8832 5.11365 18.736C4.84485 18.5888 4.63045 18.3968 4.47045 18.16L3.73125 18.784C3.99365 19.1104 4.32485 19.3568 4.72485 19.5232C5.12485 19.6896 5.53925 19.7728 5.96805 19.7728C6.26885 19.7728 6.56165 19.7312 6.84645 19.648C7.13125 19.5648 7.38245 19.4384 7.60005 19.2688C7.81765 19.0992 7.99205 18.8848 8.12325 18.6256C8.25445 18.3664 8.32005 18.0608 8.32005 17.7088C8.32005 17.3696 8.25925 17.0896 8.13765 16.8688C8.01605 16.648 7.85925 16.464 7.66725 16.3168C7.47525 16.1696 7.26085 16.0512 7.02405 15.9616C6.78725 15.872 6.55365 15.792 6.32325 15.7216L5.78085 15.5344C5.61125 15.4736 5.46405 15.4 5.33925 15.3136C5.21445 15.2272 5.11525 15.1216 5.04165 14.9968C4.96805 14.872 4.93125 14.7168 4.93125 14.5312C4.93125 14.3392 4.97125 14.1744 5.05125 14.0368C5.13125 13.8992 5.23525 13.784 5.36325 13.6912C5.49125 13.5984 5.63365 13.5312 5.79045 13.4896C5.94725 13.448 6.10245 13.4272 6.25605 13.4272C6.54405 13.4272 6.80325 13.4864 7.03365 13.6048ZM18.0544 16.6528C18.0544 16.3136 17.952 16.0624 17.7472 15.8992C17.5424 15.736 17.2704 15.6544 16.9312 15.6544C16.6752 15.6544 16.4336 15.704 16.2064 15.8032C15.9792 15.9024 15.7888 16.0288 15.6352 16.1824L15.1552 15.6064C15.3792 15.3952 15.6528 15.2288 15.976 15.1072C16.2992 14.9856 16.6464 14.9248 17.0176 14.9248C17.344 14.9248 17.6272 14.9712 17.8672 15.064C18.1072 15.1568 18.304 15.2832 18.4576 15.4432C18.6112 15.6032 18.7264 15.792 18.8032 16.0096C18.88 16.2272 18.9184 16.4608 18.9184 16.7104V18.6976C18.9184 18.8 18.9205 18.9059 18.9248 19.0154L18.9328 19.1824C18.9424 19.352 18.96 19.4912 18.9856 19.6H18.1696C18.1184 19.3824 18.0928 19.1648 18.0928 18.9472H18.064C17.8976 19.1904 17.688 19.3792 17.4352 19.5136C17.1824 19.648 16.8832 19.7152 16.5376 19.7152C16.3584 19.7152 16.1712 19.6912 15.976 19.6432C15.7808 19.5952 15.6032 19.5168 15.4432 19.408C15.2832 19.2992 15.1504 19.1552 15.0448 18.976C14.9392 18.7968 14.8864 18.576 14.8864 18.3136C14.8864 17.968 14.9792 17.6944 15.1648 17.4928C15.3504 17.2912 15.5936 17.1376 15.8944 17.032C16.1952 16.9264 16.5344 16.8576 16.912 16.8256C17.2896 16.7936 17.6704 16.7776 18.0544 16.7776V16.6528ZM17.1377 17.4592C17.3777 17.44 17.6097 17.4304 17.8337 17.4304H18.0545V17.6704C18.0545 18.0544 17.9409 18.3728 17.7137 18.6256C17.4865 18.8784 17.1617 19.0048 16.7393 19.0048C16.6241 19.0048 16.5121 18.9936 16.4033 18.9712C16.2945 18.9488 16.1953 18.9088 16.1057 18.8512C16.0161 18.7936 15.9441 18.72 15.8897 18.6304C15.8353 18.5408 15.8081 18.4288 15.8081 18.2944C15.8081 18.1024 15.8721 17.9488 16.0001 17.8336C16.1281 17.7184 16.2897 17.632 16.4849 17.5744C16.6801 17.5168 16.8977 17.4784 17.1377 17.4592ZM20.4256 19.6V16.0288L20.4202 15.6958L20.416 15.5584C20.4096 15.3664 20.4 15.1968 20.3872 15.0496H21.2416C21.2501 15.1264 21.2572 15.211 21.2629 15.3034L21.2776 15.6532C21.2792 15.7148 21.28 15.7696 21.28 15.8176H21.3088C21.4368 15.5488 21.624 15.3328 21.8704 15.1696C22.1168 15.0064 22.3936 14.9248 22.7008 14.9248C22.8416 14.9248 22.96 14.9376 23.056 14.9632L23.0176 15.7984C22.8896 15.7664 22.752 15.7504 22.6048 15.7504C22.3872 15.7504 22.1984 15.7904 22.0384 15.8704C21.8784 15.9504 21.7456 16.0576 21.64 16.192C21.5344 16.3264 21.456 16.4816 21.4048 16.6576C21.3536 16.8336 21.328 17.0176 21.328 17.2096V19.6H20.4256ZM27.1408 16.4176C27.1952 16.5744 27.2256 16.7424 27.232 16.9216H24.5248C24.5376 16.7424 24.584 16.5744 24.664 16.4176C24.744 16.2608 24.8464 16.1248 24.9712 16.0096C25.096 15.8944 25.2432 15.8032 25.4128 15.736C25.5824 15.6688 25.7632 15.6352 25.9552 15.6352C26.1664 15.6352 26.3504 15.6688 26.5072 15.736C26.664 15.8032 26.7952 15.8944 26.9008 16.0096C27.0064 16.1248 27.0864 16.2608 27.1408 16.4176ZM28.1441 17.2864V17.44C28.1441 17.4912 28.1409 17.5424 28.1345 17.5936H24.5249C24.5313 17.7856 24.5745 17.9664 24.6545 18.136C24.7345 18.3056 24.8417 18.4528 24.9761 18.5776C25.1105 18.7024 25.2657 18.8 25.4417 18.8704C25.6177 18.9408 25.8049 18.976 26.0033 18.976C26.3105 18.976 26.5761 18.9088 26.8001 18.7744C27.0241 18.64 27.2001 18.4768 27.3281 18.2848L27.9617 18.7936C27.7185 19.1136 27.4321 19.3488 27.1025 19.4992C26.7729 19.6496 26.4065 19.7248 26.0033 19.7248C25.6577 19.7248 25.3377 19.6672 25.0433 19.552C24.7489 19.4368 24.4961 19.2752 24.2849 19.0672C24.0737 18.8592 23.9073 18.608 23.7857 18.3136C23.6641 18.0192 23.6033 17.6928 23.6033 17.3344C23.6033 16.9824 23.6625 16.6576 23.7809 16.36C23.8993 16.0624 24.0641 15.808 24.2753 15.5968C24.4865 15.3856 24.7361 15.2208 25.0241 15.1024C25.3121 14.984 25.6225 14.9248 25.9553 14.9248C26.2881 14.9248 26.5905 14.9792 26.8625 15.088C27.1345 15.1968 27.3649 15.3536 27.5537 15.5584C27.7425 15.7632 27.8881 16.0112 27.9905 16.3024C28.0929 16.5936 28.1441 16.9216 28.1441 17.2864Z" fill="black"/>
</svg>
