<svg xmlns="http://www.w3.org/2000/svg" xmlns:xlink="http://www.w3.org/1999/xlink" width="16px" height="16px" viewBox="0 0 16 16" version="1.1">
    <g stroke="none" stroke-width="1" fill="none" fill-rule="evenodd">
        <g transform="translate(-168.000000, -258.000000)" fill="#000000" fill-rule="nonzero">
            <g transform="translate(168.000000, 258.000000)">
                <path d="M5,11 L5,16 L4,16 L4,11.999 L-4.54747351e-13,12 L-4.54747351e-13,11 L5,11 Z M16,11 L16,12 L12,11.999 L12,16 L11,16 L11,11 L16,11 Z M5,-2.851408e-11 L5,5 L-4.54747351e-13,5 L-4.54747351e-13,4 L4,4.001 L4,-2.851408e-11 L5,-2.851408e-11 Z M12,-2.99795744e-11 L12,4.001 L16,4 L16,5 L11,5 L11,-2.99795744e-11 L12,-2.99795744e-11 Z"/>
            </g>
        </g>
    </g>
</svg>