<svg xmlns="http://www.w3.org/2000/svg" xmlns:xlink="http://www.w3.org/1999/xlink" width="16px" height="16px" viewBox="0 0 16 16" version="1.1">
    <g stroke="none" stroke-width="1" fill="none" fill-rule="evenodd">
        <g transform="translate(-167.000000, -73.000000)" fill="#000000" fill-rule="nonzero">
            <g transform="translate(167.000000, 73.000000)">
                <path d="M7,1 C3.6862915,1 1,3.6862915 1,7 C1,10.3137085 3.6862915,13 7,13 C10.3137085,13 13,10.3137085 13,7 C13,3.6862915 10.3137085,1 7,1 Z M7,14 C3.13400675,14 -5.32907052e-15,10.8659932 -5.32907052e-15,7 C-5.32907052e-15,3.13400675 3.13400675,0 7,0 C10.8659932,0 14,3.13400675 14,7 C14,8.56345315 13.4874367,10.0071907 12.6211824,11.1723405 L12.3990367,11.4556819 L15.8044638,14.8603313 C16.0651787,15.1210462 16.0651787,15.5437488 15.8044638,15.8044638 C15.5437488,16.0651787 15.1210462,16.0651787 14.8603313,15.8044638 L11.4556819,12.3990367 C10.2426373,13.4001315 8.69137205,14 7,14 Z"/>
            </g>
        </g>
    </g>
</svg>