<svg width="16" height="16" viewBox="0 0 16 16" fill="none" xmlns="http://www.w3.org/2000/svg">
<path fill-rule="evenodd" clip-rule="evenodd" d="M0 10.5V12C0 12.5523 0.447716 13 1 13H2.5V12H1L1 10.5H0ZM2.5 1H1C0.447715 1 0 1.44772 0 2V3.5H1V2L2.5 2V1ZM0 8.5H1V5.5H0V8.5ZM4.5 1V2H7.5V1H4.5ZM9.5 1V2H11V3.5H12V2C12 1.44772 11.5523 1 11 1H9.5ZM6.31802 13.682C7.95595 15.3199 10.5424 15.4312 12.3092 14.0159L14.1569 15.864L14.864 15.1569L13.0166 13.3085C14.4312 11.5416 14.3197 8.9557 12.682 7.31802C10.9246 5.56066 8.07538 5.56066 6.31802 7.31802C4.56066 9.07538 4.56066 11.9246 6.31802 13.682ZM7.02513 12.9749C5.65829 11.608 5.65829 9.39196 7.02513 8.02513C8.39196 6.65829 10.608 6.65829 11.9749 8.02513C13.3417 9.39196 13.3417 11.608 11.9749 12.9749C10.608 14.3417 8.39196 14.3417 7.02513 12.9749ZM9 13V11H7V10H9V8H10V10H12V11H10V13H9Z" fill="black"/>
</svg>
