<svg xmlns="http://www.w3.org/2000/svg" xmlns:xlink="http://www.w3.org/1999/xlink" width="16px" height="16px" viewBox="0 0 16 16" version="1.1">
    <g stroke="none" stroke-width="1" fill="none" fill-rule="evenodd">
        <g transform="translate(-206.000000, -938.000000)" fill="#363636" fill-rule="nonzero">
            <g transform="translate(146.000000, 926.000000)">
                <path d="M70.6793046,12.1231126 C71.116361,12.2030606 71.4058663,12.6221674 71.3259305,13.0592261 C71.2965419,13.2199119 71.2189341,13.3678443 71.1034273,13.483351 L67.8665812,16.7201972 C67.5524028,17.0343756 67.5524028,17.5437594 67.8665812,17.8579377 L70.1420623,20.1334188 C70.4562406,20.4475972 70.9656244,20.4475972 71.2798028,20.1334188 L74.5166337,16.8965796 C74.8308144,16.582399 75.3402019,16.582399 75.6543826,16.8965796 C75.7698925,17.0120896 75.8475022,17.160026 75.8768912,17.3207163 C76.2793337,19.5211517 75.6950881,21.4068364 74.1241542,22.9777702 C72.2142419,24.8876825 69.4026004,25.3462835 67.0596484,24.3535733 L63.8844892,27.5287324 C63.2561325,28.1570892 62.2373649,28.1570892 61.6090081,27.5287324 L60.4712676,26.3909919 C59.8429108,25.7626351 59.8429108,24.7438675 60.4712676,24.1155108 L63.6464267,20.9403516 C62.6537165,18.5973996 63.1123175,15.7857581 65.0222298,13.8758458 C66.5931686,12.304907 68.4788602,11.7206626 70.6793046,12.1231126 Z M69.9715597,13.0311363 C68.3274116,12.8628047 66.9400593,13.3722298 65.7293366,14.5829526 C64.2075623,16.1047268 63.744064,18.3530474 64.4772685,20.3240849 L64.5671878,20.5502246 L64.8301456,21.1708463 L61.1783743,24.8226176 C60.9669677,25.0340242 60.9434781,25.3621875 61.1079055,25.59954 L61.1783743,25.6838851 L62.3161149,26.8216257 C62.5275215,27.0330323 62.8556848,27.0565219 63.0930374,26.8920945 L63.1773824,26.8216257 L66.8291537,23.1698544 L67.4497754,23.4328122 C69.4729301,24.2900242 71.8367434,23.8509675 73.4170474,22.2706634 C74.6277664,21.0599445 75.137192,19.6725973 74.9688653,18.0284563 L74.949,17.877 L71.9869096,20.8405256 C71.3213571,21.5060781 70.2652566,21.5430533 69.5563099,20.951451 L69.4349555,20.8405256 L67.1594744,18.5650445 C66.4939219,17.899492 66.4569467,16.8433916 67.048549,16.1344448 L67.1594744,16.0130904 L70.122,13.05 L69.9715597,13.0311363 Z"/>
            </g>
        </g>
    </g>
</svg>