<svg width="20" height="20" viewBox="0 0 20 20" fill="none" xmlns="http://www.w3.org/2000/svg">
<g clip-path="url(#clip0)">
<path d="M5.951 14.904L5.731 13.926C6.26416 13.8337 6.77301 13.6341 7.22666 13.3392C7.6803 13.0442 8.06927 12.6602 8.36994 12.2103C8.67062 11.7605 8.87673 11.2542 8.97576 10.7223C9.07479 10.1903 9.06468 9.6438 8.94603 9.11588C8.82738 8.58797 8.60267 8.08967 8.28555 7.65125C7.96843 7.21284 7.56552 6.84344 7.10127 6.56551C6.63703 6.28757 6.12113 6.10689 5.58492 6.03443C5.04871 5.96197 4.50337 5.99925 3.982 6.144L3.764 5.174C4.16706 5.06432 4.58233 5.00586 5 5C6.24379 4.99828 7.44351 5.46048 8.36466 6.29625C9.2858 7.13202 9.86214 8.28128 9.98103 9.51937C10.0999 10.7575 9.75279 11.9954 9.00752 12.9912C8.26224 13.987 7.17239 14.669 5.951 14.904V14.904ZM2.472 13.104C1.77767 12.5371 1.29352 11.7537 1.097 10.8792C0.900478 10.0046 1.00294 9.08944 1.388 8.28L1.078 6.897C0.616408 7.47984 0.290977 8.15852 0.125524 8.88337C-0.0399298 9.60821 -0.0412188 10.3609 0.121751 11.0863C0.284721 11.8117 0.607826 12.4915 1.06742 13.0759C1.52701 13.6603 2.11146 14.1346 2.778 14.464L2.472 13.104ZM3.125 7.658C3.172 7.62 3.225 7.592 3.275 7.557L2.434 3.815C2.13754 3.93641 1.82036 3.99924 1.5 4C1.483 4 1.467 3.995 1.45 3.995L2.45 8.45C2.62684 8.14848 2.85492 7.88012 3.124 7.657L3.125 7.658ZM3.97 1.792C3.93129 2.12678 3.82443 2.45009 3.656 2.742L17.566 6.751L5.55 17.676L4.487 12.95C4.2776 12.9159 4.07244 12.8596 3.875 12.782C3.69574 12.7069 3.52426 12.6145 3.363 12.506L4.95 19.57L19.564 6.286L3.97 1.792ZM3 1.5C3 1.79667 2.91203 2.08668 2.74721 2.33336C2.58238 2.58003 2.34812 2.77229 2.07403 2.88582C1.79994 2.99935 1.49834 3.02906 1.20737 2.97118C0.916394 2.9133 0.649119 2.77044 0.439341 2.56066C0.229562 2.35088 0.0867006 2.08361 0.0288228 1.79264C-0.0290551 1.50166 0.000649929 1.20006 0.114181 0.925975C0.227713 0.651886 0.419972 0.417618 0.666645 0.252796C0.913319 0.0879735 1.20333 0 1.5 0C1.89783 0 2.27936 0.158035 2.56066 0.43934C2.84197 0.720644 3 1.10218 3 1.5ZM2 1.5C2 1.40111 1.97068 1.30444 1.91574 1.22221C1.86079 1.13999 1.78271 1.0759 1.69134 1.03806C1.59998 1.00022 1.49945 0.990315 1.40246 1.00961C1.30547 1.0289 1.21637 1.07652 1.14645 1.14645C1.07652 1.21637 1.0289 1.30546 1.00961 1.40245C0.990315 1.49945 1.00022 1.59998 1.03806 1.69134C1.0759 1.7827 1.13999 1.86079 1.22222 1.91573C1.30444 1.97068 1.40111 2 1.5 2C1.63261 2 1.75979 1.94732 1.85355 1.85355C1.94732 1.75979 2 1.63261 2 1.5ZM6.354 9.354L5.647 8.647L5 9.293L4.354 8.647L3.647 9.354L4.293 10L3.647 10.646L4.354 11.353L5 10.707L5.646 11.353L6.353 10.646L5.707 10L6.354 9.354Z" fill="black"/>
</g>
<defs>
<clipPath id="clip0">
<rect width="20" height="20" fill="white"/>
</clipPath>
</defs>
</svg>
