<svg width="20" height="20" viewBox="0 0 20 20" fill="none" xmlns="http://www.w3.org/2000/svg">
<path fill-rule="evenodd" clip-rule="evenodd" d="M20 2C20 0.89543 19.1046 0 18 0H2C0.89543 0 0 0.89543 0 2V18C0 19.1046 0.89543 20 2 20H18C19.1046 20 20 19.1046 20 18V2ZM2 1H18C18.5523 1 19 1.44772 19 2V18C19 18.5523 18.5523 19 18 19H2C1.44772 19 1 18.5523 1 18V2C1 1.44772 1.44772 1 2 1Z" fill="black"/>
<path d="M7 16C7.55228 16 8 15.5523 8 15C8 14.4477 7.55228 14 7 14C6.44772 14 6 14.4477 6 15C6 15.5523 6.44772 16 7 16Z" fill="black"/>
<path d="M10 16C10.5523 16 11 15.5523 11 15C11 14.4477 10.5523 14 10 14C9.44772 14 9 14.4477 9 15C9 15.5523 9.44772 16 10 16Z" fill="black"/>
<path d="M14 15C14 15.5523 13.5523 16 13 16C12.4477 16 12 15.5523 12 15C12 14.4477 12.4477 14 13 14C13.5523 14 14 14.4477 14 15Z" fill="black"/>
<path d="M6.07406 10.0231L3.95024 8L6.07406 5.97686C6.30865 5.75339 6.30865 5.39107 6.07406 5.1676C5.83947 4.94413 5.45912 4.94413 5.22453 5.1676L2.67594 7.59537C2.44135 7.81884 2.44135 8.18116 2.67594 8.40463L5.22453 10.8324C5.45912 11.0559 5.83947 11.0559 6.07406 10.8324C6.30865 10.6089 6.30865 10.2466 6.07406 10.0231Z" fill="black"/>
<path d="M13.9259 5.97686L16.0498 8L13.9259 10.0231C13.6914 10.2466 13.6914 10.6089 13.9259 10.8324C14.1605 11.0559 14.5409 11.0559 14.7755 10.8324L17.3241 8.40463C17.5586 8.18116 17.5586 7.81884 17.3241 7.59537L14.7755 5.1676C14.5409 4.94413 14.1605 4.94413 13.9259 5.1676C13.6914 5.39107 13.6914 5.75339 13.9259 5.97686Z" fill="black"/>
</svg>
