<svg width="20" height="20" viewBox="0 0 20 20" fill="none" xmlns="http://www.w3.org/2000/svg">
<path fill-rule="evenodd" clip-rule="evenodd" d="M20 2C20 0.89543 19.1046 0 18 0H2C0.89543 0 0 0.89543 0 2V18C0 19.1046 0.89543 20 2 20H18C19.1046 20 20 19.1046 20 18V2ZM2 1H18C18.5523 1 19 1.44772 19 2V14H1V2C1 1.44772 1.44772 1 2 1ZM1 15H19V18C19 18.5523 18.5523 19 18 19H2C1.44772 19 1 18.5523 1 18V15ZM11.7143 4L9.04582 7.73585L7.42857 5.71429L4 10H16L11.7143 4ZM2 17C2 16.4477 2.44772 16 3 16H9C9.55229 16 10 16.4477 10 17C10 17.5523 9.55229 18 9 18H3C2.44772 18 2 17.5523 2 17ZM17 16C16.4477 16 16 16.4477 16 17C16 17.5523 16.4477 18 17 18C17.5523 18 18 17.5523 18 17C18 16.4477 17.5523 16 17 16Z" fill="black"/>
</svg>
