<svg width="20" height="20" viewBox="0 0 20 20" fill="none" xmlns="http://www.w3.org/2000/svg">
<path fill-rule="evenodd" clip-rule="evenodd" d="M17 2C17 0.89543 16.1046 0 15 0H5C3.89543 0 3 0.89543 3 2V18C3 19.1046 3.89543 20 5 20H15C16.1046 20 17 19.1046 17 18V2ZM5 1H15C15.5523 1 16 1.44772 16 2V18C16 18.5523 15.5523 19 15 19H5C4.44772 19 4 18.5523 4 18V2C4 1.44772 4.44772 1 5 1ZM7 3H13V9H7V3ZM7 11H8V13H7V11ZM9 11H10V12H9V11ZM13 13H12V14H13V13ZM7 14H8V15H7V14ZM11 16H10V17H11V16ZM12 15H13V17H12V15ZM9 17V16H7V17H9ZM11 11H13V12H11V11Z" fill="black"/>
</svg>
