<svg width="20" height="20" viewBox="0 0 20 20" fill="none" xmlns="http://www.w3.org/2000/svg">
<path fill-rule="evenodd" clip-rule="evenodd" d="M14 2C14 0.89543 13.1046 0 12 0H2C0.89543 0 0 0.89543 0 2V12C0 13.1046 0.89543 14 2 14H12C13.1046 14 14 13.1046 14 12V2ZM2 1H12C12.5523 1 13 1.44772 13 2V12C13 12.5523 12.5523 13 12 13H2C1.44772 13 1 12.5523 1 12V2C1 1.44772 1.44772 1 2 1Z" fill="black"/>
<path fill-rule="evenodd" clip-rule="evenodd" d="M20 8C20 6.89543 19.1046 6 18 6H8C6.89543 6 6 6.89543 6 8V18C6 19.1046 6.89543 20 8 20H18C19.1046 20 20 19.1046 20 18V8ZM8 7H18C18.5523 7 19 7.44772 19 8V18C19 18.5523 18.5523 19 18 19H8C7.44772 19 7 18.5523 7 18V8C7 7.44772 7.44772 7 8 7Z" fill="black"/>
</svg>
