<svg width="20" height="20" viewBox="0 0 20 20" fill="none" xmlns="http://www.w3.org/2000/svg">
<path fill-rule="evenodd" clip-rule="evenodd" d="M10 15H6V5H10C12.7614 5 15 7.23858 15 10C15 12.7614 12.7614 15 10 15ZM7 14H10C12.0711 14 14 12.0711 14 10C14 7.92893 12.0711 6 10 6H7V14Z" fill="black"/>
<path fill-rule="evenodd" clip-rule="evenodd" d="M18 0C19.1046 0 20 0.89543 20 2V18C20 19.1046 19.1046 20 18 20H2C0.89543 20 0 19.1046 0 18V2C0 0.89543 0.89543 0 2 0H18ZM18 1H2C1.44772 1 1 1.44772 1 2V18C1 18.5523 1.44772 19 2 19H18C18.5523 19 19 18.5523 19 18V2C19 1.44772 18.5523 1 18 1Z" fill="black"/>
</svg>
