<?xml version="1.0" encoding="UTF-8"?>
<svg width="16px" height="16px" viewBox="0 0 16 16" version="1.1" xmlns="http://www.w3.org/2000/svg" xmlns:xlink="http://www.w3.org/1999/xlink">
    <g>
        <g transform="translate(-353.000000, -808.000000)" fill-rule="nonzero">
            <path d="M368,810 L354,810 L354,822 C354,822.552285 354.447715,823 355,823 L367,823 C367.552285,823 368,822.552285 368,822 L368,810 Z M355,808 L367,808 C368.104569,808 369,808.895431 369,810 L369,822 C369,823.104569 368.104569,824 367,824 L355,824 C353.895431,824 353,823.104569 353,822 L353,810 C353,808.895431 353.895431,808 355,808 Z M354,814 L368,814 L368,815 L354,815 L354,814 Z M354,819 L368,819 L368,820 L354,820 L354,819 Z"></path>
        </g>
    </g>
</svg>