<svg width="16" height="16" viewBox="0 0 16 16" fill="none" xmlns="http://www.w3.org/2000/svg">
<path fill-rule="evenodd" clip-rule="evenodd" d="M6.6711 1C7.11982 1 7.48965 1.33775 7.54019 1.77288L7.54608 1.87491L7.54673 3.65419C12.4238 4.0662 14.901 6.82556 14.9783 11.9322L14.9996 12.3739L15 13.0149C14.998 13.2308 14.9924 13.4807 14.9783 13.7601L14.9443 14.2631C14.8551 14.7881 14.5107 15.0203 14.1247 14.9986C13.8188 14.9814 13.5918 14.6968 13.5172 14.3998L13.4138 14.0008L13.3055 13.6126C13.1832 13.1937 13.0749 12.8935 12.9809 12.7119C11.6832 10.2078 9.63808 9.02662 7.54596 8.8881L7.54608 10.2675C7.54608 10.4794 7.46915 10.6841 7.32959 10.8436C7.03585 11.1793 6.54225 11.2365 6.18201 10.9931L6.09492 10.9259L1.29881 6.72964C1.26958 6.70406 1.24208 6.67657 1.2165 6.64733C0.922766 6.31166 0.931572 5.81487 1.2207 5.49016L1.29881 5.41276L6.09492 1.21647C6.25442 1.07692 6.45916 1 6.6711 1Z" fill="black"/>
</svg>
