<svg width="16" height="16" viewBox="0 0 16 16" fill="none" xmlns="http://www.w3.org/2000/svg">
<path fill-rule="evenodd" clip-rule="evenodd" d="M6.88608 6.88608H0V0H6.88608V6.88608ZM3.93419 6.0759H6.07596V5.77514C5.48422 5.61396 4.93039 5.33687 4.44659 4.95995C4.1882 5.28511 4.01239 5.668 3.93419 6.0759ZM6.07597 4.93378C5.71156 4.80977 5.36807 4.6312 5.05723 4.40416C5.37113 4.19819 5.71468 4.04144 6.07597 3.93935V4.93378ZM6.07596 3.10486V0.810176H2.9266C3.02711 1.23322 3.16086 1.64767 3.3266 2.04967L3.33065 2.05068L3.32862 2.05473C3.59355 2.71117 3.97046 3.31662 4.44255 3.8441C4.92876 3.4852 5.48543 3.23326 6.07596 3.10486ZM0.810176 0.810176H2.0922C2.18168 1.24025 2.3032 1.66304 2.45575 2.07499C2.13436 2.6943 1.50719 3.0953 0.810176 3.12714V0.810176ZM2.84157 2.96109C2.32668 3.55121 1.59258 3.90472 0.810176 3.93931V6.07602H3.10891C3.19702 5.46361 3.45011 4.88672 3.84106 4.40716C3.4432 3.97322 3.10689 3.48664 2.84157 2.96109ZM9.11392 0V6.88608H16V0H9.11392ZM14.0385 0.810176H9.9241V4.15195H10.7849C10.7173 3.95326 10.7267 3.73645 10.8112 3.54435C10.9542 3.2807 11.2406 3.12772 11.5393 3.15549C12.0385 3.14942 12.153 2.41119 12.154 2.4041C12.1184 2.14682 12.193 1.88648 12.3595 1.68714C12.673 1.36797 13.1021 1.18902 13.5494 1.19094C13.7155 1.19534 13.8761 1.13083 13.993 1.01271C14.0268 0.950778 14.0426 0.880618 14.0385 0.810176ZM15.1899 6.076H9.9241V4.96207H12.2492L11.7692 4.31499C11.6898 4.20691 11.6244 4.08917 11.5747 3.96461C12.6289 3.93423 12.9621 2.76157 12.957 2.35752C12.9436 2.30388 12.9539 2.24706 12.9854 2.20157C13.0168 2.1641 13.1535 2.03752 13.6173 1.99904C14.0411 1.99916 14.4381 1.79141 14.6795 1.44309C14.7939 1.25234 14.8502 1.03241 14.8416 0.810176H15.1899V6.076ZM6.88608 16H0V9.11392H6.88608V16ZM0.810176 9.9241H6.076V10.3899L4.05068 12.3879V13.2659L0.810176 13.1757V9.9241ZM4.86081 14.0982L0.810176 13.9848V15.1899H6.076V11.5291L4.86081 12.7261V14.0982ZM9.11392 16H16V9.11392H9.11392V16ZM13.3752 15.1898H15.1899V13.7367L13.5757 12.1114L12.0891 13.5979L13.3752 15.1898ZM15.1899 9.9241V12.5854L12.5469 9.9241H15.1899ZM11.4026 9.9241H9.9241V15.1899H12.3332L11.0006 13.5413L13.0036 11.5363L11.4026 9.9241Z" fill="black"/>
</svg>
