<svg width="16" height="16" viewBox="0 0 16 16" fill="none" xmlns="http://www.w3.org/2000/svg">
<path fill-rule="evenodd" clip-rule="evenodd" d="M2.91465 1C2.70873 0.417404 2.15311 0 1.5 0C0.671573 0 0 0.671573 0 1.5C0 2.15311 0.417404 2.70873 1 2.91465V13.0854C0.417404 13.2913 0 13.8469 0 14.5C0 15.3284 0.671573 16 1.5 16C2.15311 16 2.70873 15.5826 2.91465 15H13.0854C13.2913 15.5826 13.8469 16 14.5 16C15.3284 16 16 15.3284 16 14.5C16 13.6716 15.3284 13 14.5 13C14.4531 13 14.4066 13.0022 14.3608 13.0064L12.0893 9.03125C12.3439 8.76243 12.5 8.39945 12.5 8C12.5 7.60055 12.3439 7.23756 12.0893 6.96875L14.3608 2.99363C14.4066 2.99784 14.4531 3 14.5 3C15.3284 3 16 2.32843 16 1.5C16 0.671573 15.3284 0 14.5 0C13.8469 0 13.2913 0.417404 13.0854 1H2.91465ZM2.91465 14H13.0854C13.135 13.8596 13.2049 13.7288 13.2916 13.6111L11.0877 9.49748C11.0587 9.49915 11.0294 9.5 11 9.5C10.1716 9.5 9.5 8.82843 9.5 8C9.5 7.17157 10.1716 6.5 11 6.5C11.0294 6.5 11.0587 6.50085 11.0877 6.50252L13.2916 2.38891C13.2049 2.27122 13.135 2.14041 13.0854 2H2.91465C2.764 2.42621 2.42621 2.764 2 2.91465V13.0854C2.42621 13.236 2.764 13.5738 2.91465 14Z" fill="black"/>
</svg>
