<svg width="16" height="16" viewBox="0 0 16 16" fill="none" xmlns="http://www.w3.org/2000/svg">
<path fill-rule="evenodd" clip-rule="evenodd" d="M16 1.5C16 2.32843 15.3284 3 14.5 3C14.2684 3 14.0491 2.94752 13.8533 2.85381L2.85381 13.8533C2.94752 14.0491 3 14.2684 3 14.5C3 15.3284 2.32843 16 1.5 16C0.671573 16 0 15.3284 0 14.5C0 13.6716 0.671573 13 1.5 13C1.73157 13 1.95089 13.0525 2.14671 13.1462L13.1462 2.14671C13.0525 1.95089 13 1.73157 13 1.5C13 0.671573 13.6716 0 14.5 0C15.3284 0 16 0.671573 16 1.5Z" fill="black"/>
</svg>
