<svg width="16" height="16" viewBox="0 0 16 16" fill="none" xmlns="http://www.w3.org/2000/svg">
<path d="M16 14.2898C16 14.2898 12.8 12.6898 8 14.2898C3.2 15.8898 0 14.2898 0 14.2898L2.133 1.48683C4.04222 2.08958 6.09078 2.08958 8 1.48683C9.9094 0.885249 11.9576 0.885249 13.867 1.48683L16 14.2898ZM7.684 13.3398C9.14122 12.8442 10.6688 12.5869 12.208 12.5778C13.0611 12.5756 13.912 12.6651 14.746 12.8448L12.986 2.28583C12.2385 2.11066 11.4738 2.01943 10.706 2.01383C9.90956 1.99883 9.11753 2.13525 8.372 2.41583C7.39022 2.7926 6.34548 2.97826 5.294 2.96283C4.5037 2.95916 3.71564 2.87844 2.941 2.72183L1.123 13.6368C1.99132 13.8837 2.8903 14.0059 3.793 13.9998C5.1167 13.9903 6.43122 13.7674 7.684 13.3398Z" fill="black"/>
</svg>
