<svg width="16" height="16" viewBox="0 0 16 16" fill="none" xmlns="http://www.w3.org/2000/svg">
<path fill-rule="evenodd" clip-rule="evenodd" d="M4.83577 13.9477L5.54959 14.8994C3.68551 15.1927 1.7692 14.986 0 14.2898L2.13 1.48984C4.04011 2.09348 6.08989 2.09348 8 1.48984C9.91011 0.886199 11.9599 0.886199 13.87 1.48984L15.68 12.3798L14.47 11.1598L13 2.28984C12.2507 2.10376 11.4821 2.00642 10.71 1.99984C9.91092 1.98515 9.11648 2.12435 8.37 2.40984C7.39022 2.80067 6.34485 3.00092 5.29 2.99984C4.50059 2.99905 3.71327 2.91864 2.94 2.75984L1.12 13.6398C1.98846 13.8857 2.88744 14.0069 3.79 13.9998C4.13938 13.9978 4.4883 13.9804 4.83577 13.9477ZM11.682 6.31802C9.92462 4.56066 7.07538 4.56066 5.31802 6.31802C3.56066 8.07538 3.56066 10.9246 5.31802 12.682C6.95595 14.3199 9.54239 14.4312 11.3092 13.0159L14.1569 15.864L14.864 15.1569L12.0166 12.3085C13.4312 10.5416 13.3197 7.9557 11.682 6.31802ZM6.02513 11.9749C4.65829 10.608 4.65829 8.39196 6.02513 7.02512C7.39196 5.65829 9.60804 5.65829 10.9749 7.02512C12.3417 8.39196 12.3417 10.608 10.9749 11.9749C9.60804 13.3417 7.39196 13.3417 6.02513 11.9749ZM8 12V10H6V9H8V7H9V9H11V10H9V12H8Z" fill="black"/>
</svg>
