<svg width="16" height="16" viewBox="0 0 16 16" fill="none" xmlns="http://www.w3.org/2000/svg">
<path fill-rule="evenodd" clip-rule="evenodd" d="M12 2L14 11C11.6481 10.412 9.81476 10.3426 8.5 10.7918V13H12V14H8.5H7.5H4V13H7.5V11.2082C6.253 11.6342 4.5395 11.5938 2.3595 11.0868L2 11L4 2H12ZM10.3703 3H5.00512C5.08882 3.58006 5.21193 4.32475 5.61525 4.9911C5.90922 5.47679 6.36498 5.94051 7.118 6.24355C7.37536 5.4164 8.01725 4.70109 8.6784 4.14572C9.21929 3.69137 9.82284 3.30216 10.3703 3ZM11.3359 3.62507L12.4801 8.77433C12.2254 8.46118 11.8874 8.15591 11.4923 7.87591C10.6239 7.26055 9.42894 6.73159 8.08424 6.50714C8.26052 5.97642 8.70376 5.43041 9.3216 4.91142C9.97051 4.36634 10.7333 3.91781 11.3359 3.62507ZM4.75975 5.5089C4.61477 5.26938 4.49913 5.02392 4.40593 4.78183L3.192 10.243L3.25379 10.2557C5.085 10.6121 6.4684 10.5731 7.39417 10.1788L7.55279 10.1056C8.66616 9.54889 10.0906 9.3821 11.8325 9.57921C11.8098 9.54469 11.7843 9.5085 11.7556 9.47069C11.5706 9.22619 11.2873 8.95625 10.9141 8.69182C10.1684 8.16341 9.11414 7.69259 7.9178 7.4932C6.27583 7.21954 5.3154 6.42693 4.75975 5.5089Z" fill="black"/>
</svg>
