<svg width="16" height="16" viewBox="0 0 16 16" fill="none" xmlns="http://www.w3.org/2000/svg">
<path fill-rule="evenodd" clip-rule="evenodd" d="M15.1801 3.89L12.3301 6.74L11.6201 6.04L13.2301 4.39H9.00008V3.39H13.3201L11.6201 1.7L12.3301 1L15.1801 3.89ZM0 14.3902V8.39017H16V14.3902H0ZM14.0001 11.39H15.0001V9.38997H1.00007V13.39H2.00007V11.39H3.00007V13.39H4.00007V10.39H5.00007V13.39H6.00007V11.39H7.00007V13.39H8.00007V10.39H9.00007V13.39H10.0001V11.39H11.0001V13.39H12.0001V10.39H13.0001V13.39H14.0001V11.39ZM6.99992 3.39027H2.67992L4.37992 1.74027L3.66992 1.04027L0.819923 3.89027L3.66992 6.74027L4.37992 6.04027L2.76992 4.39027H6.99992V3.39027Z" fill="black"/>
</svg>
