<svg width="16" height="16" viewBox="0 0 16 16" fill="none" xmlns="http://www.w3.org/2000/svg">
<path fill-rule="evenodd" clip-rule="evenodd" d="M15.9934 1.47007C15.9099 0.640497 15.0491 0 14 0C12.8957 0 12 0.709692 12 1.60256V4.79556L14 6.41214L16 4.79556V1.60256L15.9934 1.47007ZM14.0667 7C14.306 7 14.5 7.18316 14.5 7.40909C14.5 7.63503 14.306 7.81818 14.0667 7.81818L13.3025 7.82278C12.3369 7.83576 11.5618 7.87896 10.7055 7.98654C9.28153 8.16542 8.21481 8.49055 7.65331 8.96546C7.07312 9.45617 7.04206 10.1195 7.73671 11.1205L7.94539 11.4106C9.90011 14.1846 8.17161 15.7385 3.28302 15.9697L3.02281 15.9807L2.48495 15.9952L1.93333 16C1.69401 16 1.5 15.8168 1.5 15.5909C1.5 15.365 1.69401 15.1818 1.93333 15.1818L2.48133 15.1779C7.37648 15.1056 8.75473 14.0369 7.21698 11.8543L7.0158 11.5742C6.1007 10.2498 6.14436 9.14318 7.075 8.35606C7.80061 7.74237 9.00782 7.37441 10.5911 7.17551C11.71 7.03495 12.6832 7 14.0667 7ZM2 8.0764C3.04912 8.0764 3.90991 8.7169 3.99337 9.54646L4 9.67896V12.872L2 14.4885L0 12.872V9.67896C0 8.78609 0.895667 8.0764 2 8.0764Z" fill="black"/>
</svg>
