<svg width="16" height="16" viewBox="0 0 16 16" fill="none" xmlns="http://www.w3.org/2000/svg">
<path fill-rule="evenodd" clip-rule="evenodd" d="M7 2H9C10.1046 2 11 2.89543 11 4V11.8168L8 14.6293L5 11.8168V4C5 2.89543 5.89543 2 7 2ZM12 4V12.25L8 16L4 12.25V4C4 2.34315 5.34315 1 7 1H9C10.6569 1 12 2.34315 12 4ZM9 6C9 6.55228 8.55228 7 8 7C7.44772 7 7 6.55228 7 6C7 5.44772 7.44772 5 8 5C8.55228 5 9 5.44772 9 6ZM10 6C10 7.10457 9.10457 8 8 8C6.89543 8 6 7.10457 6 6C6 4.89543 6.89543 4 8 4C9.10457 4 10 4.89543 10 6Z" fill="black"/>
</svg>
