<svg width="16" height="16" viewBox="0 0 16 16" fill="none" xmlns="http://www.w3.org/2000/svg">
<path fill-rule="evenodd" clip-rule="evenodd" d="M7.73385 0.4606L2.86096 5.37612V2.38577L1 0L7.73385 0.4606ZM1.76356 2.98888C0.66028 4.36018 0 6.10298 0 8C0 12.4183 3.58172 16 8 16C12.4183 16 16 12.4183 16 8C16 3.90512 12.9234 0.528821 8.95569 0.0564932L8.21308 1.00318C11.9805 1.11582 15 4.20529 15 8C15 11.866 11.866 15 8 15C4.13401 15 1 11.866 1 8C1 6.60856 1.40598 5.31195 2.10595 4.22215L2.01199 3.23071L1.76356 2.98888ZM9 8C9 8.55229 8.55229 9 8 9C7.44772 9 7 8.55229 7 8C7 7.44772 7.44772 7 8 7C8.55229 7 9 7.44772 9 8Z" fill="black"/>
</svg>
