<svg width="16" height="16" viewBox="0 0 16 16" fill="none" xmlns="http://www.w3.org/2000/svg">
<path fill-rule="evenodd" clip-rule="evenodd" d="M14 11L12 2H4L2 11L2.3595 11.0868C4.5395 11.5938 6.253 11.6342 7.5 11.2082V13H4V14H7.5H8.5H12V13H8.5V10.7918C9.81476 10.3426 11.6481 10.412 14 11ZM4.802 3H11.197L12.686 9.701L12.459 9.66361C10.4293 9.34832 8.79684 9.48355 7.55279 10.1056L7.39417 10.1788C6.4684 10.5731 5.085 10.6121 3.25379 10.2557L3.192 10.243L4.802 3ZM6 5.78078V8H8V7V6V5.28078L6 5.78078ZM8 9H9H10H11V8V7V6H10H9V5.03078V4L8 4.25L5 5V8V9H6H8ZM9 8H10V7H9V8Z" fill="black"/>
</svg>
