<svg width="16" height="16" viewBox="0 0 16 16" fill="none" xmlns="http://www.w3.org/2000/svg">
<path fill-rule="evenodd" clip-rule="evenodd" d="M8 3H3V13H8V3ZM3 2H2V3V13V14H3H8H9V13V3V2H8H3ZM4.83301 4.8335H7.58301V5.75016H4.83301V4.8335ZM7.58301 6.6665H4.83301V7.58317H7.58301V6.6665ZM10.333 9.41667H12.1663V10.3333H10.333V9.41667ZM12.1663 11.25H10.333V12.1667H12.1663V11.25ZM4.83301 8.5H7.58301V9.41667H4.83301V8.5ZM13.9997 7.58333H9.41634V8.5H13.083V13.0833H9.41634V14H13.9997V13.0833V8.5V7.58333Z" fill="black"/>
</svg>
