<svg width="16" height="16" viewBox="0 0 16 16" fill="none" xmlns="http://www.w3.org/2000/svg">
<path fill-rule="evenodd" clip-rule="evenodd" d="M8.02706 0.000715979C12.4329 0.0153047 16 3.59115 16 8.00008C16 8.69281 15.9119 9.36498 15.7464 10.006C15.9107 10.4732 16 10.9757 16 11.499C16 13.9843 13.9853 15.999 11.5 15.999C9.02607 15.999 7.01841 14.0027 7.00012 11.533C7.00125 11.6907 7.01049 11.8464 7.02744 11.9998H4.98465C5.56459 13.0111 6.40195 13.8798 7.5 14.6109V13.5636C8.0231 14.5755 8.9189 15.3635 10.0058 15.746C9.3737 15.9092 8.71136 15.997 8.02887 15.9994C8.00994 16.0005 7.99108 16.0005 7.97237 15.9994C3.5668 15.9845 0 12.4088 0 8.00008C0 3.59073 3.56778 0.0146294 7.97419 0.000711942C7.9917 -0.000232141 8.00935 -0.000243825 8.02706 0.000715979ZM7.02737 10.9999C7.08903 10.4412 7.25295 9.91333 7.5 9.43542V8.50004H4.0121C4.05646 9.40355 4.22289 10.2363 4.51248 10.9999H7.02737ZM9.43429 7.50011C10.0529 7.1799 10.7553 6.99902 11.5 6.99902C11.6527 6.99902 11.8036 7.00663 11.9523 7.02148C11.88 6.30054 11.7252 5.62711 11.4875 5.0003H8.5V7.50011H9.43429ZM12.9746 7.2462C13.1787 7.31696 13.3761 7.40199 13.5657 7.50011H14.9824C14.9196 6.61067 14.6907 5.76711 14.3264 5.0003H12.5477C12.7776 5.70135 12.92 6.45025 12.9746 7.2462ZM14.8551 8.50004C14.8948 8.54442 14.9336 8.5896 14.9715 8.63554C14.9756 8.5905 14.9792 8.54533 14.9824 8.50004H14.8551ZM5.95757 1.30323C4.44044 1.76527 3.14181 2.72865 2.25469 4.00037H3.85488C4.34581 2.98362 5.0474 2.08356 5.95757 1.30323ZM3.45226 5.0003H1.67363C1.30933 5.76711 1.08036 6.61067 1.01758 7.50011H3.01103C3.05082 6.60906 3.19814 5.77543 3.45226 5.0003ZM4.0121 7.50011C4.05647 6.5966 4.22291 5.76386 4.51252 5.0003H7.5V7.50011H4.0121ZM3.01103 8.50004H1.01758C1.08036 9.38948 1.30933 10.233 1.67363 10.9999H3.45223C3.19812 10.2247 3.0508 9.39109 3.01103 8.50004ZM3.85484 11.9998H2.25469C3.14178 13.2715 4.44034 14.2348 5.9574 14.6969C5.04728 13.9165 4.34574 13.0165 3.85484 11.9998ZM7.5 4.00037V1.38933C6.40198 2.12039 5.56464 2.98914 4.9847 4.00037H7.5ZM12.1451 4.00037H13.7453C12.8582 2.72865 11.5596 1.76527 10.0424 1.30323C10.9526 2.08356 11.6542 2.98362 12.1451 4.00037ZM8.5 1.38933C9.59802 2.12039 10.4354 2.98914 11.0153 4.00037H8.5V1.38933ZM11.5 14.999C13.433 14.999 15 13.432 15 11.499C15 9.56603 13.433 7.99902 11.5 7.99902C9.567 7.99902 8 9.56603 8 11.499C8 13.432 9.567 14.999 11.5 14.999ZM11 11.999V13.999H12V11.999H14V10.999H12V8.99902H11V10.999H9V11.999H11Z" fill="black"/>
</svg>
