<svg width="16" height="16" viewBox="0 0 16 16" fill="none" xmlns="http://www.w3.org/2000/svg">
<path fill-rule="evenodd" clip-rule="evenodd" d="M13.9996 4C13.9996 5.10457 13.1042 6 11.9996 6C10.895 6 9.9996 5.10457 9.9996 4C9.9996 2.89543 10.895 2 11.9996 2C13.1042 2 13.9996 2.89543 13.9996 4ZM0.2496 3L8.8917 7.96856L5.46923 8.70734L8.19298 14.157L5.30622 15.8237L2.58248 10.374L0.231445 12.9686L0.2496 3ZM1.2456 4.72619L1.2356 10.3702L2.7626 8.68598L5.6716 14.4572L6.8266 13.7902L3.9173 8.01931L6.1386 7.53919L1.2456 4.72619Z" fill="black"/>
</svg>
