<svg width="16" height="16" viewBox="0 0 16 16" fill="none" xmlns="http://www.w3.org/2000/svg">
<path fill-rule="evenodd" clip-rule="evenodd" d="M11.0865 4.35091C11.0865 1.55578 10.0411 0 8.2211 0C7.12605 0 5.89774 0.747508 4.50009 2.20368L5.19133 2.93632L5.40641 2.71682C6.54186 1.58261 7.49012 1.0317 8.2211 1.0317C9.41104 1.0317 10.1047 2.06406 10.1047 4.35091C10.1047 5.22121 10.4556 5.80406 11.1024 6.07973C11.4602 6.2322 11.784 6.27879 12.4035 6.28659L13.19 6.28895C14.1125 6.30672 14.3998 6.43521 14.4947 6.84219C14.702 7.73196 13.1305 8.80028 9.61498 9.82133L8.97438 10.001L9.21952 11L9.54511 10.9103C13.8299 9.71114 15.8583 8.35626 15.4483 6.59678C15.2159 5.59998 14.6603 5.31341 13.4089 5.26358L13.0122 5.25526L12.4611 5.25525C11.9442 5.24978 11.6899 5.2168 11.4714 5.12367C11.2058 5.01047 11.0865 4.81234 11.0865 4.35091ZM0.250088 3L8.89219 7.96856L5.46972 8.70734L8.19346 14.157L5.30671 15.8237L2.58297 10.374L0.231934 12.9686L0.250088 3ZM1.24609 4.72619L1.23609 10.3702L2.76309 8.68598L5.67209 14.4572L6.82709 13.7902L3.91779 8.01931L6.13909 7.53919L1.24609 4.72619Z" fill="black"/>
</svg>
