<svg width="16" height="16" viewBox="0 0 16 16" fill="none" xmlns="http://www.w3.org/2000/svg">
<path fill-rule="evenodd" clip-rule="evenodd" d="M16.0001 5.5C16.0001 2.46243 13.4562 0 10.3183 0C7.93346 0 5.82756 1.43545 5.00009 3.5601L5.88618 3.88346L5.9641 3.69599C6.70137 2.02906 8.40177 0.916667 10.3183 0.916667C12.9333 0.916667 15.0531 2.96869 15.0531 5.5C15.0531 8.03131 12.9333 10.0833 10.3183 10.0833C9.3375 10.0833 8.40266 9.79455 7.61546 9.26377L7.0742 10.0159L7.29534 10.1578C8.1921 10.7043 9.23283 11 10.3183 11C13.4562 11 16.0001 8.53757 16.0001 5.5ZM0.250088 3L8.89219 7.96856L5.46972 8.70734L8.19346 14.157L5.30671 15.8237L2.58297 10.374L0.231934 12.9686L0.250088 3ZM1.24609 4.72619L1.23609 10.3702L2.76309 8.68598L5.67209 14.4572L6.82709 13.7902L3.91779 8.01931L6.13909 7.53919L1.24609 4.72619Z" fill="black"/>
</svg>
