<svg width="16" height="16" viewBox="0 0 16 16" fill="none" xmlns="http://www.w3.org/2000/svg">
<path fill-rule="evenodd" clip-rule="evenodd" d="M2 2H14V14H2V2ZM1 15V1H15V15H1ZM6.17567 10C6.41186 10.6895 6.77392 11.3455 7.26184 11.932C6.0965 11.7146 5.10894 10.992 4.53513 10H6.17567ZM5.92454 9H4.12602C4.04375 8.68038 4 8.3453 4 8C4 7.6547 4.04375 7.31962 4.12602 7H5.92455C5.81617 7.6619 5.81617 8.3381 5.92454 9ZM6.1757 6H4.53513C5.10896 5.00802 6.09655 4.28535 7.26191 4.06796C6.77397 4.65454 6.4119 5.31048 6.1757 6ZM8.73809 11.932C9.90345 11.7147 10.891 10.992 11.4649 10H9.8243C9.5881 10.6895 9.22603 11.3455 8.73809 11.932ZM10.0755 9H11.874C11.9562 8.68038 12 8.3453 12 8C12 7.6547 11.9562 7.31962 11.874 7H10.0755C10.1838 7.6619 10.1838 8.3381 10.0755 9ZM9.82433 6H11.4649C10.8911 5.00805 9.9035 4.28538 8.73816 4.06797C9.22608 4.65455 9.58814 5.31049 9.82433 6ZM8 13C10.7614 13 13 10.7614 13 8C13 5.23858 10.7614 3 8 3C5.23858 3 3 5.23858 3 8C3 10.7614 5.23858 13 8 13ZM6.9406 9H9.05939C9.18918 8.34016 9.18919 7.65984 9.0594 7H6.94061C6.81082 7.65984 6.81081 8.34016 6.9406 9ZM8.75457 10H7.2454C7.43199 10.444 7.68351 10.8673 7.99997 11.2552C8.31644 10.8673 8.56797 10.444 8.75457 10ZM8.00003 4.7448C8.31649 5.13272 8.56801 5.55595 8.7546 6H7.24543C7.43203 5.55595 7.68356 5.13272 8.00003 4.7448Z" fill="black"/>
</svg>
