<svg width="16" height="16" viewBox="0 0 16 16" fill="none" xmlns="http://www.w3.org/2000/svg">
<path d="M5.64706 11.294C5.64706 9.74108 6.4 8.37637 7.52941 7.52931C6.72941 6.91755 5.78824 6.58813 4.70588 6.58813C2.11765 6.58813 0 8.70578 0 11.294C0 13.8823 2.11765 15.9999 4.70588 15.9999C5.78824 15.9999 6.72941 15.6234 7.52941 15.0587C6.4 14.2117 5.64706 12.847 5.64706 11.294Z" fill="#FFD400"/>
<path d="M5.1763 5.64706C6.25865 5.64706 7.19983 6.02353 7.99983 6.58824C8.79983 5.97647 9.741 5.64706 10.8234 5.64706C11.4351 5.64706 11.9998 5.74118 12.5175 5.97647C12.6116 5.55294 12.7057 5.12941 12.7057 4.70588C12.7057 2.11765 10.5881 0 7.99983 0C5.41159 0 3.29395 2.11765 3.29395 4.70588C3.29395 5.12941 3.341 5.55294 3.48218 5.97647C3.99983 5.74118 4.56453 5.64706 5.1763 5.64706Z" fill="#F50B75"/>
<path d="M11.2938 15.9999C13.8928 15.9999 15.9997 13.893 15.9997 11.294C15.9997 8.69503 13.8928 6.58813 11.2938 6.58813C8.69479 6.58813 6.58789 8.69503 6.58789 11.294C6.58789 13.893 8.69479 15.9999 11.2938 15.9999Z" fill="#00ABE9"/>
</svg>
