<svg width="32" height="32" viewBox="0 0 32 32" fill="none" xmlns="http://www.w3.org/2000/svg">
<path fill-rule="evenodd" clip-rule="evenodd" d="M32 16C32 24.8366 24.8366 32 16 32C7.16344 32 0 24.8366 0 16C0 7.16344 7.16344 0 16 0C24.8366 0 32 7.16344 32 16ZM23.4834 13.5055C24.1722 12.8167 24.1722 11.6999 23.4834 11.0111L20.9889 8.51662C20.3001 7.82779 19.1833 7.82779 18.4945 8.51662L15.3764 11.6347C14.6876 12.3235 14.6876 13.4403 15.3764 14.1292L16 14.7528L14.7528 16L14.1292 15.3764C13.4403 14.6876 12.3235 14.6876 11.6347 15.3764L8.51662 18.4945C7.82779 19.1833 7.82779 20.3001 8.51662 20.9889L11.0111 23.4834C11.6999 24.1722 12.8167 24.1722 13.5055 23.4834L16.6236 20.3653C17.3124 19.6765 17.3124 18.5597 16.6236 17.8708L16 17.2472L17.2472 16L17.8708 16.6236C18.5597 17.3124 19.6765 17.3124 20.3653 16.6236L23.4834 13.5055ZM14.7528 18.4945L15.3764 19.1181L12.2583 22.2362L9.76385 19.7417L12.8819 16.6236L13.5055 17.2472L12.8819 17.8708C12.5375 18.2153 12.5375 18.7737 12.8819 19.1181C13.2263 19.4625 13.7847 19.4625 14.1292 19.1181L14.7528 18.4945ZM19.1181 15.3764L22.2362 12.2583L19.7417 9.76385L16.6236 12.8819L17.2472 13.5055L17.8708 12.8819C18.2153 12.5375 18.7737 12.5375 19.1181 12.8819C19.4625 13.2263 19.4625 13.7847 19.1181 14.1292L18.4945 14.7528L19.1181 15.3764Z" fill="black"/>
</svg>
