<svg width="16" height="16" viewBox="0 0 16 16" fill="none" xmlns="http://www.w3.org/2000/svg">
<path fill-rule="evenodd" clip-rule="evenodd" d="M12.9889 0.51662L15.4834 3.01108C16.1722 3.69991 16.1722 4.81671 15.4834 5.50554L12.3653 8.62362C11.6765 9.31244 10.5597 9.31244 9.87084 8.62362L9.24723 8L8 9.24723L8.62362 9.87084C9.31244 10.5597 9.31244 11.6765 8.62362 12.3653L5.50554 15.4834C4.81671 16.1722 3.69991 16.1722 3.01108 15.4834L0.51662 12.9889C-0.172207 12.3001 -0.172207 11.1833 0.51662 10.4945L3.63469 7.37638C4.32352 6.68756 5.44033 6.68756 6.12915 7.37638L6.75277 8L8 6.75277L7.37638 6.12915C6.68756 5.44033 6.68756 4.32352 7.37638 3.63469L10.4945 0.51662C11.1833 -0.172207 12.3001 -0.172207 12.9889 0.51662ZM7.37639 11.1181L6.75277 10.4945L6.12916 11.1181C5.78474 11.4625 5.22634 11.4625 4.88192 11.1181C4.53751 10.7737 4.53751 10.2153 4.88192 9.87085L5.50554 9.24723L4.88192 8.62362L1.76385 11.7417L4.25831 14.2362L7.37639 11.1181ZM11.7417 1.76385L14.2362 4.25831L11.1181 7.37639L10.4945 6.75277L11.1181 6.12916C11.4625 5.78474 11.4625 5.22634 11.1181 4.88192C10.7737 4.53751 10.2153 4.53751 9.87085 4.88192L9.24723 5.50554L8.62362 4.88192L11.7417 1.76385Z" fill="black"/>
</svg>
