<svg width="16" height="16" viewBox="0 0 16 16" fill="none" xmlns="http://www.w3.org/2000/svg">
<path d="M13.3745 12.4649C14.0926 11.601 14.592 10.5768 14.8305 9.479C15.069 8.38122 15.0396 7.24214 14.7448 6.15812C14.45 5.07409 13.8985 4.07702 13.1368 3.25125C12.3752 2.42547 11.4258 1.79529 10.3691 1.414C9.31242 1.03271 8.17943 0.911547 7.06598 1.06075C5.95254 1.20995 4.89141 1.62513 3.97236 2.27116C3.05331 2.91719 2.30337 3.77508 1.786 4.77224C1.26862 5.76941 0.999019 6.87651 1 7.99991C1.00038 9.633 1.57588 11.2138 2.6255 12.4649L2.6155 12.4734C2.6505 12.5154 2.6905 12.5514 2.7265 12.5929C2.7715 12.6444 2.82 12.6929 2.8665 12.7429C3.0065 12.8949 3.1505 13.0409 3.3015 13.1779C3.3475 13.2199 3.395 13.2589 3.4415 13.2989C3.6015 13.4369 3.766 13.5679 3.9365 13.6899C3.9585 13.7049 3.9785 13.7244 4.0005 13.7399V13.7339C5.17155 14.558 6.56855 15.0003 8.0005 15.0003C9.43245 15.0003 10.8295 14.558 12.0005 13.7339V13.7399C12.0225 13.7244 12.042 13.7049 12.0645 13.6899C12.2345 13.5674 12.3995 13.4369 12.5595 13.2989C12.606 13.2589 12.6535 13.2194 12.6995 13.1779C12.8505 13.0404 12.9945 12.8949 13.1345 12.7429C13.181 12.6929 13.229 12.6444 13.2745 12.5929C13.31 12.5514 13.3505 12.5154 13.3855 12.4729L13.3745 12.4649ZM8 3.99991C8.44501 3.99991 8.88003 4.13187 9.25004 4.3791C9.62005 4.62633 9.90843 4.97774 10.0787 5.38887C10.249 5.8 10.2936 6.2524 10.2068 6.68886C10.12 7.12532 9.90566 7.52623 9.59099 7.8409C9.27633 8.15557 8.87541 8.36986 8.43896 8.45667C8.0025 8.54349 7.5501 8.49893 7.13897 8.32864C6.72783 8.15834 6.37643 7.86995 6.1292 7.49994C5.88196 7.12993 5.75 6.69492 5.75 6.24991C5.75 5.65317 5.98706 5.08087 6.40901 4.65892C6.83097 4.23696 7.40327 3.99991 8 3.99991ZM4.0035 12.4649C4.01218 11.8084 4.27898 11.1817 4.74618 10.7204C5.21339 10.2591 5.84343 10.0002 6.5 9.99991H9.5C10.1566 10.0002 10.7866 10.2591 11.2538 10.7204C11.721 11.1817 11.9878 11.8084 11.9965 12.4649C10.8999 13.4531 9.47613 13.9999 8 13.9999C6.52387 13.9999 5.10008 13.4531 4.0035 12.4649Z" fill="black"/>
</svg>
