<svg width="16" height="16" viewBox="0 0 16 16" fill="none" xmlns="http://www.w3.org/2000/svg">
<path d="M2.28571 2.28571H3.42857V3.42857H2.28571V2.28571Z" fill="black"/>
<path fill-rule="evenodd" clip-rule="evenodd" d="M5.71429 0H0V5.71429H5.71429V0ZM1.14286 4.57143V1.14286H4.57143V4.57143H1.14286Z" fill="black"/>
<path d="M13.7143 2.28571H12.5714V3.42857H13.7143V2.28571Z" fill="black"/>
<path fill-rule="evenodd" clip-rule="evenodd" d="M10.2857 0H16V5.71429H10.2857V0ZM11.4286 0.952381V4.7619H14.8571V0.952381H11.4286Z" fill="black"/>
<path d="M2.28571 12.5714H3.42857V13.7143H2.28571V12.5714Z" fill="black"/>
<path fill-rule="evenodd" clip-rule="evenodd" d="M5.71429 10.2857H0V16H5.71429V10.2857ZM1.14286 14.8571V11.4286H4.57143V14.8571H1.14286Z" fill="black"/>
<path d="M6.85714 0H8V1.14286H6.85714V0Z" fill="black"/>
<path d="M8 2.28571V1.14286H9.14286V3.42857H8V4.57143H9.14286V8H8V5.71429H6.85714V2.28571H8Z" fill="black"/>
<path fill-rule="evenodd" clip-rule="evenodd" d="M12.5714 11.4286H16V10.2857L13.7143 10.2857V9.14286H12.5714V8H14.8571V9.14286H16V6.85714H11.4286V8H9.14286V10.2857H6.85714V12.5714H9.14286V13.7143H6.85714V14.8571L8 14.8571V16H10.2857V14.8571L11.4286 14.8571V13.7143H12.5714V16H16V12.5714H14.8571V14.8571L13.7143 14.8571L13.7143 12.5714L12.5714 12.5714L12.5714 11.4286ZM12.5714 11.4286H11.4286V12.5714L9.14286 12.5714V11.4286H10.2857L10.2857 10.2857L12.5714 10.2857V11.4286Z" fill="black"/>
<path d="M6.85714 8H8V9.14286H3.42857V8H2.28571V9.14286H1.14286V8H0V6.85714H6.85714V8Z" fill="black"/>
</svg>
