<svg width="16" height="16" viewBox="0 0 16 16" fill="none" xmlns="http://www.w3.org/2000/svg">
<path fill-rule="evenodd" clip-rule="evenodd" d="M0 8C0 12.4183 3.57562 16 7.98638 16C8.55344 16 9.3859 15.5648 9.31744 14.6667C9.29202 14.3332 9.12728 14.0668 8.96447 13.8035C8.68882 13.3578 8.41872 12.921 8.83972 12.1828C9.20227 11.5471 9.74417 11.5563 10.5483 11.5699C10.8414 11.5748 11.1692 11.5804 11.5359 11.5556C13.0005 11.4563 15.6552 10.579 15.9728 8C16.3683 3.31461 12.3971 0 7.98638 0C3.57562 0 0 3.58172 0 8ZM11.2 2.8C11.2 3.46274 10.6627 4 10 4C9.33726 4 8.8 3.46274 8.8 2.8C8.8 2.13726 9.33726 1.6 10 1.6C10.6627 1.6 11.2 2.13726 11.2 2.8ZM4.8 5.6C5.68366 5.6 6.4 4.88366 6.4 4C6.4 3.11634 5.68366 2.4 4.8 2.4C3.91634 2.4 3.2 3.11634 3.2 4C3.2 4.88366 3.91634 5.6 4.8 5.6ZM3.2 10.4C4.08366 10.4 4.8 9.68366 4.8 8.8C4.8 7.91634 4.08366 7.2 3.2 7.2C2.31634 7.2 1.6 7.91634 1.6 8.8C1.6 9.68366 2.31634 10.4 3.2 10.4ZM13.2 7.2C13.8627 7.2 14.4 6.66274 14.4 6C14.4 5.33726 13.8627 4.8 13.2 4.8C12.5373 4.8 12 5.33726 12 6C12 6.66274 12.5373 7.2 13.2 7.2Z" fill="black"/>
</svg>
