<svg width="16" height="16" viewBox="0 0 16 16" fill="none" xmlns="http://www.w3.org/2000/svg">
<path fill-rule="evenodd" clip-rule="evenodd" d="M8 13C10.3736 13 12.361 11.346 12.8723 9.12769L14.9377 7.06227C14.9788 7.369 15 7.68202 15 8C15 11.866 11.866 15 8 15C4.13401 15 1 11.866 1 8C1 4.13401 4.13401 1 8 1C9.67832 1 11.2187 1.59065 12.4246 2.57542L11.0002 3.99979C10.1645 3.37201 9.1257 3 8 3C5.23858 3 3 5.23858 3 8C3 10.7614 5.23858 13 8 13ZM9.00008 10.9143L15.7072 4.20718L14.293 2.79297L9.00008 8.08586L6.70718 5.79297L5.29297 7.20718L9.00008 10.9143Z" fill="black"/>
</svg>
