<svg width="16" height="16" viewBox="0 0 16 16" fill="none" xmlns="http://www.w3.org/2000/svg">
<path fill-rule="evenodd" clip-rule="evenodd" d="M13.3106 8.03516V8.03518C13.3106 8.18598 13.2901 8.31658 13.2711 8.43781C13.2546 8.54279 13.2392 8.64074 13.2392 8.73869L14.8817 9.86432C15.0245 9.93467 15.0245 10.1457 14.9531 10.2864L13.5249 12.7487C13.4535 12.8894 13.2392 12.9598 13.0964 12.8894L11.3111 12.1859C10.9541 12.4673 10.5256 12.6784 10.0972 12.8894L10.0972 12.8894L9.81153 14.7186C9.81153 14.8593 9.59729 15 9.45447 15H6.59805C6.38381 15 6.24099 14.8593 6.24099 14.7186L5.95535 12.8894L5.95534 12.8894C5.52688 12.6784 5.09842 12.4673 4.74137 12.1859L2.9561 12.8894C2.74187 12.9598 2.59905 12.8894 2.52764 12.8191L1.09943 10.3568C1.02801 10.2161 1.02801 10.0754 1.17084 9.93467L2.67046 8.73869C2.59905 8.52764 2.59905 8.31658 2.59905 8.03518C2.59905 7.88437 2.61956 7.75377 2.63859 7.63254C2.65508 7.52756 2.67046 7.42961 2.67046 7.33166L1.17084 6.20603C1.02801 6.06533 0.956604 5.85427 1.02801 5.78392L2.45623 3.32161C2.59905 3.1809 2.74187 3.11055 2.9561 3.1809L4.66996 3.88442C4.75744 3.82697 4.84194 3.76951 4.92468 3.71326C5.2472 3.49397 5.54295 3.29288 5.88394 3.1809L6.16958 1.28141C6.16958 1.1407 6.38381 1 6.52664 1H9.38306C9.52588 1 9.64489 1.18759 9.6687 1.35176L9.95435 3.1809C10.3828 3.39196 10.8113 3.60301 11.1683 3.88442L12.9536 3.1809C13.1678 3.11055 13.3106 3.1809 13.3821 3.25126L14.8103 5.71357C14.8817 5.85427 14.8817 5.99497 14.7389 6.13568L13.2392 7.33166C13.3106 7.54271 13.3106 7.75376 13.3106 8.03516ZM10.625 8C10.625 9.44975 9.44975 10.625 8 10.625C6.55025 10.625 5.375 9.44975 5.375 8C5.375 6.55025 6.55025 5.375 8 5.375C9.44975 5.375 10.625 6.55025 10.625 8Z" fill="black"/>
</svg>
