<svg width="16" height="16" viewBox="0 0 16 16" fill="none" xmlns="http://www.w3.org/2000/svg">
<path fill-rule="evenodd" clip-rule="evenodd" d="M13.5 5C14.8807 5 16 3.88071 16 2.5C16 1.11929 14.8807 0 13.5 0C12.1193 0 11 1.11929 11 2.5C11 2.84139 11.0684 3.1668 11.1923 3.46326L5.57054 6.45241C5.04539 5.58202 4.09066 5 3 5C1.34315 5 0 6.34315 0 8C0 9.65685 1.34315 11 3 11C4.0542 11 4.98139 10.4563 5.51643 9.63392L11.0855 12.8492C11.0298 13.0567 11 13.2749 11 13.5C11 14.8807 12.1193 16 13.5 16C14.8807 16 16 14.8807 16 13.5C16 12.1193 14.8807 11 13.5 11C12.7029 11 11.9929 11.3731 11.5351 11.9541L5.91557 8.70966C5.97075 8.48214 6 8.24449 6 8C6 7.79087 5.9786 7.58673 5.93787 7.38967L11.7593 4.29438C12.2094 4.73113 12.8233 5 13.5 5Z" fill="black"/>
</svg>
