<svg width="16" height="16" viewBox="0 0 16 16" fill="none" xmlns="http://www.w3.org/2000/svg">
<path fill-rule="evenodd" clip-rule="evenodd" d="M7.99902 0L10.499 2.5H8.49902V7H7.49902V2.5H5.49902L7.99902 0ZM7.99902 16C9.93202 16 11.499 14.433 11.499 12.5C11.499 10.567 9.93202 9 7.99902 9C6.06603 9 4.49902 10.567 4.49902 12.5C4.49902 14.433 6.06603 16 7.99902 16ZM15.9966 7.53553V4H12.4611L13.8753 5.41421L11.4004 7.88909L12.1075 8.59619L14.5824 6.12132L15.9966 7.53553ZM0 4H3.53553L2.12132 5.41421L4.59619 7.88909L3.88909 8.59619L1.41421 6.12132L0 7.53553V4Z" fill="black"/>
</svg>
