<svg width="16" height="16" viewBox="0 0 16 16" fill="none" xmlns="http://www.w3.org/2000/svg">
<path d="M12.9728 2.92942C14.3249 4.31585 15.0007 5.99974 15 7.98107C14.9993 9.96239 14.3127 11.6567 12.9403 13.0639C11.9931 14.0351 10.8624 14.6795 9.5483 14.997L9.54893 13.1543C10.3799 12.8964 11.1047 12.4504 11.7233 11.8161C12.7478 10.7657 13.2603 9.49742 13.2609 8.01142C13.2614 6.52542 12.7497 5.25756 11.7259 4.20783L9.87022 6.11058L9.84299 1.02848L14.8285 1.02667L12.9728 2.92942ZM4.30303 11.8188L6.15876 9.91609L6.157 14.9685L1.20048 15L3.05621 13.0972C1.68472 11.691 0.999313 9.99722 1 8.01589C1.00069 6.03456 1.68726 4.34028 3.05973 2.93303C4.00693 1.96184 5.13759 1.31749 6.4517 1L6.48004 2.87235C5.64903 3.13022 4.92424 3.57628 4.30567 4.21053C3.28115 5.26101 2.76863 6.52925 2.76811 8.01525C2.7676 9.50124 3.27924 10.7691 4.30303 11.8188Z" fill="black"/>
</svg>
