<svg width="400" height="220" viewBox="0 0 400 220" fill="none" xmlns="http://www.w3.org/2000/svg">
<g clip-path="url(#clip0_3634_25562)">
<rect x="-0.5" y="-0.5" width="401" height="221" fill="#181818" stroke="#E3E3E3"/>
<rect x="110" y="30" width="290" height="190" fill="white"/>
<rect x="20" y="20" width="80" height="200" fill="#282828"/>
<rect x="99" y="20" width="1" height="200" fill="#6A6A6A"/>
<rect x="26" y="46" width="31" height="24" fill="#8B8B8B"/>
<rect x="63" y="46" width="31" height="24" fill="#444444"/>
<rect x="26" y="76" width="31" height="24" fill="#444444"/>
<rect x="63" y="76" width="31" height="24" fill="#444444"/>
<rect x="26" y="106" width="31" height="24" fill="#444444"/>
<rect x="63" y="106" width="31" height="24" fill="#444444"/>
<rect x="26" y="136" width="31" height="24" fill="#444444"/>
<rect x="63" y="136" width="31" height="24" fill="#444444"/>
<rect x="26" y="166" width="31" height="24" fill="#444444"/>
<rect x="26" y="30" width="26" height="4" rx="2" fill="#444444"/>
<rect y="20" width="20" height="200" fill="#444444"/>
<rect y="20" width="20" height="20" fill="#5E5E5E"/>
<rect y="20" width="2" height="20" fill="#00AABB"/>
<circle cx="10" cy="30" r="5" fill="#E3E3E3"/>
<circle cx="10" cy="50" r="5" fill="#6A6A6A"/>
<circle cx="10" cy="70" r="5" fill="#6A6A6A"/>
<circle cx="10" cy="90" r="5" fill="#6A6A6A"/>
<rect width="400" height="20" fill="#444444"/>
<rect y="19" width="400" height="1" fill="#6A6A6A"/>
<path fill-rule="evenodd" clip-rule="evenodd" d="M8 6C6.89543 6 6 6.89543 6 8V12C6 13.1046 6.89543 14 8 14H12C13.1046 14 14 13.1046 14 12V8C14 6.89543 13.1046 6 12 6H8ZM21 9C20.4477 9 20 9.44772 20 10C20 10.5523 20.4477 11 21 11H79C79.5523 11 80 10.5523 80 10C80 9.44772 79.5523 9 79 9H21Z" fill="#6A6A6A"/>
<path fill-rule="evenodd" clip-rule="evenodd" d="M246 6C244.895 6 244 6.89543 244 8V12C244 13.1046 244.895 14 246 14H250C251.105 14 252 13.1046 252 12V8C252 6.89543 251.105 6 250 6H246ZM264 6C262.895 6 262 6.89543 262 8V12C262 13.1046 262.895 14 264 14H268C269.105 14 270 13.1046 270 12V8C270 6.89543 269.105 6 268 6H264ZM280 8C280 6.89543 280.895 6 282 6H286C287.105 6 288 6.89543 288 8V12C288 13.1046 287.105 14 286 14H282C280.895 14 280 13.1046 280 12V8ZM300 6C298.895 6 298 6.89543 298 8V12C298 13.1046 298.895 14 300 14H304C305.105 14 306 13.1046 306 12V8C306 6.89543 305.105 6 304 6H300ZM316 8C316 6.89543 316.895 6 318 6H322C323.105 6 324 6.89543 324 8V12C324 13.1046 323.105 14 322 14H318C316.895 14 316 13.1046 316 12V8ZM336 6C334.895 6 334 6.89543 334 8V12C334 13.1046 334.895 14 336 14H340C341.105 14 342 13.1046 342 12V8C342 6.89543 341.105 6 340 6H336ZM352 8C352 6.89543 352.895 6 354 6H370C371.105 6 372 6.89543 372 8V12C372 13.1046 371.105 14 370 14H354C352.895 14 352 13.1046 352 12V8ZM386 14C388.209 14 390 12.2091 390 10C390 7.79086 388.209 6 386 6C383.791 6 382 7.79086 382 10C382 12.2091 383.791 14 386 14Z" fill="#6A6A6A"/>
<rect x="126" y="43" width="100" height="100" fill="#00D8ED" fill-opacity="0.2"/>
<rect x="160" y="81" width="31" height="24" fill="#8B8B8B"/>
<path fill-rule="evenodd" clip-rule="evenodd" d="M174.209 92.7148L171.396 94.4261C171.16 94.5696 171.085 94.8772 171.228 95.1131C171.372 95.3491 171.679 95.424 171.915 95.2805L175.76 92.9418C175.996 92.7983 176.071 92.4907 175.927 92.2548L173.589 88.4102C173.445 88.1743 173.138 88.0994 172.902 88.2429C172.666 88.3864 172.591 88.694 172.734 88.9299L174.446 91.7432L42.1185 59.5142L41.8818 60.4858L174.209 92.7148Z" fill="#5F5FFF"/>
<path d="M45.5 60C45.5 61.933 43.933 63.5 42 63.5C40.067 63.5 38.5 61.933 38.5 60C38.5 58.067 40.067 56.5 42 56.5C43.933 56.5 45.5 58.067 45.5 60Z" fill="white" stroke="#5F5FFF"/>
<path fill-rule="evenodd" clip-rule="evenodd" d="M176.53 105.833C176.53 105.833 172.833 100.694 175.431 99.1944C178.03 97.6944 178.774 100.209 178.774 100.209C178.774 100.209 177.052 96.0015 178.784 95.0015C180.516 94.0015 182.64 96.4701 182.64 96.4701C182.64 96.4701 181.747 94.0569 183.698 92.9302C185.65 91.8036 188.401 95.6233 188.401 95.6233C188.401 95.6233 188.932 93.9077 190.333 93.0986C191.735 92.2896 193.442 93.7643 193.442 93.7643L199.194 103.726C199.194 103.726 199.726 112.948 193.753 115.717C187.779 118.486 178.937 116.815 178.15 115.45C177.362 114.085 175.32 111.419 175.257 110.439C175.193 109.46 176.53 105.833 176.53 105.833Z" fill="white"/>
<path fill-rule="evenodd" clip-rule="evenodd" d="M183.61 99.7595C183.81 100.106 184.151 100.217 184.463 100.037C184.492 100.02 184.519 100.002 184.544 99.9822C184.574 99.9697 184.605 99.9545 184.636 99.9369C184.948 99.7569 185.035 99.429 184.855 99.1172L183.155 96.1728C182.675 95.3414 182.689 94.1326 183.967 93.3951C185.244 92.6576 186.284 93.2274 186.764 94.0588L189.004 97.9383C189.155 98.1988 189.408 98.303 189.67 98.2251C189.777 98.2206 189.888 98.1875 189.998 98.1241C190.336 97.9291 190.433 97.5778 190.241 97.2458L189.602 96.1392C189.091 95.254 189.32 94.0893 190.22 93.5693C191.121 93.0493 192.356 93.369 192.867 94.2542L197.659 102.554C200.151 106.869 198.303 112.51 193.575 115.24C190.76 116.865 187.261 117.438 184.5 117.209C181.927 116.996 181.285 116.76 180.209 116.362C180.131 116.333 180.05 116.304 179.967 116.273C178.731 115.821 177.89 114.853 177.315 113.857L176.101 111.754C175.526 110.758 175.353 109.678 175.757 108.559L176.368 106.816L177.65 109.038C177.834 109.355 178.164 109.447 178.476 109.267C178.787 109.087 178.873 108.755 178.69 108.438L175.023 102.087C174.534 101.24 174.834 100.079 175.665 99.5992C176.497 99.1192 177.652 99.4401 178.141 100.287L179.363 102.404C179.546 102.721 179.876 102.813 180.188 102.633C180.333 102.55 180.429 102.433 180.472 102.301C180.637 102.108 180.65 101.832 180.492 101.56L178.492 98.0954C177.959 97.1716 178.219 95.9434 179.051 95.4634C179.882 94.9834 181.076 95.3716 181.61 96.2954L183.61 99.7595ZM175.553 105.406L173.984 102.687C173.128 101.205 173.599 99.3807 175.054 98.5407C175.741 98.1442 176.508 98.0472 177.216 98.2112C176.61 96.7101 177.072 95.0661 178.384 94.3087C179.444 93.6969 180.727 93.8543 181.706 94.6093C181.854 93.7438 182.386 92.9221 183.367 92.3559C185.178 91.3102 186.964 92.0039 187.804 93.4588L188.215 94.1716C188.461 93.4548 188.967 92.8175 189.694 92.3978C191.27 91.4878 193.211 91.99 194.106 93.5392L198.897 101.839C201.709 106.708 199.618 113.226 194.326 116.281C191.174 118.101 187.039 118.646 184.567 118.429C182.095 118.213 181.236 118.018 179.674 117.496C178.113 116.974 176.892 115.724 176.189 114.507L174.975 112.404C174.272 111.187 174.133 109.645 174.635 108.174L175.429 105.65C175.455 105.557 175.498 105.474 175.553 105.406Z" fill="#5F5FFF"/>
<path fill-rule="evenodd" clip-rule="evenodd" d="M319 70L314 76H259V218H379V76H324L319 70Z" fill="#444444"/>
<rect x="269" y="86" width="45" height="34" fill="#181818" stroke="#00D8ED" stroke-width="2"/>
<rect x="324" y="86" width="45" height="34" fill="#181818"/>
<rect x="269" y="130" width="45" height="34" fill="#181818"/>
<rect x="324" y="130" width="45" height="34" fill="#181818"/>
<rect x="269" y="174" width="45" height="34" fill="#181818"/>
<circle cx="319" cy="53" r="13" fill="#444444"/>
<path fill-rule="evenodd" clip-rule="evenodd" d="M324 47H314C313.448 47 313 47.4477 313 48V50C313 50.5523 313.448 51 314 51H324C324.552 51 325 50.5523 325 50V48C325 47.4477 324.552 47 324 47ZM314 50V48H324V50H314ZM316 52H314C313.448 52 313 52.4477 313 53V58C313 58.5523 313.448 59 314 59H316C316.552 59 317 58.5523 317 58V53C317 52.4477 316.552 52 316 52ZM314 58V53H316V58H314ZM319 52H324C324.552 52 325 52.4477 325 53V58C325 58.5523 324.552 59 324 59H319C318.448 59 318 58.5523 318 58V53C318 52.4477 318.448 52 319 52ZM319 53V58H324V53H319Z" fill="white"/>
</g>
<defs>
<clipPath id="clip0_3634_25562">
<rect width="400" height="220" fill="white"/>
</clipPath>
</defs>
</svg>
