<svg width="16" height="16" viewBox="0 0 16 16" fill="none" xmlns="http://www.w3.org/2000/svg">
<path fill-rule="evenodd" clip-rule="evenodd" d="M2 9L2 11L13 11L13 9L2 9ZM1 11C1 11.5523 1.44772 12 2 12L7 12L7 13.5C7 13.7761 7.22386 14 7.5 14C7.77614 14 8 13.7761 8 13.5L8 12L13 12C13.5523 12 14 11.5523 14 11L14 9C14 8.44772 13.5523 8 13 8L8 8L8 6L11 6C11.5523 6 12 5.55228 12 5L12 3C12 2.44772 11.5523 2 11 2L8 2L8 0.5C8 0.223858 7.77614 8.08047e-08 7.5 7.75117e-08C7.22386 7.42188e-08 7 0.223858 7 0.5L7 2L4 2C3.44772 2 3 2.44772 3 3L3 5C3 5.55228 3.44772 6 4 6L7 6L7 8L2 8C1.44772 8 1 8.44772 1 9L1 11ZM4 5L4 3L11 3L11 5L4 5Z" fill="black"/>
</svg>
