<svg width="16" height="16" viewBox="0 0 16 16" fill="none" xmlns="http://www.w3.org/2000/svg">
<path fill-rule="evenodd" clip-rule="evenodd" d="M7.54673 3.65419L7.54608 1.87491L7.54019 1.77288C7.48965 1.33775 7.11982 1 6.6711 1C6.45916 1 6.25442 1.07692 6.09492 1.21647L1.29881 5.41276L1.2207 5.49016C0.931572 5.81487 0.922766 6.31166 1.2165 6.64733C1.24208 6.67657 1.26958 6.70406 1.29881 6.72964L6.09492 10.9259L6.18201 10.9931C6.54225 11.2365 7.03585 11.1793 7.32959 10.8436C7.46915 10.6841 7.54608 10.4794 7.54608 10.2675L7.54596 8.8881C7.88147 8.91032 8.21577 8.95935 8.54598 9.03635C10.2748 9.4395 11.8913 10.6094 12.9809 12.7119C13.0749 12.8935 13.1832 13.1937 13.3055 13.6126L13.4138 14.0008L13.5172 14.3998C13.5918 14.6968 13.8188 14.9814 14.1247 14.9986C14.5107 15.0203 14.8551 14.7881 14.9443 14.2631L14.9783 13.7601C14.9924 13.4807 14.998 13.2308 15 13.0149L14.9996 12.3739L14.9783 11.9322C14.901 6.82556 12.4238 4.0662 7.54673 3.65419ZM13.9997 12.3983L13.9787 11.9639L13.9784 11.9474C13.942 9.54429 13.3437 7.84295 12.3183 6.70075C11.2985 5.56484 9.7307 4.84226 7.46255 4.65064L6.54706 4.5733L6.54618 2.15038L2.06491 6.0712L6.54605 9.99191L6.54588 7.8197L7.61203 7.89029C10.0689 8.05296 12.4174 9.45115 13.8687 12.2518C13.9135 12.3381 13.9571 12.4351 13.9997 12.5409L13.9997 12.3983ZM14.487 14.1558L14.4863 14.153C14.4867 14.1545 14.4869 14.1554 14.487 14.1558Z" fill="black"/>
</svg>
