<svg width="16" height="16" viewBox="0 0 16 16" fill="none" xmlns="http://www.w3.org/2000/svg">
<path fill-rule="evenodd" clip-rule="evenodd" d="M7.15493e-08 8L9.5399e-08 6C1.01985e-07 5.44772 0.447715 5 1 5L7 5L7 4L4.16667 4C3.52233 4 3 3.55229 3 3L3 1C3 0.447716 3.52233 4.20034e-08 4.16667 4.9687e-08L10.8333 1.29186e-07C11.4777 1.3687e-07 12 0.447716 12 1L12 3C12 3.55229 11.4777 4 10.8333 4L8 4L8 5L14 5C14.5523 5 15 5.44772 15 6L15 8C15 8.55228 14.5523 9 14 9L8 9L8 10L11.8333 10C12.4777 10 13 10.4477 13 11L13 13C13 13.5523 12.4777 14 11.8333 14L3.16667 14C2.52233 14 2 13.5523 2 13L2 11C2 10.4477 2.52233 10 3.16667 10L7 10L7 9L1 9C0.447715 9 6.49634e-08 8.55228 7.15493e-08 8ZM1 8L14 8L14 6L1 6L1 8ZM12 13L3 13L3 11L12 11L12 13ZM4 3L11 3L11 1L4 1L4 3Z" fill="black"/>
</svg>
