<svg width="16" height="16" viewBox="0 0 16 16" fill="none" xmlns="http://www.w3.org/2000/svg">
<path fill-rule="evenodd" clip-rule="evenodd" d="M1 13.5C1 13.7761 1.22386 14 1.5 14C1.77614 14 2 13.7761 2 13.5L2 7.5003L5.45884 11.4533C5.64069 11.6611 5.95657 11.6821 6.16438 11.5003C6.3722 11.3185 6.39326 11.0026 6.21142 10.7948L3.7664 8.00046L13.5 8.00046C13.7761 8.00046 14 7.7766 14 7.50046C14 7.22431 13.7761 7.00046 13.5 7.00046L3.76614 7.00046L6.21142 4.20584C6.39326 3.99803 6.3722 3.68215 6.16438 3.50031C5.95657 3.31846 5.64068 3.33952 5.45884 3.54734L2 7.5003L2 1.5C2 1.22386 1.77614 1 1.5 1C1.22386 1 1 1.22386 1 1.5L1 13.5Z" fill="black"/>
</svg>
