<svg width="16" height="16" viewBox="0 0 16 16" fill="none" xmlns="http://www.w3.org/2000/svg">
<path d="M1.5 3C1.22386 3 1 3.22386 1 3.5C1 3.77614 1.22386 4 1.5 4H5.5C5.77614 4 6 3.77614 6 3.5C6 3.22386 5.77614 3 5.5 3H1.5Z" fill="black"/>
<path d="M1 6.5C1 6.22386 1.22386 6 1.5 6H8.5C8.77614 6 9 6.22386 9 6.5C9 6.77614 8.77614 7 8.5 7H1.5C1.22386 7 1 6.77614 1 6.5Z" fill="black"/>
<path d="M1.5 9C1.22386 9 1 9.22386 1 9.5C1 9.77614 1.22386 10 1.5 10H11.5C11.7761 10 12 9.77614 12 9.5C12 9.22386 11.7761 9 11.5 9H1.5Z" fill="black"/>
<path d="M1.5 12C1.22386 12 1 12.2239 1 12.5C1 12.7761 1.22386 13 1.5 13H14.5C14.7761 13 15 12.7761 15 12.5C15 12.2239 14.7761 12 14.5 12H1.5Z" fill="black"/>
</svg>
