<svg width="16" height="16" viewBox="0 0 16 16" fill="none" xmlns="http://www.w3.org/2000/svg">
<path fill-rule="evenodd" clip-rule="evenodd" d="M4.81365 4.69316C5.0092 4.88017 5.32625 4.88017 5.5218 4.69316L8.00033 2.32285L10.4788 4.69316C10.6744 4.88017 10.9914 4.88017 11.187 4.69316C11.3825 4.50614 11.3825 4.20294 11.187 4.01593L8.3544 1.30701C8.15885 1.12 7.8418 1.12 7.64625 1.30701L4.81365 4.01593C4.6181 4.20294 4.6181 4.50614 4.81365 4.69316ZM4.81365 11.307C5.0092 11.12 5.32625 11.12 5.5218 11.307L8.00033 13.6773L10.4788 11.307C10.6744 11.12 10.9914 11.12 11.187 11.307C11.3825 11.494 11.3825 11.7972 11.187 11.9842L8.3544 14.6931C8.15885 14.8801 7.8418 14.8801 7.64625 14.6931L4.81365 11.9842C4.6181 11.7972 4.6181 11.494 4.81365 11.307Z" fill="black"/>
</svg>
