<svg width="16" height="16" viewBox="0 0 16 16" fill="none" xmlns="http://www.w3.org/2000/svg">
<path fill-rule="evenodd" clip-rule="evenodd" d="M1 1H5.5V2H2.70711L6.35359 5.64648L5.64648 6.35359L2 2.70711V5.5H1V1ZM2 2H2.00008L2 2.00008V2ZM15 15H10.5V14H13.2929L9.64641 10.3535L10.3535 9.64641L14 13.2929V10.5H15V15ZM14 14H13.9999L14 13.9999V14ZM1 10.5V15H5.5V14H2.70711L6.35359 10.3535L5.64648 9.64641L2 13.2929V10.5H1ZM2 13.9999V14H2.00008L2 13.9999ZM15 1V5.5H14V2.70711L10.3535 6.35359L9.64641 5.64648L13.2929 2L10.5 2V1H15ZM14 2V2.00008L13.9999 2H14Z" fill="black"/>
</svg>
