<svg xmlns="http://www.w3.org/2000/svg" xmlns:xlink="http://www.w3.org/1999/xlink" width="16px" height="16px" viewBox="0 0 16 16" version="1.1">
    <g stroke="none" stroke-width="1" fill="none" fill-rule="evenodd">
        <g transform="translate(-168.000000, -148.000000)" fill="#000000" fill-rule="nonzero">
            <g transform="translate(168.000000, 148.000000)">
                <path d="M0.1,6.9 L6.9,6.9 L6.9,0.1 L0.1,0.1 L0.1,6.9 Z M6.1,6.1 L3.985,6.1 C4.06222309,5.69720201 4.23583702,5.3190942 4.491,4.998 C4.96875067,5.37020823 5.51566207,5.64383389 6.1,5.803 L6.1,6.1 Z M6.1,4.972 C5.74014607,4.84954785 5.40095305,4.67320795 5.094,4.449 C5.40397131,4.24560648 5.74322684,4.09081693 6.1,3.99 L6.1,4.972 Z M6.1,0.9 L6.1,3.166 C5.5168488,3.29279805 4.96713692,3.54158273 4.487,3.896 C4.02081254,3.37511571 3.648617,2.77723432 3.387,2.129 L3.389,2.125 L3.385,2.124 C3.22133439,1.72702811 3.08925757,1.31775716 2.99,0.9 L6.1,0.9 Z M0.9,0.9 L2.166,0.9 C2.25436076,1.32470126 2.37436212,1.74219905 2.525,2.149 C2.20762864,2.76056872 1.58829674,3.15656001 0.9,3.188 L0.9,0.9 Z M0.9,3.99 C1.67262446,3.95583839 2.39754967,3.60674679 2.906,3.024 C3.16800365,3.54298249 3.50011294,4.02348104 3.893,4.452 C3.50693873,4.92555965 3.25701095,5.4952429 3.17,6.1 L0.9,6.1 L0.9,3.99 Z M9.1,0.1 L9.1,6.9 L15.9,6.9 L15.9,0.1 L9.1,0.1 Z M9.9,0.9 L13.963,0.9 C13.9669739,0.96956109 13.9513851,1.03884468 13.918,1.1 C13.8025792,1.21664996 13.6440433,1.28035388 13.48,1.276 C13.0382633,1.27410765 12.6145113,1.45082126 12.305,1.766 C12.1405836,1.96284744 12.0668698,2.21993793 12.102,2.474 C12.101,2.481 11.988,3.21 11.495,3.216 C11.2000816,3.18857232 10.9172192,3.33964207 10.776,3.6 C10.6925511,3.7896985 10.6832736,4.0037939 10.75,4.2 L9.9,4.2 L9.9,0.9 Z M15.1,6.1 L9.9,6.1 L9.9,5 L12.196,5 L11.722,4.361 C11.643591,4.25427237 11.5790734,4.13800633 11.53,4.015 C12.571,3.985 12.9,2.827 12.895,2.428 C12.8817731,2.375028 12.8919735,2.31892592 12.923,2.274 C12.954,2.237 13.089,2.112 13.547,2.074 C13.9655441,2.07411789 14.3575348,1.86896733 14.596,1.525 C14.708936,1.33664168 14.7645358,1.11945511 14.756,0.9 L15.1,0.9 L15.1,6.1 Z M0.1,15.9 L6.9,15.9 L6.9,9.1 L0.1,9.1 L0.1,15.9 Z M0.9,9.9 L6.1,9.9 L6.1,10.36 L4.1,12.333 L4.1,13.2 L0.9,13.111 L0.9,9.9 Z M0.9,13.91 L4.9,14.022 L4.9,12.667 L6.1,11.485 L6.1,15.1 L0.9,15.1 L0.9,13.91 Z M9.1,15.9 L15.9,15.9 L15.9,9.1 L9.1,9.1 L9.1,15.9 Z M15.1,15.1 L13.308,15.1 L12.038,13.528 L13.506,12.06 L15.1,13.665 L15.1,15.1 Z M15.1,9.9 L15.1,12.528 L12.49,9.9 L15.1,9.9 Z M9.9,9.9 L11.36,9.9 L12.941,11.492 L10.963,13.472 L12.279,15.1 L9.9,15.1 L9.9,9.9 Z"/>
            </g>
        </g>
    </g>
</svg>