<svg xmlns="http://www.w3.org/2000/svg" xmlns:xlink="http://www.w3.org/1999/xlink" width="15px" height="10px" viewBox="0 0 15 10" version="1.1">
    <g stroke="none" stroke-width="1" fill="none" fill-rule="evenodd">
        <g transform="translate(-588.000000, -356.000000)" fill="#000000" fill-rule="nonzero">
            <g transform="translate(588.000000, 356.000000)">
                <path d="M0,10 L15,10 L15,4 L0,4 L0,10 Z M1,5 L14,5 L14,9 L13,9 L13,6 L12,6 L12,9 L11,9 L11,7 L10,7 L10,9 L9,9 L9,6 L8,6 L8,9 L7,9 L7,7 L6,7 L6,9 L5,9 L5,6 L4,6 L4,9 L3,9 L3,7 L2,7 L2,9 L1,9 L1,5 Z M12,0 L12,1 L3,1 L3,0 L0,0 L0,3 L3,3 L3,2 L12,2 L12,3 L15,3 L15,0 L12,0 Z M2,2 L1,2 L1,1 L2,1 L2,2 Z M14,2 L13,2 L13,1 L14,1 L14,2 Z"/>
            </g>
        </g>
    </g>
</svg>