<svg width="16" height="16" viewBox="0 0 16 16" fill="none" xmlns="http://www.w3.org/2000/svg">
<path d="M1 1V15H15V1H1ZM10.082 14C10.077 13.963 9.969 13.726 9.96 13.691C10.1776 13.5583 10.3577 13.3723 10.4833 13.1506C10.609 12.9289 10.676 12.6788 10.678 12.424C10.6779 12.3027 10.6601 12.1821 10.625 12.066C10.7766 11.8899 10.8879 11.6827 10.951 11.459C10.981 11.461 11.013 11.462 11.044 11.462C11.3438 11.4641 11.6366 11.371 11.88 11.196C11.9196 11.2397 11.9616 11.2812 12.006 11.32C12.4257 11.7317 12.9827 11.9738 13.57 12H14V14H10.817H10.082ZM14 11H13.57C13.2264 10.967 12.9055 10.8136 12.664 10.567C12.4 10.337 12.406 9.785 12.047 9.785C11.565 9.785 11.527 10.462 11.044 10.462C10.825 10.462 10.664 10.285 10.445 10.285C10.252 10.285 10 10.387 10 10.578V11.08C10 11.504 9.494 11.588 9.494 12.014C9.494 12.185 9.678 12.25 9.678 12.424C9.678 13.004 8.785 12.926 8.785 13.504C8.785 13.695 9 13.809 9 13.99V14H6.375C6.4326 13.8388 6.46302 13.6692 6.465 13.498C6.465 12.951 5.422 13.105 5.258 12.778C4.851 11.965 5.951 11.756 5.951 11.105C5.951 10.945 5.869 10.617 5.617 10.592C5.266 10.557 5.174 10.746 4.82 10.746C4.71462 10.7547 4.61 10.722 4.52839 10.6547C4.44678 10.5875 4.39462 10.4911 4.383 10.386C4.383 10 4.691 9.82 4.691 9.434C4.691 9.184 4.589 9.041 4.589 8.791C4.58249 8.62763 4.64088 8.46832 4.75142 8.34785C4.86196 8.22737 5.01567 8.15553 5.179 8.148C5.502 8.148 5.643 8.412 5.797 8.688C5.85989 8.79272 5.95135 8.87732 6.06064 8.93188C6.16992 8.98643 6.29251 9.00868 6.414 8.996C6.904 8.996 7.212 8.386 7.212 8.019C7.20728 7.89685 7.25022 7.77765 7.33177 7.68659C7.41332 7.59553 7.52707 7.53973 7.649 7.531C7.996 7.531 8.125 7.891 8.473 7.891C9.043 7.891 9.023 7.135 9.526 6.861C10.144 6.529 9.964 5.809 9.886 5.421C9.854 5.252 10.176 4.921 10.35 4.934C11.07 4.984 10.762 4.394 10.762 4.111C10.7614 4.06277 10.7688 4.01478 10.784 3.969C10.895 3.637 11.379 3.531 11.379 3.133C11.379 2.852 11.146 2.723 11.146 2.44C11.1592 2.27026 11.2381 2.11238 11.366 2H14V11ZM2 14V2H10.278C10.265 2.077 10.146 2.356 10.146 2.44C10.1461 2.63448 10.1842 2.82708 10.258 3.007C10.0671 3.18383 9.92229 3.40454 9.836 3.65C9.78822 3.79252 9.76325 3.94169 9.762 4.092C9.55555 4.19677 9.37305 4.34318 9.226 4.522C9.09455 4.6684 8.99758 4.84239 8.9422 5.03119C8.88683 5.21999 8.87446 5.41879 8.906 5.613C8.93699 5.74942 8.95904 5.88771 8.972 6.027C8.70557 6.19567 8.4831 6.42533 8.323 6.697C8.11492 6.58836 7.88374 6.53142 7.649 6.531C7.33121 6.53501 7.02358 6.64354 6.77361 6.83983C6.52365 7.03611 6.34526 7.30923 6.266 7.617C6.12839 7.46654 5.96046 7.34694 5.77327 7.2661C5.58608 7.18526 5.38388 7.14501 5.18 7.148C4.75138 7.15563 4.34326 7.33283 4.04505 7.64079C3.74684 7.94875 3.58285 8.36236 3.589 8.791C3.589 9.045 3.702 9.084 3.673 9.365C3.644 9.646 3.383 9.9 3.383 10.387C3.38839 10.6788 3.48672 10.9612 3.6637 11.1932C3.84067 11.4252 4.08705 11.5947 4.367 11.677C4.23383 11.9133 4.16362 12.1799 4.16309 12.4511C4.16257 12.7224 4.23175 12.9892 4.364 13.226C4.507 13.512 5 14 4.898 14H2Z" fill="black"/>
</svg>
