<svg width="108" height="108" viewBox="0 0 108 108" fill="none" xmlns="http://www.w3.org/2000/svg">
  <g id="thumbnail/map/mobile-1" clip-path="url(#clip0_707_764)">
    <rect id="Background" width="108" height="108" fill="#181818"/>
    <rect id="Shape Copy 2" x="23" width="62" height="108" fill="#363636"/>
    <path id="Path 2" d="M76.5031 0C76.3679 0.49469 76.001 0.909796 75.5003 1.13471C73.118 2.16368 70.8441 3.42932 70.8441 4.83261C70.8441 5.77932 71.6963 6.21239 71.6963 7.16414C71.6963 8.50196 69.922 8.85446 69.5124 9.96736C69.4562 10.1205 69.4276 10.2809 69.4279 10.4424C69.4279 11.3958 70.563 13.3799 67.9181 13.2053C67.2807 13.1667 66.0924 14.2746 66.2136 14.8486C66.5001 16.1428 67.1595 18.5583 64.8911 19.6812C63.0433 20.5944 63.1205 23.1357 61.0192 23.1357C59.7445 23.1357 59.2706 21.9272 57.9977 21.9272C57.0659 21.9873 56.3545 22.7124 56.3906 23.5655C56.3906 24.7975 55.2573 26.8471 53.4609 26.8471C52.5492 26.9345 51.6649 26.5304 51.1944 25.8114C50.6268 24.8831 50.1088 23.9985 48.926 23.9985C47.6748 24.0494 46.7041 25.0152 46.7549 26.1589C46.7549 26.9981 47.1314 27.4732 47.1314 28.3158C47.1314 29.6117 46 30.2143 46 31.5118C46.0869 32.2464 46.7998 32.7831 47.6053 32.7204C48.9039 32.7204 49.2401 32.0792 50.5313 32.2C51.4552 32.2856 51.7619 33.3885 51.7619 33.929C51.7619 36.1094 47.7155 36.8111 49.2088 39.5387C49.8131 40.6365 53.6501 40.1212 53.6501 41.9576C53.6406 42.5976 53.5081 43.231 53.2589 43.8292C52.8762 44.6298 52.6571 45.4877 52.6123 46.3605C52.6123 46.4729 52.6307 46.7079 52.6601 47C52.6601 47 54.0366 49.6677 57.0183 49.6677C60 49.6677 61.4288 47 61.4288 47C61.8237 45.7344 62.9588 44.4318 62.9588 43.71V43.6126C61.1221 43 62.1709 42.6206 62.1709 41.9811C62.1709 40.0373 65.4477 40.2958 65.4477 38.3554C65.4477 37.7712 64.7717 37.5547 64.7717 36.9739C64.7717 35.5471 66.6324 35.2668 66.6324 33.8434V32.1581C66.6324 31.5118 67.5581 31.067 68.2671 31.067C69.0679 31.067 69.663 31.5588 70.4675 31.5588C72.24 31.5588 72.3778 29.0745 74.1521 29.0745C75.4745 29.0745 75.4525 30.5013 76.4205 31.2802C77.4025 31.8691 78.5956 32.0886 79.7505 31.8929H82.0649C82.4451 31.8929 83.8392 31.2802 85 30.9864V0H76.5031Z" fill="#444444"/>
    <rect id="Rectangle" x="27" y="4" width="44" height="6" fill="#6A6A6A"/>
    <rect id="Rectangle Copy" x="75" y="4" width="6" height="6" fill="#6A6A6A"/>
    <rect id="Rectangle Copy 12" x="75" y="12" width="6" height="6" fill="#6A6A6A"/>
    <rect id="Rectangle Copy 17" x="75" y="20" width="6" height="6" fill="#6A6A6A"/>
    <rect id="Rectangle Copy 18" x="75" y="28" width="6" height="6" fill="#6A6A6A"/>
    <rect id="Rectangle Copy 13" x="75" y="85" width="6" height="12" fill="#6A6A6A"/>
    <rect id="Rectangle Copy 20" x="27" y="93" width="6" height="12" fill="#6A6A6A"/>
    <rect id="Rectangle Copy 14" x="75" y="99" width="6" height="6" fill="#6A6A6A"/>
    <rect id="Rectangle Copy 19" x="27" y="15" width="6" height="6" rx="3" fill="#6A6A6A"/>
    <rect id="Rectangle Copy 15" x="75" y="36" width="6" height="11" fill="#6A6A6A"/>
  </g>
  <defs>
    <clipPath id="clip0_707_764">
      <rect width="108" height="108" fill="white"/>
    </clipPath>
  </defs>
</svg>