<svg xmlns="http://www.w3.org/2000/svg" xmlns:xlink="http://www.w3.org/1999/xlink" width="17px" height="16px" viewBox="0 0 17 16" version="1.1">
    <g stroke="none" stroke-width="1" fill="none" fill-rule="evenodd">
        <g transform="translate(-329.000000, -511.000000)">
            <g transform="translate(146.000000, 450.000000)">
                <g transform="translate(183.500000, 61.000000)">
                    <rect fill="#000000" opacity="0" x="0" y="0" width="16" height="16"/>
                    <path d="M0.25,3 L8.89209968,7.96855573 L5.46963405,8.70733803 L8.19337567,14.1570477 L5.30662433,15.8237144 L2.5828827,10.3740047 L0.231845639,12.9685557 L0.25,3 Z M1.246,4.72619053 L1.236,10.3701905 L2.76299949,8.68597613 L5.672,14.4571905 L6.827,13.7901905 L3.91770003,8.01930946 L6.139,7.53919053 L1.246,4.72619053 Z" fill="#363636" fill-rule="nonzero"/>
                    <path d="M8.22101213,0 C10.0410343,0 11.0864186,1.5557816 11.0864186,4.35090822 C11.0864186,4.8123365 11.2056837,5.0104691 11.4712917,5.12366822 C11.6898082,5.21679748 11.9441104,5.24978168 12.461001,5.25525295 L13.0121616,5.25526495 L13.4088213,5.26358427 C14.660206,5.31341161 15.2158612,5.59998425 15.4481726,6.59677728 C15.8582354,8.35625934 13.829843,9.71114206 9.54501836,10.9103476 L9.21942855,11 L8.97428939,10.0009816 L9.6148911,9.82133207 C13.1304232,8.8002775 14.7019404,7.73195805 14.4945732,6.84219477 C14.3997219,6.43521047 14.1124487,6.30671874 13.1899049,6.28895265 L12.4034615,6.28659143 C11.7839182,6.27879219 11.4600701,6.23220304 11.1023034,6.07972695 C10.4554809,5.80405851 10.1046372,5.22120925 10.1046372,4.35090822 C10.1046372,2.06405835 9.41095673,1.03169605 8.22101213,1.03169605 C7.49003356,1.03169605 6.54177419,1.58260901 5.40632488,2.71681686 L5.19124185,2.93632423 L4.5,2.20368431 C5.89765646,0.747508408 7.12596288,0 8.22101213,0 Z" fill="#363636" fill-rule="nonzero"/>
                </g>
            </g>
        </g>
    </g>
</svg>