<svg width="16" height="16" viewBox="0 0 16 16" fill="none" xmlns="http://www.w3.org/2000/svg">
<path fill-rule="evenodd" clip-rule="evenodd" d="M16 8C16 12.4183 12.4183 16 8 16C3.58172 16 0 12.4183 0 8C0 3.58172 3.58172 0 8 0C12.4183 0 16 3.58172 16 8ZM10.2629 4.60584C10.5754 4.29342 11.0819 4.29342 11.3943 4.60584C11.7067 4.91826 11.7067 5.42479 11.3943 5.73721L9.13157 7.99995L11.3943 10.2627C11.7067 10.5751 11.7067 11.0816 11.3943 11.3941C11.0819 11.7065 10.5754 11.7065 10.2629 11.3941L8.0002 9.13132L5.73745 11.3941C5.42503 11.7065 4.9185 11.7065 4.60608 11.3941C4.29366 11.0816 4.29366 10.5751 4.60608 10.2627L6.86882 7.99995L4.60608 5.73721C4.29366 5.42479 4.29366 4.91826 4.60608 4.60584C4.9185 4.29342 5.42503 4.29342 5.73745 4.60584L8.0002 6.86858L10.2629 4.60584Z" fill="black"/>
</svg>
