<svg width="16" height="16" viewBox="0 0 16 16" fill="none" xmlns="http://www.w3.org/2000/svg">
<path fill-rule="evenodd" clip-rule="evenodd" d="M15 1H1V15H15V1ZM10.2632 4.6059C10.5757 4.29348 11.0822 4.29348 11.3946 4.6059C11.707 4.91832 11.707 5.42485 11.3946 5.73727L9.13187 8.00001L11.3946 10.2628C11.707 10.5752 11.707 11.0817 11.3946 11.3941C11.0822 11.7065 10.5757 11.7065 10.2632 11.3941L8.0005 9.13138L5.73776 11.3941C5.42534 11.7065 4.9188 11.7065 4.60638 11.3941C4.29397 11.0817 4.29397 10.5752 4.60638 10.2628L6.86913 8.00001L4.60638 5.73727C4.29397 5.42485 4.29397 4.91832 4.60638 4.6059C4.9188 4.29348 5.42534 4.29348 5.73776 4.6059L8.0005 6.86864L10.2632 4.6059Z" fill="black"/>
</svg>
