<svg width="16" height="16" viewBox="0 0 16 16" fill="none" xmlns="http://www.w3.org/2000/svg">
<path fill-rule="evenodd" clip-rule="evenodd" d="M13.7085 14.9941C13.056 14.9423 12.7297 14.5537 12.7297 13.8281C12.7297 13.0468 13.1081 12.2655 13.8648 11.4842C14.6216 12.2655 15 13.0468 15 13.8281C15 14.6095 14.6216 15.0001 13.8648 15.0001L13.7085 14.9941ZM12.1045 5.87642C12.6532 6.19831 12.8307 6.89352 12.501 7.42923L8.89799 13.2845C8.56833 13.8202 7.85635 13.9935 7.30771 13.6716L1.5622 10.3007C1.01357 9.97882 0.836055 9.2836 1.16571 8.74789L4.76605 2.89707L3.33193 2.05567C3.05637 1.89399 2.9672 1.5448 3.13278 1.27573C3.29836 1.00666 3.65597 0.919594 3.93154 1.08127L12.1045 5.87642ZM5.73283 3.46416L2.96449 7.9609L11.532 6.86659L5.73283 3.46416Z" fill="black"/>
</svg>
