<svg width="16" height="16" viewBox="0 0 16 16" fill="none" xmlns="http://www.w3.org/2000/svg">
<path fill-rule="evenodd" clip-rule="evenodd" d="M9.79502 1.28155C10.1819 0.894633 10.8228 0.908183 11.2265 1.31182L12.6882 2.77352C13.0918 3.17715 13.1054 3.81803 12.7184 4.20495L5.41313 11.5102L2.73914 11.9905C2.41164 12.0493 2.08718 11.8293 2.01445 11.499C1.99706 11.42 1.99535 11.3391 2.00941 11.2608L2.4897 8.58681L9.79502 1.28155ZM2 13C1.44772 13 1 13.4477 1 14C1 14.5523 1.44772 15 2 15H14C14.5523 15 15 14.5523 15 14C15 13.4477 14.5523 13 14 13H2Z" fill="black"/>
</svg>
