<svg width="16" height="16" viewBox="0 0 16 16" fill="none" xmlns="http://www.w3.org/2000/svg">
<path fill-rule="evenodd" clip-rule="evenodd" d="M9.5 8C7.567 8 6 6.433 6 4.5C6 2.567 7.567 1 9.5 1C11.433 1 13 2.567 13 4.5C13 6.433 11.433 8 9.5 8ZM10.3125 9C13.4536 9 16 11.6863 16 15H3C3 11.6863 5.54638 9 8.6875 9H10.3125ZM2.25 5.25C2.25 4.83579 2.58579 4.5 3 4.5C3.41421 4.5 3.75 4.83579 3.75 5.25V6.75H5.25C5.66421 6.75 6 7.08579 6 7.5C6 7.91421 5.66421 8.25 5.25 8.25H3.75V9.75C3.75 10.1642 3.41421 10.5 3 10.5C2.58579 10.5 2.25 10.1642 2.25 9.75V8.25H0.75C0.335786 8.25 0 7.91421 0 7.5C0 7.08579 0.335786 6.75 0.75 6.75H2.25V5.25Z" fill="black"/>
</svg>
