<svg width="16" height="16" viewBox="0 0 16 16" fill="none" xmlns="http://www.w3.org/2000/svg">
<path fill-rule="evenodd" clip-rule="evenodd" d="M16 8C16 12.4183 12.4183 16 8 16C3.58172 16 0 12.4183 0 8C0 3.58172 3.58172 0 8 0C12.4183 0 16 3.58172 16 8ZM7.2 4C7.2 3.55817 7.55817 3.2 8 3.2C8.44183 3.2 8.8 3.55817 8.8 4V7.2H12C12.4418 7.2 12.8 7.55817 12.8 8C12.8 8.44183 12.4418 8.8 12 8.8H8.8V12C8.8 12.4418 8.44183 12.8 8 12.8C7.55817 12.8 7.2 12.4418 7.2 12V8.8H4C3.55817 8.8 3.2 8.44183 3.2 8C3.2 7.55817 3.55817 7.2 4 7.2H7.2V4Z" fill="black"/>
</svg>
