<svg width="16" height="16" viewBox="0 0 16 16" fill="none" xmlns="http://www.w3.org/2000/svg">
<path d="M10.9778 1.87585C9.40683 0.304907 7.52114 -0.279337 5.32069 0.123113C4.88364 0.203061 4.59413 0.622167 4.67407 1.05923C4.70346 1.21991 4.78107 1.36784 4.89657 1.48335L8.13342 4.7202C8.4476 5.03438 8.4476 5.54376 8.13342 5.85794L5.85794 8.13342C5.54376 8.4476 5.03438 8.4476 4.7202 8.13342L1.48337 4.89658C1.16919 4.5824 0.659798 4.5824 0.345617 4.89658C0.230107 5.01209 0.152498 5.16003 0.123109 5.32072C-0.279333 7.52115 0.304912 9.40684 1.87584 10.9778C3.78576 12.8877 6.5974 13.3463 8.94035 12.3536L12.1155 15.5287C12.7439 16.1571 13.7626 16.1571 14.391 15.5287L15.5287 14.391C16.1571 13.7626 16.1571 12.7439 15.5287 12.1155L12.3536 8.94035C13.3463 6.5974 12.8877 3.78576 10.9778 1.87585Z" fill="black"/>
</svg>
