<svg width="16" height="16" viewBox="0 0 16 16" fill="none" xmlns="http://www.w3.org/2000/svg">
<path fill-rule="evenodd" clip-rule="evenodd" d="M1 3C1 1.89543 1.89543 1 3 1H11.0858C11.351 1 11.6054 1.10536 11.7929 1.29289L14.7071 4.20711C14.8946 4.39464 15 4.649 15 4.91421V13C15 14.1046 14.1046 15 13 15H3C1.89543 15 1 14.1046 1 13V3ZM2.75 3.75C2.75 3.19772 3.19772 2.75 3.75 2.75H9.625C10.1773 2.75 10.625 3.19772 10.625 3.75V5.25C10.625 5.80228 10.1773 6.25 9.625 6.25H3.75C3.19772 6.25 2.75 5.80228 2.75 5.25V3.75ZM10.625 10.625C10.625 12.0747 9.44975 13.25 8 13.25C6.55025 13.25 5.375 12.0747 5.375 10.625C5.375 9.17525 6.55025 8 8 8C9.44975 8 10.625 9.17525 10.625 10.625Z" fill="black"/>
</svg>
