<svg width="16" height="16" viewBox="0 0 16 16" fill="none" xmlns="http://www.w3.org/2000/svg">
<g clip-path="url(#clip0)">
<path fill-rule="evenodd" clip-rule="evenodd" d="M11.9998 3.20005V2.40005C11.9998 1.9757 11.8312 1.56874 11.5312 1.26868C11.2311 0.96862 10.8242 0.800049 10.3998 0.800049H5.5998C5.17546 0.800049 4.76849 0.96862 4.46843 1.26868C4.16838 1.56874 3.9998 1.9757 3.9998 2.40005V3.20005H1.5998C1.38763 3.20005 1.18415 3.28433 1.03412 3.43436C0.88409 3.58439 0.799805 3.78788 0.799805 4.00005C0.799805 4.21222 0.88409 4.4157 1.03412 4.56573C1.18415 4.71576 1.38763 4.80005 1.5998 4.80005H2.3998V13.6C2.3998 14.2366 2.65266 14.847 3.10275 15.2971C3.55284 15.7472 4.16329 16 4.7998 16H11.1998C11.8363 16 12.4468 15.7472 12.8969 15.2971C13.3469 14.847 13.5998 14.2366 13.5998 13.6V4.80005H14.3998C14.612 4.80005 14.8155 4.71576 14.9655 4.56573C15.1155 4.4157 15.1998 4.21222 15.1998 4.00005C15.1998 3.78788 15.1155 3.58439 14.9655 3.43436C14.8155 3.28433 14.612 3.20005 14.3998 3.20005H11.9998ZM10.3998 2.40005H5.5998V3.20005H10.3998V2.40005ZM11.9998 4.80005H3.9998V13.6C3.9998 13.8122 4.08409 14.0157 4.23412 14.1657C4.38415 14.3158 4.58763 14.4 4.7998 14.4H11.1998C11.412 14.4 11.6155 14.3158 11.7655 14.1657C11.9155 14.0157 11.9998 13.8122 11.9998 13.6V4.80005ZM5.59961 6.40002H7.19961V12.8H5.59961V6.40002ZM10.3998 6.40002H8.7998V12.8H10.3998V6.40002Z" fill="black"/>
</g>
<defs>
<clipPath id="clip0">
<rect width="16" height="16" fill="white"/>
</clipPath>
</defs>
</svg>
