<svg xmlns="http://www.w3.org/2000/svg" xmlns:xlink="http://www.w3.org/1999/xlink" width="16px" height="16px" viewBox="0 0 16 16" version="1.1">
    <g stroke="none" stroke-width="1" fill="none" fill-rule="evenodd">
        <g transform="translate(-187.000000, -583.000000)">
            <g transform="translate(146.000000, 450.000000)">
                <g transform="translate(41.000000, 133.000000)">
                    <rect fill="#000000" opacity="0" x="0" y="0" width="16" height="16"/>
                    <path d="M0.25,3 L8.89209968,7.96855573 L5.46963405,8.70733803 L8.19337567,14.1570477 L5.30662433,15.8237144 L2.5828827,10.3740047 L0.231845639,12.9685557 L0.25,3 Z M1.246,4.72619053 L1.236,10.3701905 L2.76299949,8.68597613 L5.672,14.4571905 L6.827,13.7901905 L3.91770003,8.01930946 L6.139,7.53919053 L1.246,4.72619053 Z" fill="#363636" fill-rule="nonzero"/>
                    <path d="M10.318176,0 C13.4561608,0 16,2.46243388 16,5.5 C16,8.53756612 13.4561608,11 10.318176,11 C9.23274013,11 8.19201305,10.7043016 7.29525013,10.1577747 L7.07411609,10.0159433 L7.61537488,9.26376858 C8.40256774,9.79455184 9.33740851,10.0833333 10.318176,10.0833333 C12.9331633,10.0833333 15.0530293,8.0313051 15.0530293,5.5 C15.0530293,2.9686949 12.9331633,0.916666667 10.318176,0.916666667 C8.4016853,0.916666667 6.70128648,2.02906019 5.96401049,3.69599405 L5.88609236,3.88346264 L5,3.56009625 C5.82746967,1.43545301 7.93337142,0 10.318176,0 Z" fill="#363636" fill-rule="nonzero"/>
                </g>
            </g>
        </g>
    </g>
</svg>