<svg width="16" height="16" viewBox="0 0 16 16" fill="none" xmlns="http://www.w3.org/2000/svg">
<path d="M2.335 14L5.53 8L9.18 11.245C9.29429 11.3465 9.43034 11.4205 9.5777 11.4613C9.72505 11.502 9.87978 11.5084 10.03 11.48C10.1816 11.4516 10.3246 11.3885 10.4477 11.2957C10.5709 11.2029 10.6709 11.0829 10.74 10.945L13.5 5.45L12.59 5L9.845 10.5L6.195 7.255C6.0836 7.1514 5.95004 7.07459 5.80448 7.0304C5.65891 6.98621 5.50519 6.97581 5.355 7C5.20668 7.02461 5.06582 7.08234 4.94289 7.16891C4.81997 7.25548 4.71815 7.36865 4.645 7.5L2 12.5V1H1V14C1 14.2652 1.10536 14.5196 1.29289 14.7071C1.48043 14.8946 1.73478 15 2 15H15V14H2.335Z" fill="black"/>
</svg>
