<svg width="16" height="16" viewBox="0 0 16 16" fill="none" xmlns="http://www.w3.org/2000/svg">
<path fill-rule="evenodd" clip-rule="evenodd" d="M15 3.5V12.5C15 14.433 11.866 16 8 16C4.13401 16 1 14.433 1 12.5V3.5C1 1.567 4.13401 0 8 0C11.866 0 15 1.567 15 3.5ZM2 5.30379V6.5C2 7.69228 4.61543 9 8 9C11.3846 9 14 7.69228 14 6.5V5.30379C12.7751 6.32021 10.5463 7 8 7C5.45367 7 3.2249 6.32021 2 5.30379ZM8 10C10.5463 10 12.7751 9.32021 14 8.30379V9.5C14 10.6923 11.3846 12 8 12C4.61543 12 2 10.6923 2 9.5V8.30379C3.2249 9.32021 5.45367 10 8 10ZM14 11.3038C12.7751 12.3202 10.5463 13 8 13C5.45367 13 3.2249 12.3202 2 11.3038V12.5C2 13.6923 4.61543 15 8 15C11.3846 15 14 13.6923 14 12.5V11.3038ZM14 3.5C14 4.69228 11.3846 6 8 6C4.61543 6 2 4.69228 2 3.5C2 2.30772 4.61543 1 8 1C11.3846 1 14 2.30772 14 3.5Z" fill="black"/>
</svg>
