<svg width="16" height="16" viewBox="0 0 16 16" fill="none" xmlns="http://www.w3.org/2000/svg">
<path fill-rule="evenodd" clip-rule="evenodd" d="M5.5 1C5.22386 1 5 1.22386 5 1.5V2H2C1.44772 2 1 2.44772 1 3V14C1 14.5523 1.44772 15 2 15H14C14.5523 15 15 14.5523 15 14V3C15 2.44772 14.5523 2 14 2H11V1.5C11 1.22386 10.7761 1 10.5 1C10.2239 1 10 1.22386 10 1.5V2H6V1.5C6 1.22386 5.77614 1 5.5 1ZM10 3.5V3H6V3.5C6 3.77614 5.77614 4 5.5 4C5.22386 4 5 3.77614 5 3.5V3H2V5H14V3H11V3.5C11 3.77614 10.7761 4 10.5 4C10.2239 4 10 3.77614 10 3.5ZM14 6H2V14H14V6ZM5 8.5C5 8.22386 5.22386 8 5.5 8H10.5C10.7761 8 11 8.22386 11 8.5C11 8.77614 10.7761 9 10.5 9H5.5C5.22386 9 5 8.77614 5 8.5ZM5.5 11C5.22386 11 5 11.2239 5 11.5C5 11.7761 5.22386 12 5.5 12H10.5C10.7761 12 11 11.7761 11 11.5C11 11.2239 10.7761 11 10.5 11H5.5Z" fill="black"/>
</svg>
