<svg width="16" height="16" viewBox="0 0 16 16" fill="none" xmlns="http://www.w3.org/2000/svg">
<path fill-rule="evenodd" clip-rule="evenodd" d="M15 2C15 0.89543 14.1046 0 13 0H4C2.89543 0 2 0.89543 2 2V4H1.5C1.22386 4 1 4.22386 1 4.5C1 4.77614 1.22386 5 1.5 5H2V8H1.5C1.22386 8 1 8.22386 1 8.5C1 8.77614 1.22386 9 1.5 9H2V12H1.5C1.22386 12 1 12.2239 1 12.5C1 12.7761 1.22386 13 1.5 13H2V14C2 15.1046 2.89543 16 4 16H13C14.1046 16 15 15.1046 15 14V2ZM3 13V14C3 14.5128 3.38604 14.9355 3.88338 14.9933L4 15H11V1H4C3.48716 1 3.06449 1.38604 3.00673 1.88338L3 2V4H3.5C3.77614 4 4 4.22386 4 4.5C4 4.77614 3.77614 5 3.5 5H3V8H3.5C3.77614 8 4 8.22386 4 8.5C4 8.77614 3.77614 9 3.5 9H3V12H3.5C3.77614 12 4 12.2239 4 12.5C4 12.7761 3.77614 13 3.5 13H3ZM13 15H12V1H13L13.1166 1.00673C13.614 1.06449 14 1.48716 14 2V14L13.9933 14.1166C13.9355 14.614 13.5128 15 13 15Z" fill="black"/>
</svg>
