<svg width="16" height="16" viewBox="0 0 16 16" fill="none" xmlns="http://www.w3.org/2000/svg">
<path fill-rule="evenodd" clip-rule="evenodd" d="M12.3685 10.7218C13.449 9.95001 14 8.97394 14 8C14 7.02606 13.449 6.04999 12.3685 5.2782C11.2899 4.50778 9.7486 4 8 4C6.2514 4 4.71008 4.50778 3.63149 5.2782C2.55098 6.04999 2 7.02606 2 8C2 8.97394 2.55098 9.95001 3.63149 10.7218C4.71008 11.4922 6.2514 12 8 12C9.7486 12 11.2899 11.4922 12.3685 10.7218ZM8 13C11.866 13 15 10.7614 15 8C15 5.23858 11.866 3 8 3C4.13401 3 1 5.23858 1 8C1 10.7614 4.13401 13 8 13Z" fill="black"/>
</svg>
