<svg width="16" height="16" viewBox="0 0 16 16" fill="none" xmlns="http://www.w3.org/2000/svg">
<path d="M4.61605 8.50325C4.61605 8.22757 4.53149 8.02471 4.36237 7.89467C4.19325 7.75943 3.96864 7.69181 3.68854 7.69181C3.47714 7.69181 3.27631 7.73342 3.08606 7.81665C2.90108 7.89467 2.74518 7.9961 2.61834 8.12094L2.22197 7.6528C2.40694 7.48114 2.63155 7.3459 2.8958 7.24707C3.16533 7.14824 3.45336 7.09883 3.75989 7.09883C4.02942 7.09883 4.26196 7.13784 4.4575 7.21586C4.65833 7.28869 4.82216 7.39012 4.949 7.52016C5.07584 7.65019 5.17097 7.80364 5.23439 7.98049C5.2978 8.15735 5.32951 8.3472 5.32951 8.55007V10.1651C5.32951 10.29 5.33216 10.4226 5.33744 10.5631C5.34801 10.6983 5.36387 10.8101 5.38501 10.8986H4.71118C4.6689 10.7217 4.64776 10.5449 4.64776 10.368H4.62397C4.48657 10.5657 4.31216 10.7191 4.10076 10.8283C3.89465 10.9376 3.6489 10.9922 3.36352 10.9922C3.21554 10.9922 3.05963 10.9714 2.8958 10.9298C2.73725 10.8934 2.59191 10.8309 2.45979 10.7425C2.32767 10.6541 2.21668 10.5371 2.12684 10.3914C2.04228 10.2458 2 10.0663 2 9.85306C2 9.57217 2.07663 9.35111 2.2299 9.18986C2.38316 9.02341 2.58399 8.89857 2.83238 8.81534C3.08077 8.72692 3.36087 8.6697 3.67268 8.64369C3.9845 8.61769 4.29895 8.60468 4.61605 8.60468V8.50325ZM4.43372 9.13524C4.24874 9.13524 4.05584 9.14304 3.85502 9.15865C3.65947 9.17425 3.47978 9.20546 3.31595 9.25228C3.1574 9.29909 3.02528 9.36931 2.91958 9.46294C2.81388 9.55657 2.76103 9.6814 2.76103 9.83745C2.76103 9.94668 2.78217 10.0377 2.82445 10.1105C2.87202 10.1834 2.93279 10.2432 3.00678 10.29C3.08077 10.3368 3.16269 10.3706 3.25253 10.3914C3.34238 10.407 3.43486 10.4148 3.52999 10.4148C3.8788 10.4148 4.14569 10.3134 4.33066 10.1105C4.52092 9.90247 4.61605 9.64239 4.61605 9.3303V9.13524H4.43372Z" fill="black"/>
<path d="M6.91494 10.3134V10.8986H6.19354V5H6.93872V7.75423H6.9625C7.08934 7.57217 7.26638 7.41873 7.49364 7.29389C7.72089 7.16385 7.99042 7.09883 8.30223 7.09883C8.58233 7.09883 8.83601 7.14824 9.06326 7.24707C9.2958 7.3459 9.49399 7.48375 9.65782 7.6606C9.82694 7.83745 9.95642 8.04551 10.0463 8.28479C10.1361 8.51886 10.181 8.77113 10.181 9.04161C10.181 9.31209 10.1361 9.56697 10.0463 9.80624C9.95642 10.0455 9.82958 10.2536 9.66575 10.4304C9.50191 10.6073 9.30373 10.7477 9.07119 10.8518C8.83865 10.9506 8.57705 11 8.28638 11C8.01685 11 7.76053 10.9428 7.51742 10.8283C7.27431 10.7087 7.07877 10.5371 6.93079 10.3134H6.91494ZM9.41207 9.04161C9.41207 8.86996 9.38565 8.70351 9.3328 8.54226C9.27995 8.38101 9.20067 8.23797 9.09497 8.11313C8.98928 7.9883 8.85715 7.88947 8.6986 7.81665C8.54534 7.74382 8.36565 7.70741 8.15954 7.70741C7.96928 7.70741 7.79488 7.74382 7.63633 7.81665C7.48307 7.88947 7.35094 7.9883 7.23996 8.11313C7.12898 8.23797 7.04177 8.38101 6.97835 8.54226C6.92022 8.70351 6.89115 8.87256 6.89115 9.04942C6.89115 9.22627 6.92022 9.39532 6.97835 9.55657C7.04177 9.71782 7.12898 9.86086 7.23996 9.9857C7.35094 10.1053 7.48307 10.2016 7.63633 10.2744C7.79488 10.3472 7.96928 10.3836 8.15954 10.3836C8.36565 10.3836 8.54534 10.3472 8.6986 10.2744C8.85715 10.1964 8.98928 10.0949 9.09497 9.97009C9.20067 9.84525 9.27995 9.70221 9.3328 9.54096C9.38565 9.37971 9.41207 9.21326 9.41207 9.04161Z" fill="black"/>
<path d="M13.453 8.13654C13.3737 8.01691 13.2548 7.91808 13.0963 7.84005C12.9377 7.75683 12.7686 7.71521 12.5889 7.71521C12.3934 7.71521 12.219 7.75163 12.0657 7.82445C11.9177 7.89727 11.7909 7.9961 11.6852 8.12094C11.5795 8.24057 11.4976 8.38101 11.4394 8.54226C11.3866 8.70351 11.3602 8.87256 11.3602 9.04942C11.3602 9.22627 11.3866 9.39532 11.4394 9.55657C11.4976 9.71782 11.5795 9.86086 11.6852 9.9857C11.7909 10.1053 11.9204 10.2016 12.0736 10.2744C12.2269 10.3472 12.4013 10.3836 12.5968 10.3836C12.7871 10.3836 12.9589 10.3472 13.1121 10.2744C13.2707 10.2016 13.4002 10.1027 13.5006 9.97789L14 10.4226C13.8415 10.6047 13.6433 10.7477 13.4054 10.8518C13.1676 10.9506 12.8981 11 12.5968 11C12.3062 11 12.0366 10.9532 11.7883 10.8596C11.5451 10.7659 11.3337 10.6359 11.1541 10.4694C10.9744 10.2978 10.8317 10.0923 10.726 9.85306C10.6256 9.61378 10.5754 9.3459 10.5754 9.04942C10.5754 8.75813 10.6256 8.49285 10.726 8.25358C10.8264 8.0143 10.9664 7.80884 11.1461 7.63719C11.3258 7.46554 11.5372 7.3329 11.7803 7.23927C12.0287 7.14564 12.2956 7.09883 12.581 7.09883C12.8452 7.09883 13.1068 7.15085 13.3658 7.25488C13.6301 7.35891 13.8388 7.50975 13.9921 7.70741L13.453 8.13654Z" fill="black"/>
</svg>
