<svg width="16" height="16" viewBox="0 0 16 16" fill="none" xmlns="http://www.w3.org/2000/svg">
<path fill-rule="evenodd" clip-rule="evenodd" d="M8 14.4614C6.8696 14.4614 5.79395 14.2642 4.81904 13.9084C4.35933 13.7406 3.05891 14.1045 0.91779 15C1.46225 12.9818 1.58522 11.7795 1.28672 11.3929C0.47279 10.3389 0 9.08128 0 7.73072C0 4.01345 3.58172 1 8 1C12.4183 1 16 4.01345 16 7.73072C16 11.448 12.4183 14.4614 8 14.4614ZM5.1619 12.969C6.04704 13.292 7.00806 13.4614 8 13.4614C11.9006 13.4614 15 10.8538 15 7.73072C15 4.60768 11.9006 2 8 2C4.09944 2 1 4.60768 1 7.73072C1 8.82255 1.37501 9.87114 2.07819 10.7817C2.48699 11.3111 2.54337 12.1233 2.32079 13.3781C3.68975 12.8957 4.57224 12.7538 5.1619 12.969ZM5 8C5 8.55228 4.55228 9 4 9C3.44772 9 3 8.55228 3 8C3 7.44772 3.44772 7 4 7C4.55228 7 5 7.44772 5 8ZM9 8C9 8.55228 8.55228 9 8 9C7.44772 9 7 8.55228 7 8C7 7.44772 7.44772 7 8 7C8.55228 7 9 7.44772 9 8ZM12 9C12.5523 9 13 8.55228 13 8C13 7.44772 12.5523 7 12 7C11.4477 7 11 7.44772 11 8C11 8.55228 11.4477 9 12 9Z" fill="black"/>
</svg>
