<svg width="16" height="16" viewBox="0 0 16 16" fill="none" xmlns="http://www.w3.org/2000/svg">
<path fill-rule="evenodd" clip-rule="evenodd" d="M5.63469 9.86066L7.80289 7.68033L8 7.47131C8.06833 7.39754 8.13009 7.31967 8.18528 7.2377C8.24047 7.15574 8.28647 7.06967 8.32326 6.97951C8.36005 6.88934 8.37845 6.79508 8.37845 6.69672C8.37845 6.5765 8.35611 6.46995 8.31143 6.37705C8.26675 6.28415 8.20762 6.20492 8.13403 6.13934C8.06045 6.07377 7.97503 6.02322 7.87779 5.9877C7.78055 5.95219 7.67674 5.93443 7.56636 5.93443C7.32983 5.93443 7.13535 6.00546 6.98292 6.14754C6.83049 6.28962 6.7385 6.48087 6.70696 6.72131L5.71353 6.63934C5.73456 6.37158 5.79632 6.13525 5.89882 5.93033C6.00131 5.72541 6.13403 5.55465 6.29698 5.41803C6.45992 5.28142 6.64914 5.1776 6.86465 5.10656C7.08016 5.03552 7.31406 5 7.56636 5C7.81866 5 8.05388 5.03415 8.27201 5.10246C8.49015 5.17077 8.68068 5.27186 8.84363 5.40574C9.00657 5.53962 9.13535 5.71038 9.22996 5.91803C9.32457 6.12568 9.37188 6.36885 9.37188 6.64754C9.37188 7.01366 9.29172 7.32923 9.13141 7.59426C8.97109 7.85929 8.76478 8.11202 8.51248 8.35246L6.78581 10.0164H9.37188V10.9016H5.63469V9.86066ZM3.60053 6.22951L2.55191 7.2377L2 6.55738L3.68725 5.09836H4.54665V10.9016H3.60053V6.22951ZM11.8318 7.43443H11.5874V8.31967H11.816C11.958 8.31967 12.1025 8.3306 12.2497 8.35246C12.3968 8.37432 12.5296 8.41667 12.6478 8.47951C12.7661 8.54235 12.8633 8.63251 12.9396 8.75C13.0158 8.86749 13.0539 9.01912 13.0539 9.20492C13.0539 9.34153 13.0289 9.46585 12.979 9.57787C12.929 9.68989 12.8607 9.78552 12.774 9.86475C12.6873 9.94399 12.5874 10.0055 12.4744 10.0492C12.3614 10.0929 12.2418 10.1148 12.1156 10.1148C11.8633 10.1148 11.6636 10.0492 11.5164 9.91803C11.3693 9.78688 11.2668 9.60109 11.2089 9.36066L10.1997 9.63934C10.2628 9.87978 10.3548 10.0861 10.4757 10.2582C10.5966 10.4303 10.7398 10.571 10.9054 10.6803C11.071 10.7896 11.2562 10.8702 11.4612 10.9221C11.6662 10.974 11.8844 11 12.1156 11C12.3627 11 12.6005 10.9631 12.8292 10.8893C13.0578 10.8156 13.2589 10.7063 13.4323 10.5615C13.6058 10.4167 13.7438 10.2377 13.8463 10.0246C13.9488 9.81147 14 9.56558 14 9.28689C14 8.92623 13.908 8.61476 13.724 8.35246C13.5401 8.09016 13.2694 7.93169 12.912 7.87705V7.86066C13.2116 7.78415 13.4455 7.62432 13.6137 7.38115C13.7819 7.13798 13.866 6.86066 13.866 6.54918C13.866 6.29235 13.8173 6.06694 13.7201 5.87295C13.6229 5.67896 13.4928 5.51776 13.3298 5.38934C13.1669 5.26093 12.9777 5.16393 12.7622 5.09836C12.5466 5.03279 12.318 5 12.0762 5C11.8712 5 11.6741 5.02459 11.4849 5.07377C11.2957 5.12295 11.1222 5.19809 10.9645 5.29918C10.8068 5.40027 10.6702 5.53005 10.5545 5.68852C10.4389 5.847 10.3495 6.03279 10.2865 6.2459L11.2878 6.52459C11.3561 6.3224 11.4652 6.1653 11.615 6.05328C11.7648 5.94126 11.9343 5.88525 12.1235 5.88525C12.3601 5.88525 12.5519 5.95628 12.6991 6.09836C12.8463 6.24044 12.9198 6.4235 12.9198 6.64754C12.9198 6.82241 12.8883 6.96175 12.8252 7.06557C12.7622 7.1694 12.6794 7.24863 12.5769 7.30328C12.4744 7.35792 12.3587 7.39344 12.23 7.40984C12.1012 7.42623 11.9685 7.43443 11.8318 7.43443Z" fill="black"/>
</svg>
