<svg width="16" height="16" viewBox="0 0 16 16" fill="none" xmlns="http://www.w3.org/2000/svg">
<path fill-rule="evenodd" clip-rule="evenodd" d="M13 1H3C2.44772 1 2 1.44772 2 2V14C2 14.5523 2.44772 15 3 15H13C13.5523 15 14 14.5523 14 14V2C14 1.44772 13.5523 1 13 1ZM3 14V2H13V14H3ZM5.6 4H10.4C10.7314 4 11 4.22386 11 4.5C11 4.77614 10.7314 5 10.4 5H5.6C5.26863 5 5 4.77614 5 4.5C5 4.22386 5.26863 4 5.6 4ZM10.4 7H5.6C5.26863 7 5 7.22386 5 7.5C5 7.77614 5.26863 8 5.6 8H10.4C10.7314 8 11 7.77614 11 7.5C11 7.22386 10.7314 7 10.4 7Z" fill="black"/>
</svg>
