<svg width="16" height="16" viewBox="0 0 16 16" fill="none" xmlns="http://www.w3.org/2000/svg">
<path fill-rule="evenodd" clip-rule="evenodd" d="M12.8902 6.03226C13.0327 6.10753 13.1801 6.25806 13.3324 6.48387L13.9063 5.90323C13.6994 5.57527 13.4758 5.34274 13.2357 5.20565C12.9956 5.06855 12.735 5 12.4539 5C12.1337 5 11.8399 5.07124 11.5725 5.21371C11.305 5.35618 11.0747 5.55914 10.8814 5.82258C10.6881 6.08602 10.5368 6.40457 10.4275 6.77823C10.3182 7.15188 10.2635 7.5672 10.2635 8.02419C10.2635 8.47043 10.3182 8.87634 10.4275 9.24194C10.5368 9.60753 10.6881 9.9207 10.8814 10.1815C11.0747 10.4422 11.305 10.6438 11.5725 10.7863C11.8399 10.9288 12.1337 11 12.4539 11C12.7584 11 13.0454 10.9194 13.3148 10.7581C13.5842 10.5968 13.8126 10.3387 14 9.98387L13.3909 9.3871C13.2543 9.62903 13.1069 9.80511 12.9488 9.91532C12.7906 10.0255 12.6276 10.0806 12.4597 10.0806C12.245 10.0806 12.0508 10.0269 11.877 9.91935C11.7033 9.81183 11.5539 9.66398 11.429 9.47581C11.3041 9.28763 11.2074 9.06452 11.1391 8.80645C11.0708 8.54839 11.0366 8.26613 11.0366 7.95968C11.0366 7.67473 11.0708 7.4086 11.1391 7.16129C11.2074 6.91398 11.3041 6.69758 11.429 6.5121C11.5539 6.32661 11.7033 6.18145 11.877 6.07661C12.0508 5.97177 12.245 5.91935 12.4597 5.91935C12.6042 5.91935 12.7477 5.95699 12.8902 6.03226ZM4.44217 5.14516H3.80381L2 10.8548H2.82577L3.20059 9.54839H4.99854L5.38507 10.8548H6.2284L4.44217 5.14516ZM4.10249 6.35484L4.74085 8.67742H3.45242L4.10249 6.35484ZM6.69107 5.14516H8.30747C8.46364 5.14516 8.61786 5.1707 8.77013 5.22177C8.9224 5.27285 9.05808 5.35618 9.17716 5.47177C9.29624 5.58737 9.39287 5.73656 9.46706 5.91935C9.54124 6.10215 9.57833 6.32258 9.57833 6.58065C9.57833 6.90323 9.51196 7.16935 9.37921 7.37903C9.24646 7.58871 9.07272 7.73925 8.85798 7.83065V7.84677C8.98682 7.86828 9.10688 7.91801 9.21815 7.99597C9.32943 8.07393 9.42411 8.17339 9.5022 8.29435C9.58028 8.41532 9.64178 8.55511 9.68668 8.71371C9.73158 8.87231 9.75403 9.04301 9.75403 9.22581C9.75403 9.53764 9.70913 9.79704 9.61933 10.004C9.52953 10.211 9.41142 10.3777 9.26501 10.504C9.11859 10.6304 8.95071 10.7204 8.76135 10.7742C8.57199 10.828 8.3797 10.8548 8.18448 10.8548H6.69107V5.14516ZM8.10249 7.46774H7.42899V6.01613H8.03807C8.31918 6.01613 8.52318 6.07661 8.65007 6.19758C8.77697 6.31855 8.84041 6.50269 8.84041 6.75C8.84041 6.96505 8.77892 7.13844 8.65593 7.27016C8.53294 7.40188 8.34846 7.46774 8.10249 7.46774ZM7.42899 9.98387H8.10835C8.20205 9.98387 8.30259 9.97581 8.40996 9.95968C8.51733 9.94355 8.61591 9.90591 8.70571 9.84677C8.79551 9.78763 8.86969 9.70296 8.92826 9.59274C8.98682 9.48253 9.01611 9.33333 9.01611 9.14516C9.01611 8.84408 8.94485 8.63441 8.80234 8.51613C8.65983 8.39785 8.43826 8.33871 8.13763 8.33871H7.42899V9.98387Z" fill="black"/>
</svg>
