<svg width="16" height="16" viewBox="0 0 16 16" fill="none" xmlns="http://www.w3.org/2000/svg">
<path fill-rule="evenodd" clip-rule="evenodd" d="M8.39031 3.42497L5.55297 0.587632C4.76947 -0.195877 3.49915 -0.195877 2.71564 0.587632L0.587632 2.71564C-0.195877 3.49915 -0.195877 4.76947 0.587632 5.55297L3.42497 8.39031C4.20848 9.17382 5.4788 9.17382 6.26231 8.39031L6.97164 7.68098L8.31902 9.02836L7.60969 9.73769C6.82618 10.5212 6.82618 11.7915 7.60969 12.575L10.447 15.4124C11.2305 16.1959 12.5009 16.1959 13.2844 15.4124L15.4124 13.2844C16.1959 12.5009 16.1959 11.2305 15.4124 10.447L12.575 7.60969C11.7915 6.82618 10.5212 6.82618 9.73769 7.60969L9.02836 8.31902L7.68098 6.97164L8.39031 6.26231C9.17382 5.4788 9.17382 4.20848 8.39031 3.42497ZM6.97164 6.26231L7.68098 5.55297C8.07273 5.16122 8.07273 4.52606 7.68098 4.13431L4.84364 1.29697C4.45189 0.905212 3.81673 0.905212 3.42497 1.29697L1.29697 3.42497C0.905212 3.81673 0.905212 4.45189 1.29697 4.84364L4.13431 7.68098C4.52606 8.07273 5.16122 8.07273 5.55297 7.68098L6.26231 6.97164L5.36931 6.07864C5.17405 5.88338 5.17516 5.56568 5.37042 5.37042C5.56568 5.17516 5.88338 5.17404 6.07864 5.36931L6.97164 6.26231ZM9.02836 9.73769L9.62754 10.3369C9.8228 10.5321 10.1405 10.531 10.3358 10.3358C10.531 10.1405 10.5321 9.8228 10.3369 9.62754L9.73769 9.02836L10.447 8.31902C10.8388 7.92727 11.4739 7.92727 11.8657 8.31902L14.703 11.1564C15.0948 11.5481 15.0948 12.1833 14.703 12.575L12.575 14.703C12.1833 15.0948 11.5481 15.0948 11.1564 14.703L8.31902 11.8657C7.92727 11.4739 7.92727 10.8388 8.31902 10.447L9.02836 9.73769Z" fill="black"/>
</svg>
