<svg width="16" height="16" viewBox="0 0 16 16" fill="none" xmlns="http://www.w3.org/2000/svg">
<path fill-rule="evenodd" clip-rule="evenodd" d="M9.3289 1C8.88018 1 8.51035 1.33775 8.45981 1.77288L8.45392 1.87491L8.45327 3.65419C3.57621 4.0662 1.09901 6.82556 1.02168 11.9322L1.00036 12.3739L1 13.0149L1.00632 13.3637C1.00973 13.4881 1.01466 13.6204 1.02168 13.7601L1.05566 14.2631C1.14495 14.7881 1.48934 15.0203 1.87534 14.9986C2.18116 14.9814 2.40818 14.6968 2.48283 14.3998L2.58622 14.0008L2.69452 13.6126C2.81685 13.1937 2.92505 12.8935 3.01914 12.7119C4.31676 10.2078 6.36192 9.02662 8.45404 8.8881L8.45392 10.2675C8.45392 10.4794 8.53085 10.6841 8.67041 10.8436C8.96415 11.1793 9.45775 11.2365 9.81799 10.9931L9.90508 10.9259L14.7012 6.72964C14.7304 6.70406 14.7579 6.67657 14.7835 6.64733C15.0772 6.31166 15.0684 5.81487 14.7793 5.49016L14.7012 5.41276L9.90508 1.21647C9.74558 1.07692 9.54084 1 9.3289 1Z" fill="black"/>
</svg>
