<svg width="16" height="16" viewBox="0 0 16 16" fill="none" xmlns="http://www.w3.org/2000/svg">
<path fill-rule="evenodd" clip-rule="evenodd" d="M10.7929 0.292893C10.6054 0.105357 10.351 0 10.0858 0H2C0.89543 0 0 0.89543 0 2V14C0 15.1046 0.89543 16 2 16H13C14.1046 16 15 15.1046 15 14V4.91421C15 4.649 14.8946 4.39464 14.7071 4.20711L10.7929 0.292893ZM2 1H10V4V5H11H14V14C14 14.5523 13.5523 15 13 15H2C1.44772 15 1 14.5523 1 14V2C1 1.44772 1.44772 1 2 1ZM13.0858 4L11 1.91421V4L13.0858 4ZM7.5 5C7.22386 5 7 5.22386 7 5.5V8.0001H4.5C4.22386 8.0001 4 8.22396 4 8.5001C4 8.77625 4.22386 9.0001 4.5 9.0001H7V11.5C7 11.7761 7.22386 12 7.5 12C7.77614 12 8 11.7761 8 11.5V9.0001H10.5C10.7761 9.0001 11 8.77625 11 8.5001C11 8.22396 10.7761 8.0001 10.5 8.0001H8V5.5C8 5.22386 7.77614 5 7.5 5Z" fill="black"/>
</svg>
