<svg width="16" height="16" viewBox="0 0 16 16" fill="none" xmlns="http://www.w3.org/2000/svg">
<path fill-rule="evenodd" clip-rule="evenodd" d="M13 0C14.1046 0 15 0.89543 15 2V11C15 12.1046 14.1046 13 13 13H5L0 16V2C0 0.89543 0.89543 0 2 0H13ZM13.0002 0.999964H1.9997C1.48686 0.999964 1.06419 1.386 1.00642 1.88334L0.999696 1.99996V14.233L4.72271 12H13.0002C13.513 12 13.9357 11.6139 13.9934 11.1166L14.0002 11V1.99996C14.0002 1.48713 13.6141 1.06446 13.1168 1.00669L13.0002 0.999964ZM7 3.5C7 3.22386 7.22386 3 7.5 3C7.77614 3 8 3.22386 8 3.5V6H10.5C10.7761 6 11 6.22386 11 6.5C11 6.77614 10.7761 7 10.5 7H8V9.5C8 9.77614 7.77614 10 7.5 10C7.22386 10 7 9.77614 7 9.5V7H4.5C4.22386 7 4 6.77614 4 6.5C4 6.22386 4.22386 6 4.5 6H7V3.5Z" fill="black"/>
</svg>
