<svg width="16" height="16" viewBox="0 0 16 16" fill="none" xmlns="http://www.w3.org/2000/svg">
<path fill-rule="evenodd" clip-rule="evenodd" d="M4 3C4 2.44772 4.44772 2 5 2H7.75C9.54493 2 11 3.45507 11 5.25C11 6.13149 10.6491 6.93101 10.0793 7.51648C11.7196 7.68152 13 9.06623 13 10.75C13 12.5449 11.5449 14 9.75 14H5C4.44772 14 4 13.5523 4 13V8.5V7.5V3ZM5 7.5H7.75C8.99264 7.5 10 6.49264 10 5.25C10 4.00736 8.99264 3 7.75 3H5V7.5ZM5 8.5V13H9.75C10.9926 13 12 11.9926 12 10.75C12 9.50736 10.9926 8.5 9.75 8.5H7.75H5Z" fill="black"/>
</svg>
