<svg width="16" height="16" viewBox="0 0 16 16" fill="none" xmlns="http://www.w3.org/2000/svg">
<path fill-rule="evenodd" clip-rule="evenodd" d="M15.551 0.250538C16.0009 0.60622 16.1308 1.2389 15.858 1.74643L11.6956 9.49026C11.1734 10.4617 9.9717 10.821 9.01146 10.2927C8.9157 10.24 8.8244 10.1794 8.73849 10.1115L7.74181 9.3237C6.88048 8.64287 6.72776 7.38453 7.40071 6.51311C7.46782 6.4262 7.54192 6.34505 7.62224 6.27048L14.042 0.311022C14.4628 -0.0795626 15.101 -0.105144 15.551 0.250538ZM14.9417 1.03946C14.8729 0.985087 14.7754 0.988998 14.7111 1.04871L8.29126 7.00817C8.25109 7.04545 8.21405 7.08603 8.18049 7.12948C7.84402 7.56519 7.92038 8.19436 8.35104 8.53478L9.34773 9.3226C9.39068 9.35655 9.43633 9.38685 9.48421 9.4132C9.96433 9.67735 10.5652 9.49771 10.8263 9.01197L14.9887 1.26814C15.0304 1.19055 15.0105 1.09384 14.9417 1.03946ZM6.732 9.40006L8.16195 10.6146C9.33934 11.6145 9.48238 13.3788 8.48145 14.555C8.25059 14.8263 7.97124 15.0521 7.65468 15.2172C5.3622 16.4128 2.84469 16.2388 0.102156 14.6953L0.10212 14.6953C0.0056465 14.641 -0.0285016 14.5189 0.0258485 14.4225C0.0593011 14.3632 0.120628 14.3249 0.188663 14.3208C2.03647 14.2114 2.96038 13.4335 2.96038 11.9871C2.96038 10.9244 3.25854 10.0277 4.13971 9.39668C5.02087 8.76565 5.97215 8.93954 6.732 9.40006ZM7.36461 14.2019L7.36462 14.2019C7.49044 14.1136 7.61794 14.0241 7.71796 13.9066C8.36042 13.1516 8.26861 12.0192 7.51288 11.3773L6.08293 10.1628C5.70945 9.84563 5.16109 9.84491 4.78679 10.1611C4.22787 10.6334 3.96248 11.2163 3.96248 11.9871C3.96248 13.2079 2.77119 14.6995 1.97539 14.6995C3.27537 15.2172 5.71964 15.4987 7.18728 14.3316C7.24382 14.2866 7.30402 14.2444 7.36461 14.2019Z" fill="black"/>
</svg>
