<svg width="16" height="16" viewBox="0 0 16 16" fill="none" xmlns="http://www.w3.org/2000/svg">
<path fill-rule="evenodd" clip-rule="evenodd" d="M10 4C10 3.70887 10.231 3.47287 10.516 3.47287L13.0244 3.47287L12.5268 2.89987C12.3252 2.69401 12.3252 2.36025 12.5268 2.15439C12.7283 1.94854 13.055 1.94854 13.2565 2.15439L15 4L13.2565 5.84561C13.055 6.05147 12.7283 6.05146 12.5268 5.84561C12.3252 5.63975 12.3252 5.30599 12.5268 5.10013L13.0244 4.52713L10.516 4.52713C10.231 4.52713 10 4.29113 10 4ZM6 4C6 4.29113 5.76897 4.52713 5.48398 4.52713H2.97555L3.47324 5.10013C3.67476 5.30599 3.67476 5.63975 3.47324 5.84561C3.27172 6.05147 2.94499 6.05147 2.74347 5.84561L1 4L2.74347 2.15439C2.94499 1.94854 3.27172 1.94854 3.47324 2.15439C3.67476 2.36025 3.67476 2.69401 3.47324 2.89987L2.97555 3.47287H5.48398C5.76897 3.47287 6 3.70887 6 4ZM1.4375 9C1.19588 9 1 9.22386 1 9.5C1 9.77614 1.19588 10 1.4375 10H14.5625C14.8041 10 15 9.77614 15 9.5C15 9.22386 14.8041 9 14.5625 9H1.4375ZM1.4375 13C1.19588 13 1 13.2239 1 13.5C1 13.7761 1.19588 14 1.4375 14H14.5625C14.8041 14 15 13.7761 15 13.5C15 13.2239 14.8041 13 14.5625 13H1.4375Z" fill="black"/>
</svg>
