<svg width="16" height="16" viewBox="0 0 16 16" fill="none" xmlns="http://www.w3.org/2000/svg">
<g clip-path="url(#clip0)">
<path fill-rule="evenodd" clip-rule="evenodd" d="M8.79296 1.13966C9.15351 0.770955 9.72046 0.742593 10.1128 1.05458L10.207 1.13966L15.707 6.76372C16.0676 7.13243 16.0953 7.71217 15.7902 8.11335L15.707 8.2097L9.20702 14.8563C9.05078 15.0161 8.84807 15.1176 8.63141 15.147L8.5 15.1559H4.5C4.27907 15.1559 4.06559 15.081 3.89205 14.9451L3.79298 14.8563L0.292968 11.2773C-0.0676079 10.9087 -0.0953445 10.3289 0.209758 9.92774L0.292968 9.8314L8.79296 1.13966ZM9.5 1.84609L1.00792 10.5306C1.00088 10.5378 0.998539 10.5517 1.00088 10.5634L1.00792 10.5782L4.505 14.1551H8.494L14.9921 7.51052C14.9991 7.50332 15.0015 7.48936 14.9991 7.47764L14.9921 7.4629L9.5 1.84609ZM3.00565 10.1899L4.84353 8.34009L8.76645 12.4469L8.77147 12.4577C8.77315 12.4663 8.77147 12.4765 8.76645 12.4818L8.35286 12.8401H5.50357L3.00565 10.2247L3.00063 10.214C2.99895 10.2054 3.00063 10.1952 3.00565 10.1899Z" fill="black"/>
</g>
<defs>
<clipPath id="clip0">
<rect width="16" height="16" fill="white"/>
</clipPath>
</defs>
</svg>
