<svg width="16" height="16" viewBox="0 0 16 16" fill="none" xmlns="http://www.w3.org/2000/svg">
<path d="M8.74548 8L14.8456 14.1001C15.0515 14.306 15.0515 14.6397 14.8456 14.8456C14.6397 15.0515 14.306 15.0515 14.1001 14.8456L8 8.74548L1.89987 14.8456C1.69401 15.0515 1.36025 15.0515 1.15439 14.8456C0.948536 14.6397 0.948536 14.306 1.15439 14.1001L7.25452 8L1.15439 1.89987C0.948535 1.69401 0.948535 1.36025 1.15439 1.15439C1.36025 0.948536 1.69401 0.948536 1.89987 1.15439L8 7.25452L14.1001 1.15439C14.306 0.948535 14.6397 0.948535 14.8456 1.15439C15.0515 1.36025 15.0515 1.69401 14.8456 1.89987L8.74548 8Z" fill="black"/>
</svg>
