<svg width="16" height="16" viewBox="0 0 16 16" fill="none" xmlns="http://www.w3.org/2000/svg">
<path fill-rule="evenodd" clip-rule="evenodd" d="M14 8C14 11.3137 11.3137 14 8 14C4.68629 14 2 11.3137 2 8C2 4.68629 4.68629 2 8 2C11.3137 2 14 4.68629 14 8ZM15 8C15 11.866 11.866 15 8 15C4.13401 15 1 11.866 1 8C1 4.13401 4.13401 1 8 1C11.866 1 15 4.13401 15 8ZM5.17157 5.87868C4.97631 5.68342 4.97631 5.36684 5.17157 5.17157C5.36684 4.97631 5.68342 4.97631 5.87868 5.17157L8 7.29289L10.1213 5.17157C10.3166 4.97631 10.6332 4.97631 10.8284 5.17157C11.0237 5.36684 11.0237 5.68342 10.8284 5.87868L8.70711 8L10.8284 10.1213C11.0237 10.3166 11.0237 10.6332 10.8284 10.8284C10.6332 11.0237 10.3166 11.0237 10.1213 10.8284L8 8.70711L5.87868 10.8284C5.68342 11.0237 5.36684 11.0237 5.17157 10.8284C4.97631 10.6332 4.97631 10.3166 5.17157 10.1213L7.29289 8L5.17157 5.87868Z" fill="black"/>
</svg>
