<svg width="16" height="16" viewBox="0 0 16 16" fill="none" xmlns="http://www.w3.org/2000/svg">
<path fill-rule="evenodd" clip-rule="evenodd" d="M11 2V12H3V4.41421L5.41421 2L11 2ZM2 4.41421C2 4.149 2.10536 3.89464 2.29289 3.70711L4.70711 1.29289C4.89464 1.10536 5.149 1 5.41421 1H11C11.5523 1 12 1.44772 12 2V12C12 12.5523 11.5523 13 11 13H3C2.44772 13 2 12.5523 2 12V4.41421ZM13.0476 3V13.56C13.0476 13.8251 12.8344 14.04 12.5714 14.04H4V15H12.5714C13.3604 15 14 14.3553 14 13.56V3H13.0476Z" fill="black"/>
</svg>
