<svg width="16" height="16" viewBox="0 0 16 16" fill="none" xmlns="http://www.w3.org/2000/svg">
<path fill-rule="evenodd" clip-rule="evenodd" d="M2 0.5C2 0.223857 2.22386 0 2.5 0C2.77614 0 3 0.223858 3 0.5V2H13H13.2879L15.1415 0.146447C15.3367 -0.0488155 15.6533 -0.0488155 15.8486 0.146447C16.0438 0.341709 16.0438 0.658291 15.8486 0.853553L14 2.70213V3V13H15.5C15.7761 13 16 13.2239 16 13.5C16 13.7761 15.7761 14 15.5 14H14V15.5C14 15.7761 13.7761 16 13.5 16C13.2239 16 13 15.7761 13 15.5V14H3H2V13V3H0.5C0.223857 3 0 2.77614 0 2.5C0 2.22386 0.223858 2 0.5 2H2V0.5ZM3 3V12.2879L12.2879 3H3ZM13 13H3.70214L13 3.70213V13Z" fill="black"/>
</svg>
