<svg width="16" height="16" viewBox="0 0 16 16" fill="none" xmlns="http://www.w3.org/2000/svg">
<path fill-rule="evenodd" clip-rule="evenodd" d="M3.937 12.3399C3.98332 12.2473 4.01053 12.1463 4.017 12.0429C4.02375 11.806 4.06588 11.5714 4.142 11.3469C3.38483 11.0596 2.69164 10.626 2.102 10.0709C1.41766 9.44957 1.01913 8.57403 1 7.6499C1.009 5.1999 4.044 3.1599 7.91 3.0019L8.118 2.9999C8.61709 2.95647 9.11229 3.11865 9.489 3.4489C9.81507 3.90817 9.93501 4.48253 9.82 5.0339L9.752 5.9829L10.755 6.1029C11.137 5.8409 11.561 5.5479 11.995 5.2469C11.7419 5.21437 11.4885 5.18337 11.235 5.1539L10.818 5.1049C10.9658 4.27234 10.7455 3.41656 10.214 2.7589C9.64584 2.22038 8.87794 1.94471 8.097 1.9989L7.87 2.0039C3.395 2.1859 0.01 4.6129 0 7.6449C0.0156717 8.83883 0.521986 9.9737 1.4 10.7829C2.12919 11.4711 2.99299 12.0009 3.937 12.3389V12.3399ZM7 3.9999C6.44772 3.9999 6 4.44762 6 4.9999C6 5.55219 6.44772 5.9999 7 5.9999C7.55228 5.9999 8 5.55219 8 4.9999C8 4.44762 7.55228 3.9999 7 3.9999ZM7 5.3999C6.77909 5.3999 6.6 5.22082 6.6 4.9999C6.6 4.77899 6.77909 4.5999 7 4.5999C7.22091 4.5999 7.4 4.77899 7.4 4.9999C7.4 5.22082 7.22091 5.3999 7 5.3999ZM4 8.9999C4 8.44762 4.44772 7.9999 5 7.9999C5.55228 7.9999 6 8.44762 6 8.9999C6 9.55219 5.55228 9.9999 5 9.9999C4.44772 9.9999 4 9.55219 4 8.9999ZM5 9.3999C4.77909 9.3999 4.6 9.22082 4.6 8.9999C4.6 8.77899 4.77909 8.5999 5 8.5999C5.22091 8.5999 5.4 8.77899 5.4 8.9999C5.4 9.22082 5.22091 9.3999 5 9.3999ZM15.567 9.6289C16.1009 8.80371 16.1431 7.75323 15.677 6.8879C15.605 6.75961 15.5191 6.63956 15.421 6.5299C15.1903 6.75057 14.9483 6.98424 14.695 7.2309C14.7308 7.26998 14.7636 7.31177 14.793 7.3559C15.0935 7.91231 15.0615 8.58926 14.71 9.1149C13.911 10.4389 11.825 11.3849 9.755 11.7849L8.888 12.5579C8.87869 12.6832 8.85963 12.8076 8.831 12.9299C11.43 12.6589 14.434 11.5069 15.567 9.6289ZM5 5.9999C5 6.55219 4.55228 6.9999 4 6.9999C3.44772 6.9999 3 6.55219 3 5.9999C3 5.44762 3.44772 4.9999 4 4.9999C4.55228 4.9999 5 5.44762 5 5.9999ZM4 5.5999C4.22091 5.5999 4.4 5.77899 4.4 5.9999C4.4 6.22082 4.22091 6.3999 4 6.3999C3.77909 6.3999 3.6 6.22082 3.6 5.9999C3.6 5.77899 3.77909 5.5999 4 5.5999ZM6.567 10.8269L7.892 12.3829C7.892 12.3829 7.989 13.5799 6.344 14.3109C5.39933 14.7477 4.30287 14.7072 3.393 14.2019C3.393 14.2019 4.987 13.3779 5.017 12.0649C5.047 10.7379 6.567 10.8269 6.567 10.8269ZM5.575 13.5259C5.84901 13.0951 6.00171 12.5983 6.017 12.0879C6.01066 11.997 6.06534 11.9129 6.151 11.8819L6.824 12.6719C6.621 13.0082 6.30799 13.264 5.938 13.3959C5.82046 13.4483 5.69911 13.4918 5.575 13.5259ZM12.217 8.2499C12.217 8.2499 15.517 5.0119 16 4.6199C15.8465 4.42995 15.7978 4.36943 15.7487 4.3092C15.6995 4.24893 15.65 4.18895 15.495 3.9999C15.012 4.3879 11.205 7.0059 11.205 7.0059L7.54 10.2759L8.567 11.5039L12.217 8.2499Z" fill="black"/>
</svg>
