<svg width="16" height="16" viewBox="0 0 16 16" fill="none" xmlns="http://www.w3.org/2000/svg">
<path fill-rule="evenodd" clip-rule="evenodd" d="M6.97287 11.484C6.97287 11.769 7.20887 12 7.5 12C7.79113 12 8.02713 11.769 8.02713 11.484V1.97555L10.6001 4.47324C10.806 4.67476 11.1397 4.67476 11.3456 4.47324C11.5515 4.27172 11.5515 3.94499 11.3456 3.74347L7.5 0L3.65439 3.74347C3.44854 3.94499 3.44854 4.27172 3.65439 4.47324C3.86025 4.67476 4.19401 4.67476 4.39987 4.47324L6.97287 1.97555V11.484ZM1 8V15H14V8H15V16H0V8H1Z" fill="black"/>
</svg>
