<svg width="16" height="16" viewBox="0 0 16 16" fill="none" xmlns="http://www.w3.org/2000/svg">
<path fill-rule="evenodd" clip-rule="evenodd" d="M13.7593 3.24079C13.3723 2.84798 12.912 2.53614 12.405 2.3232C11.898 2.11026 11.3543 2.00042 10.805 2C9.76604 2.00017 8.76504 2.39351 8.00018 3.10214C7.23538 2.39339 6.23433 2.00003 5.19537 2C4.64545 2.00058 4.10108 2.11075 3.59358 2.32418C3.08608 2.53761 2.62546 2.85009 2.23825 3.24362C0.586666 4.91522 0.587368 7.52979 2.23965 9.19432L8.00018 15L13.7607 9.19432C15.413 7.52979 15.4137 4.91522 13.7593 3.24079ZM8.00018 13.5802L13.0508 8.48998C14.3151 7.21639 14.3185 5.22955 13.0479 3.94363L13.7593 3.24079L13.047 3.94263C12.7524 3.64369 12.4026 3.4068 12.0178 3.24519C11.6332 3.08364 11.2209 3.00039 10.8047 3C10.0189 3.00024 9.26046 3.29773 8.6798 3.8357L8.00009 4.46543L7.32046 3.83561C6.73993 3.29763 5.98159 3.00016 5.19589 3C4.7791 3.00051 4.36633 3.08403 3.98124 3.24598C3.59598 3.40801 3.24579 3.64543 2.95105 3.94498L2.9496 3.94645C1.68231 5.22911 1.68471 7.2158 2.94936 8.48983L8.00018 13.5802Z" fill="black"/>
</svg>
