<svg width="16" height="16" viewBox="0 0 16 16" fill="none" xmlns="http://www.w3.org/2000/svg">
<path fill-rule="evenodd" clip-rule="evenodd" d="M8.02713 0.516021C8.02713 0.23103 7.79113 0 7.5 0C7.20887 0 6.97287 0.23103 6.97287 0.516021L6.97287 10.0244L4.39987 7.52676C4.19401 7.32524 3.86025 7.32524 3.65439 7.52676C3.44854 7.72828 3.44854 8.05501 3.65439 8.25653L7.5 12L11.3456 8.25653C11.5515 8.05501 11.5515 7.72828 11.3456 7.52676C11.1397 7.32524 10.806 7.32524 10.6001 7.52676L8.02713 10.0244L8.02713 0.516021ZM1 7.99998V15H14V7.99998H15V16H0V7.99998H1Z" fill="black"/>
</svg>
