<svg width="16" height="16" viewBox="0 0 16 16" fill="none" xmlns="http://www.w3.org/2000/svg">
<g clip-path="url(#clip0)">
<path d="M16 0H1.87268e-09V1H16V0Z" fill="black"/>
<path fill-rule="evenodd" clip-rule="evenodd" d="M5 11C5 12.6569 6.34315 14 8 14C9.65685 14 11 12.6569 11 11C11 9.34315 9.65685 8 8 8C6.34315 8 5 9.34315 5 11ZM8 13C9.10457 13 10 12.1046 10 11C10 9.89543 9.10457 9 8 9C6.89543 9 6 9.89543 6 11C6 12.1046 6.89543 13 8 13Z" fill="black"/>
<path fill-rule="evenodd" clip-rule="evenodd" d="M8 6C10.5832 6 13.1665 7.44964 15.7497 10.3489C16.0834 10.7235 16.0834 11.2765 15.7497 11.6511C13.1665 14.5504 10.5832 16 8 16C5.41677 16 2.83354 14.5504 0.250304 11.6511C-0.0834361 11.2765 -0.083436 10.7235 0.250312 10.3489C2.83354 7.44964 5.41677 6 8 6ZM7.99992 7C5.76309 7 3.44205 8.30251 1.03861 11C3.44205 13.6975 5.76309 15 7.99992 15C10.2368 15 12.5578 13.6975 14.9612 11C12.5578 8.30251 10.2368 7 7.99992 7Z" fill="black"/>
<path d="M1.87268e-09 3H13V4H1.87268e-09V3Z" fill="black"/>
<path d="M3 6H1.87268e-09V7H3V6Z" fill="black"/>
</g>
<defs>
<clipPath id="clip0">
<rect width="16" height="16" fill="white"/>
</clipPath>
</defs>
</svg>
