<svg width="16" height="16" viewBox="0 0 16 16" fill="none" xmlns="http://www.w3.org/2000/svg">
<path fill-rule="evenodd" clip-rule="evenodd" d="M7.5 0C9.433 0 11 1.567 11 3.5V6H12C12.5523 6 13 6.44772 13 7V15C13 15.5523 12.5523 16 12 16H3C2.44772 16 2 15.5523 2 15V7C2 6.44772 2.44772 6 3 6H4V3.5C4 1.567 5.567 0 7.5 0ZM5 6H10V3.5C10 2.17452 8.96846 1.08996 7.66438 1.00532L7.5 1C6.17452 1 5.08996 2.03154 5.00532 3.33562L5 3.5V6ZM11 7H4H3V15H12V7H11ZM7.5 12C8.32843 12 9 11.3284 9 10.5C9 9.67157 8.32843 9 7.5 9C6.67157 9 6 9.67157 6 10.5C6 11.3284 6.67157 12 7.5 12Z" fill="black"/>
</svg>
