<svg width="16" height="16" viewBox="0 0 16 16" fill="none" xmlns="http://www.w3.org/2000/svg">
<path d="M0.4375 1C0.195875 1 0 1.22386 0 1.5C0 1.77614 0.195875 2 0.4375 2H15.5625C15.8041 2 16 1.77614 16 1.5C16 1.22386 15.8041 1 15.5625 1H0.4375Z" fill="black"/>
<path d="M0 7.5C0 7.22386 0.195875 7 0.4375 7H15.5625C15.8041 7 16 7.22386 16 7.5C16 7.77614 15.8041 8 15.5625 8H0.4375C0.195875 8 0 7.77614 0 7.5Z" fill="black"/>
<path d="M0 13.5C0 13.2239 0.195875 13 0.4375 13H15.5625C15.8041 13 16 13.2239 16 13.5C16 13.7761 15.8041 14 15.5625 14H0.4375C0.195875 14 0 13.7761 0 13.5Z" fill="black"/>
</svg>
