<svg width="16" height="16" viewBox="0 0 16 16" fill="none" xmlns="http://www.w3.org/2000/svg">
<path fill-rule="evenodd" clip-rule="evenodd" d="M7.5 1.91421L6.47487 2.93934C6.27961 3.1346 5.96303 3.1346 5.76777 2.93934C5.5725 2.74408 5.5725 2.4275 5.76777 2.23223L8 0L10.1569 2.15685C10.3521 2.35212 10.3521 2.6687 10.1569 2.86396C9.96159 3.05922 9.64501 3.05922 9.44975 2.86396L8.5 1.91421V7.5H14.0858L12.9853 6.39949C12.79 6.20423 12.79 5.88765 12.9853 5.69239C13.1805 5.49713 13.4971 5.49713 13.6924 5.69239L16 8L13.7678 10.2322C13.5725 10.4275 13.2559 10.4275 13.0607 10.2322C12.8654 10.037 12.8654 9.72039 13.0607 9.52513L14.0858 8.5H8.5V14.0858L9.52513 13.0607C9.72039 12.8654 10.037 12.8654 10.2322 13.0607C10.4275 13.2559 10.4275 13.5725 10.2322 13.7678L8 16L5.69239 13.6924C5.49713 13.4971 5.49713 13.1805 5.69239 12.9853C5.88765 12.79 6.20423 12.79 6.3995 12.9853L7.5 14.0858V8.5H1.91421L2.86396 9.44975C3.05922 9.64501 3.05922 9.96159 2.86396 10.1569C2.6687 10.3521 2.35212 10.3521 2.15685 10.1569L0 8L2.23223 5.76777C2.4275 5.5725 2.74408 5.5725 2.93934 5.76777C3.1346 5.96303 3.1346 6.27961 2.93934 6.47487L1.91421 7.5H7.5V1.91421Z" fill="black"/>
</svg>
