<svg width="16" height="16" viewBox="0 0 16 16" fill="none" xmlns="http://www.w3.org/2000/svg">
<path fill-rule="evenodd" clip-rule="evenodd" d="M12 8.00162C12 8.27776 11.7761 8.50162 11.5 8.50162C11.2239 8.50162 11 8.27776 11 8.00162V1.00019H6.5H1V13.0025H4.4999C4.7761 13.0025 5 13.2264 5 13.5026C5 13.7788 4.7761 14.0027 4.4999 14.0027H1C0.447715 14.0027 0 13.5549 0 13.0025V1.00019C0 0.897677 0.0154194 0.798766 0.0440651 0.705651C0.0157563 0.642944 0 0.573356 0 0.500095C0 0.223953 0.223858 0 0.5 0H1H6.5H11C11.5523 0 12 0.4478 12 1.00019V8.00162ZM14.2176 9.48822C14.0223 9.29292 13.7056 9.29288 13.5104 9.48819L7.85345 15.1462C7.65824 15.3414 7.65827 15.658 7.85349 15.8533C8.04876 16.0486 8.36542 16.0486 8.56069 15.8533L14.2176 10.1953C14.4128 10 14.4128 9.68348 14.2176 9.48822ZM11 9.92758C11.3759 9.92758 11.7937 9.96946 12.2297 10.069L11.3586 10.9403C11.2313 10.9314 11.1111 10.9278 11 10.9278C10 10.9278 8.26874 11.2247 7.16928 12.9282C7.48265 13.4137 7.84734 13.7849 8.2318 14.0676L7.55595 14.7436C6.98173 14.2991 6.44455 13.7063 6 12.9282C7.33333 10.5944 9.5 9.92758 11 9.92758ZM11 14.9285C10.7814 14.9285 10.5279 14.9143 10.2536 14.8744L9.42959 15.6986C9.98799 15.8625 10.5271 15.9287 11 15.9287C12.5 15.9287 14.6667 15.2619 16 12.9282C15.492 12.039 14.863 11.3918 14.196 10.9312L13.5124 11.615C13.99 11.9138 14.4485 12.336 14.8307 12.9282C13.7313 14.6316 12 14.9285 11 14.9285ZM2.5 3.50064C2.5 3.2245 2.72386 3.00055 3 3.00055H9C9.27614 3.00055 9.5 3.2245 9.5 3.50064C9.5 3.77679 9.27614 4.00074 9 4.00074H3C2.72386 4.00074 2.5 3.77679 2.5 3.50064ZM3 6.00116C2.72386 6.00116 2.5 6.22511 2.5 6.50126C2.5 6.7774 2.72386 7.00135 3 7.00135H5C5.27614 7.00135 5.5 6.7774 5.5 6.50126C5.5 6.22511 5.27614 6.00116 5 6.00116H3Z" fill="black"/>
</svg>
