<svg width="16" height="16" viewBox="0 0 16 16" fill="none" xmlns="http://www.w3.org/2000/svg">
<path fill-rule="evenodd" clip-rule="evenodd" d="M6.9328 4.62183C6.53406 4.35596 6 4.64185 6 5.12109V10.8789C6 11.3579 6.53406 11.6438 6.9328 11.3779L11.2512 8.49927C11.6074 8.26172 11.6074 7.73828 11.2512 7.50073L6.9328 4.62183ZM10.1972 8L7 10.1313V5.86841L10.1972 8Z" fill="black"/>
<path fill-rule="evenodd" clip-rule="evenodd" d="M8 16C12.4183 16 16 12.4182 16 8C16 3.58179 12.4183 0 8 0C3.58173 0 0 3.58179 0 8C0 12.4182 3.58173 16 8 16ZM15 8C15 11.866 11.866 15 8 15C4.13403 15 1 11.866 1 8C1 4.13403 4.13403 1 8 1C11.866 1 15 4.13403 15 8Z" fill="black"/>
</svg>
