<svg width="16" height="16" viewBox="0 0 16 16" fill="none" xmlns="http://www.w3.org/2000/svg">
<path fill-rule="evenodd" clip-rule="evenodd" d="M13 1C14.1046 1 15 1.89543 15 3V9.5C15 9.77614 14.7761 10 14.5 10C14.2239 10 14 9.77614 14 9.5V3C14 2.44772 13.5523 2 13 2H3C2.44772 2 2 2.44772 2 3V13C2 13.5523 2.44772 14 3 14H9.5C9.77614 14 10 14.2239 10 14.5C10 14.7761 9.77614 15 9.5 15H3C1.89543 15 1 14.1046 1 13V3C1 1.89543 1.89543 1 3 1H13ZM11.1513 11.1513C11.3531 10.9496 11.6802 10.9496 11.8819 11.1513L14.8044 14.0738C15.0061 14.2755 15.0061 14.6026 14.8044 14.8044C14.6026 15.0061 14.2755 15.0061 14.0738 14.8044L11.1513 11.8819C10.9496 11.6802 10.9496 11.3531 11.1513 11.1513ZM8 12C10.2091 12 12 10.2091 12 8C12 5.79086 10.2091 4 8 4C5.79086 4 4 5.79086 4 8C4 10.2091 5.79086 12 8 12ZM8 11C6.34315 11 5 9.65685 5 8C5 6.34315 6.34315 5 8 5C9.65685 5 11 6.34315 11 8C11 9.65685 9.65685 11 8 11Z" fill="black"/>
</svg>
