<svg width="16" height="16" viewBox="0 0 16 16" fill="none" xmlns="http://www.w3.org/2000/svg">
<path d="M7.98552 1C10.3505 1 12.4417 2.1731 13.7089 3.96899L11.158 3.03076C10.8988 2.9353 10.6115 3.06812 10.5162 3.32739C10.4208 3.58643 10.5536 3.87378 10.8128 3.96924L15.0411 5.52441L15.2043 4.58008L15.2173 4.57495L15.2084 4.55615L15.8083 1.08496C15.8553 0.812988 15.6728 0.554199 15.4007 0.507324C15.1286 0.460205 14.8699 0.642578 14.8229 0.914795L14.4201 3.24561C12.9628 1.27661 10.6232 0 7.98552 0C3.73515 0 0.259078 3.3147 0.000899074 7.5C-0.0160687 7.77563 0.209395 8 0.485518 8C0.761641 8 0.983687 7.77539 1.0031 7.5C1.25957 3.86743 4.28764 1 7.98552 1Z" fill="black"/>
<path d="M8.01457 15C5.64946 15 3.55839 13.8269 2.29106 12.031L4.84196 12.9692C4.97038 13.0166 5.10576 13.0078 5.22124 12.9553C5.33879 12.9021 5.43571 12.8035 5.48381 12.6726C5.57915 12.4136 5.44633 12.1262 5.18718 12.0308L0.959029 10.4756L0.795821 11.4199L0.782759 11.425L0.791671 11.4438L0.191817 14.915C0.144698 15.187 0.327193 15.4458 0.599288 15.4927C0.871382 15.5398 1.13017 15.3574 1.17717 15.0852L1.58 12.7544C3.03728 14.7234 5.37688 16 8.01457 16C12.2649 16 15.741 12.6853 15.9992 8.5C16.0162 8.22437 15.7907 8 15.5146 8C15.2383 8 15.0164 8.22461 14.9969 8.5C14.7405 12.1326 11.7123 15 8.01457 15Z" fill="black"/>
</svg>
