<svg width="16" height="16" viewBox="0 0 16 16" fill="none" xmlns="http://www.w3.org/2000/svg">
<path d="M5.77806 3.23591e-05C4.68108 -0.00368764 3.60712 0.313406 2.68924 0.912021L6.35006 4.55998C6.47198 4.66364 6.57185 4.79056 6.64379 4.93327C6.71573 5.07598 6.75828 5.23159 6.76894 5.39094C6.7796 5.55029 6.75815 5.71015 6.70586 5.86112C6.65357 6.01208 6.57149 6.15109 6.46446 6.26996C6.34517 6.37661 6.20567 6.4584 6.05418 6.51051C5.90268 6.56262 5.74225 6.58399 5.58234 6.57337C5.42243 6.56275 5.26627 6.52034 5.12306 6.44866C4.97984 6.37697 4.85248 6.27745 4.74845 6.15596L0.973237 2.508C0.320521 3.4651 -0.0191362 4.59995 0.000832599 5.75696C0.00685771 7.28195 0.617462 8.74276 1.6996 9.82109C2.78173 10.8994 4.2477 11.5079 5.77806 11.5139C6.27888 11.5166 6.77822 11.4592 7.26526 11.3429L11.0977 15.1618C11.6362 15.6985 12.3667 16 13.1283 16C13.8899 16 14.6203 15.6985 15.1589 15.1618C15.6974 14.6252 16 13.8973 16 13.1384C16 12.3794 15.6974 11.6516 15.1589 11.1149L11.3265 7.29594C11.4432 6.81061 11.5008 6.31303 11.4981 5.81396C11.5133 5.0559 11.3766 4.30243 11.0959 3.59767C10.8153 2.89291 10.3964 2.25103 9.86371 1.7096C9.33104 1.16818 8.69531 0.738106 7.99376 0.444555C7.29222 0.151005 6.53894 -0.000119299 5.77806 3.23591e-05ZM10.3541 5.75696C10.3532 6.16199 10.2955 6.56489 10.1825 6.95395L10.0109 7.58094L10.4685 8.03694L14.3009 11.8559C14.4641 12.0099 14.594 12.1955 14.6825 12.4013C14.771 12.6072 14.8164 12.8289 14.8157 13.0529C14.8221 13.2777 14.7794 13.5011 14.6905 13.7078C14.6016 13.9145 14.4687 14.0995 14.3009 14.2499C14.146 14.412 13.9596 14.541 13.7531 14.6292C13.5466 14.7174 13.3243 14.7629 13.0997 14.7629C12.875 14.7629 12.6527 14.7174 12.4462 14.6292C12.2398 14.541 12.0534 14.412 11.8985 14.2499L8.06607 10.4309L7.60846 9.97491L6.97926 10.1459C6.58883 10.2585 6.18451 10.3161 5.77806 10.3169C4.56259 10.3135 3.39507 9.84409 2.51764 9.00592C2.07391 8.58986 1.72252 8.08583 1.48608 7.52626C1.24964 6.9667 1.1334 6.364 1.14484 5.75696C1.14563 5.33321 1.20334 4.91147 1.31644 4.50298L3.83325 7.01095C4.04592 7.24156 4.30252 7.42768 4.58811 7.55845C4.8737 7.68923 5.18256 7.76204 5.49668 7.77265C5.8108 7.78327 6.1239 7.73146 6.41772 7.62026C6.71154 7.50905 6.98021 7.34068 7.20806 7.12495C7.42455 6.8979 7.59352 6.63017 7.70512 6.33738C7.81671 6.04459 7.8687 5.7326 7.85805 5.41958C7.8474 5.10656 7.77433 4.79879 7.6431 4.5142C7.51186 4.22961 7.32509 3.97391 7.09366 3.76199L4.57685 1.25402C4.94679 1.13743 5.33287 1.07972 5.72086 1.08302C6.93632 1.08638 8.10384 1.55584 8.98127 2.394C9.8595 3.29498 10.3518 4.50092 10.3541 5.75696Z" fill="black"/>
</svg>
