<svg width="16" height="16" viewBox="0 0 16 16" fill="none" xmlns="http://www.w3.org/2000/svg">
<path fill-rule="evenodd" clip-rule="evenodd" d="M4.44732 1.27639C4.36263 1.107 4.1895 1 4.00011 1C3.81072 1 3.63759 1.107 3.5529 1.27639L1.0529 7.27639C0.929401 7.52338 1.02951 7.82372 1.2765 7.94721C1.52349 8.07071 1.82383 7.9706 1.94732 7.72361L2.64033 6L5.35989 6L6.0529 7.72361C6.17639 7.9706 6.47673 8.07071 6.72372 7.94721C6.97071 7.82372 7.07082 7.52338 6.94732 7.27639L4.44732 1.27639ZM4.95782 5L4.00011 2.61803L3.0424 5L4.95782 5Z" fill="black"/>
<path d="M7 1.5C7 1.22386 7.22386 1 7.5 1H14.5C14.7761 1 15 1.22386 15 1.5C15 1.77614 14.7761 2 14.5 2L7.5 2C7.22386 2 7 1.77614 7 1.5Z" fill="black"/>
<path d="M8.4375 4C8.19588 4 8 4.22386 8 4.5C8 4.77614 8.19588 5 8.4375 5L14.5625 5C14.8041 5 15 4.77614 15 4.5C15 4.22386 14.8041 4 14.5625 4L8.4375 4Z" fill="black"/>
<path d="M10 7.5C10 7.22386 10.1959 7 10.4375 7L14.5625 7C14.8041 7 15 7.22386 15 7.5C15 7.77614 14.8041 8 14.5625 8L10.4375 8C10.1959 8 10 7.77614 10 7.5Z" fill="black"/>
<path d="M1.4375 10C1.19588 10 1 10.2239 1 10.5C1 10.7761 1.19588 11 1.4375 11H14.5625C14.8041 11 15 10.7761 15 10.5C15 10.2239 14.8041 10 14.5625 10H1.4375Z" fill="black"/>
<path d="M1.4375 13.5C1.19588 13.5 1 13.7239 1 14C1 14.2761 1.19588 14.5 1.4375 14.5H14.5625C14.8041 14.5 15 14.2761 15 14C15 13.7239 14.8041 13.5 14.5625 13.5H1.4375Z" fill="black"/>
</svg>
