<svg width="16" height="16" viewBox="0 0 16 16" fill="none" xmlns="http://www.w3.org/2000/svg">
<path d="M9.48872 0.0722656L10.3374 0.361831L9.34832 3.07227L8.56352 2.60705L9.48872 0.0722656Z" fill="black"/>
<path d="M12.5937 2.974L10.1547 4.10183L10.404 4.9514L12.9825 3.75835L12.5937 2.974Z" fill="black"/>
<path d="M2.04032 7.854L2.42912 8.63835L5.00762 7.44705L4.47932 6.72618L2.04032 7.854Z" fill="black"/>
<path d="M5.55392 2.86183L4.58012 0.895744L5.39192 0.520961L6.36572 2.48705L5.55392 2.86183Z" fill="black"/>
<path d="M4.27232 4.5914L1.64792 3.69748L1.34912 4.51748L4.15442 5.474L4.27232 4.5914Z" fill="black"/>
<path fill-rule="evenodd" clip-rule="evenodd" d="M6.29992 3.3827L15.2999 9.66766H11.4262L13.7414 14.0892L11.0549 15.3827L8.68192 10.885L6.29992 14.0089V3.3827ZM7.29892 5.30009V11.0481L8.8359 9.0339L11.4889 14.0631L12.3749 13.6371L9.77375 8.66766L12.1209 8.66709L7.29892 5.30009Z" fill="black"/>
</svg>
