<svg width="16" height="16" viewBox="0 0 16 16" fill="none" xmlns="http://www.w3.org/2000/svg">
<path fill-rule="evenodd" clip-rule="evenodd" d="M16 4.5C16 4.77614 15.7761 5 15.5 5H7.5C7.22386 5 7 4.77614 7 4.5C7 4.22386 7.22386 4 7.5 4H15.5C15.7761 4 16 4.22386 16 4.5Z" fill="black"/>
<path fill-rule="evenodd" clip-rule="evenodd" d="M16 12.5C16 12.7761 15.7761 13 15.5 13H7.5C7.22386 13 7 12.7761 7 12.5C7 12.2239 7.22386 12 7.5 12H15.5C15.7761 12 16 12.2239 16 12.5Z" fill="black"/>
<path fill-rule="evenodd" clip-rule="evenodd" d="M5.14645 2.12038C5.35611 2.30009 5.38039 2.61574 5.20068 2.82541L2.87746 5.53582C2.49837 5.9781 1.82299 6.00404 1.4111 5.59214L0.146447 4.32749C-0.0488155 4.13223 -0.0488156 3.81564 0.146447 3.62038C0.341709 3.42512 0.658291 3.42512 0.853553 3.62038L2.11821 4.88503L4.44142 2.17461C4.62113 1.96495 4.93678 1.94067 5.14645 2.12038Z" fill="black"/>
<path fill-rule="evenodd" clip-rule="evenodd" d="M5.14645 10.1204C5.35611 10.3001 5.38039 10.6157 5.20068 10.8254L2.87746 13.5358C2.49837 13.9781 1.82299 14.004 1.4111 13.5921L0.146447 12.3275C-0.0488155 12.1322 -0.0488156 11.8156 0.146447 11.6204C0.341709 11.4251 0.658291 11.4251 0.853553 11.6204L2.11821 12.885L4.44142 10.1746C4.62113 9.96495 4.93678 9.94067 5.14645 10.1204Z" fill="black"/>
</svg>
