<svg width="16" height="16" viewBox="0 0 16 16" fill="none" xmlns="http://www.w3.org/2000/svg">
<path fill-rule="evenodd" clip-rule="evenodd" d="M11 2.0198C11 2.00887 10.9911 2 10.9802 2H8C6.34315 2 5 3.34315 5 5C5 5.35097 5.06027 5.68787 5.17102 6.0009L6.26819 6.00108C6.09763 5.70666 6 5.36473 6 5C6 3.89543 6.89543 3 8 3H10V3.5C10 3.77614 10.2239 4 10.5 4C10.7761 4 11 3.77614 11 3.5V2.0198ZM12.5 7C12.7761 7 13 7.22386 13 7.5C13 7.77614 12.7761 8 12.5 8H3.5C3.22386 8 3 7.77614 3 7.5C3 7.22386 3.22386 7 3.5 7H12.5ZM10.5995 8.99899L11.7113 8.99991C11.8964 9.45456 12 9.96317 12 10.5C12 12.3663 10.7479 13.8915 9.17024 13.9945L9 14L6 14C5.44771 14 5 13.5523 5 13V12.5C5 12.2239 5.22386 12 5.5 12C5.77614 12 6 12.2239 6 12.5V12.999L9 13C10.1046 13 11 11.8807 11 10.5C11 10.0072 10.8859 9.54761 10.6889 9.1604L10.5995 8.99899Z" fill="black"/>
</svg>
