<svg width="16" height="16" viewBox="0 0 16 16" fill="none" xmlns="http://www.w3.org/2000/svg">
<path fill-rule="evenodd" clip-rule="evenodd" d="M2.54721 1.78792C2.6295 1.61223 2.806 1.5 3.00001 1.5H12.1667C12.5249 1.5 12.8655 1.64651 13.1144 1.90251C13.3629 2.15804 13.5 2.50168 13.5 2.85714V4.57143C13.5 4.84757 13.2761 5.07143 13 5.07143C12.7239 5.07143 12.5 4.84757 12.5 4.57143V2.85714C12.5 2.75795 12.4616 2.66556 12.3974 2.59959C12.3338 2.5341 12.2505 2.5 12.1667 2.5H4.06753L8.38412 7.67991C8.53864 7.86533 8.53864 8.13467 8.38412 8.32009L4.06753 13.5H12.1667C12.2505 13.5 12.3338 13.4659 12.3974 13.4004C12.4616 13.3344 12.5 13.2421 12.5 13.1429V11.4286C12.5 11.1524 12.7239 10.9286 13 10.9286C13.2761 10.9286 13.5 11.1524 13.5 11.4286V13.1429C13.5 13.4983 13.3629 13.842 13.1144 14.0975C12.8655 14.3535 12.5249 14.5 12.1667 14.5H3.00001C2.806 14.5 2.6295 14.3878 2.54721 14.2121C2.46492 14.0364 2.49169 13.8289 2.6159 13.6799L7.34915 8L2.6159 2.32009C2.49169 2.17105 2.46492 1.96361 2.54721 1.78792Z" fill="black"/>
</svg>
