<svg width="16" height="16" viewBox="0 0 16 16" fill="none" xmlns="http://www.w3.org/2000/svg">
<path fill-rule="evenodd" clip-rule="evenodd" d="M7 9.5C7 9.77614 7.22386 10 7.5 10H10C10.5523 10 11 9.55229 11 9V1C11 0.447715 10.5523 0 10 0H1C0.447715 0 0 0.447715 0 1V9C0 9.55229 0.447715 10 1 10H3.5C3.77614 10 4 9.77614 4 9.5C4 9.22386 3.77614 9 3.5 9H1V1H10V9H7.5C7.22386 9 7 9.22386 7 9.5ZM9 6.5C9 6.22386 8.77614 6 8.5 6H6C5.44772 6 5 6.44772 5 7V15C5 15.5523 5.44772 16 6 16H15C15.5523 16 16 15.5523 16 15V7C16 6.44772 15.5523 6 15 6H12.5C12.2239 6 12 6.22386 12 6.5C12 6.77614 12.2239 7 12.5 7H15V15H6V7H8.5C8.77614 7 9 6.77614 9 6.5Z" fill="black"/>
</svg>
