<svg width="16" height="16" viewBox="0 0 16 16" fill="none" xmlns="http://www.w3.org/2000/svg">
<path fill-rule="evenodd" clip-rule="evenodd" d="M14.8259 15.6686C14.9015 15.7374 14.9735 15.8008 15.042 15.8587L15.042 15.8587C15.2786 16.0591 15.6296 16.0447 15.849 15.8256C16.0503 15.6246 16.0503 15.2987 15.849 15.0977L0.881596 0.150772C0.68029 -0.0502575 0.353908 -0.0502575 0.152602 0.150772C-0.0493313 0.352428 -0.0510779 0.678835 0.148686 0.882635L0.164052 0.898312C8.81275 9.72085 13.7 14.6443 14.8259 15.6686ZM10 7.87868V2H4.12132L3.12132 1H10C10.5523 1 11 1.44772 11 2V8.87868L10 7.87868ZM2 4.12132V10H3.5C3.77614 10 4 10.2239 4 10.5C4 10.7761 3.77614 11 3.5 11H2C1.44772 11 1 10.5523 1 10V3.12132L2 4.12132ZM6 14V8.12132L5 7.12132V14C5 14.5523 5.44772 15 6 15H12.8787L11.8787 14H6ZM14 11.8787V6H12.5C12.2239 6 12 5.77614 12 5.5C12 5.22386 12.2239 5 12.5 5H14C14.5523 5 15 5.44772 15 6V12.8787L14 11.8787Z" fill="black"/>
</svg>
