<svg width="16" height="16" viewBox="0 0 16 16" fill="none" xmlns="http://www.w3.org/2000/svg">
<path d="M11.3655 7.84116L10.6345 7.15884L7.50902 10.5075L5.8737 8.66782L5.1263 9.33218L7.49098 11.9925L11.3655 7.84116Z" fill="black"/>
<path fill-rule="evenodd" clip-rule="evenodd" d="M4.5 3V1.16667C4.5 0.469465 5.2042 0 6 0H10C10.7958 0 11.5 0.469465 11.5 1.16667V3H15.5C15.7761 3 16 3.22386 16 3.5C16 3.77614 15.7761 4 15.5 4H14L13.071 15.0767C13.0309 15.5977 12.5965 16 12.074 16H3.92603C3.40349 16 2.96905 15.5977 2.92898 15.0767L2 4H0.5C0.223858 4 0 3.77614 0 3.5C0 3.22386 0.223858 3 0.5 3H4.5ZM3.00295 4H12.997L12.074 15H3.92603L3.00295 4ZM10.5 1V3H5.5V1C5.5 0.960822 10.5 0.960822 10.5 1Z" fill="black"/>
</svg>
