<svg width="16" height="16" viewBox="0 0 16 16" fill="none" xmlns="http://www.w3.org/2000/svg">
<path fill-rule="evenodd" clip-rule="evenodd" d="M12 0C14.2091 0 16 1.79086 16 4V12C16 14.2091 14.2091 16 12 16H4C1.79086 16 0 14.2091 0 12V4C0 1.79086 1.79086 0 4 0H12ZM12 1H4C2.40232 1 1.09634 2.24892 1.00509 3.82373L1 4V12C1 13.5977 2.24892 14.9037 3.82373 14.9949L4 15H12C13.5977 15 14.9037 13.7511 14.9949 12.1763L15 12V4C15 2.40232 13.7511 1.09634 12.1763 1.00509L12 1ZM8 4C5.79086 4 4 5.79086 4 8C4 10.2091 5.79086 12 8 12C10.2091 12 12 10.2091 12 8C12 5.79086 10.2091 4 8 4Z" fill="black"/>
</svg>
