<svg width="16" height="16" viewBox="0 0 16 16" fill="none" xmlns="http://www.w3.org/2000/svg">
<path fill-rule="evenodd" clip-rule="evenodd" d="M1.65218 7.09669C2.76796 8.21588 4.45593 8.53625 5.90418 7.90369L4.95618 6.95669C4.07008 7.16453 3.13968 6.89631 2.50018 6.24869L2.00018 5.74869C0.964926 4.71371 0.964702 3.03545 1.99968 2.00019C3.03467 0.96493 4.71293 0.964707 5.74818 1.99969L6.24818 2.50069C6.89476 3.14038 7.1625 4.07009 6.95518 4.95569L7.90418 5.90469C8.53645 4.4564 8.21612 2.76861 7.09718 1.65269L6.59718 1.15269C5.62769 0.165333 4.2029 -0.225791 2.86518 0.128203C1.52747 0.482197 0.482623 1.52685 0.128384 2.8645C-0.225856 4.20215 0.165007 5.62701 1.15218 6.59669L1.65218 7.09669ZM9.47418 0.474688H10.4742V3.47469L9.47418 2.47469V0.474688ZM14.4742 4.47469H11.4742L12.4742 5.47469H14.4742V4.47469ZM2.47418 9.47469H0.474184V10.4747H3.47418L2.47418 9.47469ZM5.47418 14.4747H4.47418V11.4747L5.47418 12.4747V14.4747ZM13.2962 7.85269L13.7962 8.35269C14.7834 9.32237 15.1742 10.7472 14.82 12.0849C14.4657 13.4225 13.4209 14.4672 12.0832 14.8212C10.7455 15.1752 9.32068 14.784 8.35118 13.7967L7.85118 13.2967C6.73225 12.1808 6.41192 10.493 7.04418 9.04469L7.99318 9.99369C7.78607 10.8793 8.05378 11.8089 8.70018 12.4487L9.20018 12.9497C10.2354 13.9847 11.9137 13.9844 12.9487 12.9492C13.9837 11.9139 13.9834 10.2357 12.9482 9.20069L12.4482 8.70069C11.8087 8.05306 10.8783 7.78485 9.99218 7.99269L9.04418 7.04469C10.4926 6.41238 12.1806 6.73315 13.2962 7.85269ZM2.12018 12.1207L2.82718 12.8277L5.32718 10.3277L4.62018 9.62069L2.12018 12.1207ZM12.1202 2.12069L12.8272 2.82769L10.3272 5.32769L9.62018 4.62069L12.1202 2.12069Z" fill="black"/>
</svg>
