<svg width="16" height="16" viewBox="0 0 16 16" fill="none" xmlns="http://www.w3.org/2000/svg">
<path fill-rule="evenodd" clip-rule="evenodd" d="M16 3.5C16 1.567 14.433 0 12.5 0C10.567 0 9 1.567 9 3.5V6H3C2.44772 6 2 6.44772 2 7V15C2 15.5523 2.44772 16 3 16H12C12.5523 16 13 15.5523 13 15V7C13 6.44772 12.5523 6 12 6H11H10V3.5L10.0053 3.33562C10.09 2.03154 11.1745 1 12.5 1L12.6644 1.00532C13.9685 1.08996 15 2.17452 15 3.5C15 3.77614 15.2239 4 15.5 4C15.7761 4 16 3.77614 16 3.5ZM9 7H3V15H12V7H11H9ZM7.5 12C8.32843 12 9 11.3284 9 10.5C9 9.67157 8.32843 9 7.5 9C6.67157 9 6 9.67157 6 10.5C6 11.3284 6.67157 12 7.5 12Z" fill="black"/>
</svg>
