<svg width="16" height="16" viewBox="0 0 16 16" fill="none" xmlns="http://www.w3.org/2000/svg">
<path d="M1.10182 12.8333H0L4.2678 3H5.24409L9.484 12.8333H8.36824L7.28036 10.25H2.17574L1.10182 12.8333ZM2.55231 9.33333H6.90379L4.72805 4.11111L2.55231 9.33333Z" fill="black"/>
<path d="M14.9958 8.63889C14.9958 8.07407 14.847 7.65278 14.5495 7.375C14.252 7.09722 13.8196 6.95833 13.2524 6.95833C12.8619 6.95833 12.4993 7.02778 12.1646 7.16667C11.8298 7.30555 11.5462 7.49074 11.3138 7.72222L10.7838 7.09722C11.0534 6.8287 11.4068 6.60648 11.8438 6.43055C12.2901 6.25463 12.7922 6.16667 13.3501 6.16667C13.7034 6.16667 14.0335 6.21759 14.3403 6.31944C14.6471 6.41204 14.9168 6.55555 15.1492 6.75C15.3817 6.94444 15.563 7.18981 15.6932 7.48611C15.8233 7.78241 15.8884 8.12963 15.8884 8.52778V11.375C15.8884 11.625 15.8977 11.8843 15.9163 12.1528C15.9349 12.4213 15.9628 12.6481 16 12.8333H15.1492C15.1213 12.6759 15.0981 12.5046 15.0795 12.3194C15.0609 12.1343 15.0516 11.9537 15.0516 11.7778H15.0237C14.7262 12.213 14.3868 12.5278 14.0056 12.7222C13.6336 12.9074 13.1827 13 12.6527 13C12.4017 13 12.1413 12.963 11.8717 12.8889C11.6113 12.8241 11.3696 12.713 11.1464 12.5556C10.9326 12.3981 10.7513 12.1944 10.6025 11.9444C10.463 11.6944 10.3933 11.3889 10.3933 11.0278C10.3933 10.5278 10.5188 10.1343 10.7699 9.84722C11.0302 9.55093 11.3742 9.33333 11.8019 9.19444C12.2296 9.0463 12.7178 8.9537 13.2664 8.91667C13.8243 8.87037 14.4007 8.84722 14.9958 8.84722V8.63889ZM14.7169 9.58333C14.3264 9.58333 13.9312 9.60185 13.5314 9.63889C13.1409 9.66667 12.7829 9.73148 12.4574 9.83333C12.1413 9.92593 11.881 10.0648 11.6764 10.25C11.4719 10.4352 11.3696 10.6806 11.3696 10.9861C11.3696 11.2176 11.4114 11.412 11.4951 11.5694C11.5881 11.7269 11.709 11.8565 11.8577 11.9583C12.0065 12.0509 12.1692 12.1204 12.3459 12.1667C12.5318 12.2037 12.7178 12.2222 12.9038 12.2222C13.2385 12.2222 13.536 12.1667 13.7964 12.0556C14.0567 11.9352 14.2752 11.7778 14.4519 11.5833C14.6285 11.3796 14.7634 11.1481 14.8563 10.8889C14.9493 10.6296 14.9958 10.3565 14.9958 10.0694V9.58333H14.7169Z" fill="black"/>
</svg>
