<svg width="16" height="16" viewBox="0 0 16 16" fill="none" xmlns="http://www.w3.org/2000/svg">
<path fill-rule="evenodd" clip-rule="evenodd" d="M12 6.5C12 9.53757 9.53757 12 6.5 12C3.46243 12 1 9.53757 1 6.5C1 3.46243 3.46243 1 6.5 1C9.53757 1 12 3.46243 12 6.5ZM10.7291 11.4362C9.59237 12.411 8.11497 13 6.5 13C2.91015 13 0 10.0899 0 6.5C0 2.91015 2.91015 0 6.5 0C10.0899 0 13 2.91015 13 6.5C13 8.11493 12.4111 9.5923 11.4362 10.7291L15.5733 14.8661C15.7686 15.0614 15.7686 15.378 15.5733 15.5732C15.3781 15.7685 15.0615 15.7685 14.8662 15.5732L10.7291 11.4362ZM7 6H10V7H7V10H6V7H3V6H6V3H7V6Z" fill="black"/>
</svg>
