<svg width="16" height="16" viewBox="0 0 16 16" fill="none" xmlns="http://www.w3.org/2000/svg">
<path fill-rule="evenodd" clip-rule="evenodd" d="M6.5 12C9.53757 12 12 9.53757 12 6.5C12 3.46243 9.53757 1 6.5 1C3.46243 1 1 3.46243 1 6.5C1 9.53757 3.46243 12 6.5 12ZM6.5 13C8.11497 13 9.59237 12.411 10.7291 11.4362L14.8662 15.5732C15.0615 15.7685 15.3781 15.7685 15.5733 15.5732C15.7686 15.378 15.7686 15.0614 15.5733 14.8661L11.4362 10.7291C12.4111 9.5923 13 8.11493 13 6.5C13 2.91015 10.0899 0 6.5 0C2.91015 0 0 2.91015 0 6.5C0 10.0899 2.91015 13 6.5 13ZM10 6H3V7H10V6Z" fill="black"/>
</svg>
