<svg width="32" height="32" viewBox="0 0 32 32" fill="none" xmlns="http://www.w3.org/2000/svg">
<path d="M31.5513 13.2493H28.9453V23.6633H31.5513V13.2493Z" fill="black"/>
<path d="M7.92995 20.7439C7.31349 21.3896 6.5289 21.8387 5.40806 21.8387C3.95096 21.8387 2.77408 20.9124 2.60596 19.3685H10.5359V18.6387C10.5359 15.0176 8.57443 12.9685 5.66025 12.9685C2.52189 12.9685 0 15.158 0 18.4422C0 21.7264 2.52189 23.9159 5.66025 23.9159C7.08932 23.9159 8.43433 23.4668 9.58319 22.372L7.92995 20.7439ZM5.29597 14.9615C6.92119 14.9615 7.92995 15.9159 7.92995 17.4317H2.60596C2.8021 15.9439 3.75482 14.9615 5.29597 14.9615Z" fill="black"/>
<path d="M14.1782 16.1966C14.1782 15.4106 14.9908 15.1019 15.6913 15.1019C16.588 15.1019 17.2324 15.4668 17.7088 16.1685L19.362 14.5124C18.4934 13.4457 17.0923 13.0247 15.7473 13.0247C13.6458 13.0247 11.5722 14.0633 11.5722 16.3931C11.5722 20.379 17.1764 18.6668 17.1764 20.8282C17.1764 21.6422 16.1957 22.0352 15.4391 22.0352C14.3463 22.0352 13.6458 21.5019 12.9733 20.772L11.292 22.4562C12.3568 23.6071 13.7018 24.0001 15.299 24.0001C17.4286 24.0001 19.7824 23.1299 19.7824 20.6597C19.7824 16.5334 14.1782 18.0492 14.1782 16.1966Z" fill="black"/>
<path d="M27.6293 13.165C27.321 13.0808 27.0408 13.0247 26.7046 13.0247C25.3315 13.0247 24.1827 13.7545 23.6223 14.9334H23.5942V13.2773H20.9883V23.6913H23.5942V18.1054C23.5942 17.544 23.9305 15.4668 26.3963 15.4668C26.7606 15.4668 27.1529 15.551 27.5452 15.6352L27.6293 13.165Z" fill="black"/>
<path d="M30.2347 8C31.2154 8 32 8.72982 32 9.65614C32 10.6105 31.2434 11.3123 30.2347 11.3123C29.2539 11.3123 28.5254 10.5263 28.5254 9.65614C28.5254 8.78597 29.2259 8 30.2347 8Z" fill="black"/>
</svg>
