<svg width="32" height="32" viewBox="0 0 32 32" fill="none" xmlns="http://www.w3.org/2000/svg">
<path fill-rule="evenodd" clip-rule="evenodd" d="M15.5241 0.0951629C15.8134 -0.0310699 16.1427 -0.0310699 16.432 0.0951629L29.9463 5.97016V23.6577C29.9463 25.0975 29.0883 26.4009 27.7604 26.9783L16.4345 31.9033C16.1452 32.0295 15.8159 32.0295 15.5266 31.9033L2.01172 26.0283V8.34079C2.01172 6.90078 2.8701 5.59741 4.19824 5.02016L15.5241 0.0951629ZM9.92845 21.0001V8.5001H8.98463C8.32437 8.5001 7.78912 9.03176 7.78912 9.6876V14.8895L6.0009 17.9664C5.92567 18.0955 5.90521 18.2491 5.94404 18.3933C5.98286 18.5375 6.07779 18.6605 6.20791 18.7351L7.78912 19.642V22.9376C7.78912 23.5934 8.32437 24.1251 8.98463 24.1251H15.2044L18.3285 25.917C18.3869 25.9505 18.4589 25.9505 18.5173 25.9169C18.5757 25.8834 18.6116 25.8215 18.6116 25.7545V21.7501C18.6116 21.612 18.4989 21.5001 18.3599 21.5001H10.4318C10.1538 21.5001 9.92845 21.2762 9.92845 21.0001ZM16.7334 8.5001L13.6093 6.70823C13.5509 6.67472 13.4789 6.67473 13.4205 6.70826C13.3621 6.74178 13.3262 6.80372 13.3262 6.87073V10.6251H21.506C21.784 10.6251 22.0094 10.849 22.0094 11.1251V24.1251H22.9532C23.6134 24.1251 24.1487 23.5934 24.1487 22.9376V17.6251L25.9369 14.5501C26.0931 14.2812 26.0005 13.9374 25.7299 13.782L24.1487 12.8751V9.6876C24.1487 9.03176 23.6134 8.5001 22.9532 8.5001H16.7334ZM18.6116 18.1251V14.0001H13.3262V18.1251H18.6116Z" fill="black"/>
</svg>
