<svg width="32" height="32" viewBox="0 0 32 32" fill="none" xmlns="http://www.w3.org/2000/svg">
<path d="M26.0603 20.0333V16.8053H29.2897V14.3853H26.0603V11.1573H23.6403V14.3853H20.4123V16.8053H23.6403V20.0333H26.0603ZM10.7363 11.0693C12.247 11.0693 13.2643 11.7147 13.843 12.264L16.139 10.0373C14.7417 8.73066 12.919 7.93066 10.7363 7.93066C6.28566 7.92933 2.66699 11.5453 2.66699 16C2.66699 20.4547 6.28566 24.0707 10.7363 24.0707C15.3937 24.0707 18.4857 20.7947 18.4857 16.1867C18.4857 15.516 18.4003 15.04 18.2817 14.5333H10.7323V17.5413H15.175C14.9643 18.8093 13.827 20.9493 10.7363 20.9493C8.06566 20.9493 5.88699 18.7293 5.88699 16.0107C5.88699 13.288 8.06566 11.0693 10.7363 11.0693Z" fill="black"/>
</svg>
