<svg width="32" height="32" viewBox="0 0 32 32" fill="none" xmlns="http://www.w3.org/2000/svg">
<path d="M16 2C12.1941 2 11.7198 2.01838 10.2304 2.08139C8.73484 2.15489 7.72322 2.3868 6.8306 2.73334C5.89639 3.08603 5.05034 3.63822 4.35142 4.35142C3.63623 5.0487 3.08373 5.89523 2.73334 6.8306C2.3868 7.72322 2.15489 8.73484 2.08139 10.2304C2.014 11.7207 2 12.1941 2 16C2 19.8059 2.01838 20.2802 2.08139 21.7696C2.15489 23.2608 2.3868 24.2768 2.73334 25.1694C3.08603 26.1036 3.63822 26.9497 4.35142 27.6486C5.0487 28.3638 5.89523 28.9163 6.8306 29.2667C7.72322 29.6088 8.73922 29.8451 10.2304 29.9186C11.7207 29.986 12.1941 30 16 30C19.8059 30 20.2802 29.9816 21.7696 29.9186C23.2608 29.8451 24.2768 29.608 25.1694 29.2667C26.1036 28.914 26.9497 28.3618 27.6486 27.6486C28.3647 26.9521 28.9173 26.1053 29.2667 25.1694C29.6088 24.2768 29.8451 23.2608 29.9186 21.7696C29.986 20.2793 30 19.8059 30 16C30 12.1941 29.9816 11.7198 29.9186 10.2304C29.8451 8.73922 29.608 7.71796 29.2667 6.8306C28.914 5.89639 28.3618 5.05034 27.6486 4.35142C26.9521 3.63531 26.1053 3.08267 25.1694 2.73334C24.2768 2.3868 23.2608 2.15489 21.7696 2.08139C20.2793 2.014 19.8059 2 16 2ZM16 4.52032C19.7376 4.52032 20.1839 4.53869 21.6611 4.6017C23.0236 4.66558 23.7657 4.89311 24.2584 5.08564C24.8675 5.31047 25.4188 5.66833 25.8721 6.13314C26.3361 6.58455 26.6926 7.13457 26.9152 7.74247C27.1078 8.23515 27.3353 8.97725 27.3992 10.3398C27.4622 11.817 27.4806 12.2642 27.4806 16.0009C27.4806 19.7376 27.4622 20.1848 27.3939 21.662C27.3204 23.0245 27.0929 23.7666 26.9012 24.2593C26.6361 24.9165 26.3403 25.3759 25.852 25.873C25.3971 26.3349 24.8462 26.691 24.2383 26.9161C23.7517 27.1086 22.9991 27.3362 21.6313 27.4C20.1463 27.4631 19.7087 27.4814 15.9615 27.4814C12.2143 27.4814 11.7776 27.4631 10.2908 27.3948C8.92824 27.3213 8.17652 27.0938 7.68384 26.9021C7.01875 26.637 6.56282 26.3412 6.07451 25.8529C5.58182 25.3602 5.26853 24.8911 5.027 24.2392C4.83098 23.7526 4.60695 23 4.53432 21.6322C4.48444 20.1646 4.46081 19.7096 4.46081 15.9799C4.46081 12.2519 4.48444 11.796 4.53432 10.31C4.60695 8.94224 4.83098 8.1914 5.027 7.70309C5.26853 7.03713 5.5827 6.58207 6.07451 6.08939C6.56195 5.60195 7.01875 5.28691 7.68384 5.04013C8.17652 4.84848 8.90986 4.62095 10.2777 4.55269C11.7627 4.49931 12.2003 4.48006 15.9422 4.48006L16 4.52032ZM16 8.81448C15.0561 8.81413 14.1213 8.9998 13.2491 9.36087C12.377 9.72194 11.5845 10.2513 10.9171 10.9188C10.2496 11.5863 9.72019 12.3787 9.35912 13.2509C8.99805 14.123 8.81238 15.0578 8.81273 16.0017C8.81238 16.9457 8.99805 17.8805 9.35912 18.7526C9.72019 19.6248 10.2496 20.4172 10.9171 21.0847C11.5845 21.7522 12.377 22.2816 13.2491 22.6426C14.1213 23.0037 15.0561 23.1894 16 23.189C16.9439 23.1894 17.8787 23.0037 18.7509 22.6426C19.623 22.2816 20.4155 21.7522 21.0829 21.0847C21.7504 20.4172 22.2798 19.6248 22.6409 18.7526C23.0019 17.8805 23.1876 16.9457 23.1873 16.0017C23.1876 15.0578 23.0019 14.123 22.6409 13.2509C22.2798 12.3787 21.7504 11.5863 21.0829 10.9188C20.4155 10.2513 19.623 9.72194 18.7509 9.36087C17.8787 8.9998 16.9439 8.81413 16 8.81448ZM16 20.6687C13.4202 20.6687 11.333 18.5816 11.333 16.0017C11.333 13.4219 13.4202 11.3348 16 11.3348C18.5798 11.3348 20.667 13.4219 20.667 16.0017C20.667 18.5816 18.5798 20.6687 16 20.6687ZM25.1571 8.52744C25.1567 8.97345 24.9792 9.40104 24.6636 9.71625C24.3481 10.0315 23.9203 10.2085 23.4743 10.2085C23.2538 10.2085 23.0354 10.1651 22.8317 10.0807C22.6279 9.9963 22.4428 9.8726 22.2868 9.71666C22.1309 9.56072 22.0072 9.37559 21.9228 9.17184C21.8384 8.9681 21.795 8.74972 21.795 8.52919C21.795 8.30866 21.8384 8.09028 21.9228 7.88654C22.0072 7.68279 22.1309 7.49766 22.2868 7.34172C22.4428 7.18578 22.6279 7.06208 22.8317 6.97769C23.0354 6.89329 23.2538 6.84986 23.4743 6.84986C24.3993 6.84986 25.1571 7.60245 25.1571 8.52744Z" fill="black"/>
</svg>
