<svg width="32" height="32" viewBox="0 0 32 32" fill="none" xmlns="http://www.w3.org/2000/svg">
<path fill-rule="evenodd" clip-rule="evenodd" d="M2 4.33928C2 3.71886 2.24646 3.12386 2.68516 2.68516C3.12386 2.24646 3.71886 2 4.33927 2H27.6582C27.9656 1.9995 28.2702 2.05965 28.5544 2.177C28.8385 2.29435 29.0968 2.4666 29.3143 2.68389C29.5318 2.90117 29.7044 3.15923 29.822 3.44329C29.9397 3.72734 30.0002 4.03182 30 4.33928V27.6582C30.0003 27.9657 29.94 28.2703 29.8225 28.5545C29.705 28.8387 29.5327 29.0969 29.3153 29.3144C29.0979 29.5319 28.8398 29.7044 28.5556 29.8221C28.2715 29.9397 27.967 30.0002 27.6595 30H4.33927C4.03197 30 3.72767 29.9395 3.44378 29.8218C3.15988 29.7042 2.90195 29.5318 2.68471 29.3144C2.46747 29.097 2.29519 28.839 2.1777 28.555C2.06022 28.2711 1.99983 27.9668 2 27.6595V4.33928ZM13.0829 12.6756H16.8744V14.5796C17.4216 13.4851 18.8216 12.5 20.9255 12.5C24.9587 12.5 25.9145 14.6802 25.9145 18.6804V26.0902H21.8329V19.5916C21.8329 17.3135 21.2856 16.028 19.8958 16.028C17.9676 16.028 17.1658 17.414 17.1658 19.5916V26.0902H13.0829V12.6756ZM6.08291 25.9158H10.1658V12.5H6.08291V25.9145V25.9158ZM10.75 8.12437C10.7577 8.47395 10.6955 8.82155 10.567 9.14677C10.4386 9.47198 10.2464 9.76827 10.0019 10.0182C9.75741 10.2682 9.46543 10.4668 9.14312 10.6024C8.82081 10.738 8.47467 10.8078 8.125 10.8078C7.77533 10.8078 7.42919 10.738 7.10688 10.6024C6.78457 10.4668 6.49258 10.2682 6.24807 10.0182C6.00355 9.76827 5.81143 9.47198 5.68297 9.14677C5.55451 8.82155 5.4923 8.47395 5.5 8.12437C5.51511 7.43818 5.79831 6.78519 6.28894 6.30524C6.77958 5.82529 7.43865 5.55653 8.125 5.55653C8.81135 5.55653 9.47042 5.82529 9.96105 6.30524C10.4517 6.78519 10.7349 7.43818 10.75 8.12437Z" fill="black"/>
</svg>
