<svg width="32" height="32" viewBox="0 0 32 32" fill="none" xmlns="http://www.w3.org/2000/svg">
<path fill-rule="evenodd" clip-rule="evenodd" d="M2 14.867C2 13.3302 3.35601 12.0827 4.87475 12.3358C8.58323 12.9341 12.0093 14.6846 14.6671 17.3391C17.3249 19.9937 19.0796 23.4176 19.6824 27.1254C19.9175 28.6441 18.6699 30.0001 17.1331 30.0001C15.8494 30.0001 14.8188 29.0419 14.6019 27.7763C13.6617 22.4968 9.50327 18.3203 4.22386 17.3982C2.95825 17.1813 2 16.1507 2 14.867ZM2 4.5613C2 3.06065 3.31985 1.84928 4.82051 2.012C18.1094 3.33185 28.6683 13.9088 29.9881 27.1796C30.1327 28.6803 28.9395 30.0001 27.4207 30.0001C26.1009 30.0001 25.0161 29.0057 24.8895 27.6858C23.8047 16.8197 15.1624 8.17734 4.29618 7.09253C2.99441 6.96597 2 5.88116 2 4.5613ZM9.88296 26.0585C9.88296 28.2353 8.1183 30 5.94148 30C3.76466 30 2 28.2353 2 26.0585C2 23.8817 3.76466 22.117 5.94148 22.117C8.1183 22.117 9.88296 23.8817 9.88296 26.0585Z" fill="black"/>
</svg>
