<svg width="32" height="32" viewBox="0 0 32 32" fill="none" xmlns="http://www.w3.org/2000/svg">
<path d="M17.7849 2.00361C17.4647 1.98619 17.1442 2.03194 16.8418 2.13826C16.5536 2.23457 16.2874 2.38693 16.0584 2.58658C15.8294 2.78622 15.6423 3.02918 15.5077 3.30147C15.3731 3.57375 15.2938 3.86996 15.2744 4.17302C15.2549 4.47608 15.2957 4.78 15.3943 5.06725L16.3708 7.92836L10.847 9.78012L9.93731 7.01918C9.84095 6.73117 9.68851 6.46507 9.48876 6.23623C9.28901 6.00739 9.04591 5.82033 8.77348 5.68584C8.50105 5.55135 8.20468 5.4721 7.90145 5.45264C7.59823 5.43318 7.29415 5.4739 7.00674 5.57247C5.78558 5.97966 5.11626 7.28526 5.52475 8.50037L6.43443 11.2268L3.57176 12.2039C2.35383 12.6122 1.71469 13.949 2.12318 15.1663C2.21943 15.4544 2.3718 15.7206 2.5715 15.9495C2.7712 16.1785 3.01429 16.3657 3.28673 16.5003C3.55917 16.6349 3.85558 16.7142 4.15886 16.7337C4.46213 16.7533 4.76628 16.7126 5.05375 16.6141L7.91642 15.6715L9.76917 21.1578L7.00674 22.067C6.71858 22.1633 6.45233 22.3157 6.22337 22.5153C5.9944 22.7149 5.80724 22.9579 5.67268 23.2302C5.53812 23.5025 5.45882 23.7987 5.43935 24.1017C5.41988 24.4048 5.46063 24.7087 5.55924 24.996C5.96666 26.2165 7.27296 26.8854 8.48873 26.4772L11.2167 25.568L12.1942 28.4291C12.6027 29.6464 13.9403 30.2852 15.1582 29.8769C15.4465 29.7807 15.7128 29.6284 15.9419 29.4288C16.171 29.2292 16.3583 28.9863 16.493 28.714C16.6276 28.4417 16.707 28.1454 16.7266 27.8423C16.7461 27.5392 16.7054 27.2352 16.6068 26.9479L15.6637 24.0868L21.153 22.235L22.0627 24.996C22.159 25.284 22.3115 25.5501 22.5112 25.7789C22.711 26.0078 22.9541 26.1948 23.2265 26.3293C23.4989 26.4638 23.7953 26.5431 24.0985 26.5625C24.4018 26.582 24.7059 26.5412 24.9933 26.4427C26.2144 26.0355 26.8837 24.7299 26.4752 23.5148L25.5656 20.7872L28.4282 19.8113C29.6462 19.403 30.2853 18.0662 29.8768 16.8489C29.7805 16.5609 29.628 16.2948 29.4283 16.0659C29.2285 15.8371 28.9854 15.65 28.713 15.5155C28.4406 15.3811 28.1442 15.3018 27.841 15.2823C27.5377 15.2629 27.2337 15.3036 26.9462 15.4022L24.0836 16.3437L22.2308 10.8573L24.9933 9.94817C25.2814 9.85186 25.5477 9.6995 25.7766 9.49986C26.0056 9.30021 26.1928 9.05725 26.3273 8.78496C26.4619 8.51268 26.5412 8.21647 26.5606 7.91341C26.5801 7.61035 26.5394 7.30643 26.4408 7.01918C26.0333 5.80299 24.727 5.12973 23.5113 5.538L20.7822 6.44718L19.8057 3.58606C19.6618 3.15296 19.3934 2.77187 19.0339 2.49042C18.6745 2.20897 18.24 2.03964 17.7849 2.00361ZM17.8193 12.3385L19.671 17.8259L14.1817 19.6766L12.3279 14.1903L17.8193 12.3385Z" fill="black"/>
</svg>
