<?xml version="1.0" encoding="UTF-8"?>
<svg width="20px" height="20px" viewBox="0 0 20 20" version="1.1" xmlns="http://www.w3.org/2000/svg" xmlns:xlink="http://www.w3.org/1999/xlink">
    <!-- Generator: Sketch 59.1 (86144) - https://sketch.com -->
    <title>widget-fixed</title>
    <desc>Created with Sketch.</desc>
    <g id="Style" stroke="none" stroke-width="1" fill="none" fill-rule="evenodd">
        <g id="$0-UI-icons" transform="translate(-160.000000, -1219.000000)" fill="#000000" fill-rule="nonzero">
            <path d="M178,1219 C179.104569,1219 180,1219.89543 180,1221 L180,1237 C180,1238.10457 179.104569,1239 178,1239 L162,1239 C160.895431,1239 160,1238.10457 160,1237 L160,1221 C160,1219.89543 160.895431,1219 162,1219 L178,1219 Z M178,1220 L162,1220 C161.447715,1220 161,1220.44772 161,1221 L161,1237 C161,1237.55228 161.447715,1238 162,1238 L178,1238 C178.552285,1238 179,1237.55228 179,1237 L179,1221 C179,1220.44772 178.552285,1220 178,1220 Z M175,1235 L175,1236 L174,1236 L174,1235 L175,1235 Z M177,1234 L177,1236 L176,1236 L176,1234 L177,1234 Z M173,1235 L173,1236 L171,1236 L171,1235 L173,1235 Z M172,1233 L172,1234 L171,1234 L171,1233 L172,1233 Z M177,1232 L177,1233 L176,1233 L176,1232 L177,1232 Z M172,1230 L172,1232 L171,1232 L171,1230 L172,1230 Z M174,1230 L174,1231 L173,1231 L173,1230 L174,1230 Z M177,1230 L177,1231 L175,1231 L175,1230 L177,1230 Z M170,1222 L170,1229 L163,1229 L163,1222 L170,1222 Z" id="widget-fixed"></path>
        </g>
    </g>
</svg>