<svg width="16" height="16" viewBox="0 0 16 16" fill="none" xmlns="http://www.w3.org/2000/svg">
<path fill-rule="evenodd" clip-rule="evenodd" d="M3.5 2C3.22386 2 3 2.22386 3 2.5C3 2.77614 3.22386 3 3.5 3H7L5.13199 11.406C5.06426 11.7108 5.29621 12 5.60847 12C5.83723 12 6.03531 11.8411 6.08494 11.6178L8 3H11.5C11.7761 3 12 2.77614 12 2.5C12 2.22386 11.7761 2 11.5 2H3.5ZM2.5 13C2.22386 13 2 13.2239 2 13.5C2 13.7761 2.22386 14 2.5 14H7.5C7.77614 14 8 13.7761 8 13.5C8 13.2239 7.77614 13 7.5 13H2.5ZM9.13967 9.13967C9.32589 8.95344 9.62782 8.95344 9.81405 9.13967L11.5001 10.8257L13.1861 9.13967C13.3723 8.95344 13.6742 8.95344 13.8604 9.13967C14.0467 9.32589 14.0467 9.62782 13.8604 9.81405L12.1744 11.5001L13.8603 13.186C14.0466 13.3722 14.0466 13.6741 13.8603 13.8603C13.6741 14.0466 13.3722 14.0466 13.186 13.8603L11.5001 12.1744L9.81417 13.8603C9.62794 14.0466 9.32601 14.0466 9.13978 13.8603C8.95356 13.6741 8.95356 13.3722 9.13978 13.186L10.8257 11.5001L9.13967 9.81405C8.95344 9.62782 8.95344 9.32589 9.13967 9.13967Z" fill="black"/>
</svg>
