<svg width="16" height="16" viewBox="0 0 16 16" fill="none" xmlns="http://www.w3.org/2000/svg">
<path fill-rule="evenodd" clip-rule="evenodd" d="M2 2H14V14H2V2ZM1 15V1H15V15H1ZM5.17135 5.8787C4.97609 5.68344 4.97609 5.36686 5.17135 5.17159C5.36661 4.97633 5.68319 4.97633 5.87846 5.17159L7.99978 7.29291L10.1211 5.17159C10.3164 4.97633 10.6329 4.97633 10.8282 5.17159C11.0235 5.36686 11.0235 5.68344 10.8282 5.8787L8.70688 8.00002L10.8282 10.1213C11.0235 10.3166 11.0235 10.6332 10.8282 10.8284C10.6329 11.0237 10.3164 11.0237 10.1211 10.8284L7.99978 8.70713L5.87846 10.8284C5.68319 11.0237 5.36661 11.0237 5.17135 10.8284C4.97609 10.6332 4.97609 10.3166 5.17135 10.1213L7.29267 8.00002L5.17135 5.8787Z" fill="black"/>
</svg>
