<svg width="16" height="16" viewBox="0 0 16 16" fill="none" xmlns="http://www.w3.org/2000/svg">
<path fill-rule="evenodd" clip-rule="evenodd" d="M14 5V6H13V5C13 3.94564 12.1841 3.08183 11.1493 3.00549L11 3H10V2H11C12.6569 2 14 3.34315 14 5ZM3 10H2V11C2 12.6569 3.34315 14 5 14H6V13H5L4.85074 12.9945C3.81588 12.9182 3 12.0544 3 11V10ZM14 11V10H13V11L12.9945 11.1493C12.9182 12.1841 12.0544 13 11 13H10V14H11C12.6569 14 14 12.6569 14 11ZM6 3V2H5C3.34315 2 2 3.34315 2 5V6H3V5L3.00549 4.85074C3.08183 3.81588 3.94564 3 5 3H6Z" fill="black"/>
</svg>
