<svg width="16" height="16" viewBox="0 0 16 16" fill="none" xmlns="http://www.w3.org/2000/svg">
<path fill-rule="evenodd" clip-rule="evenodd" d="M14.9937 2.24258C14.9271 1.54531 14.3397 1 13.625 1H6.375L6.24258 1.00629C5.54531 1.07292 5 1.66028 5 2.375V4.125H5.91667V2.375L5.92405 2.29261C5.96286 2.0788 6.15 1.91667 6.375 1.91667H13.625L13.7074 1.92405C13.9212 1.96286 14.0833 2.15 14.0833 2.375V9.625L14.0759 9.70739C14.0371 9.9212 13.85 10.0833 13.625 10.0833H11.8871V11H13.625L13.7574 10.9937C14.4547 10.9271 15 10.3397 15 9.625V2.375L14.9937 2.24258ZM9.625 5H2.375C1.61561 5 1 5.61561 1 6.375V13.625C1 14.3844 1.61561 15 2.375 15H9.625C10.3844 15 11 14.3844 11 13.625V6.375C11 5.61561 10.3844 5 9.625 5ZM2.4 6H9.6C9.82091 6 10 6.20147 10 6.45V13.55C10 13.7985 9.82091 14 9.6 14H2.4C2.17909 14 2 13.7985 2 13.55V6.45C2 6.20147 2.17909 6 2.4 6ZM4 8H8V9H4V8ZM8 11H4V12H8V11Z" fill="black"/>
</svg>
