<svg width="16" height="16" viewBox="0 0 16 16" fill="none" xmlns="http://www.w3.org/2000/svg">
<path fill-rule="evenodd" clip-rule="evenodd" d="M11.2265 1.31182C10.8228 0.908183 10.1819 0.894633 9.79502 1.28155L2.4897 8.58681L2.00941 11.2608C1.99535 11.3391 1.99706 11.42 2.01445 11.499C2.08718 11.8293 2.41164 12.0493 2.73914 11.9905L5.41313 11.5102L12.7184 4.20495C13.1054 3.81803 13.0918 3.17715 12.6882 2.77352L11.2265 1.31182ZM3.11265 10.8873L3.43268 9.10553L8.4241 4.11415L9.88581 5.57585L4.89439 10.5672L3.11265 10.8873ZM10.5864 4.87527L11.9876 3.4741L10.5259 2.0124L9.12469 3.41357L10.5864 4.87527Z" fill="black"/>
<path d="M1.5 14C1.22386 14 1 14.2239 1 14.5C1 14.7761 1.22386 15 1.5 15H14.5C14.7761 15 15 14.7761 15 14.5C15 14.2239 14.7761 14 14.5 14H1.5Z" fill="black"/>
</svg>
