<svg width="16" height="16" viewBox="0 0 16 16" fill="none" xmlns="http://www.w3.org/2000/svg">
<path fill-rule="evenodd" clip-rule="evenodd" d="M3 6C2.70887 6 2.47287 5.76897 2.47287 5.48398L2.47287 2.97555L1.89987 3.47324C1.69401 3.67476 1.36025 3.67476 1.15439 3.47324C0.948535 3.27172 0.948535 2.94499 1.15439 2.74347L3 1L4.84561 2.74347C5.05147 2.94499 5.05147 3.27172 4.84561 3.47324C4.63975 3.67476 4.30599 3.67476 4.10013 3.47324L3.52713 2.97555L3.52713 5.48398C3.52713 5.76897 3.29113 6 3 6ZM3 10C3.29113 10 3.52713 10.231 3.52713 10.516L3.52713 13.0244L4.10013 12.5268C4.30599 12.3252 4.63975 12.3252 4.84561 12.5268C5.05147 12.7283 5.05147 13.055 4.84561 13.2565L3 15L1.15439 13.2565C0.948536 13.055 0.948536 12.7283 1.15439 12.5268C1.36025 12.3252 1.69401 12.3252 1.89987 12.5268L2.47287 13.0244L2.47287 10.516C2.47287 10.231 2.70887 10 3 10ZM7.4375 1.5C7.19588 1.5 7 1.72386 7 2C7 2.27614 7.19588 2.5 7.4375 2.5H14.5625C14.8041 2.5 15 2.27614 15 2C15 1.72386 14.8041 1.5 14.5625 1.5H7.4375ZM7 5C7 4.72386 7.19588 4.5 7.4375 4.5H14.5625C14.8041 4.5 15 4.72386 15 5C15 5.27614 14.8041 5.5 14.5625 5.5H7.4375C7.19588 5.5 7 5.27614 7 5ZM7 8C7 7.72386 7.19588 7.5 7.4375 7.5H14.5625C14.8041 7.5 15 7.72386 15 8C15 8.27614 14.8041 8.5 14.5625 8.5H7.4375C7.19588 8.5 7 8.27614 7 8ZM7 11C7 10.7239 7.19588 10.5 7.4375 10.5H14.5625C14.8041 10.5 15 10.7239 15 11C15 11.2761 14.8041 11.5 14.5625 11.5H7.4375C7.19588 11.5 7 11.2761 7 11ZM7 14C7 13.7239 7.19588 13.5 7.4375 13.5H14.5625C14.8041 13.5 15 13.7239 15 14C15 14.2761 14.8041 14.5 14.5625 14.5H7.4375C7.19588 14.5 7 14.2761 7 14Z" fill="black"/>
</svg>
