<svg width="16" height="16" viewBox="0 0 16 16" fill="none" xmlns="http://www.w3.org/2000/svg">
<path fill-rule="evenodd" clip-rule="evenodd" d="M5.65819 1.93469C5.16505 1.43936 4.49414 1.16206 3.79519 1.16469C2.72994 1.16413 1.76931 1.8055 1.36145 2.78957C0.953591 3.77365 1.17887 4.90652 1.93219 5.65969L3.34719 7.07469C3.1864 7.59866 3.12634 8.14836 3.17019 8.69469L1.11219 6.48069C0.15311 5.52179 -0.221549 4.12406 0.129344 2.81403C0.480237 1.50399 1.50337 0.480664 2.81334 0.129527C4.12332 -0.22161 5.52111 0.152788 6.48019 1.11169L9.20919 3.84069C10.6889 5.3249 10.6889 7.72647 9.20919 9.21069C8.9112 9.50315 8.56646 9.7438 8.18919 9.92269L7.47919 9.21069C7.42153 9.14746 7.37305 9.07643 7.33519 8.99969C7.73497 8.89551 8.09894 8.68467 8.38819 8.38969C9.41483 7.35946 9.41483 5.69292 8.38819 4.66269L5.65819 1.93469ZM11.0725 14.8713C12.0794 14.8715 13.0451 14.4716 13.7572 13.7597C15.2382 12.2752 15.2382 9.87214 13.7572 8.38769L11.6982 6.17469C11.7414 6.72108 11.6811 7.27073 11.5202 7.79469L12.9352 9.20869C13.9632 10.2392 13.9632 11.9072 12.9352 12.9377C11.9059 13.9647 10.2395 13.9647 9.21019 12.9377L6.48019 10.2077C5.45311 9.17803 5.45311 7.51135 6.48019 6.48169C6.76866 6.18618 7.13134 5.97375 7.53019 5.86669C7.4932 5.79162 7.44609 5.72197 7.39019 5.65969L6.71819 4.92969C5.59543 5.44692 4.79864 6.48299 4.58696 7.7009C4.37529 8.91881 4.77579 10.163 5.65819 11.0287L8.38819 13.7587C9.09997 14.4709 10.0656 14.8711 11.0725 14.8713Z" fill="black"/>
</svg>
