<svg width="16" height="16" viewBox="0 0 16 16" fill="none" xmlns="http://www.w3.org/2000/svg">
<path d="M14.9382 8C14.9382 11.866 11.8042 15 7.9382 15C4.41171 15 1.49435 12.3923 1.00912 9H8.75257e-05C0.492153 12.9463 3.85849 16 7.9382 16C12.3565 16 15.9382 12.4182 15.9382 8C15.9382 3.58179 12.3565 0 7.9382 0C4.98514 0 2.40586 1.59995 1.01987 3.98036L0.999991 0.701651C0.998317 0.425513 0.773107 0.203017 0.496969 0.204691C0.220832 0.206365 -0.00166458 0.431575 9.38401e-06 0.707713L0.0314892 5.90072L5.15859 5.07539C5.43122 5.0315 5.61666 4.77491 5.57277 4.50228C5.52888 4.22965 5.27229 4.04421 4.99966 4.0881L1.81768 4.60032C3.01307 2.45278 5.30605 1 7.9382 1C11.8042 1 14.9382 4.13403 14.9382 8Z" fill="black"/>
</svg>
