<svg width="16" height="16" viewBox="0 0 16 16" fill="none" xmlns="http://www.w3.org/2000/svg">
<path fill-rule="evenodd" clip-rule="evenodd" d="M2.90543 3.2435V5.3H3.6V2.5H2.96331L2 3.17627L2.35969 3.64689L2.90543 3.2435ZM5.5 3.5C5.22386 3.5 5 3.72386 5 4C5 4.27614 5.22386 4.5 5.5 4.5H13.5C13.7761 4.5 14 4.27614 14 4C14 3.72386 13.7761 3.5 13.5 3.5H5.5ZM2.05693 9.3V8.7608L3.10436 7.79794C3.17015 7.73375 3.22328 7.66827 3.26376 7.60151C3.30424 7.53475 3.32448 7.46029 3.32448 7.37813C3.32448 7.28056 3.29412 7.2016 3.2334 7.14127C3.17268 7.08093 3.09171 7.05076 2.99051 7.05076C2.88425 7.05076 2.7976 7.08863 2.73055 7.16437C2.6635 7.24012 2.62366 7.33961 2.61101 7.46286L2 7.37813C2.01518 7.23948 2.0525 7.11623 2.11195 7.00839C2.17141 6.90055 2.24668 6.80876 2.33776 6.73301C2.42884 6.65727 2.53321 6.5995 2.65085 6.5597C2.7685 6.5199 2.89311 6.5 3.02467 6.5C3.14864 6.5 3.26882 6.51669 3.3852 6.55007C3.50158 6.58345 3.60531 6.6348 3.69639 6.70413C3.78748 6.77345 3.86021 6.86075 3.91461 6.96602C3.96901 7.0713 3.9962 7.19454 3.9962 7.33576C3.9962 7.43333 3.98355 7.52127 3.95825 7.59959C3.93295 7.6779 3.89817 7.75044 3.85389 7.81719C3.80961 7.88395 3.75901 7.94622 3.70209 8.00399C3.64516 8.06176 3.58634 8.11889 3.52562 8.17538L2.90323 8.73769H4V9.3H2.05693ZM3.9147 13.0327C3.97157 12.9264 4 12.8006 4 12.6555C4 12.5804 3.9879 12.5097 3.9637 12.4434C3.9395 12.3771 3.90563 12.3171 3.86207 12.2633C3.81851 12.2095 3.76649 12.1632 3.70599 12.1244C3.64549 12.0856 3.57895 12.0575 3.50635 12.0399V12.0287C3.63218 11.9937 3.73563 11.9255 3.8167 11.8241C3.89776 11.7228 3.93829 11.5983 3.93829 11.4507C3.93829 11.3231 3.91228 11.2123 3.86025 11.1185C3.80823 11.0247 3.73987 10.9465 3.65517 10.8839C3.57048 10.8214 3.47429 10.7751 3.36661 10.745C3.25892 10.715 3.14822 10.7 3.03448 10.7C2.92801 10.7 2.82396 10.7144 2.72232 10.7432C2.62069 10.7719 2.52692 10.8145 2.44102 10.8708C2.35511 10.9271 2.2807 10.9971 2.21779 11.081C2.15487 11.1648 2.10768 11.263 2.07623 11.3756L2.64247 11.5107C2.66183 11.4206 2.70357 11.3487 2.7677 11.2949C2.83182 11.2411 2.90744 11.2142 2.99456 11.2142C3.07925 11.2142 3.15426 11.2392 3.2196 11.2893C3.28494 11.3393 3.3176 11.4119 3.3176 11.507C3.3176 11.572 3.3049 11.6246 3.27949 11.6646C3.25408 11.7046 3.22021 11.7366 3.17786 11.7603C3.13551 11.7841 3.08772 11.8004 3.03448 11.8091C2.98125 11.8179 2.92559 11.8223 2.86751 11.8223H2.68966V12.2839H2.85299C2.91591 12.2839 2.97883 12.2895 3.04174 12.3008C3.10466 12.3121 3.16092 12.3308 3.21053 12.3571C3.26013 12.3834 3.30006 12.419 3.33031 12.4641C3.36056 12.5091 3.37568 12.5654 3.37568 12.633C3.37568 12.6955 3.36419 12.7481 3.3412 12.7906C3.31821 12.8332 3.28917 12.8676 3.25408 12.8938C3.219 12.9201 3.17907 12.9395 3.1343 12.952C3.08953 12.9645 3.04537 12.9708 3.00181 12.9708C2.88566 12.9708 2.79008 12.9376 2.71506 12.8713C2.64005 12.805 2.59044 12.7281 2.56624 12.6405L2 12.7944C2.03388 12.9195 2.08469 13.0265 2.15245 13.1153C2.22021 13.2041 2.29946 13.2767 2.3902 13.333C2.48094 13.3893 2.58137 13.4312 2.69147 13.4587C2.80157 13.4862 2.9147 13.5 3.03085 13.5C3.14943 13.5 3.26618 13.4831 3.38113 13.4493C3.49607 13.4155 3.59952 13.3643 3.69147 13.2954C3.78342 13.2266 3.85783 13.1391 3.9147 13.0327ZM5 8C5 7.72386 5.22386 7.5 5.5 7.5H13.5C13.7761 7.5 14 7.72386 14 8C14 8.27614 13.7761 8.5 13.5 8.5H5.5C5.22386 8.5 5 8.27614 5 8ZM5.5 11.5C5.22386 11.5 5 11.7239 5 12C5 12.2761 5.22386 12.5 5.5 12.5H13.5C13.7761 12.5 14 12.2761 14 12C14 11.7239 13.7761 11.5 13.5 11.5H5.5Z" fill="black"/>
</svg>
