<svg width="16" height="16" viewBox="0 0 16 16" fill="none" xmlns="http://www.w3.org/2000/svg">
<path fill-rule="evenodd" clip-rule="evenodd" d="M5 2.5C5 2.22386 4.77614 2 4.5 2C4.22386 2 4 2.22386 4 2.5V8C4 10.2091 5.79086 12 8 12C10.2091 12 12 10.2091 12 8V2.5C12 2.22386 11.7761 2 11.5 2C11.2239 2 11 2.22386 11 2.5V8C11 9.65685 9.65685 11 8 11C6.34315 11 5 9.65685 5 8V2.5ZM12 13.5C12 13.2239 11.7761 13 11.5 13H4.5C4.22386 13 4 13.2239 4 13.5C4 13.7761 4.22386 14 4.5 14H11.5C11.7761 14 12 13.7761 12 13.5Z" fill="black"/>
</svg>
