<svg width="16" height="16" viewBox="0 0 16 16" fill="none" xmlns="http://www.w3.org/2000/svg">
<rect opacity="0.01" width="16" height="16" fill="black"/>
<path d="M2 7.52703C2.43347 7.52703 2.76136 7.37463 2.98365 7.06982C3.20595 6.76502 3.3171 6.33408 3.3171 5.77703V3.97072C3.3171 3.60285 3.36711 3.29279 3.46714 3.04054C3.56718 2.78829 3.70055 2.58859 3.86727 2.44144C4.034 2.28378 4.22295 2.17342 4.43413 2.11036C4.65642 2.03679 4.88427 2 5.11768 2H6.16802V2.85135H5.36776C5.1677 2.85135 5.00098 2.89339 4.8676 2.97748C4.74534 3.05105 4.65086 3.1509 4.58417 3.27703C4.51749 3.40315 4.47303 3.54505 4.4508 3.7027C4.42857 3.86036 4.41745 4.01276 4.41745 4.15991V5.96622C4.41745 6.34459 4.35632 6.66516 4.23406 6.92793C4.12291 7.18018 3.98398 7.38514 3.81726 7.54279C3.66165 7.68994 3.50049 7.8003 3.33377 7.87387C3.16705 7.93694 3.03367 7.97372 2.93364 7.98423V8.01577C3.03367 8.02628 3.16705 8.06832 3.33377 8.14189C3.50049 8.20496 3.66165 8.31532 3.81726 8.47297C3.98398 8.62012 4.12291 8.82508 4.23406 9.08784C4.35632 9.34009 4.41745 9.65541 4.41745 10.0338V11.8401C4.41745 11.9872 4.42857 12.1396 4.4508 12.2973C4.47303 12.455 4.51749 12.5968 4.58417 12.723C4.65086 12.8491 4.74534 12.9489 4.8676 13.0225C5.00098 13.1066 5.1677 13.1486 5.36776 13.1486H6.16802V14H5.11768C4.88427 14 4.65642 13.9632 4.43413 13.8896C4.22295 13.8266 4.034 13.7162 3.86727 13.5586C3.70055 13.4114 3.56718 13.2117 3.46714 12.9595C3.36711 12.7072 3.3171 12.3971 3.3171 12.0293V10.223C3.3171 9.66592 3.20595 9.23498 2.98365 8.93018C2.76136 8.62538 2.43347 8.47297 2 8.47297V7.52703Z" fill="black"/>
<path d="M14 8.47297C13.5665 8.47297 13.2386 8.62538 13.0163 8.93018C12.7941 9.23498 12.6829 9.66592 12.6829 10.223V12.0293C12.6829 12.3971 12.6329 12.7072 12.5329 12.9595C12.4328 13.2117 12.2994 13.4114 12.1327 13.5586C11.966 13.7162 11.7715 13.8266 11.5492 13.8896C11.338 13.9632 11.1157 14 10.8823 14H9.83198V13.1486H10.6322C10.8323 13.1486 10.9935 13.1066 11.1157 13.0225C11.2491 12.9489 11.3491 12.8491 11.4158 12.723C11.4825 12.5968 11.527 12.455 11.5492 12.2973C11.5714 12.1396 11.5825 11.9872 11.5825 11.8401V10.0338C11.5825 9.65541 11.6381 9.34009 11.7493 9.08784C11.8715 8.82508 12.0105 8.62012 12.1661 8.47297C12.3328 8.31532 12.4995 8.20496 12.6662 8.14189C12.833 8.06832 12.9663 8.02628 13.0664 8.01577V7.98423C12.9663 7.97372 12.833 7.93694 12.6662 7.87387C12.4995 7.8003 12.3328 7.68994 12.1661 7.54279C12.0105 7.38514 11.8715 7.18018 11.7493 6.92793C11.6381 6.66516 11.5825 6.34459 11.5825 5.96622V4.15991C11.5825 4.01276 11.5714 3.86036 11.5492 3.7027C11.527 3.54505 11.4825 3.40315 11.4158 3.27703C11.3491 3.1509 11.2491 3.05105 11.1157 2.97748C10.9935 2.89339 10.8323 2.85135 10.6322 2.85135H9.83198V2H10.8823C11.1157 2 11.338 2.03679 11.5492 2.11036C11.7715 2.17342 11.966 2.28378 12.1327 2.44144C12.2994 2.58859 12.4328 2.78829 12.5329 3.04054C12.6329 3.29279 12.6829 3.60285 12.6829 3.97072V5.77703C12.6829 6.33408 12.7941 6.76502 13.0163 7.06982C13.2386 7.37463 13.5665 7.52703 14 7.52703V8.47297Z" fill="black"/>
</svg>
