<svg width="16" height="16" viewBox="0 0 16 16" fill="none" xmlns="http://www.w3.org/2000/svg">
<path fill-rule="evenodd" clip-rule="evenodd" d="M5 1.5C5 1.22386 5.22386 1 5.5 1C5.77614 1 6 1.22386 6 1.5V2H10V1.5C10 1.22386 10.2239 1 10.5 1C10.7761 1 11 1.22386 11 1.5V2H14C14.5523 2 15 2.44772 15 3V14C15 14.5523 14.5523 15 14 15H2C1.44772 15 1 14.5523 1 14V3C1 2.44772 1.44772 2 2 2H5V1.5ZM10 3V3.5C10 3.77614 10.2239 4 10.5 4C10.7761 4 11 3.77614 11 3.5V3H14V5H2V3H5V3.5C5 3.77614 5.22386 4 5.5 4C5.77614 4 6 3.77614 6 3.5V3H10ZM2 6H14V14H2V6ZM6 7.60088L8.61866 10L6 12.3991L6.69067 13L10 10L6.69067 7L6 7.60088Z" fill="black"/>
</svg>
