<svg width="16" height="16" viewBox="0 0 16 16" fill="none" xmlns="http://www.w3.org/2000/svg">
<path fill-rule="evenodd" clip-rule="evenodd" d="M13.9298 4.40511L14.8414 3.85121C13.4002 1.47931 10.8275 0 8 0C6.55302 0 5.1611 0.385186 3.9412 1.1047L4.4831 2.02346C5.38929 1.48898 6.40444 1.16762 7.46667 1.08686V4.84424C5.95322 5.09815 4.8 6.4144 4.8 8C4.8 8.42999 4.88481 8.84016 5.03861 9.21472L1.79136 11.0895C1.32755 10.1593 1.06667 9.1101 1.06667 8C1.06667 7.27762 1.17698 6.57076 1.39125 5.89683L0.374721 5.57364C0.127323 6.35178 0 7.16762 0 8C0 12.4183 3.58172 16 8 16C10.8094 16 13.368 14.5396 14.8149 12.1921L13.9069 11.6324C12.7445 13.5183 10.7562 14.7431 8.53333 14.913V11.1558C10.0468 10.9018 11.2 9.5856 11.2 8C11.2 6.4144 10.0468 5.09815 8.53333 4.84424V1.08699C10.7715 1.25808 12.7714 2.49864 13.9298 4.40511ZM2.33951 12.0047C3.49906 13.6407 5.35004 14.7521 7.46667 14.9131V11.1558C6.72955 11.0321 6.07789 10.6564 5.60329 10.1204L2.33951 12.0047ZM10.1333 8C10.1333 9.17821 9.17821 10.1333 8 10.1333C6.82179 10.1333 5.86667 9.17821 5.86667 8C5.86667 6.82179 6.82179 5.86667 8 5.86667C9.17821 5.86667 10.1333 6.82179 10.1333 8ZM3.73333 3.2C3.73333 4.08366 3.01699 4.8 2.13333 4.8C1.24968 4.8 0.533333 4.08366 0.533333 3.2C0.533333 2.31634 1.24968 1.6 2.13333 1.6C3.01699 1.6 3.73333 2.31634 3.73333 3.2ZM15.5324 10.7011L14.5283 10.341C14.7952 9.59682 14.9333 8.80824 14.9333 8C14.9333 7.24232 14.812 6.5018 14.5767 5.79865L15.5883 5.46022C15.8599 6.27213 16 7.12691 16 8C16 8.93142 15.8406 9.84179 15.5324 10.7011Z" fill="black"/>
</svg>
