<svg width="16" height="16" viewBox="0 0 16 16" fill="none" xmlns="http://www.w3.org/2000/svg">
<path d="M2.34298 8.00008L4.11075 6.23231L4.81786 6.93942L3.05009 8.70719C1.8786 9.87868 1.87851 11.7783 3.05009 12.9498C4.22167 14.1214 6.12124 14.1213 7.29273 12.9498L9.0605 11.1821L9.7676 11.8892L7.99984 13.6569C6.43768 15.2191 3.90508 15.219 2.34298 13.6569C0.780887 12.0948 0.780822 9.56224 2.34298 8.00008Z" fill="black"/>
<path d="M12.9496 7.29297L11.1818 9.06074L11.8889 9.76785L13.6567 8.00008C15.2189 6.43792 15.2188 3.90532 13.6567 2.34323C12.0946 0.781131 9.562 0.781066 7.99984 2.34323L6.23207 4.11099L6.93918 4.8181L8.70694 3.05033C9.87843 1.87884 11.778 1.87876 12.9496 3.05033C14.1212 4.22191 14.1211 6.12148 12.9496 7.29297Z" fill="black"/>
<path d="M5.87852 9.41429C5.68327 9.60954 5.68325 9.92613 5.87852 10.1214C6.07379 10.3167 6.39037 10.3167 6.58562 10.1214L10.1212 6.58587C10.3164 6.39062 10.3164 6.07403 10.1212 5.87876C9.92589 5.68349 9.6093 5.68351 9.41405 5.87876L5.87852 9.41429Z" fill="black"/>
</svg>
