<svg width="16" height="16" viewBox="0 0 16 16" fill="none" xmlns="http://www.w3.org/2000/svg">
<path fill-rule="evenodd" clip-rule="evenodd" d="M1 7L4 1L7 7H1ZM2.61804 6L4 3.23584L5.38196 6H2.61804ZM2 14V10H6V14H2ZM1 15V9H7V15H1ZM14 2H10V6H14V2ZM9 1V7H15V1H9ZM12 14C10.8954 14 10 13.1045 10 12C10 10.8955 10.8954 10 12 10C13.1046 10 14 10.8955 14 12C14 13.1045 13.1046 14 12 14ZM9 12C9 10.3433 10.3431 9 12 9C13.6569 9 15 10.3433 15 12C15 13.6567 13.6569 15 12 15C10.3431 15 9 13.6567 9 12Z" fill="black"/>
</svg>
