<svg width="16" height="16" viewBox="0 0 16 16" fill="none" xmlns="http://www.w3.org/2000/svg">
<path fill-rule="evenodd" clip-rule="evenodd" d="M13.3333 5L10.6667 3H5.33331L2.66669 5H13.3333ZM2 14V6H14V14H2ZM5 2H11L15 5V15H1V5L5 2ZM5.5 7C5.5 7.33301 5.70251 7.6958 6.15601 7.99805C6.60602 8.29834 7.25653 8.5 8 8.5C8.74347 8.5 9.39398 8.29834 9.84399 7.99805C10.2975 7.6958 10.5 7.33301 10.5 7H11.5C11.5 7.77148 11.0309 8.40869 10.3987 8.83008C9.76288 9.25391 8.91339 9.5 8 9.5C7.08661 9.5 6.23712 9.25391 5.60132 8.83008C4.96906 8.40869 4.5 7.77148 4.5 7H5.5Z" fill="black"/>
</svg>
