<svg width="16" height="16" viewBox="0 0 16 16" fill="none" xmlns="http://www.w3.org/2000/svg">
<path fill-rule="evenodd" clip-rule="evenodd" d="M12 6.5C12 7.02661 11.926 7.53594 11.7878 8.01814L12.7005 8.45623C12.8951 7.83884 13 7.18167 13 6.5C13 2.91015 10.0899 0 6.5 0C2.91015 0 0 2.91015 0 6.5C0 9.96044 2.70411 12.7893 6.11452 12.9888L6.03698 11.9808C3.2161 11.7457 1 9.38163 1 6.5C1 3.46243 3.46243 1 6.5 1C9.53757 1 12 3.46243 12 6.5ZM3 6.5C3 8.22156 4.24295 9.65282 5.88041 9.94533L5.80005 8.90069C4.76002 8.59797 4 7.63774 4 6.5C4 5.11929 5.11929 4 6.5 4C7.88071 4 9 5.11929 9 6.5C9 6.55952 8.99792 6.61856 8.99383 6.67704L9.94297 7.13263C9.98043 6.92744 10 6.716 10 6.5C10 4.567 8.433 3 6.5 3C4.567 3 3 4.567 3 6.5ZM15.5 11L10.5 12L7.5 16L6.5 6.5L15.5 11ZM9.92924 11.0943L8.22792 13.3628L7.68561 8.21084L12.4459 10.591L9.92924 11.0943Z" fill="black"/>
</svg>
