<svg width="16" height="16" viewBox="0 0 16 16" fill="none" xmlns="http://www.w3.org/2000/svg">
<path fill-rule="evenodd" clip-rule="evenodd" d="M2.00673 2.88338C2.06449 2.38604 2.48716 2 3 2H13L13.1166 2.00673C13.614 2.06449 14 2.48716 14 3V10L13.9933 10.1166C13.9355 10.614 13.5128 11 13 11H6L2 14V3L2.00673 2.88338ZM13 3H3V12L5.66667 10H13V3ZM5 5.5C5 5.22386 5.22386 5 5.5 5H10.5C10.7761 5 11 5.22386 11 5.5C11 5.77614 10.7761 6 10.5 6H5.5C5.22386 6 5 5.77614 5 5.5ZM5.5 7C5.22386 7 5 7.22386 5 7.5C5 7.77614 5.22386 8 5.5 8H10.5C10.7761 8 11 7.77614 11 7.5C11 7.22386 10.7761 7 10.5 7H5.5Z" fill="black"/>
</svg>
