<svg width="16" height="16" viewBox="0 0 16 16" fill="none" xmlns="http://www.w3.org/2000/svg">
<path fill-rule="evenodd" clip-rule="evenodd" d="M7.5 1.5C7.5 1.22386 7.72386 1 8 1C8.27614 1 8.5 1.22386 8.5 1.5V4.3C8.5 4.57614 8.27614 4.8 8 4.8C7.72386 4.8 7.5 4.57614 7.5 4.3V1.5ZM13.5285 2.37431C13.74 2.55181 13.7676 2.86719 13.5901 3.07873L12.176 4.76403C11.9985 4.97556 11.6831 5.00316 11.4716 4.82566C11.26 4.64815 11.2325 4.33278 11.41 4.12124L12.8241 2.43594C13.0016 2.2244 13.317 2.19681 13.5285 2.37431ZM3.176 2.43594C2.9985 2.2244 2.68312 2.19681 2.47159 2.37431C2.26005 2.55181 2.23246 2.86719 2.40996 3.07873L3.82409 4.76403C4.00159 4.97556 4.31697 5.00316 4.52851 4.82566C4.74004 4.64815 4.76764 4.33278 4.59014 4.12124L3.176 2.43594ZM6.2444 10.6001L6.2446 10.6003L5.43041 10.6004L5.43037 10.6001L6.2444 10.6001ZM0.961195 9.80033L5.78717 9.8001L5.84149 9.8001C6.05225 9.80009 6.2 9.9896 6.2 10.2004C6.2 10.3378 6.21541 10.4717 6.2446 10.6003C6.4265 11.4017 7.14327 11.9999 7.99977 11.9999C8.85635 11.9999 9.57319 11.4016 9.75513 10.6001L10.5692 10.6001C10.3767 11.8461 9.29962 12.7999 7.99977 12.7999C6.69999 12.7999 5.62298 11.8462 5.43041 10.6004L0.8 10.6004V14.1999H15.2V10.6L9.75524 10.6C9.78443 10.4713 9.79984 10.3374 9.79984 10.2C9.79984 9.98921 9.94757 9.7997 10.1583 9.79971L10.2008 9.79971L15.0385 9.79994L12.7719 6.3999H3.22815L0.961195 9.80033ZM12.7719 5.6C13.0393 5.6 13.2891 5.73368 13.4375 5.95624L15.8656 9.59846C15.9532 9.72987 16 9.88428 16 10.0422V14.2C16 14.6418 15.6418 15 15.2 15H0.8C0.358172 15 0 14.6418 0 14.2V10.0422C0 9.88428 0.0467504 9.72987 0.13436 9.59846L2.56251 5.95624C2.71088 5.73368 2.96066 5.6 3.22815 5.6H12.7719Z" fill="black"/>
</svg>
