<svg width="16" height="16" viewBox="0 0 16 16" fill="none" xmlns="http://www.w3.org/2000/svg">
<path fill-rule="evenodd" clip-rule="evenodd" d="M15.2907 6.20759L8.00004 1L0.70942 6.20759C0.484713 6.36809 0.432668 6.68036 0.593172 6.90507C0.753677 7.12978 1.06595 7.18182 1.29066 7.02132L2 6.51465V15H13.9995V6.51424L14.7094 7.02132C14.9341 7.18182 15.2464 7.12978 15.4069 6.90507C15.5674 6.68036 15.5154 6.36809 15.2907 6.20759ZM12.9995 5.79995L8.00004 2.2289L3 5.80036L3 14H6L6 10H10L10 14H12.9995L12.9995 5.79995ZM9 14H7L7 11H9V14Z" fill="black"/>
</svg>
