<svg width="16" height="16" viewBox="0 0 16 16" fill="none" xmlns="http://www.w3.org/2000/svg">
<path fill-rule="evenodd" clip-rule="evenodd" d="M3.15439 3.15439C3.36025 2.94854 3.69401 2.94854 3.89987 3.15439L5.21684 4.47136C6.1299 4.15712 7.08459 4 8 4C10.6667 4 13.6667 5.33333 15 8C14.3037 9.39259 13.1529 10.4216 11.8324 11.0869L12.8456 12.1001C13.0515 12.306 13.0515 12.6397 12.8456 12.8456C12.6397 13.0515 12.306 13.0515 12.1001 12.8456L10.7832 11.5286C9.8701 11.8429 8.91541 12 8 12C5.33333 12 2.33333 10.6667 1 8C1.69629 6.60741 2.84711 5.57844 4.16762 4.91309L3.15439 3.89987C2.94854 3.69401 2.94854 3.36025 3.15439 3.15439ZM4.85199 5.59747C3.72554 6.08719 2.7815 6.8825 2 8C3.42198 10.0334 5.38214 11 8 11C8.72617 11 9.40174 10.9256 10.0292 10.7747L9.3555 10.101C8.96499 10.3534 8.49961 10.5 8 10.5C6.61929 10.5 5.5 9.38071 5.5 8C5.5 7.50039 5.64656 7.03501 5.89902 6.6445L4.85199 5.59747ZM11.148 10.4025C12.2745 9.91281 13.2185 9.1175 14 8C12.578 5.96664 10.6179 5 8 5C7.27383 5 6.59826 5.07438 5.97075 5.22527L6.6445 5.89902C7.03501 5.64656 7.50039 5.5 8 5.5C9.38071 5.5 10.5 6.61929 10.5 8C10.5 8.49961 10.3534 8.96499 10.101 9.3555L11.148 10.4025ZM6.5 8C6.5 7.77869 6.54793 7.56857 6.63398 7.37945L8.62055 9.36602C8.43143 9.45207 8.22131 9.5 8 9.5C7.17157 9.5 6.5 8.82843 6.5 8ZM7.37945 6.63398L9.36602 8.62055C9.45207 8.43143 9.5 8.22131 9.5 8C9.5 7.17157 8.82843 6.5 8 6.5C7.77869 6.5 7.56857 6.54793 7.37945 6.63398Z" fill="black"/>
</svg>
