<svg width="16" height="16" viewBox="0 0 16 16" fill="none" xmlns="http://www.w3.org/2000/svg">
<path d="M7.46667 1H8.53333V3H7.46667V1Z" fill="black"/>
<path d="M14.3083 3L15.0626 3.70711L13.5541 5.12132L12.7998 4.41421L14.3083 3Z" fill="black"/>
<path d="M13.8667 8H16V9H13.8667V8Z" fill="black"/>
<path d="M1.82083 3L1.06659 3.70711L2.57508 5.12132L3.32933 4.41421L1.82083 3Z" fill="black"/>
<path d="M0 8V9H2.13333V8H0Z" fill="black"/>
<path fill-rule="evenodd" clip-rule="evenodd" d="M12.8 8.5C12.8 10.0602 11.9531 11.435 10.6667 12.2422V15H5.33333V12.2422C4.04695 11.435 3.2 10.0602 3.2 8.5C3.2 6.01472 5.34903 4 8 4C10.651 4 12.8 6.01472 12.8 8.5ZM10.0733 11.4112L9.6 11.7082V14H6.4V11.7082L5.92668 11.4112C4.92347 10.7817 4.26667 9.71254 4.26667 8.5C4.26667 6.567 5.93814 5 8 5C10.0619 5 11.7333 6.567 11.7333 8.5C11.7333 9.71254 11.0765 10.7817 10.0733 11.4112Z" fill="black"/>
</svg>
