<svg width="16" height="16" viewBox="0 0 16 16" fill="none" xmlns="http://www.w3.org/2000/svg">
<path d="M4 4H6.5V5H4C2.34326 5 1 6.34314 1 8C1 9.65686 2.34326 11 4 11H6.5V12H4C1.79077 12 0 10.2091 0 8C0 5.79086 1.79077 4 4 4Z" fill="black"/>
<path d="M12 11H9.5V12H12C14.2092 12 16 10.2091 16 8C16 5.79086 14.2092 4 12 4H9.5V5H12C13.6567 5 15 6.34314 15 8C15 9.65686 13.6567 11 12 11Z" fill="black"/>
<path d="M5.5 7.5C5.22388 7.5 5 7.72385 5 8C5 8.27615 5.22388 8.5 5.5 8.5H10.5C10.7761 8.5 11 8.27615 11 8C11 7.72385 10.7761 7.5 10.5 7.5H5.5Z" fill="black"/>
</svg>
