<svg width="16" height="16" viewBox="0 0 16 16" fill="none" xmlns="http://www.w3.org/2000/svg">
<path fill-rule="evenodd" clip-rule="evenodd" d="M8.91439 2C8.70848 2.5826 8.15287 3 7.49978 3C6.84669 3 6.29109 2.5826 6.08518 2H0.499999C0.223857 2 0 1.77614 0 1.5C0 1.22386 0.223858 1 0.5 1H6.08518C6.29109 0.417404 6.84669 0 7.49978 0C8.15287 0 8.70848 0.417404 8.91439 1H13.4996C13.7757 1 13.9996 1.22386 13.9996 1.5C13.9996 1.77614 13.7757 2 13.4996 2H8.91439ZM0 8C0 7.72386 0.223858 7.5 0.5 7.5H1.08532C1.29123 6.9174 1.84684 6.5 2.49993 6.5C3.15302 6.5 3.70862 6.9174 3.91453 7.5H6.4998C6.77594 7.5 6.9998 7.72386 6.9998 8C6.9998 8.27614 6.77594 8.5 6.4998 8.5H3.91453C3.70862 9.0826 3.15302 9.5 2.49993 9.5C1.84684 9.5 1.29123 9.0826 1.08532 8.5H0.5C0.223857 8.5 0 8.27614 0 8ZM0 14.5C0 14.2239 0.223858 14 0.5 14H3.08526C3.29117 13.4174 3.84678 13 4.49987 13C5.15296 13 5.70856 13.4174 5.91447 14H6.4998C6.77594 14 6.9998 14.2239 6.9998 14.5C6.9998 14.7761 6.77594 15 6.4998 15H5.91447C5.70856 15.5826 5.15296 16 4.49987 16C3.84678 16 3.29117 15.5826 3.08526 15H0.5C0.223857 15 0 14.7761 0 14.5ZM15.8405 13.7635L14.3438 11.1654L15.7535 10.3488C15.827 10.3062 15.8884 10.2452 15.9315 10.1715C16.0703 9.93484 15.9915 9.62846 15.7555 9.48722L9.65156 6.11759C9.57331 6.07076 9.48393 6.04638 9.39316 6.04709C9.11944 6.04934 8.90075 6.27458 8.90469 6.55021L8.76157 13.5384C8.76279 13.6241 8.78592 13.7082 8.82871 13.7826C8.96634 14.0217 9.26973 14.1045 9.50637 13.9674L10.9161 13.1509L12.4128 15.7489C12.5505 15.9881 12.8538 16.0708 13.0905 15.9337L15.6612 14.4446C15.8979 14.3076 15.9781 14.0026 15.8405 13.7635ZM14.7344 13.8268L13.0206 14.8195L11.2746 11.7885L9.74058 12.677L9.90858 7.42942L14.5225 9.90717L12.9884 10.7957L14.7344 13.8268Z" fill="black"/>
</svg>
