<svg width="16" height="16" viewBox="0 0 16 16" fill="none" xmlns="http://www.w3.org/2000/svg">
<path fill-rule="evenodd" clip-rule="evenodd" d="M5.0033 4.40387L5.78134 5.18191C5.9766 5.37717 6.29318 5.37717 6.48844 5.18191C6.68371 4.98664 6.68371 4.67006 6.48844 4.4748L4.36712 2.35348C4.17186 2.15822 3.85528 2.15822 3.66002 2.35348C3.46476 2.54874 3.46476 2.86532 3.66002 3.06058L4.29055 3.69112C3.67471 4.46096 3.30646 5.43747 3.30646 6.5C3.30646 7.01478 3.3929 7.50938 3.55206 7.97006C3.86327 7.94297 4.20358 7.89651 4.5664 7.82605C4.39884 7.41707 4.30646 6.96932 4.30646 6.5C4.30646 5.71381 4.56568 4.98817 5.0033 4.40387ZM7.80646 3C7.40954 3 7.02805 3.06607 6.67238 3.18782L5.90489 2.42033C6.48252 2.15063 7.1269 2 7.80646 2C9.28292 2 10.5933 2.71105 11.4138 3.8094C11.1837 4.07064 10.9494 4.31656 10.712 4.54796C10.0834 3.61423 9.01668 3 7.80646 3ZM6.04512 9.52517C5.60311 9.65104 5.17603 9.74832 4.76992 9.82109C5.4547 10.4476 6.33387 10.865 7.30646 10.9725V13H5.80646C5.53032 13 5.30646 13.2239 5.30646 13.5C5.30646 13.7761 5.53032 14 5.80646 14H7.30646H8.30646H9.80646C10.0826 14 10.3065 13.7761 10.3065 13.5C10.3065 13.2239 10.0826 13 9.80646 13H8.30646V10.9725C10.5564 10.7238 12.3065 8.81628 12.3065 6.5C12.3065 6.27363 12.2897 6.05116 12.2575 5.83376C11.9432 6.14893 11.6234 6.44204 11.3 6.7144C11.1892 8.54755 9.66746 10 7.80646 10C7.16427 10 6.56248 9.82704 6.04512 9.52517ZM13.3939 3.21754C13.6217 3.37354 13.68 3.68615 13.5171 3.90913C10.061 8.63991 5.26769 9.81169 2.80493 9.78056C2.52881 9.77707 2.32696 9.53271 2.35223 9.25773C2.37751 8.98275 2.61939 8.78107 2.89554 8.7815C5.09303 8.78494 9.48804 7.7096 12.6917 3.34363C12.8551 3.121 13.166 3.06154 13.3939 3.21754Z" fill="black"/>
</svg>
