<svg width="16" height="16" viewBox="0 0 16 16" fill="none" xmlns="http://www.w3.org/2000/svg">
<path fill-rule="evenodd" clip-rule="evenodd" d="M7.5 1.5C7.5 1.22386 7.72386 1 8 1C8.27614 1 8.5 1.22386 8.5 1.5V3.02469C10.8622 3.25922 12.7408 5.13779 12.9753 7.5H14.5C14.7761 7.5 15 7.72386 15 8C15 8.27614 14.7761 8.5 14.5 8.5H12.9753C12.7408 10.8622 10.8622 12.7408 8.5 12.9753V14.5C8.5 14.7761 8.27614 15 8 15C7.72386 15 7.5 14.7761 7.5 14.5V12.9753C5.13779 12.7408 3.25922 10.8622 3.02469 8.5H1.5C1.22386 8.5 1 8.27614 1 8C1 7.72386 1.22386 7.5 1.5 7.5H3.02469C3.25922 5.13779 5.13779 3.25922 7.5 3.02469V1.5ZM11.9691 7.5H11.5C11.2239 7.5 11 7.72386 11 8C11 8.27614 11.2239 8.5 11.5 8.5H11.9691C11.7434 10.3094 10.3094 11.7434 8.5 11.9691V11.5C8.5 11.2239 8.27614 11 8 11C7.72386 11 7.5 11.2239 7.5 11.5V11.9691C5.69064 11.7434 4.25657 10.3094 4.03095 8.5H4.5C4.77614 8.5 5 8.27614 5 8C5 7.72386 4.77614 7.5 4.5 7.5H4.03095C4.25657 5.69064 5.69064 4.25657 7.5 4.03095V4.5C7.5 4.77614 7.72386 5 8 5C8.27614 5 8.5 4.77614 8.5 4.5V4.03095C10.3094 4.25657 11.7434 5.69064 11.9691 7.5Z" fill="black"/>
</svg>
