<svg width="16" height="16" viewBox="0 0 16 16" fill="none" xmlns="http://www.w3.org/2000/svg">
<path fill-rule="evenodd" clip-rule="evenodd" d="M8 8C9.65685 8 11 6.65685 11 5C11 3.34315 9.65685 2 8 2C6.34315 2 5 3.34315 5 5C5 6.65685 6.34315 8 8 8ZM12 5C12 7.20914 10.2091 9 8 9C4.41015 9 1.5 11.9101 1.5 15.5H0.5C0.5 12.1284 2.72471 9.27651 5.78624 8.33207C4.70951 7.61528 4 6.3905 4 5C4 2.79086 5.79086 1 8 1C10.2091 1 12 2.79086 12 5ZM10.9605 15.3951L15.3418 10.6925L14.6204 10L10.9235 13.9897L8.68394 11.8276L8 12.5572L10.9605 15.3951Z" fill="black"/>
</svg>
