<svg width="16" height="16" viewBox="0 0 16 16" fill="none" xmlns="http://www.w3.org/2000/svg">
<path fill-rule="evenodd" clip-rule="evenodd" d="M8 8C9.65685 8 11 6.65685 11 5C11 3.34315 9.65685 2 8 2C6.34315 2 5 3.34315 5 5C5 6.65685 6.34315 8 8 8ZM12 5C12 7.20914 10.2091 9 8 9C4.41015 9 1.5 11.9101 1.5 15.5H0.5C0.5 12.1284 2.72471 9.27651 5.78624 8.33207C4.70951 7.61528 4 6.3905 4 5C4 2.79086 5.79086 1 8 1C10.2091 1 12 2.79086 12 5ZM13 10.5V11.5H11V10.5C11 9.94772 11.4477 9.5 12 9.5C12.5523 9.5 13 9.94772 13 10.5ZM10 10.5V11.5H9V12.5V14.5V15.5H10H14H15V14.5V12.5V11.5H14V10.5C14 9.39543 13.1046 8.5 12 8.5C10.8954 8.5 10 9.39543 10 10.5ZM10 12.5V14.5H14V12.5H10Z" fill="black"/>
</svg>
