<svg width="16" height="16" viewBox="0 0 16 16" fill="none" xmlns="http://www.w3.org/2000/svg">
<path fill-rule="evenodd" clip-rule="evenodd" d="M13 6.13333C13 6.73102 12.7198 7.5936 12.1749 8.64337C11.6454 9.66358 10.9282 10.7449 10.1939 11.7451C9.46226 12.7418 8.72836 13.6381 8.17624 14.2862C8.11513 14.358 8.0563 14.4266 8 14.492C7.9437 14.4266 7.88487 14.358 7.82376 14.2862C7.27164 13.6381 6.53774 12.7418 5.8061 11.7451C5.0718 10.7449 4.35458 9.66358 3.82507 8.64337C3.28022 7.5936 3 6.73102 3 6.13333C3 3.27744 5.25918 1 8 1C10.7408 1 13 3.27744 13 6.13333ZM14 6.13333C14 8.81779 10.2317 13.4441 8.66784 15.2485C8.25835 15.721 8 16 8 16C8 16 7.74165 15.721 7.33216 15.2485C5.76828 13.4441 2 8.81779 2 6.13333C2 2.74599 4.68629 0 8 0C11.3137 0 14 2.74599 14 6.13333ZM10 5.5C10 6.60457 9.10457 7.5 8 7.5C6.89543 7.5 6 6.60457 6 5.5C6 4.39543 6.89543 3.5 8 3.5C9.10457 3.5 10 4.39543 10 5.5ZM11 5.5C11 7.15685 9.65685 8.5 8 8.5C6.34315 8.5 5 7.15685 5 5.5C5 3.84315 6.34315 2.5 8 2.5C9.65685 2.5 11 3.84315 11 5.5Z" fill="black"/>
</svg>
