<svg width="16" height="16" viewBox="0 0 16 16" fill="none" xmlns="http://www.w3.org/2000/svg">
<path fill-rule="evenodd" clip-rule="evenodd" d="M13 4C13 4 10.7335 3.83183 10 3.5C9.6152 3.32593 9.37176 3.02176 9.14035 2.73263C8.83681 2.35338 8.55397 2 8 2C7.44603 2 7.16319 2.35338 6.85965 2.73263C6.62824 3.02176 6.38479 3.32593 6 3.5C5.26648 3.83183 3 4 3 4C3 4 3.07699 7.84631 4 10C4.87022 12.0305 8 14 8 14C8 14 8.28772 13.8189 8.71295 13.51C9.23604 13.8213 9.84714 14 10.5 14C12.433 14 14 12.433 14 10.5C14 9.36796 13.4626 8.36146 12.6289 7.7217C12.9627 5.8629 13 4 13 4ZM11.7012 7.21157C11.7621 6.83225 11.8119 6.45078 11.8521 6.08363C11.9002 5.64357 11.9331 5.23861 11.9554 4.90337C11.8569 4.8921 11.7542 4.87981 11.6492 4.86648C11.3081 4.8232 10.9311 4.76772 10.5842 4.69911C10.2581 4.63461 9.88271 4.54451 9.58783 4.41111C8.96179 4.1279 8.55598 3.61027 8.33873 3.33316C8.30893 3.29514 8.28267 3.26165 8.25988 3.23391C8.04616 2.97379 8.01204 2.99343 8.00231 2.99903C8.00135 2.99959 8.00063 3 8 3C7.99937 3 7.99865 2.99959 7.99769 2.99903C7.98796 2.99343 7.95384 2.97379 7.74012 3.23391C7.71734 3.26164 7.6911 3.29511 7.66131 3.3331L7.6613 3.33312L7.66127 3.33316C7.44402 3.61027 7.03821 4.1279 6.41217 4.41111C6.11729 4.54451 5.74192 4.63461 5.41583 4.69911C5.06894 4.76772 4.69192 4.8232 4.35079 4.86648C4.24577 4.87981 4.14312 4.8921 4.04461 4.90337C4.06692 5.23861 4.09981 5.64357 4.14794 6.08363C4.28102 7.30027 4.51979 8.67425 4.91914 9.60608C5.25481 10.3893 6.09266 11.2616 6.96829 11.9947C7.2101 12.1972 7.44396 12.3802 7.65434 12.5382C7.24248 11.9641 7 11.2604 7 10.5C7 8.567 8.567 7 10.5 7C10.922 7 11.3266 7.07469 11.7012 7.21157ZM13 10.5C13 11.8807 11.8807 13 10.5 13C9.11929 13 8 11.8807 8 10.5C8 9.11929 9.11929 8 10.5 8C11.8807 8 13 9.11929 13 10.5Z" fill="black"/>
</svg>
