<svg width="16" height="16" viewBox="0 0 16 16" fill="none" xmlns="http://www.w3.org/2000/svg">
<path fill-rule="evenodd" clip-rule="evenodd" d="M8.94999 3C8.71836 4.14112 7.70948 5 6.5 5C5.29052 5 4.28164 4.14112 4.05001 3H0.5C0.223858 3 0 2.77614 0 2.5C0 2.22386 0.223858 2 0.5 2H4.05001C4.28164 0.85888 5.29052 0 6.5 0C7.70948 0 8.71836 0.85888 8.94999 2H15.5C15.7761 2 16 2.22386 16 2.5C16 2.77614 15.7761 3 15.5 3H8.94999ZM6.5 4C5.67157 4 5 3.32843 5 2.5C5 1.67157 5.67157 1 6.5 1C7.32843 1 8 1.67157 8 2.5C8 3.32843 7.32843 4 6.5 4ZM13.95 8.5C13.7184 9.64112 12.7095 10.5 11.5 10.5C10.2905 10.5 9.28164 9.64112 9.05001 8.5H0.5C0.223858 8.5 0 8.27614 0 8C0 7.72386 0.223858 7.5 0.5 7.5H9.05001C9.28164 6.35888 10.2905 5.5 11.5 5.5C12.7095 5.5 13.7184 6.35888 13.95 7.5H15.5C15.7761 7.5 16 7.72386 16 8C16 8.27614 15.7761 8.5 15.5 8.5H13.95ZM11.5 9.5C10.6716 9.5 10 8.82843 10 8C10 7.17157 10.6716 6.5 11.5 6.5C12.3284 6.5 13 7.17157 13 8C13 8.82843 12.3284 9.5 11.5 9.5ZM4.5 16C5.70948 16 6.71836 15.1411 6.94999 14H15.5C15.7761 14 16 13.7761 16 13.5C16 13.2239 15.7761 13 15.5 13H6.94999C6.71836 11.8589 5.70948 11 4.5 11C3.29052 11 2.28164 11.8589 2.05001 13H0.5C0.223858 13 0 13.2239 0 13.5C0 13.7761 0.223858 14 0.5 14H2.05001C2.28164 15.1411 3.29052 16 4.5 16ZM3 13.5C3 14.3284 3.67157 15 4.5 15C5.32843 15 6 14.3284 6 13.5C6 12.6716 5.32843 12 4.5 12C3.67157 12 3 12.6716 3 13.5Z" fill="black"/>
</svg>
