<svg width="16" height="16" viewBox="0 0 16 16" fill="none" xmlns="http://www.w3.org/2000/svg">
<path fill-rule="evenodd" clip-rule="evenodd" d="M8.33061 0.0846074L8.62803 0.285545C8.71415 0.345404 8.78724 0.398143 8.8473 0.443763C12.1233 2.93203 12.556 6.93075 9.70991 12.1836L9.49568 12.5714H6.60963C3.44991 6.95774 3.67893 2.89347 7.29669 0.378611C7.3799 0.320766 7.48903 0.249559 7.62406 0.16499L7.76772 0.0759564C7.93778 -0.028419 8.1648 -0.02493 8.33061 0.0846074ZM8.0264 1.21573L7.83881 1.35225C5.14009 3.36574 4.84496 6.52975 7.1355 11.0741L7.364 11.5158H8.7392L8.80682 11.39C11.1437 6.89294 10.8738 3.53344 8.26325 1.40047L8.0264 1.21573ZM12.8395 8.03745L11.991 8.84557L13.6238 10.355C13.7138 10.4408 13.7723 10.5509 13.792 10.6692L13.7995 10.7591V11.5043H11.1995V12.5714H14.1595C14.5848 12.5714 14.9362 12.2705 14.9918 11.88L14.9995 11.7714V10.7591C14.9995 10.3613 14.8543 9.97771 14.5919 9.67266L14.4723 9.54692L12.8395 8.03745ZM3.15997 8.03745L4.0085 8.84557L2.37574 10.355C2.28572 10.4408 2.22726 10.5509 2.20747 10.6692L2.2 10.7591V11.5043H4.8V12.5714H1.84C1.41474 12.5714 1.06329 12.2705 1.00767 11.88L1 11.7714V10.7591C1 10.3613 1.1452 9.97771 1.40764 9.67266L1.52721 9.54692L3.15997 8.03745ZM7.95649 6.85714C8.61123 6.85714 9.14199 6.34547 9.14199 5.71429C9.14199 5.0831 8.61123 4.57143 7.95649 4.57143C7.30176 4.57143 6.771 5.0831 6.771 5.71429C6.771 6.34547 7.30176 6.85714 7.95649 6.85714ZM8 13.5C7.72386 13.5 7.5 13.7239 7.5 14V15.5C7.5 15.7761 7.72386 16 8 16C8.27614 16 8.5 15.7761 8.5 15.5V14C8.5 13.7239 8.27614 13.5 8 13.5ZM5.5 14C5.5 13.7239 5.72386 13.5 6 13.5C6.27614 13.5 6.5 13.7239 6.5 14V14.5C6.5 14.7761 6.27614 15 6 15C5.72386 15 5.5 14.7761 5.5 14.5V14ZM10 13.5C9.72386 13.5 9.5 13.7239 9.5 14V14.5C9.5 14.7761 9.72386 15 10 15C10.2761 15 10.5 14.7761 10.5 14.5V14C10.5 13.7239 10.2761 13.5 10 13.5Z" fill="black"/>
</svg>
