<svg width="16" height="16" viewBox="0 0 16 16" fill="none" xmlns="http://www.w3.org/2000/svg">
<path fill-rule="evenodd" clip-rule="evenodd" d="M11.0858 2H3C2.44772 2 2 2.44772 2 3V13C2 13.5523 2.44772 14 3 14H13C13.5523 14 14 13.5523 14 13V4.91421L11.0858 2ZM3 1C1.89543 1 1 1.89543 1 3V13C1 14.1046 1.89543 15 3 15H13C14.1046 15 15 14.1046 15 13V4.91421C15 4.649 14.8946 4.39464 14.7071 4.20711L11.7929 1.29289C11.6054 1.10536 11.351 1 11.0858 1H3ZM9.875 4H4V6H9.875V4ZM4 3C3.44772 3 3 3.44772 3 4V6C3 6.55228 3.44772 7 4 7H9.875C10.4273 7 10.875 6.55228 10.875 6V4C10.875 3.44772 10.4273 3 9.875 3H4ZM10.0476 10.5C10.0476 11.3547 9.35473 12.0476 8.5 12.0476C7.64527 12.0476 6.95238 11.3547 6.95238 10.5C6.95238 9.64527 7.64527 8.95238 8.5 8.95238C9.35473 8.95238 10.0476 9.64527 10.0476 10.5ZM8.5 13C9.88071 13 11 11.8807 11 10.5C11 9.11929 9.88071 8 8.5 8C7.11929 8 6 9.11929 6 10.5C6 11.8807 7.11929 13 8.5 13Z" fill="black"/>
</svg>
