<svg width="16" height="16" viewBox="0 0 16 16" fill="none" xmlns="http://www.w3.org/2000/svg">
<path fill-rule="evenodd" clip-rule="evenodd" d="M1 0H10C10.5523 0 11 0.447715 11 1V5.02242C13.8033 5.27504 16 7.63098 16 10.5C16 13.5376 13.5376 16 10.5 16C7.63098 16 5.27504 13.8033 5.02242 11H1C0.447715 11 0 10.5523 0 10V1C0 0.447715 0.447715 0 1 0ZM10 5.02242C7.36143 5.2602 5.2602 7.36143 5.02242 10H1V1H10V5.02242ZM10.5 15C12.9853 15 15 12.9853 15 10.5C15 8.01472 12.9853 6 10.5 6C8.01472 6 6 8.01472 6 10.5C6 12.9853 8.01472 15 10.5 15Z" fill="black"/>
</svg>
