<svg width="16" height="16" viewBox="0 0 16 16" fill="none" xmlns="http://www.w3.org/2000/svg">
<path fill-rule="evenodd" clip-rule="evenodd" d="M8 2C8 0.89543 7.10457 0 6 0C4.89543 0 4 0.89543 4 2C4 3.10457 4.89543 4 6 4H4C2.89543 4 2 4.89543 2 6V10C2 10.5523 2.44772 11 3 11H4C4 11.5523 4.44772 12 5 12V7H4V10H3V6C3 5.44772 3.44772 5 4 5H7.184C7.31662 4.63149 7.51897 4.29198 7.78 4H6C7.10457 4 8 3.10457 8 2ZM6 3C5.44772 3 5 2.55228 5 2C5 1.44772 5.44772 1 6 1C6.55228 1 7 1.44772 7 2C6.99945 2.55206 6.55206 2.99945 6 3ZM12 6C12 4.89543 11.1046 4 10 4C8.89543 4 8 4.89543 8 6C8 7.10457 8.89543 8 10 8H8C6.89543 8 6 8.89543 6 10V14C6 14.5523 6.44772 15 7 15H8C8 15.5523 8.44772 16 9 16H11C11.5523 16 12 15.5523 12 15H13C13.5523 15 14 14.5523 14 14V10C14 8.89543 13.1046 8 12 8H10C11.1046 8 12 7.10457 12 6ZM9 6C9 6.55228 9.44772 7 10 7C10.5521 6.99945 10.9994 6.55206 11 6C11 5.44772 10.5523 5 10 5C9.44772 5 9 5.44772 9 6ZM13 14V11V10C13 9.44771 12.5523 9 12 9H8C7.44772 9 7 9.44771 7 10V14H8V11H9V15H11V11H12V14H13Z" fill="black"/>
</svg>
