<svg width="16" height="16" viewBox="0 0 16 16" fill="none" xmlns="http://www.w3.org/2000/svg">
<path fill-rule="evenodd" clip-rule="evenodd" d="M14.4 5C15.2837 5 16 5.67157 16 6.5V9.5C16 10.3284 15.2837 11 14.4 11H1.6C0.716344 11 0 10.3284 0 9.5V6.5C0 5.67157 0.716344 5 1.6 5H14.4ZM14.3999 5.375H1.59989C0.937152 5.375 0.399893 5.87868 0.399893 6.5V9.5C0.399893 10.1213 0.937152 10.625 1.59989 10.625H14.3999C15.0626 10.625 15.5999 10.1213 15.5999 9.5V6.5C15.5999 5.87868 15.0626 5.375 14.3999 5.375ZM5.55696 7.42101C5.42576 7.49601 5.33296 7.58601 5.27856 7.69101H5.26896V6.09801H4.81776V9.50001H5.26896V8.37051C5.26896 8.15751 5.32656 7.98726 5.44176 7.85976C5.55696 7.73226 5.70416 7.66851 5.88336 7.66851C5.98896 7.66851 6.07456 7.68651 6.14016 7.72251C6.20576 7.75851 6.25776 7.80651 6.29616 7.86651C6.33456 7.92651 6.36096 7.99551 6.37536 8.07351C6.38976 8.15151 6.39696 8.23401 6.39696 8.32101V9.50001H6.84816V8.17701C6.84816 8.05701 6.83136 7.94451 6.79776 7.83951C6.76416 7.73451 6.71216 7.64301 6.64176 7.56501C6.57136 7.48701 6.48336 7.42476 6.37776 7.37826C6.27216 7.33176 6.14576 7.30851 5.99856 7.30851C5.83536 7.30851 5.68816 7.34601 5.55696 7.42101ZM3.51687 6.6898C3.63207 6.7453 3.72327 6.81654 3.79047 6.90354L4.12647 6.59754C4.02087 6.48654 3.88167 6.39805 3.70887 6.33204C3.53607 6.26604 3.35047 6.23304 3.15207 6.23304C3.01127 6.23304 2.87127 6.25029 2.73207 6.2848C2.59287 6.3193 2.46807 6.37404 2.35767 6.44904C2.24727 6.52405 2.15767 6.61854 2.08887 6.73255C2.02007 6.84655 1.98567 6.98304 1.98567 7.14205C1.98567 7.28905 2.01127 7.41204 2.06247 7.51104C2.11367 7.61005 2.18087 7.69329 2.26407 7.76079C2.34727 7.8283 2.44167 7.88379 2.54727 7.92729C2.65287 7.9708 2.76007 8.00754 2.86887 8.03754L2.9758 8.0703L3.17847 8.13429C3.27607 8.1658 3.36167 8.20404 3.43527 8.24904C3.50887 8.29405 3.56727 8.34879 3.61047 8.4133C3.65367 8.4778 3.67527 8.55804 3.67527 8.65404C3.67527 8.75005 3.65447 8.83179 3.61287 8.8993C3.57127 8.9668 3.51767 9.02304 3.45207 9.06804C3.38647 9.11305 3.31367 9.14604 3.23367 9.16704C3.15367 9.18805 3.07367 9.19854 2.99367 9.19854C2.83687 9.19854 2.69127 9.16405 2.55687 9.09505C2.42247 9.02604 2.31527 8.93605 2.23527 8.82505L1.86567 9.11755C1.99687 9.27055 2.16247 9.38604 2.36247 9.46405C2.56247 9.54205 2.76967 9.58105 2.98407 9.58105C3.13447 9.58105 3.28087 9.56155 3.42327 9.52254C3.56567 9.48354 3.69127 9.4243 3.80007 9.3448C3.90887 9.2653 3.99607 9.1648 4.06167 9.04329C4.12727 8.92179 4.16007 8.77855 4.16007 8.61354C4.16007 8.45454 4.12967 8.3233 4.06887 8.21979C4.00807 8.11629 3.92967 8.03005 3.83367 7.96104C3.73767 7.89204 3.63047 7.83655 3.51207 7.79454C3.39367 7.75254 3.27687 7.71505 3.16167 7.68204L2.89047 7.5943C2.80567 7.56579 2.73207 7.5313 2.66967 7.4908C2.60727 7.45029 2.55767 7.4008 2.52087 7.34229C2.48407 7.28379 2.46567 7.21105 2.46567 7.12404C2.46567 7.03404 2.48567 6.9568 2.52567 6.8923C2.56567 6.82779 2.61767 6.7738 2.68167 6.73029C2.74567 6.68679 2.81687 6.6553 2.89527 6.63579C2.97367 6.61629 3.05127 6.60654 3.12807 6.60654C3.27207 6.60654 3.40167 6.63429 3.51687 6.6898ZM9.02724 8.11861C9.02724 7.95961 8.97604 7.84186 8.87364 7.76536C8.77124 7.68886 8.63524 7.65061 8.46564 7.65061C8.33764 7.65061 8.21684 7.67386 8.10324 7.72036C7.98964 7.76686 7.89444 7.82611 7.81764 7.89811L7.57764 7.62811C7.68964 7.52911 7.82644 7.45111 7.98804 7.39411C8.14964 7.33711 8.32324 7.30861 8.50884 7.30861C8.67204 7.30861 8.81364 7.33036 8.93364 7.37386C9.05364 7.41736 9.15204 7.47661 9.22884 7.55161C9.30564 7.62661 9.36324 7.71511 9.40164 7.81711C9.44004 7.91911 9.45924 8.02861 9.45924 8.14561V9.07711C9.45924 9.12511 9.4603 9.17477 9.46244 9.22611L9.46644 9.30436C9.47124 9.38386 9.48004 9.44911 9.49284 9.50011H9.08484C9.05924 9.39811 9.04644 9.29611 9.04644 9.19411H9.03204C8.94884 9.30811 8.84404 9.39661 8.71764 9.45961C8.59124 9.52261 8.44164 9.55411 8.26884 9.55411C8.17924 9.55411 8.08564 9.54286 7.98804 9.52036C7.89044 9.49786 7.80164 9.46111 7.72164 9.41011C7.64164 9.35911 7.57524 9.29161 7.52244 9.20761C7.46964 9.12361 7.44324 9.02011 7.44324 8.89711C7.44324 8.73511 7.48964 8.60686 7.58244 8.51236C7.67524 8.41786 7.79684 8.34586 7.94724 8.29636C8.09764 8.24686 8.26724 8.21461 8.45604 8.19961C8.64484 8.18461 8.83524 8.17711 9.02724 8.17711V8.11861ZM8.5689 8.49655C8.6889 8.48755 8.8049 8.48305 8.9169 8.48305H9.0273V8.59555C9.0273 8.77555 8.9705 8.92479 8.8569 9.04329C8.7433 9.1618 8.5809 9.22105 8.3697 9.22105C8.3121 9.22105 8.2561 9.2158 8.2017 9.2053C8.1473 9.19479 8.0977 9.17605 8.0529 9.14904C8.0081 9.12204 7.9721 9.08755 7.9449 9.04555C7.9177 9.00354 7.9041 8.95105 7.9041 8.88805C7.9041 8.79804 7.9361 8.72605 8.0001 8.67204C8.0641 8.61804 8.1449 8.57755 8.2425 8.55054C8.3401 8.52355 8.4489 8.50555 8.5689 8.49655ZM10.2128 9.50011V7.82611L10.2101 7.67001L10.208 7.60561C10.2048 7.51561 10.2 7.43611 10.1936 7.36711H10.6208C10.625 7.40311 10.6286 7.44277 10.6314 7.48611L10.6388 7.65004C10.6396 7.67892 10.64 7.70461 10.64 7.72711H10.6544C10.7184 7.60111 10.812 7.49986 10.9352 7.42336C11.0584 7.34686 11.1968 7.30861 11.3504 7.30861C11.4208 7.30861 11.48 7.31461 11.528 7.32661L11.5088 7.71811C11.4448 7.70311 11.376 7.69561 11.3024 7.69561C11.1936 7.69561 11.0992 7.71436 11.0192 7.75186C10.9392 7.78936 10.8728 7.83961 10.82 7.90261C10.7672 7.96561 10.728 8.03836 10.7024 8.12086C10.6768 8.20336 10.664 8.28961 10.664 8.37961V9.50011H10.2128ZM13.5705 8.00823C13.5977 8.08173 13.6129 8.16048 13.6161 8.24448H12.2625C12.2689 8.16048 12.2921 8.08173 12.3321 8.00823C12.3721 7.93473 12.4233 7.87098 12.4857 7.81698C12.5481 7.76298 12.6217 7.72023 12.7065 7.68873C12.7913 7.65723 12.8817 7.64148 12.9777 7.64148C13.0833 7.64148 13.1753 7.65723 13.2537 7.68873C13.3321 7.72023 13.3977 7.76298 13.4505 7.81698C13.5033 7.87098 13.5433 7.93473 13.5705 8.00823ZM14.072 8.41561V8.48761C14.072 8.51161 14.0704 8.53561 14.0672 8.55961H12.2624C12.2656 8.64961 12.2872 8.73436 12.3272 8.81386C12.3672 8.89336 12.4208 8.96236 12.488 9.02086C12.5552 9.07936 12.6328 9.12511 12.7208 9.15811C12.8088 9.19111 12.9024 9.20761 13.0016 9.20761C13.1552 9.20761 13.288 9.17611 13.4 9.11311C13.512 9.05011 13.6 8.97361 13.664 8.88361L13.9808 9.12211C13.8592 9.27211 13.716 9.38236 13.5512 9.45286C13.3864 9.52336 13.2032 9.55861 13.0016 9.55861C12.8288 9.55861 12.6688 9.53161 12.5216 9.47761C12.3744 9.42361 12.248 9.34786 12.1424 9.25036C12.0368 9.15286 11.9536 9.03511 11.8928 8.89711C11.832 8.75911 11.8016 8.60611 11.8016 8.43811C11.8016 8.27311 11.8312 8.12086 11.8904 7.98136C11.9496 7.84186 12.032 7.72261 12.1376 7.62361C12.2432 7.52461 12.368 7.44736 12.512 7.39186C12.656 7.33636 12.8112 7.30861 12.9776 7.30861C13.144 7.30861 13.2952 7.33411 13.4312 7.38511C13.5672 7.43611 13.6824 7.50961 13.7768 7.60561C13.8712 7.70161 13.944 7.81786 13.9952 7.95436C14.0464 8.09086 14.072 8.24461 14.072 8.41561Z" fill="black"/>
</svg>
