<svg width="16" height="16" viewBox="0 0 16 16" fill="none" xmlns="http://www.w3.org/2000/svg">
<path fill-rule="evenodd" clip-rule="evenodd" d="M8 6.25472e-08C3.58172 6.25472e-08 0 3.58172 0 8C0 12.4183 3.58172 16 8 16C12.4183 16 16 12.4183 16 8C16.0003 5.87819 15.1575 3.8432 13.6571 2.34285C12.1568 0.842504 10.1218 -0.000265089 8 6.25472e-08ZM11.83 3.162C11.897 3.402 11.84 3.632 11.557 3.632C11.6901 3.48192 11.7488 3.28005 11.717 3.082L11.7295 3.09062C11.7646 3.11491 11.8004 3.13965 11.829 3.162H11.83ZM11.4585 2.21219L11.458 2.212H11.459L11.4585 2.21219ZM11.4585 2.21219L11.665 2.284C11.5101 2.29418 11.3614 2.34906 11.237 2.442C11.2764 2.33835 11.3564 2.25533 11.4585 2.21219ZM7.792 1.01C8.00448 0.991022 8.21839 0.995045 8.43 1.022L8.376 1.105C8.35228 1.10423 8.31762 1.10275 8.27632 1.10099L8.2763 1.10099C8.10345 1.09362 7.8142 1.08128 7.723 1.095C7.76279 1.05466 7.76366 1.05206 7.76512 1.04768C7.76634 1.04402 7.76798 1.03911 7.793 1.01H7.792ZM2.113 11.777C2.24109 11.9772 2.37927 12.1708 2.527 12.357C2.5744 12.2916 2.63021 12.2328 2.693 12.182C2.50687 12.037 2.31327 11.9018 2.113 11.777ZM10.133 14.667C7.64841 15.4645 4.92647 14.8108 3.075 12.972C3.072 12.902 3.075 12.892 3.134 12.85C4.134 12.158 3.646 11.817 2.079 10.803C1.956 10.719 1.9 10.671 1.889 10.638C1.84026 9.55785 1.82024 9.52267 1.65297 9.22882C1.56288 9.07053 1.43005 8.83718 1.227 8.325C1.16942 8.17471 1.09495 8.03146 1.005 7.898C1.02838 6.14648 1.71068 4.46805 2.916 3.197C3.01558 3.19829 3.10737 3.20298 3.19231 3.20732L3.19232 3.20732C3.63283 3.22984 3.88912 3.24293 4.092 2.724C4.107 2.684 4.152 2.564 4.165 2.603C4.32143 2.61194 4.43756 2.6406 4.53391 2.66439C4.86872 2.74703 4.96471 2.77073 5.683 1.703C5.75548 1.59283 5.80858 1.47108 5.84 1.343C6.04 1.278 6.245 1.224 6.453 1.177C5.988 1.8 6.316 2.272 6.772 2.272C6.83571 2.272 6.99108 2.20463 7.17354 2.12551C7.39492 2.02953 7.65617 1.91625 7.842 1.885C7.92116 1.88891 7.99416 1.89379 8.06204 1.89834C8.51554 1.92871 8.74031 1.94376 9.043 1.548C9.12573 1.39766 9.22647 1.25796 9.343 1.132C9.87674 1.23673 10.3963 1.40388 10.891 1.63C10.5971 1.85446 10.569 1.95174 10.532 2.07945C10.5051 2.1725 10.4735 2.2817 10.331 2.468C9.997 2.912 10.314 3.271 10.756 3.606C10.6556 3.67809 10.5619 3.75908 10.476 3.848C10.4403 3.71877 10.3616 3.60556 10.253 3.527C10.2346 3.35049 10.1468 3.18852 10.009 3.07674C9.87112 2.96496 9.69451 2.91254 9.518 2.931C9.26829 2.98273 9.0787 3.18688 9.04558 3.43973C9.01245 3.69259 9.14304 3.93869 9.371 4.053C9.38022 4.25048 9.49059 4.42926 9.663 4.526C9.51804 4.7399 9.56605 4.89911 9.62819 5.10515C9.63635 5.13221 9.64476 5.16009 9.653 5.189C9.6301 5.189 9.57114 5.17562 9.50514 5.16065C9.42126 5.14161 9.32601 5.12 9.279 5.12C8.559 5.12 8.494 6.335 8.819 6.663C8.08483 7.29495 8.01654 7.43893 7.92387 7.6343L7.92384 7.63436C7.9168 7.6492 7.90962 7.66433 7.902 7.68C7.1888 7.94523 6.69937 8.60643 6.654 9.366C6.654 9.59629 6.57513 9.68146 6.49411 9.76894C6.43089 9.8372 6.36637 9.90687 6.337 10.048C6.235 10.533 6.483 10.776 6.772 11.054C6.91285 11.1909 6.95916 11.321 7.00745 11.4567C7.06887 11.6293 7.13351 11.8109 7.4 12.027C7.91789 12.4589 8.20543 12.4153 8.80443 12.3245C8.86701 12.315 8.933 12.305 9.003 12.295C9.42636 12.2234 9.86124 12.2698 10.26 12.429C10.35 12.45 10.441 12.486 10.36 12.727C10.2241 12.9738 10.2796 13.2821 10.493 13.466C10.5545 13.5113 10.5943 13.5801 10.603 13.656C10.6341 14.0535 10.5503 14.1399 10.4167 14.2774C10.3356 14.361 10.2362 14.4634 10.133 14.666V14.667ZM10.716 5.855L10.516 5.757L10.629 5.966C10.5501 6.08611 10.4416 6.18391 10.314 6.25C10.2887 6.30047 10.2571 6.34751 10.22 6.39C10.239 6.415 10.151 6.55 10.131 6.575C10.813 6.424 11.861 6.498 11.761 7.191C11.9473 7.39572 12.1903 7.5405 12.459 7.607C12.5442 7.32948 12.8359 7.17121 13.115 7.251C13.1866 7.251 13.2575 7.28539 13.3274 7.31932C13.3737 7.34178 13.4196 7.36405 13.465 7.376C13.6452 7.36265 13.8214 7.31656 13.985 7.24C13.9666 7.14228 13.9371 7.04699 13.897 6.956C13.8002 6.93165 13.711 6.92455 13.6274 6.91791C13.4434 6.90327 13.2872 6.89084 13.14 6.701C12.9584 6.81793 12.7276 6.82687 12.5375 6.72433C12.3474 6.62179 12.228 6.42399 12.226 6.208C12.131 6.08295 12.0219 5.96921 11.901 5.869C11.575 6.19321 11.3802 6.06716 11.0715 5.86742C11.0393 5.84661 11.0059 5.82499 10.971 5.803C10.8825 5.7825 10.7894 5.80148 10.716 5.855ZM9.52 5.979L9.51946 5.97991L9.461 5.97C9.458 6.015 9.456 6.062 9.456 6.117C9.47237 6.06924 9.49363 6.02329 9.51946 5.97991L9.52 5.98V5.979ZM11.3644 14.1378C11.3642 14.1382 11.3641 14.1386 11.364 14.139V14.138C11.3641 14.1379 11.3642 14.1379 11.3644 14.1378ZM11.123 12.966C11.3977 13.2901 11.4886 13.7316 11.3644 14.1378C13.4587 12.9902 14.8227 10.8533 14.9819 8.47043C15.1411 6.08744 14.0733 3.78796 12.15 2.372C12.1424 2.37248 12.1352 2.37499 12.1281 2.37749C12.1202 2.38025 12.1124 2.383 12.104 2.383C13.326 3.055 12.323 5.026 11.144 4.318C10.9771 4.5289 10.722 4.65073 10.453 4.648C10.4419 4.72276 10.42 4.79552 10.388 4.864C10.3993 4.89656 10.4103 4.92923 10.421 4.962C10.5425 4.94756 10.6657 4.96125 10.781 5.002C11.031 4.96691 11.2846 5.03276 11.486 5.185C12.071 4.83 12.719 5.364 12.974 5.918C13.2331 5.8629 13.5027 5.93966 13.694 6.123C14.0811 6.08464 14.4522 6.28745 14.629 6.634C14.682 6.74226 14.7197 6.85736 14.741 6.976V6.975C15.055 7.877 13.798 8.385 13.095 8.093C12.524 8.842 11.107 8.1 10.974 7.33C10.7872 7.31819 10.6139 7.33325 10.4526 7.34727C10.0812 7.37954 9.77323 7.40631 9.509 7.087C9.42431 7.21404 9.14667 7.46931 8.94953 7.65057C8.83475 7.7561 8.74726 7.83655 8.741 7.852C8.56032 8.32777 8.33306 8.39969 8.11077 8.47003C7.86678 8.54725 7.62879 8.62257 7.465 9.228C7.43549 9.35436 7.42875 9.46077 7.42248 9.55988C7.40835 9.78314 7.39656 9.96935 7.132 10.263C7.37216 10.4869 7.56673 10.7552 7.705 11.053C7.87658 11.6376 8.28123 11.5842 8.80567 11.5151C9.15234 11.4694 9.55135 11.4168 9.97 11.537C10.0448 11.5627 10.3016 11.6189 10.4022 11.6409C10.4266 11.6463 10.4418 11.6496 10.443 11.65C10.7242 11.7088 10.964 11.8911 11.0958 12.1464C11.2277 12.4016 11.2377 12.7026 11.123 12.966Z" fill="black"/>
</svg>
