<svg width="16" height="16" viewBox="0 0 16 16" fill="none" xmlns="http://www.w3.org/2000/svg">
<path fill-rule="evenodd" clip-rule="evenodd" d="M3.5 7C5.433 7 7 5.433 7 3.5C7 1.567 5.433 0 3.5 0C1.567 0 0 1.567 0 3.5C0 5.433 1.567 7 3.5 7ZM3.5 6C4.88071 6 6 4.88071 6 3.5C6 2.11929 4.88071 1 3.5 1C2.11929 1 1 2.11929 1 3.5C1 4.88071 2.11929 6 3.5 6Z" fill="black"/>
<path fill-rule="evenodd" clip-rule="evenodd" d="M7 12.5C7 14.433 5.433 16 3.5 16C1.567 16 0 14.433 0 12.5C0 10.567 1.567 9 3.5 9C5.433 9 7 10.567 7 12.5ZM6 12.5C6 13.8807 4.88071 15 3.5 15C2.11929 15 1 13.8807 1 12.5C1 11.1193 2.11929 10 3.5 10C4.88071 10 6 11.1193 6 12.5Z" fill="black"/>
<path fill-rule="evenodd" clip-rule="evenodd" d="M16 12.5C16 14.433 14.433 16 12.5 16C10.567 16 9 14.433 9 12.5C9 10.567 10.567 9 12.5 9C14.433 9 16 10.567 16 12.5ZM15 12.5C15 13.8807 13.8807 15 12.5 15C11.1193 15 10 13.8807 10 12.5C10 11.1193 11.1193 10 12.5 10C13.8807 10 15 11.1193 15 12.5Z" fill="black"/>
<path fill-rule="evenodd" clip-rule="evenodd" d="M16 3.5C16 5.433 14.433 7 12.5 7C10.567 7 9 5.433 9 3.5C9 1.567 10.567 0 12.5 0C14.433 0 16 1.567 16 3.5ZM15 3.5C15 4.88071 13.8807 6 12.5 6C11.1193 6 10 4.88071 10 3.5C10 2.11929 11.1193 1 12.5 1C13.8807 1 15 2.11929 15 3.5Z" fill="black"/>
</svg>
