<svg width="16" height="16" viewBox="0 0 16 16" fill="none" xmlns="http://www.w3.org/2000/svg">
<path fill-rule="evenodd" clip-rule="evenodd" d="M3 2.5C3 3.32843 2.32843 4 1.5 4C0.671573 4 0 3.32843 0 2.5C0 1.67157 0.671573 1 1.5 1C2.32843 1 3 1.67157 3 2.5ZM5.5 2C5.22386 2 5 2.22386 5 2.5C5 2.77614 5.22386 3 5.5 3H15.5C15.7761 3 16 2.77614 16 2.5C16 2.22386 15.7761 2 15.5 2H5.5ZM5 8.5C5 8.22386 5.22386 8 5.5 8H15.5C15.7761 8 16 8.22386 16 8.5C16 8.77614 15.7761 9 15.5 9H5.5C5.22386 9 5 8.77614 5 8.5ZM5.5 14C5.22386 14 5 14.2239 5 14.5C5 14.7761 5.22386 15 5.5 15H15.5C15.7761 15 16 14.7761 16 14.5C16 14.2239 15.7761 14 15.5 14H5.5ZM1.5 10C2.32843 10 3 9.32843 3 8.5C3 7.67157 2.32843 7 1.5 7C0.671573 7 0 7.67157 0 8.5C0 9.32843 0.671573 10 1.5 10ZM3 14.5C3 15.3284 2.32843 16 1.5 16C0.671573 16 0 15.3284 0 14.5C0 13.6716 0.671573 13 1.5 13C2.32843 13 3 13.6716 3 14.5Z" fill="black"/>
</svg>
