<svg width="16" height="16" viewBox="0 0 16 16" fill="none" xmlns="http://www.w3.org/2000/svg">
<path fill-rule="evenodd" clip-rule="evenodd" d="M8 12C5.33333 12 2.33333 10.6667 1 8C2.33333 5.33333 5.33333 4 8 4C10.6667 4 13.6667 5.33333 15 8C13.6667 10.6667 10.6667 12 8 12ZM8 5C5.38214 5 3.42198 5.96664 2 8C3.42198 10.0334 5.38214 11 8 11C10.6179 11 12.578 10.0334 14 8C12.578 5.96664 10.6179 5 8 5ZM8 10.5C6.61929 10.5 5.5 9.38071 5.5 8C5.5 6.61929 6.61929 5.5 8 5.5C9.38071 5.5 10.5 6.61929 10.5 8C10.5 9.38071 9.38071 10.5 8 10.5ZM8 9.5C8.82843 9.5 9.5 8.82843 9.5 8C9.5 7.17157 8.82843 6.5 8 6.5C7.17157 6.5 6.5 7.17157 6.5 8C6.5 8.82843 7.17157 9.5 8 9.5Z" fill="black"/>
</svg>
